<svg width="16" height="16" viewBox="0 0 16 16" fill="none" xmlns="http://www.w3.org/2000/svg">
<path d="M0.5 15C0.5 15.2761 0.723858 15.5 1 15.5C1.27614 15.5 1.5 15.2761 1.5 15H0.5ZM1.5 7.75862C1.5 7.48248 1.27614 7.25862 1 7.25862C0.723858 7.25862 0.5 7.48248 0.5 7.75862H1.5ZM5.225 15C5.225 15.2761 5.44886 15.5 5.725 15.5C6.00114 15.5 6.225 15.2761 6.225 15H5.225ZM6.225 1C6.225 0.723858 6.00114 0.5 5.725 0.5C5.44886 0.5 5.225 0.723858 5.225 1H6.225ZM9.775 15C9.775 15.2761 9.99886 15.5 10.275 15.5C10.5511 15.5 10.775 15.2761 10.775 15H9.775ZM10.775 5.34483C10.775 5.06869 10.5511 4.84483 10.275 4.84483C9.99886 4.84483 9.775 5.06869 9.775 5.34483H10.775ZM14.5 15C14.5 15.2761 14.7239 15.5 15 15.5C15.2761 15.5 15.5 15.2761 15.5 15H14.5ZM15.5 9.36782C15.5 9.09167 15.2761 8.86782 15 8.86782C14.7239 8.86782 14.5 9.09167 14.5 9.36782H15.5ZM1.5 15V7.75862H0.5V15H1.5ZM6.225 15V1H5.225V15H6.225ZM10.775 15V5.34483H9.775V15H10.775ZM15.5 15V9.36782H14.5V15H15.5Z" fill="#4785E7"/>
</svg>
