<svg width="22" height="14" viewBox="0 0 22 14" fill="none" xmlns="http://www.w3.org/2000/svg">
<path d="M11.7136 7.41066C11.5163 7.31133 11.2758 7.39078 11.1765 7.58811C11.0772 7.78543 11.1566 8.02592 11.354 8.12524L11.7136 7.41066ZM15.5176 8.00865L15.6908 7.64806L15.5176 8.00865ZM13.9343 6.79928C13.7356 6.7028 13.4963 6.78569 13.3998 6.98442C13.3033 7.18316 13.3862 7.42247 13.585 7.51895L13.9343 6.79928ZM14.426 10.8971L14.2445 11.2535L14.426 10.8971ZM10.6582 8.59688C10.4591 8.50106 10.2201 8.58475 10.1243 8.7838C10.0284 8.98285 10.1121 9.22189 10.3112 9.31771L10.6582 8.59688ZM13.1784 11.9873L13.3584 11.6301L13.1784 11.9873ZM9.90845 9.91447C9.70984 9.81772 9.47041 9.90029 9.37367 10.0989C9.27692 10.2975 9.35949 10.5369 9.5581 10.6337L9.90845 9.91447ZM12.2427 11.5059L12.4215 11.1481L12.4204 11.1476L12.2427 11.5059ZM11.5196 12.8793L11.697 12.5208L11.5196 12.8793ZM7.57831 10.9537L7.74638 10.5907L7.57831 10.9537ZM1 6.74851L0.642323 6.56944C0.594574 6.66481 0.586892 6.7753 0.620985 6.87637C0.655078 6.97743 0.728121 7.06069 0.823885 7.10765L1 6.74851ZM3.87801 1L4.04794 0.637888C3.85153 0.545722 3.61746 0.626928 3.52033 0.820928L3.87801 1ZM6.23146 2.10439L6.59018 2.28136C6.63771 2.18501 6.64449 2.07358 6.60897 1.97218C6.57346 1.87078 6.49865 1.78792 6.40138 1.74228L6.23146 2.10439ZM11.5338 7.76795C11.354 8.12524 11.354 8.12525 11.354 8.12526C11.354 8.12527 11.354 8.12528 11.3541 8.1253C11.3541 8.12533 11.3543 8.12539 11.3544 8.12546C11.3547 8.1256 11.3551 8.12581 11.3556 8.12609C11.3567 8.12664 11.3584 8.12747 11.3606 8.12856C11.3649 8.13074 11.3713 8.13397 11.3797 8.1382C11.3966 8.14666 11.4214 8.15912 11.4533 8.17514C11.5171 8.20718 11.6094 8.25346 11.7235 8.31048C11.9516 8.42453 12.2667 8.5816 12.6146 8.75371C13.3089 9.09707 14.1399 9.50319 14.6709 9.74587L15.0034 9.01826C14.4851 8.78137 13.6644 8.38044 12.9693 8.03663C12.6226 7.86516 12.3086 7.70862 12.0813 7.59495C11.9676 7.53811 11.8756 7.49201 11.8121 7.46013C11.7804 7.44419 11.7557 7.43181 11.739 7.42341C11.7307 7.41922 11.7243 7.41602 11.72 7.41388C11.7179 7.4128 11.7163 7.41199 11.7152 7.41146C11.7147 7.41119 11.7143 7.41098 11.714 7.41085C11.7139 7.41078 11.7138 7.41073 11.7137 7.4107C11.7137 7.41069 11.7137 7.41067 11.7137 7.41067C11.7136 7.41066 11.7136 7.41066 11.5338 7.76795ZM14.6709 9.74587C15.3148 10.0402 15.9534 9.69681 16.2318 9.23757C16.3766 8.99878 16.4497 8.69348 16.3626 8.38399C16.2735 8.06769 16.0363 7.81397 15.6908 7.64806L15.3445 8.36924C15.5306 8.4586 15.5788 8.55198 15.5925 8.60078C15.6081 8.6564 15.6015 8.73423 15.5478 8.82276C15.4293 9.01817 15.196 9.10626 15.0034 9.01826L14.6709 9.74587ZM15.6908 7.64806C15.3227 7.47135 14.8837 7.25919 14.5365 7.09111C14.3629 7.00709 14.2123 6.93412 14.1052 6.88216C14.0516 6.85618 14.0089 6.83546 13.9796 6.82123C13.9649 6.81411 13.9536 6.80862 13.9459 6.80491C13.9421 6.80306 13.9392 6.80165 13.9373 6.8007C13.9363 6.80023 13.9356 6.79987 13.9351 6.79964C13.9348 6.79952 13.9346 6.79943 13.9345 6.79937C13.9345 6.79934 13.9344 6.79932 13.9344 6.7993C13.9344 6.79929 13.9344 6.79929 13.9344 6.79928C13.9343 6.79928 13.9343 6.79928 13.7596 7.15912C13.585 7.51895 13.585 7.51896 13.585 7.51896C13.585 7.51896 13.585 7.51897 13.585 7.51898C13.585 7.51899 13.5851 7.51902 13.5851 7.51905C13.5853 7.51911 13.5855 7.5192 13.5857 7.51932C13.5862 7.51956 13.5869 7.51992 13.5879 7.52039C13.5899 7.52135 13.5928 7.52276 13.5966 7.52462C13.6043 7.52834 13.6156 7.53385 13.6303 7.54098C13.6597 7.55523 13.7025 7.57599 13.7561 7.602C13.8634 7.65402 14.0141 7.72706 14.1879 7.81118C14.5354 7.97937 14.9753 8.19197 15.3445 8.36924L15.6908 7.64806ZM14.692 9.75481C15.0564 9.89667 15.2261 10.0619 15.2962 10.18C15.3615 10.2899 15.3534 10.3758 15.3254 10.4375C15.2694 10.5607 15.0198 10.7505 14.6075 10.5406L14.2445 11.2535C14.9806 11.6283 15.773 11.3862 16.0537 10.7686C16.194 10.4599 16.178 10.0981 15.9841 9.77154C15.7951 9.45321 15.4543 9.19311 14.9822 9.00931L14.692 9.75481ZM14.6075 10.5406C13.8387 10.1492 12.8509 9.66305 12.0566 9.27537C11.6591 9.08139 11.3096 8.91181 11.0595 8.79072C10.9344 8.73017 10.8341 8.68173 10.7651 8.64842C10.7306 8.63177 10.7039 8.6189 10.6858 8.61018C10.6767 8.60582 10.6698 8.6025 10.6652 8.60027C10.6629 8.59915 10.6611 8.59831 10.66 8.59774C10.6594 8.59746 10.6589 8.59725 10.6586 8.5971C10.6585 8.59703 10.6584 8.59697 10.6583 8.59694C10.6582 8.59692 10.6582 8.5969 10.6582 8.5969C10.6582 8.59689 10.6582 8.59688 10.4847 8.95729C10.3112 9.31771 10.3112 9.31771 10.3112 9.31772C10.3112 9.31773 10.3112 9.31774 10.3113 9.31776C10.3113 9.31779 10.3115 9.31784 10.3116 9.31791C10.3119 9.31805 10.3123 9.31826 10.3129 9.31853C10.314 9.31909 10.3158 9.31992 10.3181 9.32102C10.3226 9.32323 10.3295 9.32652 10.3384 9.33085C10.3564 9.33951 10.383 9.35232 10.4174 9.36892C10.4861 9.4021 10.5861 9.4504 10.7109 9.5108C10.9605 9.6316 11.3092 9.80079 11.7057 9.99431C12.4992 10.3816 13.4821 10.8653 14.2445 11.2535L14.6075 10.5406ZM14.2445 11.2535C14.2706 11.2668 14.2966 11.2928 14.3048 11.3569C14.3138 11.4268 14.2951 11.52 14.2385 11.6021C14.1857 11.6787 14.102 11.7427 13.9779 11.7658C13.8511 11.7894 13.648 11.7761 13.3584 11.6301L12.9984 12.3445C13.4034 12.5486 13.7852 12.6155 14.1245 12.5522C14.4665 12.4885 14.7301 12.2984 14.897 12.0564C15.0601 11.8199 15.1336 11.53 15.0983 11.255C15.0622 10.9742 14.9075 10.6933 14.6075 10.5406L14.2445 11.2535ZM13.3584 11.6301C13.151 11.5256 12.642 11.2583 12.4215 11.1481L12.0638 11.8637C12.3241 11.9938 12.7257 12.2071 12.9984 12.3445L13.3584 11.6301ZM12.4204 11.1476C11.8907 10.8848 11.2626 10.5765 10.7673 10.334C10.5195 10.2127 10.3049 10.1079 10.1521 10.0333C10.0757 9.99603 10.0148 9.96633 9.97303 9.94595C9.95212 9.93575 9.93598 9.92789 9.92507 9.92257C9.91961 9.91991 9.91546 9.91789 9.91267 9.91653C9.91128 9.91585 9.91022 9.91534 9.90952 9.91499C9.90916 9.91482 9.9089 9.91469 9.90872 9.9146C9.90863 9.91456 9.90856 9.91453 9.90851 9.9145C9.90849 9.91449 9.90847 9.91448 9.90846 9.91448C9.90845 9.91447 9.90845 9.91447 9.73327 10.2741C9.5581 10.6337 9.5581 10.6337 9.55811 10.6337C9.55812 10.6337 9.55814 10.6337 9.55816 10.6337C9.5582 10.6337 9.55827 10.6338 9.55835 10.6338C9.55853 10.6339 9.55879 10.634 9.55914 10.6342C9.55983 10.6345 9.56088 10.635 9.56226 10.6357C9.56503 10.6371 9.56916 10.6391 9.5746 10.6417C9.58547 10.647 9.60156 10.6549 9.62242 10.665C9.66414 10.6854 9.72494 10.715 9.8012 10.7522C9.95373 10.8267 10.1681 10.9314 10.4155 11.0525C10.9105 11.2948 11.5371 11.6024 12.0649 11.8642L12.4204 11.1476ZM12.062 11.8628C12.2579 11.9619 12.3344 12.076 12.3622 12.1574C12.391 12.2417 12.3818 12.3303 12.3396 12.4085C12.2646 12.5477 12.0509 12.6958 11.697 12.5208L11.3423 13.2378C12.0583 13.5921 12.7519 13.3298 13.0439 12.7881C13.1852 12.5259 13.2244 12.2065 13.1192 11.8987C13.0131 11.5881 12.7733 11.3262 12.4233 11.149L12.062 11.8628ZM11.697 12.5208C10.1863 11.7735 9.31212 11.3157 7.74638 10.5907L7.41024 11.3167C8.96352 12.0359 9.81894 12.4843 11.3423 13.2378L11.697 12.5208ZM7.74638 10.5907C6.51853 10.0222 5.49545 9.28333 4.7777 8.68395C4.41953 8.38485 4.13922 8.12203 3.9494 7.93501C3.85453 7.84154 3.78239 7.76713 3.73455 7.71674C3.71064 7.69155 3.6928 7.67237 3.68126 7.65983C3.67548 7.65356 3.67128 7.64896 3.66868 7.64608C3.66737 7.64465 3.66647 7.64365 3.66597 7.64309C3.66572 7.64282 3.66557 7.64265 3.66552 7.64259C3.66549 7.64257 3.66549 7.64257 3.66552 7.6426C3.66553 7.64261 3.66557 7.64265 3.66558 7.64266C3.66562 7.64271 3.66567 7.64277 3.36762 7.90954C3.06957 8.17631 3.06964 8.17638 3.06971 8.17646C3.06974 8.17649 3.06982 8.17658 3.06988 8.17665C3.07001 8.17679 3.07016 8.17696 3.07034 8.17716C3.0707 8.17756 3.07116 8.17807 3.07172 8.1787C3.07285 8.17995 3.07439 8.18165 3.07633 8.18378C3.08021 8.18806 3.08571 8.19409 3.09281 8.2018C3.107 8.21721 3.12759 8.23934 3.15438 8.26755C3.20794 8.32397 3.28632 8.40476 3.38794 8.50488C3.5911 8.70504 3.88764 8.98294 4.26492 9.298C5.01807 9.92693 6.10033 10.7101 7.41024 11.3167L7.74638 10.5907ZM3.54374 7.55039L1.17612 6.38937L0.823885 7.10765L3.19151 8.26868L3.54374 7.55039ZM1.35768 6.92758L4.23569 1.17907L3.52033 0.820928L0.642323 6.56944L1.35768 6.92758ZM3.70808 1.36211L6.06153 2.4665L6.40138 1.74228L4.04794 0.637888L3.70808 1.36211ZM5.87273 1.92743L3.0089 7.73257L3.72635 8.0865L6.59018 2.28136L5.87273 1.92743Z" fill="#4785E7"/>
<path d="M15.4673 6.08921C15.6796 6.02792 15.8019 5.80618 15.7406 5.59394C15.6794 5.3817 15.4576 5.25933 15.2454 5.32062L15.4673 6.08921ZM11.1158 3.91189L11.4815 3.74974C11.3991 3.56406 11.1907 3.46957 10.9968 3.53L11.1158 3.91189ZM8.82405 4.6291L8.94325 5.01093L8.82405 4.6291ZM7 3.46721L6.87958 3.08577C6.70496 3.1409 6.59007 3.30756 6.60067 3.49036L7 3.46721ZM12.2851 1.78893L12.1631 1.408L12.2851 1.78893ZM15.902 1.86066L15.7823 1.47899L15.902 1.86066ZM18.6459 1L19.0191 0.856203C18.9433 0.659294 18.7275 0.555181 18.5262 0.618335L18.6459 1ZM21 7.11066L21.1227 7.49137C21.2274 7.45764 21.3135 7.3823 21.3609 7.28307C21.4083 7.18384 21.4128 7.06948 21.3733 6.96686L21 7.11066ZM18.2405 8L17.8667 8.14238C17.9425 8.34125 18.1607 8.446 18.3632 8.38072L18.2405 8ZM15.2454 5.32062C14.2274 5.61459 13.4698 5.59578 12.8926 5.34518C12.3203 5.09668 11.8535 4.58881 11.4815 3.74974L10.7502 4.07403C11.1732 5.028 11.7588 5.72504 12.574 6.079C13.3844 6.43086 14.3494 6.41205 15.4673 6.08921L15.2454 5.32062ZM10.9968 3.53C10.0321 3.83065 9.57442 3.97582 8.70486 4.24727L8.94325 5.01093C9.81981 4.73729 10.2664 4.59558 11.2348 4.29377L10.9968 3.53ZM8.70486 4.24727C8.37782 4.34936 8.05242 4.32328 7.81886 4.19625C7.60304 4.07886 7.42308 3.85371 7.39933 3.44407L6.60067 3.49036C6.63929 4.15653 6.96112 4.64039 7.43662 4.89902C7.89439 5.148 8.44984 5.16495 8.94325 5.01093L8.70486 4.24727ZM7.12042 3.84866C8.7107 3.34659 10.3016 2.84432 12.4071 2.16987L12.1631 1.408C10.0593 2.0819 8.46977 2.58374 6.87958 3.08577L7.12042 3.84866ZM12.4071 2.16987C12.787 2.04817 13.0196 2.0415 13.1858 2.06674C13.3649 2.09394 13.4948 2.15844 13.7237 2.25567C13.9474 2.35072 14.2202 2.45265 14.6008 2.47188C14.9749 2.49079 15.4268 2.42894 16.0217 2.24232L15.7823 1.47899C15.247 1.6469 14.893 1.68563 14.6412 1.6729C14.396 1.66051 14.223 1.5986 14.0365 1.51937C13.8551 1.44231 13.6104 1.32206 13.3059 1.27582C12.9886 1.22762 12.6288 1.2588 12.1631 1.408L12.4071 2.16987ZM16.0217 2.24232C16.5575 2.07427 17.2435 1.8591 17.7955 1.68595C18.0715 1.59938 18.314 1.52331 18.4876 1.46888C18.5743 1.44166 18.6438 1.41986 18.6916 1.40486C18.7156 1.39736 18.734 1.39156 18.7466 1.38764C18.7528 1.38568 18.7576 1.38418 18.7608 1.38318C18.7624 1.38268 18.7636 1.3823 18.7644 1.38205C18.7648 1.38192 18.7651 1.38182 18.7653 1.38176C18.7654 1.38173 18.7655 1.3817 18.7655 1.38169C18.7655 1.38168 18.7656 1.38168 18.7656 1.38167C18.7656 1.38167 18.7656 1.38167 18.6459 1C18.5262 0.618335 18.5262 0.618337 18.5261 0.618341C18.5261 0.618345 18.5261 0.618351 18.5261 0.618359C18.526 0.618377 18.526 0.618397 18.5259 0.61843C18.5257 0.618495 18.5254 0.618588 18.5249 0.618716C18.5241 0.61897 18.5229 0.619348 18.5213 0.61985C18.5181 0.620853 18.5134 0.622346 18.5071 0.624308C18.4946 0.628232 18.4761 0.63403 18.4522 0.64153C18.4044 0.65653 18.3349 0.678333 18.2481 0.705547C18.0746 0.759975 17.8321 0.836047 17.5561 0.922622C17.004 1.09577 16.3181 1.31094 15.7823 1.47899L16.0217 2.24232ZM18.2726 1.1438L20.6267 7.25445L21.3733 6.96686L19.0191 0.856203L18.2726 1.1438ZM20.8773 6.72994L18.1178 7.61928L18.3632 8.38072L21.1227 7.49137L20.8773 6.72994ZM18.2405 8C18.6143 7.85762 18.6143 7.8576 18.6143 7.85757C18.6143 7.85754 18.6143 7.8575 18.6143 7.85745C18.6142 7.85737 18.6141 7.85713 18.6141 7.85693C18.6139 7.85647 18.6136 7.8558 18.6133 7.8549C18.6126 7.85308 18.6116 7.85039 18.6102 7.84681C18.6075 7.83965 18.6034 7.82901 18.5981 7.81501C18.5874 7.78702 18.5717 7.74565 18.5513 7.69215C18.5106 7.58516 18.4513 7.42963 18.3774 7.2355C18.2295 6.84725 18.0228 6.3046 17.7875 5.68703C17.3171 4.45189 16.7324 2.91705 16.2758 1.71827L15.5282 2.00304C15.9848 3.20182 16.5695 4.73666 17.0399 5.9718C17.2752 6.58937 17.4819 7.13201 17.6298 7.52027C17.7037 7.7144 17.763 7.86992 17.8037 7.97692C17.8241 8.03042 17.8398 8.07179 17.8505 8.09978C17.8558 8.11377 17.8599 8.12443 17.8626 8.13158C17.864 8.13515 17.865 8.13786 17.8657 8.13966C17.866 8.14056 17.8663 8.14125 17.8665 8.1417C17.8666 8.14192 17.8666 8.1421 17.8667 8.14221C17.8667 8.14227 17.8667 8.14231 17.8667 8.14234C17.8667 8.14237 17.8667 8.14238 18.2405 8Z" fill="#4785E7"/>
</svg>
