<svg width="20" height="8" viewBox="0 0 20 8" fill="none" xmlns="http://www.w3.org/2000/svg">
<path d="M4.44336 0.890625V8H2.9834V0.890625H4.44336ZM6.63086 0.890625V2.03809H0.830078V0.890625H6.63086ZM9.8291 2.10645L7.89551 8H6.33789L8.97949 0.890625H9.9707L9.8291 2.10645ZM11.4355 8L9.49707 2.10645L9.34082 0.890625H10.3418L12.998 8H11.4355ZM11.3477 5.35352V6.50098H7.59277V5.35352H11.3477ZM14.8633 0.890625L16.2012 3.37109L17.5391 0.890625H19.2139L17.1484 4.41602L19.2676 8H17.5781L16.2012 5.4707L14.8242 8H13.125L15.249 4.41602L13.1787 0.890625H14.8633Z" fill="#4785E7"/>
</svg>
