<svg width="24" height="24" viewBox="0 0 24 24" fill="none" xmlns="http://www.w3.org/2000/svg">
<path d="M22.3296 11.2035C22.3296 11.4797 22.5535 11.7035 22.8296 11.7035C23.1058 11.7035 23.3296 11.4797 23.3296 11.2035H22.3296ZM20.4493 2.44056L20.4493 2.94056L20.4493 2.44056ZM3.31069 2.44056L3.31069 2.94056L3.31069 2.44056ZM1 4.9173L0.5 4.9173L1 4.9173ZM1 20.5106L1.5 20.5106L1 20.5106ZM23.3296 20.9424C23.3296 20.6663 23.1058 20.4424 22.8296 20.4424C22.5535 20.4424 22.3296 20.6663 22.3296 20.9424H23.3296ZM7.0852 1C7.0852 0.723858 6.86134 0.5 6.5852 0.5C6.30906 0.5 6.0852 0.723858 6.0852 1H7.0852ZM6.0852 3.94428C6.0852 4.22043 6.30906 4.44428 6.5852 4.44428C6.86134 4.44428 7.0852 4.22043 7.0852 3.94428H6.0852ZM17.7678 1C17.7678 0.723858 17.5439 0.5 17.2678 0.5C16.9916 0.5 16.7678 0.723858 16.7678 1H17.7678ZM16.7678 3.94428C16.7678 4.22043 16.9916 4.44428 17.2678 4.44428C17.5439 4.44428 17.7678 4.22043 17.7678 3.94428H16.7678ZM4.19323 8.20821C3.91709 8.20821 3.69323 8.43207 3.69323 8.70821C3.69323 8.98435 3.91709 9.20821 4.19323 9.20821V8.20821ZM8.02503 9.20821C8.30117 9.20821 8.52503 8.98435 8.52503 8.70821C8.52503 8.43207 8.30117 8.20821 8.02503 8.20821V9.20821ZM4.19323 12.2266C3.91709 12.2266 3.69323 12.4504 3.69323 12.7266C3.69323 13.0027 3.91709 13.2266 4.19323 13.2266V12.2266ZM8.02503 13.2266C8.30117 13.2266 8.52503 13.0027 8.52503 12.7266C8.52503 12.4504 8.30117 12.2266 8.02503 12.2266V13.2266ZM4.19323 16.1439C3.91709 16.1439 3.69323 16.3677 3.69323 16.6439C3.69323 16.92 3.91709 17.1439 4.19323 17.1439V16.1439ZM8.02503 17.1439C8.30117 17.1439 8.52503 16.92 8.52503 16.6439C8.52503 16.3677 8.30117 16.1439 8.02503 16.1439V17.1439ZM15.9673 8.20821C15.6911 8.20821 15.4673 8.43207 15.4673 8.70821C15.4673 8.98435 15.6911 9.20821 15.9673 9.20821V8.20821ZM19.7991 9.20821C20.0752 9.20821 20.2991 8.98435 20.2991 8.70821C20.2991 8.43207 20.0752 8.20821 19.7991 8.20821V9.20821ZM10.0222 8.20821C9.74606 8.20821 9.5222 8.43207 9.5222 8.70821C9.5222 8.98435 9.74606 9.20821 10.0222 9.20821V8.20821ZM13.854 9.20821C14.1301 9.20821 14.354 8.98435 14.354 8.70821C14.354 8.43207 14.1301 8.20821 13.854 8.20821V9.20821ZM17.1548 15.573C16.8786 15.573 16.6548 15.7968 16.6548 16.073C16.6548 16.3491 16.8786 16.573 17.1548 16.573V15.573ZM21.4524 13.6479C21.2657 13.4445 20.9494 13.431 20.746 13.6178C20.5425 13.8045 20.529 14.1208 20.7158 14.3242L21.4524 13.6479ZM10.0222 12.2266C9.74606 12.2266 9.5222 12.4504 9.5222 12.7266C9.5222 13.0027 9.74606 13.2266 10.0222 13.2266V12.2266ZM13.854 13.2266C14.1301 13.2266 14.354 13.0027 14.354 12.7266C14.354 12.4504 14.1301 12.2266 13.854 12.2266V13.2266ZM23 16.073L23.3683 16.4111C23.5439 16.2199 23.5439 15.9261 23.3683 15.7348L23 16.073ZM20.7158 17.8218C20.529 18.0252 20.5425 18.3415 20.746 18.5282C20.9494 18.715 21.2657 18.7015 21.4524 18.498L20.7158 17.8218ZM22.8296 11.2035C23.3296 11.2035 23.3296 11.2035 23.3296 11.2035C23.3296 11.2035 23.3296 11.2035 23.3296 11.2035C23.3296 11.2035 23.3296 11.2035 23.3296 11.2034C23.3296 11.2034 23.3296 11.2034 23.3296 11.2034C23.3296 11.2033 23.3296 11.2033 23.3296 11.2033C23.3296 11.2032 23.3296 11.2032 23.3296 11.2032C23.3296 11.2031 23.3296 11.2031 23.3296 11.203C23.3296 11.203 23.3296 11.2029 23.3296 11.2028C23.3296 11.2028 23.3296 11.2027 23.3296 11.2027C23.3296 11.2026 23.3296 11.2025 23.3296 11.2024C23.3296 11.2024 23.3296 11.2023 23.3296 11.2022C23.3296 11.2021 23.3296 11.202 23.3296 11.202C23.3296 11.2019 23.3296 11.2018 23.3296 11.2017C23.3296 11.2016 23.3296 11.2015 23.3296 11.2014C23.3296 11.2013 23.3296 11.2011 23.3296 11.201C23.3296 11.2009 23.3296 11.2008 23.3296 11.2007C23.3296 11.2006 23.3296 11.2004 23.3296 11.2003C23.3296 11.2002 23.3296 11.2 23.3296 11.1999C23.3296 11.1998 23.3296 11.1996 23.3296 11.1995C23.3296 11.1993 23.3296 11.1992 23.3296 11.199C23.3296 11.1989 23.3296 11.1987 23.3296 11.1986C23.3296 11.1984 23.3296 11.1982 23.3296 11.1981C23.3296 11.1979 23.3296 11.1977 23.3296 11.1975C23.3296 11.1974 23.3296 11.1972 23.3296 11.197C23.3296 11.1968 23.3296 11.1966 23.3296 11.1964C23.3296 11.1962 23.3296 11.196 23.3296 11.1958C23.3296 11.1956 23.3296 11.1954 23.3296 11.1952C23.3296 11.195 23.3296 11.1948 23.3296 11.1945C23.3296 11.1943 23.3296 11.1941 23.3296 11.1939C23.3296 11.1936 23.3296 11.1934 23.3296 11.1932C23.3296 11.1929 23.3296 11.1927 23.3296 11.1924C23.3296 11.1922 23.3296 11.1919 23.3296 11.1917C23.3296 11.1914 23.3296 11.1912 23.3296 11.1909C23.3296 11.1906 23.3296 11.1904 23.3296 11.1901C23.3296 11.1898 23.3296 11.1895 23.3296 11.1892C23.3296 11.189 23.3296 11.1887 23.3296 11.1884C23.3296 11.1881 23.3296 11.1878 23.3296 11.1875C23.3296 11.1872 23.3296 11.1869 23.3296 11.1866C23.3296 11.1863 23.3296 11.186 23.3296 11.1856C23.3296 11.1853 23.3296 11.185 23.3296 11.1847C23.3296 11.1843 23.3296 11.184 23.3296 11.1837C23.3296 11.1833 23.3296 11.183 23.3296 11.1826C23.3296 11.1823 23.3296 11.1819 23.3296 11.1816C23.3296 11.1812 23.3296 11.1809 23.3296 11.1805C23.3296 11.1801 23.3296 11.1798 23.3296 11.1794C23.3296 11.179 23.3296 11.1786 23.3296 11.1782C23.3296 11.1779 23.3296 11.1775 23.3296 11.1771C23.3296 11.1767 23.3296 11.1763 23.3296 11.1759C23.3296 11.1755 23.3296 11.1751 23.3296 11.1747C23.3296 11.1742 23.3296 11.1738 23.3296 11.1734C23.3296 11.173 23.3296 11.1725 23.3296 11.1721C23.3296 11.1717 23.3296 11.1712 23.3296 11.1708C23.3296 11.1704 23.3296 11.1699 23.3296 11.1695C23.3296 11.169 23.3296 11.1685 23.3296 11.1681C23.3296 11.1676 23.3296 11.1671 23.3296 11.1667C23.3296 11.1662 23.3296 11.1657 23.3296 11.1652C23.3296 11.1648 23.3296 11.1643 23.3296 11.1638C23.3296 11.1633 23.3296 11.1628 23.3296 11.1623C23.3296 11.1618 23.3296 11.1613 23.3296 11.1608C23.3296 11.1602 23.3296 11.1597 23.3296 11.1592C23.3296 11.1587 23.3296 11.1581 23.3296 11.1576C23.3296 11.1571 23.3296 11.1565 23.3296 11.156C23.3296 11.1555 23.3296 11.1549 23.3296 11.1543C23.3296 11.1538 23.3296 11.1532 23.3296 11.1527C23.3296 11.1521 23.3296 11.1515 23.3296 11.151C23.3296 11.1504 23.3296 11.1498 23.3296 11.1492C23.3296 11.1486 23.3296 11.148 23.3296 11.1474C23.3296 11.1468 23.3296 11.1462 23.3296 11.1456C23.3296 11.145 23.3296 11.1444 23.3296 11.1438C23.3296 11.1432 23.3296 11.1426 23.3296 11.1419C23.3296 11.1413 23.3296 11.1407 23.3296 11.14C23.3296 11.1394 23.3296 11.1387 23.3296 11.1381C23.3296 11.1374 23.3296 11.1368 23.3296 11.1361C23.3296 11.1355 23.3296 11.1348 23.3296 11.1341C23.3296 11.1334 23.3296 11.1328 23.3296 11.1321C23.3296 11.1314 23.3296 11.1307 23.3296 11.13C23.3296 11.1293 23.3296 11.1286 23.3296 11.1279C23.3296 11.1272 23.3296 11.1265 23.3296 11.1258C23.3296 11.1251 23.3296 11.1243 23.3296 11.1236C23.3296 11.1229 23.3296 11.1221 23.3296 11.1214C23.3296 11.1207 23.3296 11.1199 23.3296 11.1192C23.3296 11.1184 23.3296 11.1177 23.3296 11.1169C23.3296 11.1161 23.3296 11.1154 23.3296 11.1146C23.3296 11.1138 23.3296 11.113 23.3296 11.1123C23.3296 11.1115 23.3296 11.1107 23.3296 11.1099C23.3296 11.1091 23.3296 11.1083 23.3296 11.1075C23.3296 11.1067 23.3296 11.1059 23.3296 11.105C23.3296 11.1042 23.3296 11.1034 23.3296 11.1026C23.3296 11.1017 23.3296 11.1009 23.3296 11.1001C23.3296 11.0992 23.3296 11.0984 23.3296 11.0975C23.3296 11.0966 23.3296 11.0958 23.3296 11.0949C23.3296 11.0941 23.3296 11.0932 23.3296 11.0923C23.3296 11.0914 23.3296 11.0905 23.3296 11.0896C23.3296 11.0888 23.3296 11.0879 23.3296 11.087C23.3296 11.0861 23.3296 11.0851 23.3296 11.0842C23.3296 11.0833 23.3296 11.0824 23.3296 11.0815C23.3296 11.0805 23.3296 11.0796 23.3296 11.0787C23.3296 11.0777 23.3296 11.0768 23.3296 11.0758C23.3296 11.0749 23.3296 11.0739 23.3296 11.073C23.3296 11.072 23.3296 11.071 23.3296 11.07C23.3296 11.0691 23.3296 11.0681 23.3296 11.0671C23.3296 11.0661 23.3296 11.0651 23.3296 11.0641C23.3296 11.0631 23.3296 11.0621 23.3296 11.0611C23.3296 11.0601 23.3296 11.0591 23.3296 11.058C23.3296 11.057 23.3296 11.056 23.3296 11.0549C23.3296 11.0539 23.3296 11.0529 23.3296 11.0518C23.3296 11.0508 23.3296 11.0497 23.3296 11.0486C23.3296 11.0476 23.3296 11.0465 23.3296 11.0454C23.3296 11.0444 23.3296 11.0433 23.3296 11.0422C23.3296 11.0411 23.3296 11.04 23.3296 11.0389C23.3296 11.0378 23.3296 11.0367 23.3296 11.0356C23.3296 11.0345 23.3296 11.0333 23.3296 11.0322C23.3296 11.0311 23.3296 11.0299 23.3296 11.0288C23.3296 11.0277 23.3296 11.0265 23.3296 11.0254C23.3296 11.0242 23.3296 11.023 23.3296 11.0219C23.3296 11.0207 23.3296 11.0195 23.3296 11.0184C23.3296 11.0172 23.3296 11.016 23.3296 11.0148C23.3296 11.0136 23.3296 11.0124 23.3296 11.0112C23.3296 11.01 23.3296 11.0088 23.3296 11.0076C23.3296 11.0063 23.3296 11.0051 23.3296 11.0039C23.3296 11.0026 23.3296 11.0014 23.3296 11.0002C23.3296 10.9989 23.3296 10.9977 23.3296 10.9964C23.3296 10.9951 23.3296 10.9939 23.3296 10.9926C23.3296 10.9913 23.3296 10.99 23.3296 10.9888C23.3296 10.9875 23.3296 10.9862 23.3296 10.9849C23.3296 10.9836 23.3296 10.9823 23.3296 10.981C23.3296 10.9796 23.3296 10.9783 23.3296 10.977C23.3296 10.9757 23.3296 10.9743 23.3296 10.973C23.3296 10.9716 23.3296 10.9703 23.3296 10.9689C23.3296 10.9676 23.3296 10.9662 23.3296 10.9649C23.3296 10.9635 23.3296 10.9621 23.3296 10.9607C23.3296 10.9593 23.3296 10.958 23.3296 10.9566C23.3296 10.9552 23.3296 10.9538 23.3296 10.9523C23.3296 10.9509 23.3296 10.9495 23.3296 10.9481C23.3296 10.9467 23.3296 10.9452 23.3296 10.9438C23.3296 10.9423 23.3296 10.9409 23.3296 10.9394C23.3296 10.938 23.3296 10.9365 23.3296 10.9351C23.3296 10.9336 23.3296 10.9321 23.3296 10.9306C23.3296 10.9292 23.3296 10.9277 23.3296 10.9262C23.3296 10.9247 23.3296 10.9232 23.3296 10.9217C23.3296 10.9202 23.3296 10.9186 23.3296 10.9171C23.3296 10.9156 23.3296 10.9141 23.3296 10.9125C23.3296 10.911 23.3296 10.9094 23.3296 10.9079C23.3296 10.9063 23.3296 10.9048 23.3296 10.9032C23.3296 10.9016 23.3296 10.9 23.3296 10.8985C23.3296 10.8969 23.3296 10.8953 23.3296 10.8937C23.3296 10.8921 23.3296 10.8905 23.3296 10.8889C23.3296 10.8873 23.3296 10.8856 23.3296 10.884C23.3296 10.8824 23.3296 10.8807 23.3296 10.8791C23.3296 10.8775 23.3296 10.8758 23.3296 10.8742C23.3296 10.8725 23.3296 10.8708 23.3296 10.8692C23.3296 10.8675 23.3296 10.8658 23.3296 10.8641C23.3296 10.8624 23.3296 10.8607 23.3296 10.859C23.3296 10.8573 23.3296 10.8556 23.3296 10.8539C23.3296 10.8522 23.3296 10.8505 23.3296 10.8487C23.3296 10.847 23.3296 10.8453 23.3296 10.8435C23.3296 10.8418 23.3296 10.84 23.3296 10.8382C23.3296 10.8365 23.3296 10.8347 23.3296 10.8329C23.3296 10.8311 23.3296 10.8294 23.3296 10.8276C23.3296 10.8258 23.3296 10.824 23.3296 10.8222C23.3296 10.8204 23.3296 10.8185 23.3296 10.8167C23.3296 10.8149 23.3296 10.8131 23.3296 10.8112C23.3296 10.8094 23.3296 10.8075 23.3296 10.8057C23.3296 10.8038 23.3296 10.8019 23.3296 10.8001C23.3296 10.7982 23.3296 10.7963 23.3296 10.7944C23.3296 10.7926 23.3296 10.7907 23.3296 10.7888C23.3296 10.7869 23.3296 10.7849 23.3296 10.783C23.3296 10.7811 23.3296 10.7792 23.3296 10.7772C23.3296 10.7753 23.3296 10.7734 23.3296 10.7714C23.3296 10.7695 23.3296 10.7675 23.3296 10.7655C23.3296 10.7636 23.3296 10.7616 23.3296 10.7596C23.3296 10.7576 23.3296 10.7556 23.3296 10.7536C23.3296 10.7517 23.3296 10.7496 23.3296 10.7476C23.3296 10.7456 23.3296 10.7436 23.3296 10.7416C23.3296 10.7395 23.3296 10.7375 23.3296 10.7354C23.3296 10.7334 23.3296 10.7313 23.3296 10.7293C23.3296 10.7272 23.3296 10.7251 23.3296 10.7231C23.3296 10.721 23.3296 10.7189 23.3296 10.7168C23.3296 10.7147 23.3296 10.7126 23.3296 10.7105C23.3296 10.7084 23.3296 10.7063 23.3296 10.7041C23.3296 10.702 23.3296 10.6999 23.3296 10.6977C23.3296 10.6956 23.3296 10.6934 23.3296 10.6913C23.3296 10.6891 23.3296 10.6869 23.3296 10.6848C23.3296 10.6826 23.3296 10.6804 23.3296 10.6782C23.3296 10.676 23.3296 10.6738 23.3296 10.6716C23.3296 10.6694 23.3296 10.6672 23.3296 10.6649C23.3296 10.6627 23.3296 10.6605 23.3296 10.6582C23.3296 10.656 23.3296 10.6537 23.3296 10.6515C23.3296 10.6492 23.3296 10.6469 23.3296 10.6447C23.3296 10.6424 23.3296 10.6401 23.3296 10.6378C23.3296 10.6355 23.3296 10.6332 23.3296 10.6309C23.3296 10.6286 23.3296 10.6262 23.3296 10.6239C23.3296 10.6216 23.3296 10.6192 23.3296 10.6169C23.3296 10.6146 23.3296 10.6122 23.3296 10.6098C23.3296 10.6075 23.3296 10.6051 23.3296 10.6027C23.3296 10.6003 23.3296 10.5979 23.3296 10.5955C23.3296 10.5931 23.3296 10.5907 23.3296 10.5883C23.3296 10.5859 23.3296 10.5835 23.3296 10.5811C23.3296 10.5786 23.3296 10.5762 23.3296 10.5737C23.3296 10.5713 23.3296 10.5688 23.3296 10.5663C23.3296 10.5639 23.3296 10.5614 23.3296 10.5589C23.3296 10.5564 23.3296 10.5539 23.3296 10.5514C23.3296 10.5489 23.3296 10.5464 23.3296 10.5439C23.3296 10.5414 23.3296 10.5389 23.3296 10.5363C23.3296 10.5338 23.3296 10.5312 23.3296 10.5287C23.3296 10.5261 23.3296 10.5235 23.3296 10.521C23.3296 10.5184 23.3296 10.5158 23.3296 10.5132C23.3296 10.5106 23.3296 10.508 23.3296 10.5054C23.3296 10.5028 23.3296 10.5002 23.3296 10.4976C23.3296 10.4949 23.3296 10.4923 23.3296 10.4897C23.3296 10.487 23.3296 10.4844 23.3296 10.4817C23.3296 10.479 23.3296 10.4764 23.3296 10.4737C23.3296 10.471 23.3296 10.4683 23.3296 10.4656C23.3296 10.4629 23.3296 10.4602 23.3296 10.4575C23.3296 10.4548 23.3296 10.452 23.3296 10.4493C23.3296 10.4466 23.3296 10.4438 23.3296 10.4411C23.3296 10.4383 23.3296 10.4355 23.3296 10.4328C23.3296 10.43 23.3296 10.4272 23.3296 10.4244C23.3296 10.4216 23.3296 10.4188 23.3296 10.416C23.3296 10.4132 23.3296 10.4104 23.3296 10.4076C23.3296 10.4047 23.3296 10.4019 23.3296 10.399C23.3296 10.3962 23.3296 10.3933 23.3296 10.3905C23.3296 10.3876 23.3296 10.3847 23.3296 10.3819C23.3296 10.379 23.3296 10.3761 23.3296 10.3732C23.3296 10.3703 23.3296 10.3674 23.3296 10.3644C23.3296 10.3615 23.3296 10.3586 23.3296 10.3556C23.3296 10.3527 23.3296 10.3498 23.3296 10.3468C23.3296 10.3438 23.3296 10.3409 23.3296 10.3379C23.3296 10.3349 23.3296 10.3319 23.3296 10.3289C23.3296 10.3259 23.3296 10.3229 23.3296 10.3199C23.3296 10.3169 23.3296 10.3139 23.3296 10.3108C23.3296 10.3078 23.3296 10.3047 23.3296 10.3017C23.3296 10.2986 23.3296 10.2956 23.3296 10.2925C23.3296 10.2894 23.3296 10.2863 23.3296 10.2833C23.3296 10.2802 23.3296 10.2771 23.3296 10.2739C23.3296 10.2708 23.3296 10.2677 23.3296 10.2646C23.3296 10.2614 23.3296 10.2583 23.3296 10.2552C23.3296 10.252 23.3296 10.2488 23.3296 10.2457C23.3296 10.2425 23.3296 10.2393 23.3296 10.2361C23.3296 10.2329 23.3296 10.2297 23.3296 10.2265C23.3296 10.2233 23.3296 10.2201 23.3296 10.2169C23.3296 10.2136 23.3296 10.2104 23.3296 10.2072C23.3296 10.2039 23.3296 10.2007 23.3296 10.1974C23.3296 10.1941 23.3296 10.1908 23.3296 10.1876C23.3296 10.1843 23.3296 10.181 23.3296 10.1777C23.3296 10.1744 23.3296 10.171 23.3296 10.1677C23.3296 10.1644 23.3296 10.161 23.3296 10.1577C23.3296 10.1543 23.3296 10.151 23.3296 10.1476C23.3296 10.1443 23.3296 10.1409 23.3296 10.1375C23.3296 10.1341 23.3296 10.1307 23.3296 10.1273C23.3296 10.1239 23.3296 10.1205 23.3296 10.117C23.3296 10.1136 23.3296 10.1102 23.3296 10.1067C23.3296 10.1033 23.3296 10.0998 23.3296 10.0964C23.3296 10.0929 23.3296 10.0894 23.3296 10.0859C23.3296 10.0824 23.3296 10.0789 23.3296 10.0754C23.3296 10.0719 23.3296 10.0684 23.3296 10.0649C23.3296 10.0613 23.3296 10.0578 23.3296 10.0543C23.3296 10.0507 23.3296 10.0471 23.3296 10.0436C23.3296 10.04 23.3296 10.0364 23.3296 10.0328C23.3296 10.0292 23.3296 10.0256 23.3296 10.022C23.3296 10.0184 23.3296 10.0148 23.3296 10.0112C23.3296 10.0075 23.3296 10.0039 23.3296 10.0002C23.3296 9.99659 23.3296 9.99293 23.3296 9.98925C23.3296 9.98558 23.3296 9.9819 23.3296 9.9782C23.3296 9.97451 23.3296 9.97081 23.3296 9.96709C23.3296 9.96338 23.3296 9.95965 23.3296 9.95592C23.3296 9.95218 23.3296 9.94844 23.3296 9.94468C23.3296 9.94092 23.3296 9.93716 23.3296 9.93338C23.3296 9.9296 23.3296 9.92581 23.3296 9.92202C23.3296 9.91822 23.3296 9.91441 23.3296 9.91059C23.3296 9.90677 23.3296 9.90294 23.3296 9.8991C23.3296 9.89526 23.3296 9.89141 23.3296 9.88754C23.3296 9.88368 23.3296 9.87981 23.3296 9.87593C23.3296 9.87204 23.3296 9.86815 23.3296 9.86425C23.3296 9.86034 23.3296 9.85643 23.3296 9.8525C23.3296 9.84858 23.3296 9.84464 23.3296 9.84069C23.3296 9.83675 23.3296 9.83279 23.3296 9.82882C23.3296 9.82485 23.3296 9.82087 23.3296 9.81688C23.3296 9.81289 23.3296 9.80889 23.3296 9.80488C23.3296 9.80087 23.3296 9.79684 23.3296 9.79281C23.3296 9.78878 23.3296 9.78473 23.3296 9.78068C23.3296 9.77662 23.3296 9.77256 23.3296 9.76848C23.3296 9.76441 23.3296 9.76032 23.3296 9.75622C23.3296 9.75212 23.3296 9.74801 23.3296 9.74389C23.3296 9.73977 23.3296 9.73564 23.3296 9.7315C23.3296 9.72736 23.3296 9.7232 23.3296 9.71904C23.3296 9.71488 23.3296 9.7107 23.3296 9.70652C23.3296 9.70233 23.3296 9.69813 23.3296 9.69393C23.3296 9.68972 23.3296 9.6855 23.3296 9.68127C23.3296 9.67704 23.3296 9.6728 23.3296 9.66855C23.3296 9.66429 23.3296 9.66003 23.3296 9.65576C23.3296 9.65148 23.3296 9.6472 23.3296 9.6429C23.3296 9.6386 23.3296 9.6343 23.3296 9.62998C23.3296 9.62566 23.3296 9.62133 23.3296 9.61699C23.3296 9.61265 23.3296 9.60829 23.3296 9.60393C23.3296 9.59957 23.3296 9.59519 23.3296 9.59081C23.3296 9.58642 23.3296 9.58202 23.3296 9.57762C23.3296 9.57321 23.3296 9.56879 23.3296 9.56436C23.3296 9.55993 23.3296 9.55548 23.3296 9.55103C23.3296 9.54658 23.3296 9.54211 23.3296 9.53764C23.3296 9.53316 23.3296 9.52867 23.3296 9.52417C23.3296 9.51968 23.3296 9.51517 23.3296 9.51064C23.3296 9.50612 23.3296 9.50159 23.3296 9.49705C23.3296 9.4925 23.3296 9.48795 23.3296 9.48338C23.3296 9.47881 23.3296 9.47423 23.3296 9.46964C23.3296 9.46505 23.3296 9.46045 23.3296 9.45584C23.3296 9.45123 23.3296 9.4466 23.3296 9.44196C23.3296 9.43733 23.3296 9.43268 23.3296 9.42802C23.3296 9.42336 23.3296 9.41869 23.3296 9.41401C23.3296 9.40933 23.3296 9.40463 23.3296 9.39993C23.3296 9.39522 23.3296 9.39051 23.3296 9.38578C23.3296 9.38105 23.3296 9.37631 23.3296 9.37156C23.3296 9.36681 23.3296 9.36204 23.3296 9.35727C23.3296 9.35249 23.3296 9.34771 23.3296 9.34291C23.3296 9.33811 23.3296 9.3333 23.3296 9.32848C23.3296 9.32366 23.3296 9.31882 23.3296 9.31398C23.3296 9.30913 23.3296 9.30428 23.3296 9.29941C23.3296 9.29454 23.3296 9.28966 23.3296 9.28476C23.3296 9.27987 23.3296 9.27497 23.3296 9.27005C23.3296 9.26514 23.3296 9.26021 23.3296 9.25527C23.3296 9.25033 23.3296 9.24538 23.3296 9.24041C23.3296 9.23545 23.3296 9.23048 23.3296 9.22549C23.3296 9.2205 23.3296 9.2155 23.3296 9.21049C23.3296 9.20548 23.3296 9.20046 23.3296 9.19542C23.3296 9.19039 23.3296 9.18534 23.3296 9.18028C23.3296 9.17522 23.3296 9.17015 23.3296 9.16507C23.3296 9.15999 23.3296 9.15489 23.3296 9.14979C23.3296 9.14468 23.3296 9.13956 23.3296 9.13443C23.3296 9.1293 23.3296 9.12416 23.3296 9.119C23.3296 9.11385 23.3296 9.10868 23.3296 9.1035C23.3296 9.09832 23.3296 9.09313 23.3296 9.08793C23.3296 9.08272 23.3296 9.07751 23.3296 9.07228C23.3296 9.06705 23.3296 9.06181 23.3296 9.05656C23.3296 9.05131 23.3296 9.04604 23.3296 9.04077C23.3296 9.03549 23.3296 9.0302 23.3296 9.0249C23.3296 9.0196 23.3296 9.01429 23.3296 9.00896C23.3296 9.00364 23.3296 8.9983 23.3296 8.99295C23.3296 8.9876 23.3296 8.98224 23.3296 8.97686C23.3296 8.97149 23.3296 8.9661 23.3296 8.9607C23.3296 8.9553 23.3296 8.94989 23.3296 8.94447C23.3296 8.93905 23.3296 8.93361 23.3296 8.92816C23.3296 8.92271 23.3296 8.91725 23.3296 8.91178C23.3296 8.90631 23.3296 8.90082 23.3296 8.89532C23.3296 8.88982 23.3296 8.88431 23.3296 8.87879C23.3296 8.87327 23.3296 8.86773 23.3296 8.86218C23.3296 8.85663 23.3296 8.85107 23.3296 8.8455C23.3296 8.83993 23.3296 8.83434 23.3296 8.82874C23.3296 8.82315 23.3296 8.81754 23.3296 8.81191C23.3296 8.80629 23.3296 8.80065 23.3296 8.795C23.3296 8.78936 23.3296 8.78369 23.3296 8.77802C23.3296 8.77235 23.3296 8.76666 23.3296 8.76096C23.3296 8.75526 23.3296 8.74955 23.3296 8.74383C23.3296 8.7381 23.3296 8.73237 23.3296 8.72662C23.3296 8.72087 23.3296 8.71511 23.3296 8.70933C23.3296 8.70356 23.3296 8.69777 23.3296 8.69197C23.3296 8.68617 23.3296 8.68035 23.3296 8.67453C23.3296 8.6687 23.3296 8.66286 23.3296 8.65701C23.3296 8.65116 23.3296 8.6453 23.3296 8.63942C23.3296 8.63354 23.3296 8.62765 23.3296 8.62175C23.3296 8.61584 23.3296 8.60993 23.3296 8.604C23.3296 8.59807 23.3296 8.59213 23.3296 8.58618C23.3296 8.58022 23.3296 8.57425 23.3296 8.56827C23.3296 8.56229 23.3296 8.5563 23.3296 8.55029C23.3296 8.54429 23.3296 8.53827 23.3296 8.53224C23.3296 8.52621 23.3296 8.52016 23.3296 8.5141C23.3296 8.50804 23.3296 8.50197 23.3296 8.49589C23.3296 8.4898 23.3296 8.48371 23.3296 8.4776C23.3296 8.47149 23.3296 8.46536 23.3296 8.45923C23.3296 8.45309 23.3296 8.44694 23.3296 8.44078C23.3296 8.43462 23.3296 8.42844 23.3296 8.42225C23.3296 8.41606 23.3296 8.40986 23.3296 8.40365C23.3296 8.39743 23.3296 8.3912 23.3296 8.38496C23.3296 8.37872 23.3296 8.37247 23.3296 8.3662C23.3296 8.35993 23.3296 8.35365 23.3296 8.34736C23.3296 8.34106 23.3296 8.33475 23.3296 8.32843C23.3296 8.32211 23.3296 8.31578 23.3296 8.30943C23.3296 8.30308 23.3296 8.29672 23.3296 8.29035C23.3296 8.28397 23.3296 8.27759 23.3296 8.27119C23.3296 8.26479 23.3296 8.25837 23.3296 8.25194C23.3296 8.24552 23.3296 8.23908 23.3296 8.23262C23.3296 8.22617 23.3296 8.2197 23.3296 8.21322C23.3296 8.20674 23.3296 8.20024 23.3296 8.19374C23.3296 8.18723 23.3296 8.18071 23.3296 8.17417C23.3296 8.16764 23.3296 8.16109 23.3296 8.15453C23.3296 8.14797 23.3296 8.14139 23.3296 8.1348C23.3296 8.12821 23.3296 8.12161 23.3296 8.115C23.3296 8.10838 23.3296 8.10175 23.3296 8.09511C23.3296 8.08847 23.3296 8.08181 23.3296 8.07514C23.3296 8.06847 23.3296 8.06179 23.3296 8.05509C23.3296 8.04839 23.3296 8.04168 23.3296 8.03496C23.3296 8.02823 23.3296 8.02149 23.3296 8.01474C23.3296 8.00799 23.3296 8.00122 23.3296 7.99444C23.3296 7.98767 23.3296 7.98087 23.3296 7.97407C23.3296 7.96726 23.3296 7.96044 23.3296 7.9536C23.3296 7.94677 23.3296 7.93992 23.3296 7.93306C23.3296 7.9262 23.3296 7.91932 23.3296 7.91243C23.3296 7.90554 23.3296 7.89864 23.3296 7.89172C23.3296 7.88481 23.3296 7.87788 23.3296 7.87093C23.3296 7.86399 23.3296 7.85703 23.3296 7.85006C23.3296 7.84308 23.3296 7.8361 23.3296 7.8291C23.3296 7.8221 23.3296 7.81508 23.3296 7.80806C23.3296 7.80103 23.3296 7.79399 23.3296 7.78693C23.3296 7.77987 23.3296 7.7728 23.3296 7.76572C23.3296 7.75864 23.3296 7.75154 23.3296 7.74443C23.3296 7.73731 23.3296 7.73019 23.3296 7.72305C23.3296 7.71591 23.3296 7.70875 23.3296 7.70159C23.3296 7.69442 23.3296 7.68724 23.3296 7.68004C23.3296 7.67284 23.3296 7.66563 23.3296 7.65841C23.3296 7.65118 23.3296 7.64395 23.3296 7.63669C23.3296 7.62944 23.3296 7.62217 23.3296 7.61489C23.3296 7.60761 23.3296 7.60032 23.3296 7.59301C23.3296 7.5857 23.3296 7.57837 23.3296 7.57104C23.3296 7.5637 23.3296 7.55635 23.3296 7.54898C23.3296 7.54161 23.3296 7.53423 23.3296 7.52684C23.3296 7.51944 23.3296 7.51204 23.3296 7.50461C23.3296 7.49719 23.3296 7.48975 23.3296 7.4823C23.3296 7.47485 23.3296 7.46738 23.3296 7.4599C23.3296 7.45242 23.3296 7.44493 23.3296 7.43742C23.3296 7.42991 23.3296 7.42238 23.3296 7.41484C23.3296 7.40731 23.3296 7.39975 23.3296 7.39219C23.3296 7.38462 23.3296 7.37704 23.3296 7.36944C23.3296 7.36185 23.3296 7.35424 23.3296 7.34661C23.3296 7.33899 23.3296 7.33135 23.3296 7.32369C23.3296 7.31604 23.3296 7.30837 23.3296 7.30069C23.3296 7.29301 23.3296 7.28531 23.3296 7.2776C23.3296 7.26989 23.3296 7.26216 23.3296 7.25442C23.3296 7.24668 23.3296 7.23892 23.3296 7.23115C23.3296 7.22338 23.3296 7.2156 23.3296 7.2078C23.3296 7.2 23.3296 7.19218 23.3296 7.18436C23.3296 7.17653 23.3296 7.16868 23.3296 7.16083C23.3296 7.15297 23.3296 7.14509 23.3296 7.13721C23.3296 7.12932 23.3296 7.12142 23.3296 7.1135C23.3296 7.10558 23.3296 7.09765 23.3296 7.08971C23.3296 7.08176 23.3296 7.0738 23.3296 7.06582C23.3296 7.05785 23.3296 7.04986 23.3296 7.04185C23.3296 7.03384 23.3296 7.02582 23.3296 7.01779C23.3296 7.00975 23.3296 7.0017 23.3296 6.99364C23.3296 6.98557 23.3296 6.97749 23.3296 6.9694C23.3296 6.96131 23.3296 6.9532 23.3296 6.94507C23.3296 6.93695 23.3296 6.92881 23.3296 6.92065C23.3296 6.9125 23.3296 6.90433 23.3296 6.89615C23.3296 6.88796 23.3296 6.87976 23.3296 6.87155C23.3296 6.86333 23.3296 6.8551 23.3296 6.84686C23.3296 6.83862 23.3296 6.83036 23.3296 6.82208C23.3296 6.81381 23.3296 6.80552 23.3296 6.79721C23.3296 6.78891 23.3296 6.78059 23.3296 6.77226C23.3296 6.76392 23.3296 6.75557 23.3296 6.74721C23.3296 6.73884 23.3296 6.73046 23.3296 6.72207C23.3296 6.71367 23.3296 6.70526 23.3296 6.69684C23.3296 6.68841 23.3296 6.67997 23.3296 6.67151C23.3296 6.66306 23.3296 6.65459 23.3296 6.6461C23.3296 6.63762 23.3296 6.62911 23.3296 6.6206C23.3296 6.61208 23.3296 6.60355 23.3296 6.595C23.3296 6.58645 23.3296 6.57789 23.3296 6.56931C23.3296 6.56074 23.3296 6.55214 23.3296 6.54354C23.3296 6.53493 23.3296 6.5263 23.3296 6.51766C23.3296 6.50902 23.3296 6.50037 23.3296 6.4917C23.3296 6.48303 23.3296 6.47435 23.3296 6.46564C23.3296 6.45694 23.3296 6.44823 23.3296 6.4395C23.3296 6.43077 23.3296 6.42202 23.3296 6.41326C23.3296 6.40449 23.3296 6.39572 23.3296 6.38692C23.3296 6.37813 23.3296 6.36932 23.3296 6.3605C23.3296 6.35167 23.3296 6.34283 23.3296 6.33398C23.3296 6.32512 23.3296 6.31625 23.3296 6.30736C23.3296 6.29848 23.3296 6.28958 23.3296 6.28066C23.3296 6.27174 23.3296 6.26281 23.3296 6.25386C23.3296 6.24491 23.3296 6.23595 23.3296 6.22697C23.3296 6.21799 23.3296 6.20899 23.3296 6.19998C23.3296 6.19097 23.3296 6.18194 23.3296 6.1729C23.3296 6.16385 23.3296 6.1548 23.3296 6.14572C23.3296 6.13665 23.3296 6.12756 23.3296 6.11845C23.3296 6.10935 23.3296 6.10023 23.3296 6.09109C23.3296 6.08195 23.3296 6.0728 23.3296 6.06363C23.3296 6.05446 23.3296 6.04528 23.3296 6.03608C23.3296 6.02688 23.3296 6.01766 23.3296 6.00843C23.3296 5.9992 23.3296 5.98995 23.3296 5.98069C23.3296 5.97142 23.3296 5.96214 23.3296 5.95285C23.3296 5.94355 23.3296 5.93424 23.3296 5.92491C23.3296 5.91559 23.3296 5.90624 23.3296 5.89688C23.3296 5.88752 23.3296 5.87815 23.3296 5.86876C23.3296 5.85937 23.3296 5.84996 23.3296 5.84054C23.3296 5.83111 23.3296 5.82168 23.3296 5.81222C23.3296 5.80277 23.3296 5.79329 23.3296 5.78381C23.3296 5.77432 23.3296 5.76482 23.3296 5.7553C23.3296 5.74578 23.3296 5.73624 23.3296 5.72669C23.3296 5.71714 23.3296 5.70757 23.3296 5.69799C23.3296 5.68841 23.3296 5.67881 23.3296 5.66919C23.3296 5.65957 23.3296 5.64994 23.3296 5.64029C23.3296 5.63065 23.3296 5.62098 23.3296 5.6113C23.3296 5.60162 23.3296 5.59192 23.3296 5.58221C23.3296 5.5725 23.3296 5.56277 23.3296 5.55302C23.3296 5.54328 23.3296 5.53351 23.3296 5.52374C23.3296 5.51396 23.3296 5.50416 23.3296 5.49435C23.3296 5.48454 23.3296 5.47471 23.3296 5.46487C23.3296 5.45503 23.3296 5.44517 23.3296 5.43529C23.3296 5.42542 23.3296 5.41552 23.3296 5.40561C23.3296 5.39571 23.3296 5.38578 23.3296 5.37584C23.3296 5.3659 23.3296 5.35594 23.3296 5.34597C23.3296 5.33599 23.3296 5.326 23.3296 5.31599C23.3296 5.30599 23.3296 5.29596 23.3296 5.28592C23.3296 5.27588 23.3296 5.26582 23.3296 5.25575C23.3296 5.24568 23.3296 5.23559 23.3296 5.22548C23.3296 5.21537 23.3296 5.20525 23.3296 5.19511C23.3296 5.18497 23.3296 5.17482 23.3296 5.16464C23.3296 5.15447 23.3296 5.14428 23.3296 5.13408C23.3296 5.12387 23.3296 5.11365 23.3296 5.10341C23.3296 5.09317 23.3296 5.08291 23.3296 5.07264C23.3296 5.06237 23.3296 5.05208 23.3296 5.04177C23.3296 5.03147 23.3296 5.02115 23.3296 5.01081C23.3296 5.00047 23.3296 4.99011 23.3296 4.97974C23.3296 4.96937 23.3296 4.95898 23.3296 4.94857C23.3296 4.93816 23.3296 4.92774 23.3296 4.9173H22.3296C22.3296 4.92774 22.3296 4.93816 22.3296 4.94857C22.3296 4.95898 22.3296 4.96937 22.3296 4.97974C22.3296 4.99011 22.3296 5.00047 22.3296 5.01081C22.3296 5.02115 22.3296 5.03147 22.3296 5.04177C22.3296 5.05208 22.3296 5.06237 22.3296 5.07264C22.3296 5.08291 22.3296 5.09317 22.3296 5.10341C22.3296 5.11365 22.3296 5.12387 22.3296 5.13408C22.3296 5.14428 22.3296 5.15447 22.3296 5.16464C22.3296 5.17482 22.3296 5.18497 22.3296 5.19511C22.3296 5.20525 22.3296 5.21537 22.3296 5.22548C22.3296 5.23559 22.3296 5.24568 22.3296 5.25575C22.3296 5.26582 22.3296 5.27588 22.3296 5.28592C22.3296 5.29596 22.3296 5.30599 22.3296 5.31599C22.3296 5.326 22.3296 5.33599 22.3296 5.34597C22.3296 5.35594 22.3296 5.3659 22.3296 5.37584C22.3296 5.38578 22.3296 5.39571 22.3296 5.40561C22.3296 5.41552 22.3296 5.42542 22.3296 5.43529C22.3296 5.44517 22.3296 5.45503 22.3296 5.46487C22.3296 5.47471 22.3296 5.48454 22.3296 5.49435C22.3296 5.50416 22.3296 5.51396 22.3296 5.52374C22.3296 5.53351 22.3296 5.54328 22.3296 5.55302C22.3296 5.56277 22.3296 5.5725 22.3296 5.58221C22.3296 5.59192 22.3296 5.60162 22.3296 5.6113C22.3296 5.62098 22.3296 5.63065 22.3296 5.64029C22.3296 5.64994 22.3296 5.65957 22.3296 5.66919C22.3296 5.67881 22.3296 5.68841 22.3296 5.69799C22.3296 5.70757 22.3296 5.71714 22.3296 5.72669C22.3296 5.73624 22.3296 5.74578 22.3296 5.7553C22.3296 5.76482 22.3296 5.77432 22.3296 5.78381C22.3296 5.79329 22.3296 5.80277 22.3296 5.81222C22.3296 5.82168 22.3296 5.83111 22.3296 5.84054C22.3296 5.84996 22.3296 5.85937 22.3296 5.86876C22.3296 5.87815 22.3296 5.88752 22.3296 5.89688C22.3296 5.90624 22.3296 5.91559 22.3296 5.92491C22.3296 5.93424 22.3296 5.94355 22.3296 5.95285C22.3296 5.96214 22.3296 5.97142 22.3296 5.98069C22.3296 5.98995 22.3296 5.9992 22.3296 6.00843C22.3296 6.01766 22.3296 6.02688 22.3296 6.03608C22.3296 6.04528 22.3296 6.05446 22.3296 6.06363C22.3296 6.0728 22.3296 6.08195 22.3296 6.09109C22.3296 6.10023 22.3296 6.10935 22.3296 6.11845C22.3296 6.12756 22.3296 6.13665 22.3296 6.14572C22.3296 6.1548 22.3296 6.16385 22.3296 6.1729C22.3296 6.18194 22.3296 6.19097 22.3296 6.19998C22.3296 6.20899 22.3296 6.21799 22.3296 6.22697C22.3296 6.23595 22.3296 6.24491 22.3296 6.25386C22.3296 6.26281 22.3296 6.27174 22.3296 6.28066C22.3296 6.28958 22.3296 6.29848 22.3296 6.30736C22.3296 6.31625 22.3296 6.32512 22.3296 6.33398C22.3296 6.34283 22.3296 6.35167 22.3296 6.3605C22.3296 6.36932 22.3296 6.37813 22.3296 6.38692C22.3296 6.39572 22.3296 6.40449 22.3296 6.41326C22.3296 6.42202 22.3296 6.43077 22.3296 6.4395C22.3296 6.44823 22.3296 6.45694 22.3296 6.46564C22.3296 6.47435 22.3296 6.48303 22.3296 6.4917C22.3296 6.50037 22.3296 6.50902 22.3296 6.51766C22.3296 6.5263 22.3296 6.53493 22.3296 6.54354C22.3296 6.55214 22.3296 6.56074 22.3296 6.56931C22.3296 6.57789 22.3296 6.58645 22.3296 6.595C22.3296 6.60355 22.3296 6.61208 22.3296 6.6206C22.3296 6.62911 22.3296 6.63762 22.3296 6.6461C22.3296 6.65459 22.3296 6.66306 22.3296 6.67151C22.3296 6.67997 22.3296 6.68841 22.3296 6.69684C22.3296 6.70526 22.3296 6.71367 22.3296 6.72207C22.3296 6.73046 22.3296 6.73884 22.3296 6.74721C22.3296 6.75557 22.3296 6.76392 22.3296 6.77226C22.3296 6.78059 22.3296 6.78891 22.3296 6.79721C22.3296 6.80552 22.3296 6.81381 22.3296 6.82208C22.3296 6.83036 22.3296 6.83862 22.3296 6.84686C22.3296 6.8551 22.3296 6.86333 22.3296 6.87155C22.3296 6.87976 22.3296 6.88796 22.3296 6.89615C22.3296 6.90433 22.3296 6.9125 22.3296 6.92065C22.3296 6.92881 22.3296 6.93695 22.3296 6.94507C22.3296 6.9532 22.3296 6.96131 22.3296 6.9694C22.3296 6.97749 22.3296 6.98557 22.3296 6.99364C22.3296 7.0017 22.3296 7.00975 22.3296 7.01779C22.3296 7.02582 22.3296 7.03384 22.3296 7.04185C22.3296 7.04986 22.3296 7.05785 22.3296 7.06582C22.3296 7.0738 22.3296 7.08176 22.3296 7.08971C22.3296 7.09765 22.3296 7.10558 22.3296 7.1135C22.3296 7.12142 22.3296 7.12932 22.3296 7.13721C22.3296 7.14509 22.3296 7.15297 22.3296 7.16083C22.3296 7.16868 22.3296 7.17653 22.3296 7.18436C22.3296 7.19218 22.3296 7.2 22.3296 7.2078C22.3296 7.2156 22.3296 7.22338 22.3296 7.23115C22.3296 7.23892 22.3296 7.24668 22.3296 7.25442C22.3296 7.26216 22.3296 7.26989 22.3296 7.2776C22.3296 7.28531 22.3296 7.29301 22.3296 7.30069C22.3296 7.30837 22.3296 7.31604 22.3296 7.32369C22.3296 7.33135 22.3296 7.33899 22.3296 7.34661C22.3296 7.35424 22.3296 7.36185 22.3296 7.36944C22.3296 7.37704 22.3296 7.38462 22.3296 7.39219C22.3296 7.39975 22.3296 7.40731 22.3296 7.41484C22.3296 7.42238 22.3296 7.42991 22.3296 7.43742C22.3296 7.44493 22.3296 7.45242 22.3296 7.4599C22.3296 7.46738 22.3296 7.47485 22.3296 7.4823C22.3296 7.48975 22.3296 7.49719 22.3296 7.50461C22.3296 7.51204 22.3296 7.51944 22.3296 7.52684C22.3296 7.53423 22.3296 7.54161 22.3296 7.54898C22.3296 7.55635 22.3296 7.5637 22.3296 7.57104C22.3296 7.57837 22.3296 7.5857 22.3296 7.59301C22.3296 7.60032 22.3296 7.60761 22.3296 7.61489C22.3296 7.62217 22.3296 7.62944 22.3296 7.63669C22.3296 7.64395 22.3296 7.65118 22.3296 7.65841C22.3296 7.66563 22.3296 7.67284 22.3296 7.68004C22.3296 7.68724 22.3296 7.69442 22.3296 7.70159C22.3296 7.70875 22.3296 7.71591 22.3296 7.72305C22.3296 7.73019 22.3296 7.73731 22.3296 7.74443C22.3296 7.75154 22.3296 7.75864 22.3296 7.76572C22.3296 7.7728 22.3296 7.77987 22.3296 7.78693C22.3296 7.79399 22.3296 7.80103 22.3296 7.80806C22.3296 7.81508 22.3296 7.8221 22.3296 7.8291C22.3296 7.8361 22.3296 7.84308 22.3296 7.85006C22.3296 7.85703 22.3296 7.86399 22.3296 7.87093C22.3296 7.87788 22.3296 7.88481 22.3296 7.89172C22.3296 7.89864 22.3296 7.90554 22.3296 7.91243C22.3296 7.91932 22.3296 7.9262 22.3296 7.93306C22.3296 7.93992 22.3296 7.94677 22.3296 7.9536C22.3296 7.96044 22.3296 7.96726 22.3296 7.97407C22.3296 7.98087 22.3296 7.98767 22.3296 7.99444C22.3296 8.00122 22.3296 8.00799 22.3296 8.01474C22.3296 8.02149 22.3296 8.02823 22.3296 8.03496C22.3296 8.04168 22.3296 8.04839 22.3296 8.05509C22.3296 8.06179 22.3296 8.06847 22.3296 8.07514C22.3296 8.08181 22.3296 8.08847 22.3296 8.09511C22.3296 8.10175 22.3296 8.10838 22.3296 8.115C22.3296 8.12161 22.3296 8.12821 22.3296 8.1348C22.3296 8.14139 22.3296 8.14797 22.3296 8.15453C22.3296 8.16109 22.3296 8.16764 22.3296 8.17417C22.3296 8.18071 22.3296 8.18723 22.3296 8.19374C22.3296 8.20024 22.3296 8.20674 22.3296 8.21322C22.3296 8.2197 22.3296 8.22617 22.3296 8.23262C22.3296 8.23908 22.3296 8.24552 22.3296 8.25194C22.3296 8.25837 22.3296 8.26479 22.3296 8.27119C22.3296 8.27759 22.3296 8.28397 22.3296 8.29035C22.3296 8.29672 22.3296 8.30308 22.3296 8.30943C22.3296 8.31578 22.3296 8.32211 22.3296 8.32843C22.3296 8.33475 22.3296 8.34106 22.3296 8.34736C22.3296 8.35365 22.3296 8.35993 22.3296 8.3662C22.3296 8.37247 22.3296 8.37872 22.3296 8.38496C22.3296 8.3912 22.3296 8.39743 22.3296 8.40365C22.3296 8.40986 22.3296 8.41606 22.3296 8.42225C22.3296 8.42844 22.3296 8.43462 22.3296 8.44078C22.3296 8.44694 22.3296 8.45309 22.3296 8.45923C22.3296 8.46536 22.3296 8.47149 22.3296 8.4776C22.3296 8.48371 22.3296 8.4898 22.3296 8.49589C22.3296 8.50197 22.3296 8.50804 22.3296 8.5141C22.3296 8.52016 22.3296 8.52621 22.3296 8.53224C22.3296 8.53827 22.3296 8.54429 22.3296 8.55029C22.3296 8.5563 22.3296 8.56229 22.3296 8.56827C22.3296 8.57425 22.3296 8.58022 22.3296 8.58618C22.3296 8.59213 22.3296 8.59807 22.3296 8.604C22.3296 8.60993 22.3296 8.61584 22.3296 8.62175C22.3296 8.62765 22.3296 8.63354 22.3296 8.63942C22.3296 8.6453 22.3296 8.65116 22.3296 8.65701C22.3296 8.66286 22.3296 8.6687 22.3296 8.67453C22.3296 8.68035 22.3296 8.68617 22.3296 8.69197C22.3296 8.69777 22.3296 8.70356 22.3296 8.70933C22.3296 8.71511 22.3296 8.72087 22.3296 8.72662C22.3296 8.73237 22.3296 8.7381 22.3296 8.74383C22.3296 8.74955 22.3296 8.75526 22.3296 8.76096C22.3296 8.76666 22.3296 8.77235 22.3296 8.77802C22.3296 8.78369 22.3296 8.78936 22.3296 8.795C22.3296 8.80065 22.3296 8.80629 22.3296 8.81191C22.3296 8.81754 22.3296 8.82315 22.3296 8.82874C22.3296 8.83434 22.3296 8.83993 22.3296 8.8455C22.3296 8.85107 22.3296 8.85663 22.3296 8.86218C22.3296 8.86773 22.3296 8.87327 22.3296 8.87879C22.3296 8.88431 22.3296 8.88982 22.3296 8.89532C22.3296 8.90082 22.3296 8.90631 22.3296 8.91178C22.3296 8.91725 22.3296 8.92271 22.3296 8.92816C22.3296 8.93361 22.3296 8.93905 22.3296 8.94447C22.3296 8.94989 22.3296 8.9553 22.3296 8.9607C22.3296 8.9661 22.3296 8.97149 22.3296 8.97686C22.3296 8.98224 22.3296 8.9876 22.3296 8.99295C22.3296 8.9983 22.3296 9.00364 22.3296 9.00896C22.3296 9.01429 22.3296 9.0196 22.3296 9.0249C22.3296 9.0302 22.3296 9.03549 22.3296 9.04077C22.3296 9.04604 22.3296 9.05131 22.3296 9.05656C22.3296 9.06181 22.3296 9.06705 22.3296 9.07228C22.3296 9.07751 22.3296 9.08272 22.3296 9.08793C22.3296 9.09313 22.3296 9.09832 22.3296 9.1035C22.3296 9.10868 22.3296 9.11385 22.3296 9.119C22.3296 9.12416 22.3296 9.1293 22.3296 9.13443C22.3296 9.13956 22.3296 9.14468 22.3296 9.14979C22.3296 9.15489 22.3296 9.15999 22.3296 9.16507C22.3296 9.17015 22.3296 9.17522 22.3296 9.18028C22.3296 9.18534 22.3296 9.19039 22.3296 9.19542C22.3296 9.20046 22.3296 9.20548 22.3296 9.21049C22.3296 9.2155 22.3296 9.2205 22.3296 9.22549C22.3296 9.23048 22.3296 9.23545 22.3296 9.24041C22.3296 9.24538 22.3296 9.25033 22.3296 9.25527C22.3296 9.26021 22.3296 9.26514 22.3296 9.27005C22.3296 9.27497 22.3296 9.27987 22.3296 9.28476C22.3296 9.28966 22.3296 9.29454 22.3296 9.29941C22.3296 9.30428 22.3296 9.30913 22.3296 9.31398C22.3296 9.31882 22.3296 9.32366 22.3296 9.32848C22.3296 9.3333 22.3296 9.33811 22.3296 9.34291C22.3296 9.34771 22.3296 9.35249 22.3296 9.35727C22.3296 9.36204 22.3296 9.36681 22.3296 9.37156C22.3296 9.37631 22.3296 9.38105 22.3296 9.38578C22.3296 9.39051 22.3296 9.39522 22.3296 9.39993C22.3296 9.40463 22.3296 9.40933 22.3296 9.41401C22.3296 9.41869 22.3296 9.42336 22.3296 9.42802C22.3296 9.43268 22.3296 9.43733 22.3296 9.44196C22.3296 9.4466 22.3296 9.45123 22.3296 9.45584C22.3296 9.46045 22.3296 9.46505 22.3296 9.46964C22.3296 9.47423 22.3296 9.47881 22.3296 9.48338C22.3296 9.48795 22.3296 9.4925 22.3296 9.49705C22.3296 9.50159 22.3296 9.50612 22.3296 9.51064C22.3296 9.51517 22.3296 9.51968 22.3296 9.52417C22.3296 9.52867 22.3296 9.53316 22.3296 9.53764C22.3296 9.54211 22.3296 9.54658 22.3296 9.55103C22.3296 9.55548 22.3296 9.55993 22.3296 9.56436C22.3296 9.56879 22.3296 9.57321 22.3296 9.57762C22.3296 9.58202 22.3296 9.58642 22.3296 9.59081C22.3296 9.59519 22.3296 9.59957 22.3296 9.60393C22.3296 9.60829 22.3296 9.61265 22.3296 9.61699C22.3296 9.62133 22.3296 9.62566 22.3296 9.62998C22.3296 9.6343 22.3296 9.6386 22.3296 9.6429C22.3296 9.6472 22.3296 9.65148 22.3296 9.65576C22.3296 9.66003 22.3296 9.66429 22.3296 9.66855C22.3296 9.6728 22.3296 9.67704 22.3296 9.68127C22.3296 9.6855 22.3296 9.68972 22.3296 9.69393C22.3296 9.69813 22.3296 9.70233 22.3296 9.70652C22.3296 9.7107 22.3296 9.71488 22.3296 9.71904C22.3296 9.7232 22.3296 9.72736 22.3296 9.7315C22.3296 9.73564 22.3296 9.73977 22.3296 9.74389C22.3296 9.74801 22.3296 9.75212 22.3296 9.75622C22.3296 9.76032 22.3296 9.76441 22.3296 9.76848C22.3296 9.77256 22.3296 9.77662 22.3296 9.78068C22.3296 9.78473 22.3296 9.78878 22.3296 9.79281C22.3296 9.79684 22.3296 9.80087 22.3296 9.80488C22.3296 9.80889 22.3296 9.81289 22.3296 9.81688C22.3296 9.82087 22.3296 9.82485 22.3296 9.82882C22.3296 9.83279 22.3296 9.83675 22.3296 9.84069C22.3296 9.84464 22.3296 9.84858 22.3296 9.8525C22.3296 9.85643 22.3296 9.86034 22.3296 9.86425C22.3296 9.86815 22.3296 9.87204 22.3296 9.87593C22.3296 9.87981 22.3296 9.88368 22.3296 9.88754C22.3296 9.89141 22.3296 9.89526 22.3296 9.8991C22.3296 9.90294 22.3296 9.90677 22.3296 9.91059C22.3296 9.91441 22.3296 9.91822 22.3296 9.92202C22.3296 9.92581 22.3296 9.9296 22.3296 9.93338C22.3296 9.93716 22.3296 9.94092 22.3296 9.94468C22.3296 9.94844 22.3296 9.95218 22.3296 9.95592C22.3296 9.95965 22.3296 9.96338 22.3296 9.96709C22.3296 9.97081 22.3296 9.97451 22.3296 9.9782C22.3296 9.9819 22.3296 9.98558 22.3296 9.98925C22.3296 9.99293 22.3296 9.99659 22.3296 10.0002C22.3296 10.0039 22.3296 10.0075 22.3296 10.0112C22.3296 10.0148 22.3296 10.0184 22.3296 10.022C22.3296 10.0256 22.3296 10.0292 22.3296 10.0328C22.3296 10.0364 22.3296 10.04 22.3296 10.0436C22.3296 10.0471 22.3296 10.0507 22.3296 10.0543C22.3296 10.0578 22.3296 10.0613 22.3296 10.0649C22.3296 10.0684 22.3296 10.0719 22.3296 10.0754C22.3296 10.0789 22.3296 10.0824 22.3296 10.0859C22.3296 10.0894 22.3296 10.0929 22.3296 10.0964C22.3296 10.0998 22.3296 10.1033 22.3296 10.1067C22.3296 10.1102 22.3296 10.1136 22.3296 10.117C22.3296 10.1205 22.3296 10.1239 22.3296 10.1273C22.3296 10.1307 22.3296 10.1341 22.3296 10.1375C22.3296 10.1409 22.3296 10.1443 22.3296 10.1476C22.3296 10.151 22.3296 10.1543 22.3296 10.1577C22.3296 10.161 22.3296 10.1644 22.3296 10.1677C22.3296 10.171 22.3296 10.1744 22.3296 10.1777C22.3296 10.181 22.3296 10.1843 22.3296 10.1876C22.3296 10.1908 22.3296 10.1941 22.3296 10.1974C22.3296 10.2007 22.3296 10.2039 22.3296 10.2072C22.3296 10.2104 22.3296 10.2136 22.3296 10.2169C22.3296 10.2201 22.3296 10.2233 22.3296 10.2265C22.3296 10.2297 22.3296 10.2329 22.3296 10.2361C22.3296 10.2393 22.3296 10.2425 22.3296 10.2457C22.3296 10.2488 22.3296 10.252 22.3296 10.2552C22.3296 10.2583 22.3296 10.2614 22.3296 10.2646C22.3296 10.2677 22.3296 10.2708 22.3296 10.2739C22.3296 10.2771 22.3296 10.2802 22.3296 10.2833C22.3296 10.2863 22.3296 10.2894 22.3296 10.2925C22.3296 10.2956 22.3296 10.2986 22.3296 10.3017C22.3296 10.3047 22.3296 10.3078 22.3296 10.3108C22.3296 10.3139 22.3296 10.3169 22.3296 10.3199C22.3296 10.3229 22.3296 10.3259 22.3296 10.3289C22.3296 10.3319 22.3296 10.3349 22.3296 10.3379C22.3296 10.3409 22.3296 10.3438 22.3296 10.3468C22.3296 10.3498 22.3296 10.3527 22.3296 10.3556C22.3296 10.3586 22.3296 10.3615 22.3296 10.3644C22.3296 10.3674 22.3296 10.3703 22.3296 10.3732C22.3296 10.3761 22.3296 10.379 22.3296 10.3819C22.3296 10.3847 22.3296 10.3876 22.3296 10.3905C22.3296 10.3933 22.3296 10.3962 22.3296 10.399C22.3296 10.4019 22.3296 10.4047 22.3296 10.4076C22.3296 10.4104 22.3296 10.4132 22.3296 10.416C22.3296 10.4188 22.3296 10.4216 22.3296 10.4244C22.3296 10.4272 22.3296 10.43 22.3296 10.4328C22.3296 10.4355 22.3296 10.4383 22.3296 10.4411C22.3296 10.4438 22.3296 10.4466 22.3296 10.4493C22.3296 10.452 22.3296 10.4548 22.3296 10.4575C22.3296 10.4602 22.3296 10.4629 22.3296 10.4656C22.3296 10.4683 22.3296 10.471 22.3296 10.4737C22.3296 10.4764 22.3296 10.479 22.3296 10.4817C22.3296 10.4844 22.3296 10.487 22.3296 10.4897C22.3296 10.4923 22.3296 10.4949 22.3296 10.4976C22.3296 10.5002 22.3296 10.5028 22.3296 10.5054C22.3296 10.508 22.3296 10.5106 22.3296 10.5132C22.3296 10.5158 22.3296 10.5184 22.3296 10.521C22.3296 10.5235 22.3296 10.5261 22.3296 10.5287C22.3296 10.5312 22.3296 10.5338 22.3296 10.5363C22.3296 10.5389 22.3296 10.5414 22.3296 10.5439C22.3296 10.5464 22.3296 10.5489 22.3296 10.5514C22.3296 10.5539 22.3296 10.5564 22.3296 10.5589C22.3296 10.5614 22.3296 10.5639 22.3296 10.5663C22.3296 10.5688 22.3296 10.5713 22.3296 10.5737C22.3296 10.5762 22.3296 10.5786 22.3296 10.5811C22.3296 10.5835 22.3296 10.5859 22.3296 10.5883C22.3296 10.5907 22.3296 10.5931 22.3296 10.5955C22.3296 10.5979 22.3296 10.6003 22.3296 10.6027C22.3296 10.6051 22.3296 10.6075 22.3296 10.6098C22.3296 10.6122 22.3296 10.6146 22.3296 10.6169C22.3296 10.6192 22.3296 10.6216 22.3296 10.6239C22.3296 10.6262 22.3296 10.6286 22.3296 10.6309C22.3296 10.6332 22.3296 10.6355 22.3296 10.6378C22.3296 10.6401 22.3296 10.6424 22.3296 10.6447C22.3296 10.6469 22.3296 10.6492 22.3296 10.6515C22.3296 10.6537 22.3296 10.656 22.3296 10.6582C22.3296 10.6605 22.3296 10.6627 22.3296 10.6649C22.3296 10.6672 22.3296 10.6694 22.3296 10.6716C22.3296 10.6738 22.3296 10.676 22.3296 10.6782C22.3296 10.6804 22.3296 10.6826 22.3296 10.6848C22.3296 10.6869 22.3296 10.6891 22.3296 10.6913C22.3296 10.6934 22.3296 10.6956 22.3296 10.6977C22.3296 10.6999 22.3296 10.702 22.3296 10.7041C22.3296 10.7063 22.3296 10.7084 22.3296 10.7105C22.3296 10.7126 22.3296 10.7147 22.3296 10.7168C22.3296 10.7189 22.3296 10.721 22.3296 10.7231C22.3296 10.7251 22.3296 10.7272 22.3296 10.7293C22.3296 10.7313 22.3296 10.7334 22.3296 10.7354C22.3296 10.7375 22.3296 10.7395 22.3296 10.7416C22.3296 10.7436 22.3296 10.7456 22.3296 10.7476C22.3296 10.7496 22.3296 10.7517 22.3296 10.7536C22.3296 10.7556 22.3296 10.7576 22.3296 10.7596C22.3296 10.7616 22.3296 10.7636 22.3296 10.7655C22.3296 10.7675 22.3296 10.7695 22.3296 10.7714C22.3296 10.7734 22.3296 10.7753 22.3296 10.7772C22.3296 10.7792 22.3296 10.7811 22.3296 10.783C22.3296 10.7849 22.3296 10.7869 22.3296 10.7888C22.3296 10.7907 22.3296 10.7926 22.3296 10.7944C22.3296 10.7963 22.3296 10.7982 22.3296 10.8001C22.3296 10.8019 22.3296 10.8038 22.3296 10.8057C22.3296 10.8075 22.3296 10.8094 22.3296 10.8112C22.3296 10.8131 22.3296 10.8149 22.3296 10.8167C22.3296 10.8185 22.3296 10.8204 22.3296 10.8222C22.3296 10.824 22.3296 10.8258 22.3296 10.8276C22.3296 10.8294 22.3296 10.8311 22.3296 10.8329C22.3296 10.8347 22.3296 10.8365 22.3296 10.8382C22.3296 10.84 22.3296 10.8418 22.3296 10.8435C22.3296 10.8453 22.3296 10.847 22.3296 10.8487C22.3296 10.8505 22.3296 10.8522 22.3296 10.8539C22.3296 10.8556 22.3296 10.8573 22.3296 10.859C22.3296 10.8607 22.3296 10.8624 22.3296 10.8641C22.3296 10.8658 22.3296 10.8675 22.3296 10.8692C22.3296 10.8708 22.3296 10.8725 22.3296 10.8742C22.3296 10.8758 22.3296 10.8775 22.3296 10.8791C22.3296 10.8807 22.3296 10.8824 22.3296 10.884C22.3296 10.8856 22.3296 10.8873 22.3296 10.8889C22.3296 10.8905 22.3296 10.8921 22.3296 10.8937C22.3296 10.8953 22.3296 10.8969 22.3296 10.8985C22.3296 10.9 22.3296 10.9016 22.3296 10.9032C22.3296 10.9048 22.3296 10.9063 22.3296 10.9079C22.3296 10.9094 22.3296 10.911 22.3296 10.9125C22.3296 10.9141 22.3296 10.9156 22.3296 10.9171C22.3296 10.9186 22.3296 10.9202 22.3296 10.9217C22.3296 10.9232 22.3296 10.9247 22.3296 10.9262C22.3296 10.9277 22.3296 10.9292 22.3296 10.9306C22.3296 10.9321 22.3296 10.9336 22.3296 10.9351C22.3296 10.9365 22.3296 10.938 22.3296 10.9394C22.3296 10.9409 22.3296 10.9423 22.3296 10.9438C22.3296 10.9452 22.3296 10.9467 22.3296 10.9481C22.3296 10.9495 22.3296 10.9509 22.3296 10.9523C22.3296 10.9538 22.3296 10.9552 22.3296 10.9566C22.3296 10.958 22.3296 10.9593 22.3296 10.9607C22.3296 10.9621 22.3296 10.9635 22.3296 10.9649C22.3296 10.9662 22.3296 10.9676 22.3296 10.9689C22.3296 10.9703 22.3296 10.9716 22.3296 10.973C22.3296 10.9743 22.3296 10.9757 22.3296 10.977C22.3296 10.9783 22.3296 10.9796 22.3296 10.981C22.3296 10.9823 22.3296 10.9836 22.3296 10.9849C22.3296 10.9862 22.3296 10.9875 22.3296 10.9888C22.3296 10.99 22.3296 10.9913 22.3296 10.9926C22.3296 10.9939 22.3296 10.9951 22.3296 10.9964C22.3296 10.9977 22.3296 10.9989 22.3296 11.0002C22.3296 11.0014 22.3296 11.0026 22.3296 11.0039C22.3296 11.0051 22.3296 11.0063 22.3296 11.0076C22.3296 11.0088 22.3296 11.01 22.3296 11.0112C22.3296 11.0124 22.3296 11.0136 22.3296 11.0148C22.3296 11.016 22.3296 11.0172 22.3296 11.0184C22.3296 11.0195 22.3296 11.0207 22.3296 11.0219C22.3296 11.023 22.3296 11.0242 22.3296 11.0254C22.3296 11.0265 22.3296 11.0277 22.3296 11.0288C22.3296 11.0299 22.3296 11.0311 22.3296 11.0322C22.3296 11.0333 22.3296 11.0345 22.3296 11.0356C22.3296 11.0367 22.3296 11.0378 22.3296 11.0389C22.3296 11.04 22.3296 11.0411 22.3296 11.0422C22.3296 11.0433 22.3296 11.0444 22.3296 11.0454C22.3296 11.0465 22.3296 11.0476 22.3296 11.0486C22.3296 11.0497 22.3296 11.0508 22.3296 11.0518C22.3296 11.0529 22.3296 11.0539 22.3296 11.0549C22.3296 11.056 22.3296 11.057 22.3296 11.058C22.3296 11.0591 22.3296 11.0601 22.3296 11.0611C22.3296 11.0621 22.3296 11.0631 22.3296 11.0641C22.3296 11.0651 22.3296 11.0661 22.3296 11.0671C22.3296 11.0681 22.3296 11.0691 22.3296 11.07C22.3296 11.071 22.3296 11.072 22.3296 11.073C22.3296 11.0739 22.3296 11.0749 22.3296 11.0758C22.3296 11.0768 22.3296 11.0777 22.3296 11.0787C22.3296 11.0796 22.3296 11.0805 22.3296 11.0815C22.3296 11.0824 22.3296 11.0833 22.3296 11.0842C22.3296 11.0851 22.3296 11.0861 22.3296 11.087C22.3296 11.0879 22.3296 11.0888 22.3296 11.0896C22.3296 11.0905 22.3296 11.0914 22.3296 11.0923C22.3296 11.0932 22.3296 11.0941 22.3296 11.0949C22.3296 11.0958 22.3296 11.0966 22.3296 11.0975C22.3296 11.0984 22.3296 11.0992 22.3296 11.1001C22.3296 11.1009 22.3296 11.1017 22.3296 11.1026C22.3296 11.1034 22.3296 11.1042 22.3296 11.105C22.3296 11.1059 22.3296 11.1067 22.3296 11.1075C22.3296 11.1083 22.3296 11.1091 22.3296 11.1099C22.3296 11.1107 22.3296 11.1115 22.3296 11.1123C22.3296 11.113 22.3296 11.1138 22.3296 11.1146C22.3296 11.1154 22.3296 11.1161 22.3296 11.1169C22.3296 11.1177 22.3296 11.1184 22.3296 11.1192C22.3296 11.1199 22.3296 11.1207 22.3296 11.1214C22.3296 11.1221 22.3296 11.1229 22.3296 11.1236C22.3296 11.1243 22.3296 11.1251 22.3296 11.1258C22.3296 11.1265 22.3296 11.1272 22.3296 11.1279C22.3296 11.1286 22.3296 11.1293 22.3296 11.13C22.3296 11.1307 22.3296 11.1314 22.3296 11.1321C22.3296 11.1328 22.3296 11.1334 22.3296 11.1341C22.3296 11.1348 22.3296 11.1355 22.3296 11.1361C22.3296 11.1368 22.3296 11.1374 22.3296 11.1381C22.3296 11.1387 22.3296 11.1394 22.3296 11.14C22.3296 11.1407 22.3296 11.1413 22.3296 11.1419C22.3296 11.1426 22.3296 11.1432 22.3296 11.1438C22.3296 11.1444 22.3296 11.145 22.3296 11.1456C22.3296 11.1462 22.3296 11.1468 22.3296 11.1474C22.3296 11.148 22.3296 11.1486 22.3296 11.1492C22.3296 11.1498 22.3296 11.1504 22.3296 11.151C22.3296 11.1515 22.3296 11.1521 22.3296 11.1527C22.3296 11.1532 22.3296 11.1538 22.3296 11.1543C22.3296 11.1549 22.3296 11.1555 22.3296 11.156C22.3296 11.1565 22.3296 11.1571 22.3296 11.1576C22.3296 11.1581 22.3296 11.1587 22.3296 11.1592C22.3296 11.1597 22.3296 11.1602 22.3296 11.1608C22.3296 11.1613 22.3296 11.1618 22.3296 11.1623C22.3296 11.1628 22.3296 11.1633 22.3296 11.1638C22.3296 11.1643 22.3296 11.1648 22.3296 11.1652C22.3296 11.1657 22.3296 11.1662 22.3296 11.1667C22.3296 11.1671 22.3296 11.1676 22.3296 11.1681C22.3296 11.1685 22.3296 11.169 22.3296 11.1695C22.3296 11.1699 22.3296 11.1704 22.3296 11.1708C22.3296 11.1712 22.3296 11.1717 22.3296 11.1721C22.3296 11.1725 22.3296 11.173 22.3296 11.1734C22.3296 11.1738 22.3296 11.1742 22.3296 11.1747C22.3296 11.1751 22.3296 11.1755 22.3296 11.1759C22.3296 11.1763 22.3296 11.1767 22.3296 11.1771C22.3296 11.1775 22.3296 11.1779 22.3296 11.1782C22.3296 11.1786 22.3296 11.179 22.3296 11.1794C22.3296 11.1798 22.3296 11.1801 22.3296 11.1805C22.3296 11.1809 22.3296 11.1812 22.3296 11.1816C22.3296 11.1819 22.3296 11.1823 22.3296 11.1826C22.3296 11.183 22.3296 11.1833 22.3296 11.1837C22.3296 11.184 22.3296 11.1843 22.3296 11.1847C22.3296 11.185 22.3296 11.1853 22.3296 11.1856C22.3296 11.186 22.3296 11.1863 22.3296 11.1866C22.3296 11.1869 22.3296 11.1872 22.3296 11.1875C22.3296 11.1878 22.3296 11.1881 22.3296 11.1884C22.3296 11.1887 22.3296 11.189 22.3296 11.1892C22.3296 11.1895 22.3296 11.1898 22.3296 11.1901C22.3296 11.1904 22.3296 11.1906 22.3296 11.1909C22.3296 11.1912 22.3296 11.1914 22.3296 11.1917C22.3296 11.1919 22.3296 11.1922 22.3296 11.1924C22.3296 11.1927 22.3296 11.1929 22.3296 11.1932C22.3296 11.1934 22.3296 11.1936 22.3296 11.1939C22.3296 11.1941 22.3296 11.1943 22.3296 11.1945C22.3296 11.1948 22.3296 11.195 22.3296 11.1952C22.3296 11.1954 22.3296 11.1956 22.3296 11.1958C22.3296 11.196 22.3296 11.1962 22.3296 11.1964C22.3296 11.1966 22.3296 11.1968 22.3296 11.197C22.3296 11.1972 22.3296 11.1974 22.3296 11.1975C22.3296 11.1977 22.3296 11.1979 22.3296 11.1981C22.3296 11.1982 22.3296 11.1984 22.3296 11.1986C22.3296 11.1987 22.3296 11.1989 22.3296 11.199C22.3296 11.1992 22.3296 11.1993 22.3296 11.1995C22.3296 11.1996 22.3296 11.1998 22.3296 11.1999C22.3296 11.2 22.3296 11.2002 22.3296 11.2003C22.3296 11.2004 22.3296 11.2006 22.3296 11.2007C22.3296 11.2008 22.3296 11.2009 22.3296 11.201C22.3296 11.2011 22.3296 11.2013 22.3296 11.2014C22.3296 11.2015 22.3296 11.2016 22.3296 11.2017C22.3296 11.2018 22.3296 11.2019 22.3296 11.202C22.3296 11.202 22.3296 11.2021 22.3296 11.2022C22.3296 11.2023 22.3296 11.2024 22.3296 11.2024C22.3296 11.2025 22.3296 11.2026 22.3296 11.2027C22.3296 11.2027 22.3296 11.2028 22.3296 11.2028C22.3296 11.2029 22.3296 11.203 22.3296 11.203C22.3296 11.2031 22.3296 11.2031 22.3296 11.2032C22.3296 11.2032 22.3296 11.2032 22.3296 11.2033C22.3296 11.2033 22.3296 11.2033 22.3296 11.2034C22.3296 11.2034 22.3296 11.2034 22.3296 11.2034C22.3296 11.2035 22.3296 11.2035 22.3296 11.2035C22.3296 11.2035 22.3296 11.2035 22.3296 11.2035C22.3296 11.2035 22.3296 11.2035 22.8296 11.2035ZM23.3296 4.9173C23.3296 3.25223 22.0221 1.94055 20.4493 1.94056L20.4493 2.94056C21.4487 2.94055 22.3296 3.78313 22.3296 4.9173H23.3296ZM20.4493 1.94056C15.0615 1.94062 9.15134 1.94051 3.31068 1.94056L3.31069 2.94056C9.15119 2.94051 15.0616 2.94062 20.4493 2.94056L20.4493 1.94056ZM3.31068 1.94056C1.7385 1.94058 0.499989 3.29321 0.5 4.9173L1.5 4.9173C1.49999 3.78465 2.34973 2.94057 3.31069 2.94056L3.31068 1.94056ZM0.5 4.9173C0.500033 9.98449 0.500035 15.5824 0.5 20.5106L1.5 20.5106C1.50003 15.5824 1.50003 9.98448 1.5 4.9173L0.5 4.9173ZM0.5 20.5106C0.49999 21.979 1.47597 23.5 3.05524 23.5V22.5C2.23267 22.5 1.49999 21.6561 1.5 20.5106L0.5 20.5106ZM3.05524 23.5C3.06331 23.5 3.07139 23.5 3.07948 23.5C3.08758 23.5 3.09568 23.5 3.10378 23.5C3.11189 23.5 3.12001 23.5 3.12814 23.5C3.13627 23.5 3.1444 23.5 3.15255 23.5C3.16069 23.5 3.16884 23.5 3.17701 23.5C3.18517 23.5 3.19334 23.5 3.20152 23.5C3.2097 23.5 3.21789 23.5 3.22609 23.5C3.23428 23.5 3.24249 23.5 3.25071 23.5C3.25892 23.5 3.26715 23.5 3.27538 23.5C3.28361 23.5 3.29185 23.5 3.3001 23.5C3.30835 23.5 3.31661 23.5 3.32488 23.5C3.33315 23.5 3.34142 23.5 3.34971 23.5C3.35799 23.5 3.36629 23.5 3.37459 23.5C3.38289 23.5 3.3912 23.5 3.39952 23.5C3.40784 23.5 3.41617 23.5 3.42451 23.5C3.43285 23.5 3.44119 23.5 3.44955 23.5C3.4579 23.5 3.46627 23.5 3.47464 23.5C3.48301 23.5 3.49139 23.5 3.49978 23.5C3.50817 23.5 3.51657 23.5 3.52498 23.5C3.53338 23.5 3.5418 23.5 3.55022 23.5C3.55864 23.5 3.56708 23.5 3.57552 23.5C3.58396 23.5 3.59241 23.5 3.60087 23.5C3.60932 23.5 3.61779 23.5 3.62627 23.5C3.63474 23.5 3.64323 23.5 3.65172 23.5C3.66021 23.5 3.66871 23.5 3.67722 23.5C3.68573 23.5 3.69425 23.5 3.70278 23.5C3.7113 23.5 3.71984 23.5 3.72838 23.5C3.73692 23.5 3.74548 23.5 3.75404 23.5C3.7626 23.5 3.77117 23.5 3.77974 23.5C3.78832 23.5 3.79691 23.5 3.8055 23.5C3.8141 23.5 3.8227 23.5 3.83131 23.5C3.83992 23.5 3.84854 23.5 3.85717 23.5C3.8658 23.5 3.87443 23.5 3.88308 23.5C3.89172 23.5 3.90038 23.5 3.90904 23.5C3.9177 23.5 3.92637 23.5 3.93505 23.5C3.94373 23.5 3.95241 23.5 3.96111 23.5C3.96981 23.5 3.97851 23.5 3.98722 23.5C3.99593 23.5 4.00465 23.5 4.01338 23.5C4.02211 23.5 4.03085 23.5 4.03959 23.5C4.04834 23.5 4.05709 23.5 4.06585 23.5C4.07462 23.5 4.08339 23.5 4.09216 23.5C4.10094 23.5 4.10973 23.5 4.11852 23.5C4.12732 23.5 4.13612 23.5 4.14494 23.5C4.15375 23.5 4.16257 23.5 4.17139 23.5C4.18022 23.5 4.18906 23.5 4.1979 23.5C4.20675 23.5 4.2156 23.5 4.22446 23.5C4.23332 23.5 4.24219 23.5 4.25107 23.5C4.25995 23.5 4.26883 23.5 4.27773 23.5C4.28662 23.5 4.29552 23.5 4.30443 23.5C4.31334 23.5 4.32226 23.5 4.33119 23.5C4.34012 23.5 4.34905 23.5 4.35799 23.5C4.36694 23.5 4.37589 23.5 4.38485 23.5C4.3938 23.5 4.40277 23.5 4.41175 23.5C4.42072 23.5 4.42971 23.5 4.4387 23.5C4.44769 23.5 4.45669 23.5 4.4657 23.5C4.4747 23.5 4.48372 23.5 4.49274 23.5C4.50177 23.5 4.5108 23.5 4.51984 23.5C4.52888 23.5 4.53793 23.5 4.54698 23.5C4.55604 23.5 4.5651 23.5 4.57418 23.5C4.58325 23.5 4.59233 23.5 4.60142 23.5C4.6105 23.5 4.6196 23.5 4.6287 23.5C4.63781 23.5 4.64692 23.5 4.65604 23.5C4.66516 23.5 4.67429 23.5 4.68343 23.5C4.69256 23.5 4.70171 23.5 4.71086 23.5C4.72001 23.5 4.72917 23.5 4.73834 23.5C4.7475 23.5 4.75668 23.5 4.76586 23.5C4.77505 23.5 4.78424 23.5 4.79344 23.5C4.80264 23.5 4.81185 23.5 4.82106 23.5C4.83028 23.5 4.8395 23.5 4.84873 23.5C4.85796 23.5 4.8672 23.5 4.87645 23.5C4.88569 23.5 4.89495 23.5 4.90421 23.5C4.91347 23.5 4.92274 23.5 4.93202 23.5C4.9413 23.5 4.95059 23.5 4.95988 23.5C4.96917 23.5 4.97847 23.5 4.98778 23.5C4.99709 23.5 5.00641 23.5 5.01574 23.5C5.02506 23.5 5.03439 23.5 5.04373 23.5C5.05307 23.5 5.06242 23.5 5.07178 23.5C5.08113 23.5 5.0905 23.5 5.09987 23.5C5.10924 23.5 5.11862 23.5 5.12801 23.5C5.13739 23.5 5.14679 23.5 5.15619 23.5C5.16559 23.5 5.175 23.5 5.18442 23.5C5.19384 23.5 5.20326 23.5 5.2127 23.5C5.22213 23.5 5.23157 23.5 5.24102 23.5C5.25047 23.5 5.25992 23.5 5.26939 23.5C5.27885 23.5 5.28832 23.5 5.2978 23.5C5.30728 23.5 5.31677 23.5 5.32626 23.5C5.33576 23.5 5.34526 23.5 5.35477 23.5C5.36428 23.5 5.37379 23.5 5.38332 23.5C5.39284 23.5 5.40238 23.5 5.41192 23.5C5.42146 23.5 5.431 23.5 5.44056 23.5C5.45011 23.5 5.45967 23.5 5.46925 23.5C5.47882 23.5 5.48839 23.5 5.49798 23.5C5.50756 23.5 5.51716 23.5 5.52676 23.5C5.53636 23.5 5.54596 23.5 5.55558 23.5C5.56519 23.5 5.57482 23.5 5.58445 23.5C5.59408 23.5 5.60371 23.5 5.61336 23.5C5.623 23.5 5.63266 23.5 5.64232 23.5C5.65198 23.5 5.66164 23.5 5.67132 23.5C5.68099 23.5 5.69068 23.5 5.70037 23.5C5.71006 23.5 5.71975 23.5 5.72946 23.5C5.73916 23.5 5.74887 23.5 5.75859 23.5C5.76831 23.5 5.77804 23.5 5.78777 23.5C5.79751 23.5 5.80725 23.5 5.817 23.5C5.82675 23.5 5.8365 23.5 5.84627 23.5C5.85603 23.5 5.8658 23.5 5.87558 23.5C5.88536 23.5 5.89514 23.5 5.90494 23.5C5.91473 23.5 5.92453 23.5 5.93434 23.5C5.94415 23.5 5.95396 23.5 5.96378 23.5C5.9736 23.5 5.98343 23.5 5.99327 23.5C6.00311 23.5 6.01295 23.5 6.0228 23.5C6.03265 23.5 6.04251 23.5 6.05238 23.5C6.06224 23.5 6.07212 23.5 6.082 23.5C6.09188 23.5 6.10176 23.5 6.11166 23.5C6.12155 23.5 6.13146 23.5 6.14136 23.5C6.15127 23.5 6.16119 23.5 6.17111 23.5C6.18104 23.5 6.19097 23.5 6.2009 23.5C6.21084 23.5 6.22079 23.5 6.23074 23.5C6.24069 23.5 6.25065 23.5 6.26062 23.5C6.27058 23.5 6.28056 23.5 6.29054 23.5C6.30052 23.5 6.31051 23.5 6.3205 23.5C6.3305 23.5 6.3405 23.5 6.35051 23.5C6.36052 23.5 6.37053 23.5 6.38055 23.5C6.39058 23.5 6.40061 23.5 6.41065 23.5C6.42068 23.5 6.43073 23.5 6.44078 23.5C6.45083 23.5 6.46089 23.5 6.47095 23.5C6.48102 23.5 6.49109 23.5 6.50117 23.5C6.51125 23.5 6.52134 23.5 6.53143 23.5C6.54153 23.5 6.55163 23.5 6.56173 23.5C6.57184 23.5 6.58196 23.5 6.59208 23.5C6.6022 23.5 6.61233 23.5 6.62246 23.5C6.6326 23.5 6.64274 23.5 6.65289 23.5C6.66304 23.5 6.6732 23.5 6.68336 23.5C6.69352 23.5 6.70369 23.5 6.71387 23.5C6.72405 23.5 6.73423 23.5 6.74442 23.5C6.75461 23.5 6.76481 23.5 6.77501 23.5C6.78522 23.5 6.79543 23.5 6.80565 23.5C6.81587 23.5 6.82609 23.5 6.83633 23.5C6.84656 23.5 6.8568 23.5 6.86704 23.5C6.87729 23.5 6.88754 23.5 6.8978 23.5C6.90806 23.5 6.91833 23.5 6.9286 23.5C6.93887 23.5 6.94915 23.5 6.95944 23.5C6.96973 23.5 6.98002 23.5 6.99032 23.5C7.00062 23.5 7.01093 23.5 7.02124 23.5C7.03155 23.5 7.04188 23.5 7.0522 23.5C7.06253 23.5 7.07286 23.5 7.08321 23.5C7.09355 23.5 7.10389 23.5 7.11425 23.5C7.1246 23.5 7.13496 23.5 7.14533 23.5C7.1557 23.5 7.16607 23.5 7.17645 23.5C7.18684 23.5 7.19722 23.5 7.20762 23.5C7.21801 23.5 7.22841 23.5 7.23882 23.5C7.24923 23.5 7.25964 23.5 7.27006 23.5C7.28049 23.5 7.29091 23.5 7.30135 23.5C7.31178 23.5 7.32222 23.5 7.33267 23.5C7.34312 23.5 7.35357 23.5 7.36403 23.5C7.37449 23.5 7.38496 23.5 7.39544 23.5C7.40591 23.5 7.41639 23.5 7.42688 23.5C7.43736 23.5 7.44786 23.5 7.45836 23.5C7.46886 23.5 7.47936 23.5 7.48988 23.5C7.50039 23.5 7.51091 23.5 7.52144 23.5C7.53196 23.5 7.5425 23.5 7.55304 23.5C7.56358 23.5 7.57412 23.5 7.58467 23.5C7.59523 23.5 7.60579 23.5 7.61635 23.5C7.62692 23.5 7.63749 23.5 7.64807 23.5C7.65865 23.5 7.66923 23.5 7.67982 23.5C7.69041 23.5 7.70101 23.5 7.71161 23.5C7.72222 23.5 7.73283 23.5 7.74345 23.5C7.75406 23.5 7.76469 23.5 7.77532 23.5C7.78595 23.5 7.79658 23.5 7.80723 23.5C7.81787 23.5 7.82852 23.5 7.83917 23.5C7.84983 23.5 7.86049 23.5 7.87116 23.5C7.88183 23.5 7.8925 23.5 7.90318 23.5C7.91386 23.5 7.92455 23.5 7.93524 23.5C7.94594 23.5 7.95664 23.5 7.96734 23.5C7.97805 23.5 7.98876 23.5 7.99948 23.5C8.0102 23.5 8.02092 23.5 8.03165 23.5C8.04239 23.5 8.05312 23.5 8.06387 23.5C8.07461 23.5 8.08536 23.5 8.09612 23.5C8.10687 23.5 8.11764 23.5 8.12841 23.5C8.13918 23.5 8.14995 23.5 8.16073 23.5C8.17151 23.5 8.1823 23.5 8.19309 23.5C8.20389 23.5 8.21469 23.5 8.22549 23.5C8.2363 23.5 8.24711 23.5 8.25793 23.5C8.26875 23.5 8.27957 23.5 8.29041 23.5C8.30124 23.5 8.31207 23.5 8.32292 23.5C8.33376 23.5 8.34461 23.5 8.35547 23.5C8.36632 23.5 8.37718 23.5 8.38805 23.5C8.39892 23.5 8.40979 23.5 8.42067 23.5C8.43155 23.5 8.44244 23.5 8.45333 23.5C8.46422 23.5 8.47512 23.5 8.48602 23.5C8.49693 23.5 8.50784 23.5 8.51876 23.5C8.52967 23.5 8.5406 23.5 8.55152 23.5C8.56245 23.5 8.57339 23.5 8.58433 23.5C8.59527 23.5 8.60621 23.5 8.61717 23.5C8.62812 23.5 8.63908 23.5 8.65004 23.5C8.66101 23.5 8.67198 23.5 8.68296 23.5C8.69393 23.5 8.70492 23.5 8.7159 23.5C8.72689 23.5 8.73789 23.5 8.74889 23.5C8.75989 23.5 8.77089 23.5 8.78191 23.5C8.79292 23.5 8.80394 23.5 8.81496 23.5C8.82599 23.5 8.83702 23.5 8.84805 23.5C8.85909 23.5 8.87013 23.5 8.88118 23.5C8.89223 23.5 8.90328 23.5 8.91434 23.5C8.9254 23.5 8.93647 23.5 8.94754 23.5C8.95861 23.5 8.96969 23.5 8.98077 23.5C8.99185 23.5 9.00294 23.5 9.01404 23.5C9.02513 23.5 9.03623 23.5 9.04734 23.5C9.05845 23.5 9.06956 23.5 9.08068 23.5C9.0918 23.5 9.10292 23.5 9.11405 23.5C9.12518 23.5 9.13631 23.5 9.14746 23.5C9.1586 23.5 9.16974 23.5 9.1809 23.5C9.19205 23.5 9.20321 23.5 9.21437 23.5C9.22554 23.5 9.23671 23.5 9.24788 23.5C9.25906 23.5 9.27024 23.5 9.28143 23.5C9.29262 23.5 9.30381 23.5 9.31501 23.5C9.32621 23.5 9.33741 23.5 9.34862 23.5C9.35983 23.5 9.37105 23.5 9.38227 23.5C9.39349 23.5 9.40472 23.5 9.41595 23.5C9.42718 23.5 9.43842 23.5 9.44966 23.5C9.46091 23.5 9.47216 23.5 9.48341 23.5C9.49467 23.5 9.50593 23.5 9.5172 23.5C9.52846 23.5 9.53973 23.5 9.55101 23.5C9.56229 23.5 9.57357 23.5 9.58486 23.5C9.59615 23.5 9.60745 23.5 9.61875 23.5C9.63005 23.5 9.64135 23.5 9.65266 23.5C9.66397 23.5 9.67529 23.5 9.68661 23.5C9.69794 23.5 9.70926 23.5 9.7206 23.5C9.73193 23.5 9.74327 23.5 9.75461 23.5C9.76596 23.5 9.77731 23.5 9.78866 23.5C9.80002 23.5 9.81138 23.5 9.82275 23.5C9.83411 23.5 9.84548 23.5 9.85686 23.5C9.86824 23.5 9.87962 23.5 9.89101 23.5C9.9024 23.5 9.91379 23.5 9.92519 23.5C9.93659 23.5 9.94799 23.5 9.9594 23.5C9.97081 23.5 9.98223 23.5 9.99365 23.5C10.0051 23.5 10.0165 23.5 10.0279 23.5C10.0394 23.5 10.0508 23.5 10.0622 23.5C10.0737 23.5 10.0851 23.5 10.0966 23.5C10.108 23.5 10.1195 23.5 10.131 23.5C10.1424 23.5 10.1539 23.5 10.1654 23.5C10.1768 23.5 10.1883 23.5 10.1998 23.5C10.2113 23.5 10.2228 23.5 10.2343 23.5C10.2458 23.5 10.2573 23.5 10.2688 23.5C10.2803 23.5 10.2918 23.5 10.3033 23.5C10.3148 23.5 10.3264 23.5 10.3379 23.5C10.3494 23.5 10.3609 23.5 10.3725 23.5C10.384 23.5 10.3956 23.5 10.4071 23.5C10.4187 23.5 10.4302 23.5 10.4418 23.5C10.4533 23.5 10.4649 23.5 10.4765 23.5C10.488 23.5 10.4996 23.5 10.5112 23.5C10.5228 23.5 10.5343 23.5 10.5459 23.5C10.5575 23.5 10.5691 23.5 10.5807 23.5C10.5923 23.5 10.6039 23.5 10.6155 23.5C10.6271 23.5 10.6388 23.5 10.6504 23.5C10.662 23.5 10.6736 23.5 10.6853 23.5C10.6969 23.5 10.7085 23.5 10.7202 23.5C10.7318 23.5 10.7435 23.5 10.7551 23.5C10.7668 23.5 10.7784 23.5 10.7901 23.5C10.8017 23.5 10.8134 23.5 10.8251 23.5C10.8367 23.5 10.8484 23.5 10.8601 23.5C10.8718 23.5 10.8835 23.5 10.8952 23.5C10.9069 23.5 10.9185 23.5 10.9302 23.5C10.9419 23.5 10.9537 23.5 10.9654 23.5C10.9771 23.5 10.9888 23.5 11.0005 23.5C11.0122 23.5 11.024 23.5 11.0357 23.5C11.0474 23.5 11.0592 23.5 11.0709 23.5C11.0826 23.5 11.0944 23.5 11.1061 23.5C11.1179 23.5 11.1297 23.5 11.1414 23.5C11.1532 23.5 11.1649 23.5 11.1767 23.5C11.1885 23.5 11.2003 23.5 11.212 23.5C11.2238 23.5 11.2356 23.5 11.2474 23.5C11.2592 23.5 11.271 23.5 11.2828 23.5C11.2946 23.5 11.3064 23.5 11.3182 23.5C11.33 23.5 11.3418 23.5 11.3536 23.5C11.3655 23.5 11.3773 23.5 11.3891 23.5C11.4009 23.5 11.4128 23.5 11.4246 23.5C11.4364 23.5 11.4483 23.5 11.4601 23.5C11.472 23.5 11.4838 23.5 11.4957 23.5C11.5076 23.5 11.5194 23.5 11.5313 23.5C11.5431 23.5 11.555 23.5 11.5669 23.5C11.5788 23.5 11.5907 23.5 11.6025 23.5C11.6144 23.5 11.6263 23.5 11.6382 23.5C11.6501 23.5 11.662 23.5 11.6739 23.5C11.6858 23.5 11.6977 23.5 11.7096 23.5C11.7216 23.5 11.7335 23.5 11.7454 23.5C11.7573 23.5 11.7693 23.5 11.7812 23.5C11.7931 23.5 11.8051 23.5 11.817 23.5C11.8289 23.5 11.8409 23.5 11.8528 23.5C11.8648 23.5 11.8767 23.5 11.8887 23.5C11.9007 23.5 11.9126 23.5 11.9246 23.5C11.9366 23.5 11.9485 23.5 11.9605 23.5C11.9725 23.5 11.9845 23.5 11.9965 23.5C12.0085 23.5 12.0204 23.5 12.0324 23.5C12.0444 23.5 12.0564 23.5 12.0685 23.5C12.0805 23.5 12.0925 23.5 12.1045 23.5C12.1165 23.5 12.1285 23.5 12.1405 23.5C12.1526 23.5 12.1646 23.5 12.1766 23.5C12.1887 23.5 12.2007 23.5 12.2127 23.5C12.2248 23.5 12.2368 23.5 12.2489 23.5C12.2609 23.5 12.273 23.5 12.285 23.5C12.2971 23.5 12.3092 23.5 12.3212 23.5C12.3333 23.5 12.3454 23.5 12.3575 23.5C12.3695 23.5 12.3816 23.5 12.3937 23.5C12.4058 23.5 12.4179 23.5 12.43 23.5C12.4421 23.5 12.4542 23.5 12.4663 23.5C12.4784 23.5 12.4905 23.5 12.5026 23.5C12.5147 23.5 12.5268 23.5 12.5389 23.5C12.5511 23.5 12.5632 23.5 12.5753 23.5C12.5874 23.5 12.5996 23.5 12.6117 23.5C12.6239 23.5 12.636 23.5 12.6481 23.5C12.6603 23.5 12.6724 23.5 12.6846 23.5C12.6968 23.5 12.7089 23.5 12.7211 23.5C12.7332 23.5 12.7454 23.5 12.7576 23.5C12.7698 23.5 12.7819 23.5 12.7941 23.5C12.8063 23.5 12.8185 23.5 12.8307 23.5C12.8429 23.5 12.855 23.5 12.8672 23.5C12.8794 23.5 12.8916 23.5 12.9039 23.5C12.9161 23.5 12.9283 23.5 12.9405 23.5C12.9527 23.5 12.9649 23.5 12.9771 23.5C12.9894 23.5 13.0016 23.5 13.0138 23.5C13.026 23.5 13.0383 23.5 13.0505 23.5C13.0628 23.5 13.075 23.5 13.0873 23.5C13.0995 23.5 13.1117 23.5 13.124 23.5C13.1363 23.5 13.1485 23.5 13.1608 23.5C13.173 23.5 13.1853 23.5 13.1976 23.5C13.2099 23.5 13.2221 23.5 13.2344 23.5C13.2467 23.5 13.259 23.5 13.2713 23.5C13.2836 23.5 13.2958 23.5 13.3081 23.5C13.3204 23.5 13.3327 23.5 13.345 23.5C13.3573 23.5 13.3697 23.5 13.382 23.5C13.3943 23.5 13.4066 23.5 13.4189 23.5C13.4312 23.5 13.4436 23.5 13.4559 23.5C13.4682 23.5 13.4805 23.5 13.4929 23.5C13.5052 23.5 13.5176 23.5 13.5299 23.5C13.5422 23.5 13.5546 23.5 13.5669 23.5C13.5793 23.5 13.5916 23.5 13.604 23.5C13.6164 23.5 13.6287 23.5 13.6411 23.5C13.6535 23.5 13.6658 23.5 13.6782 23.5C13.6906 23.5 13.703 23.5 13.7153 23.5C13.7277 23.5 13.7401 23.5 13.7525 23.5C13.7649 23.5 13.7773 23.5 13.7897 23.5C13.8021 23.5 13.8145 23.5 13.8269 23.5C13.8393 23.5 13.8517 23.5 13.8641 23.5C13.8765 23.5 13.8889 23.5 13.9014 23.5C13.9138 23.5 13.9262 23.5 13.9386 23.5C13.9511 23.5 13.9635 23.5 13.9759 23.5C13.9884 23.5 14.0008 23.5 14.0132 23.5C14.0257 23.5 14.0381 23.5 14.0506 23.5C14.063 23.5 14.0755 23.5 14.0879 23.5C14.1004 23.5 14.1129 23.5 14.1253 23.5C14.1378 23.5 14.1503 23.5 14.1627 23.5C14.1752 23.5 14.1877 23.5 14.2002 23.5C14.2126 23.5 14.2251 23.5 14.2376 23.5C14.2501 23.5 14.2626 23.5 14.2751 23.5C14.2876 23.5 14.3001 23.5 14.3126 23.5C14.3251 23.5 14.3376 23.5 14.3501 23.5C14.3626 23.5 14.3751 23.5 14.3876 23.5C14.4001 23.5 14.4127 23.5 14.4252 23.5C14.4377 23.5 14.4502 23.5 14.4628 23.5C14.4753 23.5 14.4878 23.5 14.5004 23.5C14.5129 23.5 14.5255 23.5 14.538 23.5C14.5505 23.5 14.5631 23.5 14.5756 23.5C14.5882 23.5 14.6007 23.5 14.6133 23.5C14.6259 23.5 14.6384 23.5 14.651 23.5C14.6636 23.5 14.6761 23.5 14.6887 23.5C14.7013 23.5 14.7138 23.5 14.7264 23.5C14.739 23.5 14.7516 23.5 14.7642 23.5C14.7768 23.5 14.7893 23.5 14.8019 23.5C14.8145 23.5 14.8271 23.5 14.8397 23.5C14.8523 23.5 14.8649 23.5 14.8775 23.5C14.8901 23.5 14.9027 23.5 14.9154 23.5C14.928 23.5 14.9406 23.5 14.9532 23.5C14.9658 23.5 14.9785 23.5 14.9911 23.5C15.0037 23.5 15.0163 23.5 15.029 23.5C15.0416 23.5 15.0542 23.5 15.0669 23.5C15.0795 23.5 15.0922 23.5 15.1048 23.5C15.1175 23.5 15.1301 23.5 15.1428 23.5C15.1554 23.5 15.1681 23.5 15.1807 23.5C15.1934 23.5 15.206 23.5 15.2187 23.5C15.2314 23.5 15.244 23.5 15.2567 23.5C15.2694 23.5 15.2821 23.5 15.2947 23.5C15.3074 23.5 15.3201 23.5 15.3328 23.5C15.3455 23.5 15.3582 23.5 15.3709 23.5C15.3835 23.5 15.3962 23.5 15.4089 23.5C15.4216 23.5 15.4343 23.5 15.447 23.5C15.4598 23.5 15.4725 23.5 15.4852 23.5C15.4979 23.5 15.5106 23.5 15.5233 23.5C15.536 23.5 15.5487 23.5 15.5615 23.5C15.5742 23.5 15.5869 23.5 15.5996 23.5C15.6124 23.5 15.6251 23.5 15.6378 23.5C15.6506 23.5 15.6633 23.5 15.6761 23.5C15.6888 23.5 15.7015 23.5 15.7143 23.5C15.727 23.5 15.7398 23.5 15.7525 23.5C15.7653 23.5 15.7781 23.5 15.7908 23.5C15.8036 23.5 15.8163 23.5 15.8291 23.5C15.8419 23.5 15.8546 23.5 15.8674 23.5C15.8802 23.5 15.893 23.5 15.9057 23.5C15.9185 23.5 15.9313 23.5 15.9441 23.5C15.9569 23.5 15.9697 23.5 15.9824 23.5C15.9952 23.5 16.008 23.5 16.0208 23.5C16.0336 23.5 16.0464 23.5 16.0592 23.5C16.072 23.5 16.0848 23.5 16.0976 23.5C16.1104 23.5 16.1232 23.5 16.1361 23.5C16.1489 23.5 16.1617 23.5 16.1745 23.5C16.1873 23.5 16.2001 23.5 16.213 23.5C16.2258 23.5 16.2386 23.5 16.2515 23.5C16.2643 23.5 16.2771 23.5 16.29 23.5C16.3028 23.5 16.3156 23.5 16.3285 23.5C16.3413 23.5 16.3542 23.5 16.367 23.5C16.3799 23.5 16.3927 23.5 16.4056 23.5C16.4184 23.5 16.4313 23.5 16.4441 23.5C16.457 23.5 16.4698 23.5 16.4827 23.5C16.4956 23.5 16.5084 23.5 16.5213 23.5C16.5342 23.5 16.547 23.5 16.5599 23.5C16.5728 23.5 16.5857 23.5 16.5986 23.5C16.6114 23.5 16.6243 23.5 16.6372 23.5C16.6501 23.5 16.663 23.5 16.6759 23.5C16.6888 23.5 16.7017 23.5 16.7145 23.5C16.7274 23.5 16.7403 23.5 16.7532 23.5C16.7661 23.5 16.7791 23.5 16.792 23.5C16.8049 23.5 16.8178 23.5 16.8307 23.5C16.8436 23.5 16.8565 23.5 16.8694 23.5C16.8823 23.5 16.8953 23.5 16.9082 23.5C16.9211 23.5 16.934 23.5 16.947 23.5C16.9599 23.5 16.9728 23.5 16.9858 23.5C16.9987 23.5 17.0116 23.5 17.0246 23.5C17.0375 23.5 17.0504 23.5 17.0634 23.5C17.0763 23.5 17.0893 23.5 17.1022 23.5C17.1152 23.5 17.1281 23.5 17.1411 23.5C17.154 23.5 17.167 23.5 17.1799 23.5C17.1929 23.5 17.2059 23.5 17.2188 23.5C17.2318 23.5 17.2448 23.5 17.2577 23.5C17.2707 23.5 17.2837 23.5 17.2966 23.5C17.3096 23.5 17.3226 23.5 17.3356 23.5C17.3485 23.5 17.3615 23.5 17.3745 23.5C17.3875 23.5 17.4005 23.5 17.4135 23.5C17.4264 23.5 17.4394 23.5 17.4524 23.5C17.4654 23.5 17.4784 23.5 17.4914 23.5C17.5044 23.5 17.5174 23.5 17.5304 23.5C17.5434 23.5 17.5564 23.5 17.5694 23.5C17.5824 23.5 17.5954 23.5 17.6084 23.5C17.6215 23.5 17.6345 23.5 17.6475 23.5C17.6605 23.5 17.6735 23.5 17.6865 23.5C17.6996 23.5 17.7126 23.5 17.7256 23.5C17.7386 23.5 17.7517 23.5 17.7647 23.5C17.7777 23.5 17.7907 23.5 17.8038 23.5C17.8168 23.5 17.8298 23.5 17.8429 23.5C17.8559 23.5 17.869 23.5 17.882 23.5C17.895 23.5 17.9081 23.5 17.9211 23.5C17.9342 23.5 17.9472 23.5 17.9603 23.5C17.9733 23.5 17.9864 23.5 17.9994 23.5C18.0125 23.5 18.0256 23.5 18.0386 23.5C18.0517 23.5 18.0647 23.5 18.0778 23.5C18.0909 23.5 18.1039 23.5 18.117 23.5C18.1301 23.5 18.1431 23.5 18.1562 23.5C18.1693 23.5 18.1824 23.5 18.1954 23.5C18.2085 23.5 18.2216 23.5 18.2347 23.5C18.2478 23.5 18.2608 23.5 18.2739 23.5C18.287 23.5 18.3001 23.5 18.3132 23.5C18.3263 23.5 18.3394 23.5 18.3525 23.5C18.3656 23.5 18.3787 23.5 18.3918 23.5C18.4049 23.5 18.418 23.5 18.4311 23.5C18.4442 23.5 18.4573 23.5 18.4704 23.5C18.4835 23.5 18.4966 23.5 18.5097 23.5C18.5228 23.5 18.5359 23.5 18.549 23.5C18.5621 23.5 18.5753 23.5 18.5884 23.5C18.6015 23.5 18.6146 23.5 18.6277 23.5C18.6409 23.5 18.654 23.5 18.6671 23.5C18.6802 23.5 18.6934 23.5 18.7065 23.5C18.7196 23.5 18.7327 23.5 18.7459 23.5C18.759 23.5 18.7721 23.5 18.7853 23.5C18.7984 23.5 18.8116 23.5 18.8247 23.5C18.8378 23.5 18.851 23.5 18.8641 23.5C18.8773 23.5 18.8904 23.5 18.9036 23.5C18.9167 23.5 18.9299 23.5 18.943 23.5C18.9562 23.5 18.9693 23.5 18.9825 23.5C18.9956 23.5 19.0088 23.5 19.0219 23.5C19.0351 23.5 19.0483 23.5 19.0614 23.5C19.0746 23.5 19.0877 23.5 19.1009 23.5C19.1141 23.5 19.1272 23.5 19.1404 23.5C19.1536 23.5 19.1667 23.5 19.1799 23.5C19.1931 23.5 19.2063 23.5 19.2194 23.5C19.2326 23.5 19.2458 23.5 19.259 23.5C19.2722 23.5 19.2853 23.5 19.2985 23.5C19.3117 23.5 19.3249 23.5 19.3381 23.5C19.3513 23.5 19.3644 23.5 19.3776 23.5C19.3908 23.5 19.404 23.5 19.4172 23.5C19.4304 23.5 19.4436 23.5 19.4568 23.5C19.47 23.5 19.4832 23.5 19.4964 23.5C19.5096 23.5 19.5228 23.5 19.536 23.5C19.5492 23.5 19.5624 23.5 19.5756 23.5C19.5888 23.5 19.602 23.5 19.6152 23.5C19.6284 23.5 19.6416 23.5 19.6548 23.5C19.6681 23.5 19.6813 23.5 19.6945 23.5C19.7077 23.5 19.7209 23.5 19.7341 23.5C19.7474 23.5 19.7606 23.5 19.7738 23.5C19.787 23.5 19.8002 23.5 19.8135 23.5C19.8267 23.5 19.8399 23.5 19.8531 23.5C19.8664 23.5 19.8796 23.5 19.8928 23.5C19.906 23.5 19.9193 23.5 19.9325 23.5C19.9457 23.5 19.959 23.5 19.9722 23.5C19.9854 23.5 19.9987 23.5 20.0119 23.5C20.0252 23.5 20.0384 23.5 20.0516 23.5C20.0649 23.5 20.0781 23.5 20.0914 23.5C20.1046 23.5 20.1179 23.5 20.1311 23.5C20.1443 23.5 20.1576 23.5 20.1708 23.5C20.1841 23.5 20.1973 23.5 20.2106 23.5C20.2238 23.5 20.2371 23.5 20.2504 23.5C20.2636 23.5 20.2769 23.5 20.2901 23.5C20.3034 23.5 20.3166 23.5 20.3299 23.5C20.3432 23.5 20.3564 23.5 20.3697 23.5C20.3829 23.5 20.3962 23.5 20.4095 23.5C20.4227 23.5 20.436 23.5 20.4493 23.5V22.5C20.436 22.5 20.4227 22.5 20.4095 22.5C20.3962 22.5 20.3829 22.5 20.3697 22.5C20.3564 22.5 20.3432 22.5 20.3299 22.5C20.3166 22.5 20.3034 22.5 20.2901 22.5C20.2769 22.5 20.2636 22.5 20.2504 22.5C20.2371 22.5 20.2238 22.5 20.2106 22.5C20.1973 22.5 20.1841 22.5 20.1708 22.5C20.1576 22.5 20.1443 22.5 20.1311 22.5C20.1179 22.5 20.1046 22.5 20.0914 22.5C20.0781 22.5 20.0649 22.5 20.0516 22.5C20.0384 22.5 20.0252 22.5 20.0119 22.5C19.9987 22.5 19.9854 22.5 19.9722 22.5C19.959 22.5 19.9457 22.5 19.9325 22.5C19.9193 22.5 19.906 22.5 19.8928 22.5C19.8796 22.5 19.8664 22.5 19.8531 22.5C19.8399 22.5 19.8267 22.5 19.8135 22.5C19.8002 22.5 19.787 22.5 19.7738 22.5C19.7606 22.5 19.7474 22.5 19.7341 22.5C19.7209 22.5 19.7077 22.5 19.6945 22.5C19.6813 22.5 19.6681 22.5 19.6548 22.5C19.6416 22.5 19.6284 22.5 19.6152 22.5C19.602 22.5 19.5888 22.5 19.5756 22.5C19.5624 22.5 19.5492 22.5 19.536 22.5C19.5228 22.5 19.5096 22.5 19.4964 22.5C19.4832 22.5 19.47 22.5 19.4568 22.5C19.4436 22.5 19.4304 22.5 19.4172 22.5C19.404 22.5 19.3908 22.5 19.3776 22.5C19.3644 22.5 19.3513 22.5 19.3381 22.5C19.3249 22.5 19.3117 22.5 19.2985 22.5C19.2853 22.5 19.2722 22.5 19.259 22.5C19.2458 22.5 19.2326 22.5 19.2194 22.5C19.2063 22.5 19.1931 22.5 19.1799 22.5C19.1667 22.5 19.1536 22.5 19.1404 22.5C19.1272 22.5 19.1141 22.5 19.1009 22.5C19.0877 22.5 19.0746 22.5 19.0614 22.5C19.0483 22.5 19.0351 22.5 19.0219 22.5C19.0088 22.5 18.9956 22.5 18.9825 22.5C18.9693 22.5 18.9562 22.5 18.943 22.5C18.9299 22.5 18.9167 22.5 18.9036 22.5C18.8904 22.5 18.8773 22.5 18.8641 22.5C18.851 22.5 18.8378 22.5 18.8247 22.5C18.8116 22.5 18.7984 22.5 18.7853 22.5C18.7721 22.5 18.759 22.5 18.7459 22.5C18.7327 22.5 18.7196 22.5 18.7065 22.5C18.6934 22.5 18.6802 22.5 18.6671 22.5C18.654 22.5 18.6409 22.5 18.6277 22.5C18.6146 22.5 18.6015 22.5 18.5884 22.5C18.5753 22.5 18.5621 22.5 18.549 22.5C18.5359 22.5 18.5228 22.5 18.5097 22.5C18.4966 22.5 18.4835 22.5 18.4704 22.5C18.4573 22.5 18.4442 22.5 18.4311 22.5C18.418 22.5 18.4049 22.5 18.3918 22.5C18.3787 22.5 18.3656 22.5 18.3525 22.5C18.3394 22.5 18.3263 22.5 18.3132 22.5C18.3001 22.5 18.287 22.5 18.2739 22.5C18.2608 22.5 18.2478 22.5 18.2347 22.5C18.2216 22.5 18.2085 22.5 18.1954 22.5C18.1824 22.5 18.1693 22.5 18.1562 22.5C18.1431 22.5 18.1301 22.5 18.117 22.5C18.1039 22.5 18.0909 22.5 18.0778 22.5C18.0647 22.5 18.0517 22.5 18.0386 22.5C18.0256 22.5 18.0125 22.5 17.9994 22.5C17.9864 22.5 17.9733 22.5 17.9603 22.5C17.9472 22.5 17.9342 22.5 17.9211 22.5C17.9081 22.5 17.895 22.5 17.882 22.5C17.869 22.5 17.8559 22.5 17.8429 22.5C17.8298 22.5 17.8168 22.5 17.8038 22.5C17.7907 22.5 17.7777 22.5 17.7647 22.5C17.7517 22.5 17.7386 22.5 17.7256 22.5C17.7126 22.5 17.6996 22.5 17.6865 22.5C17.6735 22.5 17.6605 22.5 17.6475 22.5C17.6345 22.5 17.6215 22.5 17.6084 22.5C17.5954 22.5 17.5824 22.5 17.5694 22.5C17.5564 22.5 17.5434 22.5 17.5304 22.5C17.5174 22.5 17.5044 22.5 17.4914 22.5C17.4784 22.5 17.4654 22.5 17.4524 22.5C17.4394 22.5 17.4264 22.5 17.4135 22.5C17.4005 22.5 17.3875 22.5 17.3745 22.5C17.3615 22.5 17.3485 22.5 17.3356 22.5C17.3226 22.5 17.3096 22.5 17.2966 22.5C17.2837 22.5 17.2707 22.5 17.2577 22.5C17.2448 22.5 17.2318 22.5 17.2188 22.5C17.2059 22.5 17.1929 22.5 17.1799 22.5C17.167 22.5 17.154 22.5 17.1411 22.5C17.1281 22.5 17.1152 22.5 17.1022 22.5C17.0893 22.5 17.0763 22.5 17.0634 22.5C17.0504 22.5 17.0375 22.5 17.0246 22.5C17.0116 22.5 16.9987 22.5 16.9858 22.5C16.9728 22.5 16.9599 22.5 16.947 22.5C16.934 22.5 16.9211 22.5 16.9082 22.5C16.8953 22.5 16.8823 22.5 16.8694 22.5C16.8565 22.5 16.8436 22.5 16.8307 22.5C16.8178 22.5 16.8049 22.5 16.792 22.5C16.7791 22.5 16.7661 22.5 16.7532 22.5C16.7403 22.5 16.7274 22.5 16.7145 22.5C16.7017 22.5 16.6888 22.5 16.6759 22.5C16.663 22.5 16.6501 22.5 16.6372 22.5C16.6243 22.5 16.6114 22.5 16.5986 22.5C16.5857 22.5 16.5728 22.5 16.5599 22.5C16.547 22.5 16.5342 22.5 16.5213 22.5C16.5084 22.5 16.4956 22.5 16.4827 22.5C16.4698 22.5 16.457 22.5 16.4441 22.5C16.4313 22.5 16.4184 22.5 16.4056 22.5C16.3927 22.5 16.3799 22.5 16.367 22.5C16.3542 22.5 16.3413 22.5 16.3285 22.5C16.3156 22.5 16.3028 22.5 16.29 22.5C16.2771 22.5 16.2643 22.5 16.2515 22.5C16.2386 22.5 16.2258 22.5 16.213 22.5C16.2001 22.5 16.1873 22.5 16.1745 22.5C16.1617 22.5 16.1489 22.5 16.1361 22.5C16.1232 22.5 16.1104 22.5 16.0976 22.5C16.0848 22.5 16.072 22.5 16.0592 22.5C16.0464 22.5 16.0336 22.5 16.0208 22.5C16.008 22.5 15.9952 22.5 15.9824 22.5C15.9697 22.5 15.9569 22.5 15.9441 22.5C15.9313 22.5 15.9185 22.5 15.9057 22.5C15.893 22.5 15.8802 22.5 15.8674 22.5C15.8546 22.5 15.8419 22.5 15.8291 22.5C15.8163 22.5 15.8036 22.5 15.7908 22.5C15.7781 22.5 15.7653 22.5 15.7525 22.5C15.7398 22.5 15.727 22.5 15.7143 22.5C15.7015 22.5 15.6888 22.5 15.6761 22.5C15.6633 22.5 15.6506 22.5 15.6378 22.5C15.6251 22.5 15.6124 22.5 15.5996 22.5C15.5869 22.5 15.5742 22.5 15.5615 22.5C15.5487 22.5 15.536 22.5 15.5233 22.5C15.5106 22.5 15.4979 22.5 15.4852 22.5C15.4725 22.5 15.4598 22.5 15.447 22.5C15.4343 22.5 15.4216 22.5 15.4089 22.5C15.3962 22.5 15.3835 22.5 15.3709 22.5C15.3582 22.5 15.3455 22.5 15.3328 22.5C15.3201 22.5 15.3074 22.5 15.2947 22.5C15.2821 22.5 15.2694 22.5 15.2567 22.5C15.244 22.5 15.2314 22.5 15.2187 22.5C15.206 22.5 15.1934 22.5 15.1807 22.5C15.1681 22.5 15.1554 22.5 15.1428 22.5C15.1301 22.5 15.1175 22.5 15.1048 22.5C15.0922 22.5 15.0795 22.5 15.0669 22.5C15.0542 22.5 15.0416 22.5 15.029 22.5C15.0163 22.5 15.0037 22.5 14.9911 22.5C14.9785 22.5 14.9658 22.5 14.9532 22.5C14.9406 22.5 14.928 22.5 14.9154 22.5C14.9027 22.5 14.8901 22.5 14.8775 22.5C14.8649 22.5 14.8523 22.5 14.8397 22.5C14.8271 22.5 14.8145 22.5 14.8019 22.5C14.7893 22.5 14.7768 22.5 14.7642 22.5C14.7516 22.5 14.739 22.5 14.7264 22.5C14.7138 22.5 14.7013 22.5 14.6887 22.5C14.6761 22.5 14.6636 22.5 14.651 22.5C14.6384 22.5 14.6259 22.5 14.6133 22.5C14.6007 22.5 14.5882 22.5 14.5756 22.5C14.5631 22.5 14.5505 22.5 14.538 22.5C14.5255 22.5 14.5129 22.5 14.5004 22.5C14.4878 22.5 14.4753 22.5 14.4628 22.5C14.4502 22.5 14.4377 22.5 14.4252 22.5C14.4127 22.5 14.4001 22.5 14.3876 22.5C14.3751 22.5 14.3626 22.5 14.3501 22.5C14.3376 22.5 14.3251 22.5 14.3126 22.5C14.3001 22.5 14.2876 22.5 14.2751 22.5C14.2626 22.5 14.2501 22.5 14.2376 22.5C14.2251 22.5 14.2126 22.5 14.2002 22.5C14.1877 22.5 14.1752 22.5 14.1627 22.5C14.1503 22.5 14.1378 22.5 14.1253 22.5C14.1129 22.5 14.1004 22.5 14.0879 22.5C14.0755 22.5 14.063 22.5 14.0506 22.5C14.0381 22.5 14.0257 22.5 14.0132 22.5C14.0008 22.5 13.9884 22.5 13.9759 22.5C13.9635 22.5 13.9511 22.5 13.9386 22.5C13.9262 22.5 13.9138 22.5 13.9014 22.5C13.8889 22.5 13.8765 22.5 13.8641 22.5C13.8517 22.5 13.8393 22.5 13.8269 22.5C13.8145 22.5 13.8021 22.5 13.7897 22.5C13.7773 22.5 13.7649 22.5 13.7525 22.5C13.7401 22.5 13.7277 22.5 13.7153 22.5C13.703 22.5 13.6906 22.5 13.6782 22.5C13.6658 22.5 13.6535 22.5 13.6411 22.5C13.6287 22.5 13.6164 22.5 13.604 22.5C13.5916 22.5 13.5793 22.5 13.5669 22.5C13.5546 22.5 13.5422 22.5 13.5299 22.5C13.5176 22.5 13.5052 22.5 13.4929 22.5C13.4805 22.5 13.4682 22.5 13.4559 22.5C13.4436 22.5 13.4312 22.5 13.4189 22.5C13.4066 22.5 13.3943 22.5 13.382 22.5C13.3697 22.5 13.3573 22.5 13.345 22.5C13.3327 22.5 13.3204 22.5 13.3081 22.5C13.2958 22.5 13.2836 22.5 13.2713 22.5C13.259 22.5 13.2467 22.5 13.2344 22.5C13.2221 22.5 13.2099 22.5 13.1976 22.5C13.1853 22.5 13.173 22.5 13.1608 22.5C13.1485 22.5 13.1363 22.5 13.124 22.5C13.1117 22.5 13.0995 22.5 13.0873 22.5C13.075 22.5 13.0628 22.5 13.0505 22.5C13.0383 22.5 13.026 22.5 13.0138 22.5C13.0016 22.5 12.9894 22.5 12.9771 22.5C12.9649 22.5 12.9527 22.5 12.9405 22.5C12.9283 22.5 12.9161 22.5 12.9039 22.5C12.8916 22.5 12.8794 22.5 12.8672 22.5C12.855 22.5 12.8429 22.5 12.8307 22.5C12.8185 22.5 12.8063 22.5 12.7941 22.5C12.7819 22.5 12.7698 22.5 12.7576 22.5C12.7454 22.5 12.7332 22.5 12.7211 22.5C12.7089 22.5 12.6968 22.5 12.6846 22.5C12.6724 22.5 12.6603 22.5 12.6481 22.5C12.636 22.5 12.6239 22.5 12.6117 22.5C12.5996 22.5 12.5874 22.5 12.5753 22.5C12.5632 22.5 12.5511 22.5 12.5389 22.5C12.5268 22.5 12.5147 22.5 12.5026 22.5C12.4905 22.5 12.4784 22.5 12.4663 22.5C12.4542 22.5 12.4421 22.5 12.43 22.5C12.4179 22.5 12.4058 22.5 12.3937 22.5C12.3816 22.5 12.3695 22.5 12.3575 22.5C12.3454 22.5 12.3333 22.5 12.3212 22.5C12.3092 22.5 12.2971 22.5 12.285 22.5C12.273 22.5 12.2609 22.5 12.2489 22.5C12.2368 22.5 12.2248 22.5 12.2127 22.5C12.2007 22.5 12.1887 22.5 12.1766 22.5C12.1646 22.5 12.1526 22.5 12.1405 22.5C12.1285 22.5 12.1165 22.5 12.1045 22.5C12.0925 22.5 12.0805 22.5 12.0685 22.5C12.0564 22.5 12.0444 22.5 12.0324 22.5C12.0204 22.5 12.0085 22.5 11.9965 22.5C11.9845 22.5 11.9725 22.5 11.9605 22.5C11.9485 22.5 11.9366 22.5 11.9246 22.5C11.9126 22.5 11.9007 22.5 11.8887 22.5C11.8767 22.5 11.8648 22.5 11.8528 22.5C11.8409 22.5 11.8289 22.5 11.817 22.5C11.8051 22.5 11.7931 22.5 11.7812 22.5C11.7693 22.5 11.7573 22.5 11.7454 22.5C11.7335 22.5 11.7216 22.5 11.7096 22.5C11.6977 22.5 11.6858 22.5 11.6739 22.5C11.662 22.5 11.6501 22.5 11.6382 22.5C11.6263 22.5 11.6144 22.5 11.6025 22.5C11.5907 22.5 11.5788 22.5 11.5669 22.5C11.555 22.5 11.5431 22.5 11.5313 22.5C11.5194 22.5 11.5076 22.5 11.4957 22.5C11.4838 22.5 11.472 22.5 11.4601 22.5C11.4483 22.5 11.4364 22.5 11.4246 22.5C11.4128 22.5 11.4009 22.5 11.3891 22.5C11.3773 22.5 11.3655 22.5 11.3536 22.5C11.3418 22.5 11.33 22.5 11.3182 22.5C11.3064 22.5 11.2946 22.5 11.2828 22.5C11.271 22.5 11.2592 22.5 11.2474 22.5C11.2356 22.5 11.2238 22.5 11.212 22.5C11.2003 22.5 11.1885 22.5 11.1767 22.5C11.1649 22.5 11.1532 22.5 11.1414 22.5C11.1297 22.5 11.1179 22.5 11.1061 22.5C11.0944 22.5 11.0826 22.5 11.0709 22.5C11.0592 22.5 11.0474 22.5 11.0357 22.5C11.024 22.5 11.0122 22.5 11.0005 22.5C10.9888 22.5 10.9771 22.5 10.9654 22.5C10.9537 22.5 10.9419 22.5 10.9302 22.5C10.9185 22.5 10.9069 22.5 10.8952 22.5C10.8835 22.5 10.8718 22.5 10.8601 22.5C10.8484 22.5 10.8367 22.5 10.8251 22.5C10.8134 22.5 10.8017 22.5 10.7901 22.5C10.7784 22.5 10.7668 22.5 10.7551 22.5C10.7435 22.5 10.7318 22.5 10.7202 22.5C10.7085 22.5 10.6969 22.5 10.6853 22.5C10.6736 22.5 10.662 22.5 10.6504 22.5C10.6388 22.5 10.6271 22.5 10.6155 22.5C10.6039 22.5 10.5923 22.5 10.5807 22.5C10.5691 22.5 10.5575 22.5 10.5459 22.5C10.5343 22.5 10.5228 22.5 10.5112 22.5C10.4996 22.5 10.488 22.5 10.4765 22.5C10.4649 22.5 10.4533 22.5 10.4418 22.5C10.4302 22.5 10.4187 22.5 10.4071 22.5C10.3956 22.5 10.384 22.5 10.3725 22.5C10.3609 22.5 10.3494 22.5 10.3379 22.5C10.3264 22.5 10.3148 22.5 10.3033 22.5C10.2918 22.5 10.2803 22.5 10.2688 22.5C10.2573 22.5 10.2458 22.5 10.2343 22.5C10.2228 22.5 10.2113 22.5 10.1998 22.5C10.1883 22.5 10.1768 22.5 10.1654 22.5C10.1539 22.5 10.1424 22.5 10.131 22.5C10.1195 22.5 10.108 22.5 10.0966 22.5C10.0851 22.5 10.0737 22.5 10.0622 22.5C10.0508 22.5 10.0394 22.5 10.0279 22.5C10.0165 22.5 10.0051 22.5 9.99365 22.5C9.98223 22.5 9.97081 22.5 9.9594 22.5C9.94799 22.5 9.93659 22.5 9.92519 22.5C9.91379 22.5 9.9024 22.5 9.89101 22.5C9.87962 22.5 9.86824 22.5 9.85686 22.5C9.84548 22.5 9.83411 22.5 9.82275 22.5C9.81138 22.5 9.80002 22.5 9.78866 22.5C9.77731 22.5 9.76596 22.5 9.75461 22.5C9.74327 22.5 9.73193 22.5 9.7206 22.5C9.70926 22.5 9.69794 22.5 9.68661 22.5C9.67529 22.5 9.66397 22.5 9.65266 22.5C9.64135 22.5 9.63005 22.5 9.61875 22.5C9.60745 22.5 9.59615 22.5 9.58486 22.5C9.57357 22.5 9.56229 22.5 9.55101 22.5C9.53973 22.5 9.52846 22.5 9.5172 22.5C9.50593 22.5 9.49467 22.5 9.48341 22.5C9.47216 22.5 9.46091 22.5 9.44966 22.5C9.43842 22.5 9.42718 22.5 9.41595 22.5C9.40472 22.5 9.39349 22.5 9.38227 22.5C9.37105 22.5 9.35983 22.5 9.34862 22.5C9.33741 22.5 9.32621 22.5 9.31501 22.5C9.30381 22.5 9.29262 22.5 9.28143 22.5C9.27024 22.5 9.25906 22.5 9.24788 22.5C9.23671 22.5 9.22554 22.5 9.21437 22.5C9.20321 22.5 9.19205 22.5 9.1809 22.5C9.16974 22.5 9.1586 22.5 9.14746 22.5C9.13631 22.5 9.12518 22.5 9.11405 22.5C9.10292 22.5 9.0918 22.5 9.08068 22.5C9.06956 22.5 9.05845 22.5 9.04734 22.5C9.03623 22.5 9.02513 22.5 9.01404 22.5C9.00294 22.5 8.99185 22.5 8.98077 22.5C8.96969 22.5 8.95861 22.5 8.94754 22.5C8.93647 22.5 8.9254 22.5 8.91434 22.5C8.90328 22.5 8.89223 22.5 8.88118 22.5C8.87013 22.5 8.85909 22.5 8.84805 22.5C8.83702 22.5 8.82599 22.5 8.81496 22.5C8.80394 22.5 8.79292 22.5 8.78191 22.5C8.77089 22.5 8.75989 22.5 8.74889 22.5C8.73789 22.5 8.72689 22.5 8.7159 22.5C8.70492 22.5 8.69393 22.5 8.68296 22.5C8.67198 22.5 8.66101 22.5 8.65004 22.5C8.63908 22.5 8.62812 22.5 8.61717 22.5C8.60621 22.5 8.59527 22.5 8.58433 22.5C8.57339 22.5 8.56245 22.5 8.55152 22.5C8.5406 22.5 8.52967 22.5 8.51876 22.5C8.50784 22.5 8.49693 22.5 8.48602 22.5C8.47512 22.5 8.46422 22.5 8.45333 22.5C8.44244 22.5 8.43155 22.5 8.42067 22.5C8.40979 22.5 8.39892 22.5 8.38805 22.5C8.37718 22.5 8.36632 22.5 8.35547 22.5C8.34461 22.5 8.33376 22.5 8.32292 22.5C8.31207 22.5 8.30124 22.5 8.29041 22.5C8.27957 22.5 8.26875 22.5 8.25793 22.5C8.24711 22.5 8.2363 22.5 8.22549 22.5C8.21469 22.5 8.20389 22.5 8.19309 22.5C8.1823 22.5 8.17151 22.5 8.16073 22.5C8.14995 22.5 8.13918 22.5 8.12841 22.5C8.11764 22.5 8.10687 22.5 8.09612 22.5C8.08536 22.5 8.07461 22.5 8.06387 22.5C8.05312 22.5 8.04239 22.5 8.03165 22.5C8.02092 22.5 8.0102 22.5 7.99948 22.5C7.98876 22.5 7.97805 22.5 7.96734 22.5C7.95664 22.5 7.94594 22.5 7.93524 22.5C7.92455 22.5 7.91386 22.5 7.90318 22.5C7.8925 22.5 7.88183 22.5 7.87116 22.5C7.86049 22.5 7.84983 22.5 7.83917 22.5C7.82852 22.5 7.81787 22.5 7.80723 22.5C7.79658 22.5 7.78595 22.5 7.77532 22.5C7.76469 22.5 7.75406 22.5 7.74345 22.5C7.73283 22.5 7.72222 22.5 7.71161 22.5C7.70101 22.5 7.69041 22.5 7.67982 22.5C7.66923 22.5 7.65865 22.5 7.64807 22.5C7.63749 22.5 7.62692 22.5 7.61635 22.5C7.60579 22.5 7.59523 22.5 7.58467 22.5C7.57412 22.5 7.56358 22.5 7.55304 22.5C7.5425 22.5 7.53196 22.5 7.52144 22.5C7.51091 22.5 7.50039 22.5 7.48988 22.5C7.47936 22.5 7.46886 22.5 7.45836 22.5C7.44786 22.5 7.43736 22.5 7.42688 22.5C7.41639 22.5 7.40591 22.5 7.39544 22.5C7.38496 22.5 7.37449 22.5 7.36403 22.5C7.35357 22.5 7.34312 22.5 7.33267 22.5C7.32222 22.5 7.31178 22.5 7.30135 22.5C7.29091 22.5 7.28049 22.5 7.27006 22.5C7.25964 22.5 7.24923 22.5 7.23882 22.5C7.22841 22.5 7.21801 22.5 7.20762 22.5C7.19722 22.5 7.18684 22.5 7.17645 22.5C7.16607 22.5 7.1557 22.5 7.14533 22.5C7.13496 22.5 7.1246 22.5 7.11425 22.5C7.10389 22.5 7.09355 22.5 7.08321 22.5C7.07286 22.5 7.06253 22.5 7.0522 22.5C7.04188 22.5 7.03155 22.5 7.02124 22.5C7.01093 22.5 7.00062 22.5 6.99032 22.5C6.98002 22.5 6.96973 22.5 6.95944 22.5C6.94915 22.5 6.93887 22.5 6.9286 22.5C6.91833 22.5 6.90806 22.5 6.8978 22.5C6.88754 22.5 6.87729 22.5 6.86704 22.5C6.8568 22.5 6.84656 22.5 6.83633 22.5C6.82609 22.5 6.81587 22.5 6.80565 22.5C6.79543 22.5 6.78522 22.5 6.77501 22.5C6.76481 22.5 6.75461 22.5 6.74442 22.5C6.73423 22.5 6.72405 22.5 6.71387 22.5C6.70369 22.5 6.69352 22.5 6.68336 22.5C6.6732 22.5 6.66304 22.5 6.65289 22.5C6.64274 22.5 6.6326 22.5 6.62246 22.5C6.61233 22.5 6.6022 22.5 6.59208 22.5C6.58196 22.5 6.57184 22.5 6.56173 22.5C6.55163 22.5 6.54153 22.5 6.53143 22.5C6.52134 22.5 6.51125 22.5 6.50117 22.5C6.49109 22.5 6.48102 22.5 6.47095 22.5C6.46089 22.5 6.45083 22.5 6.44078 22.5C6.43073 22.5 6.42068 22.5 6.41065 22.5C6.40061 22.5 6.39058 22.5 6.38055 22.5C6.37053 22.5 6.36052 22.5 6.35051 22.5C6.3405 22.5 6.3305 22.5 6.3205 22.5C6.31051 22.5 6.30052 22.5 6.29054 22.5C6.28056 22.5 6.27058 22.5 6.26062 22.5C6.25065 22.5 6.24069 22.5 6.23074 22.5C6.22079 22.5 6.21084 22.5 6.2009 22.5C6.19097 22.5 6.18104 22.5 6.17111 22.5C6.16119 22.5 6.15127 22.5 6.14136 22.5C6.13146 22.5 6.12155 22.5 6.11166 22.5C6.10176 22.5 6.09188 22.5 6.082 22.5C6.07212 22.5 6.06224 22.5 6.05238 22.5C6.04251 22.5 6.03265 22.5 6.0228 22.5C6.01295 22.5 6.00311 22.5 5.99327 22.5C5.98343 22.5 5.9736 22.5 5.96378 22.5C5.95396 22.5 5.94415 22.5 5.93434 22.5C5.92453 22.5 5.91473 22.5 5.90494 22.5C5.89514 22.5 5.88536 22.5 5.87558 22.5C5.8658 22.5 5.85603 22.5 5.84627 22.5C5.8365 22.5 5.82675 22.5 5.817 22.5C5.80725 22.5 5.79751 22.5 5.78777 22.5C5.77804 22.5 5.76831 22.5 5.75859 22.5C5.74887 22.5 5.73916 22.5 5.72946 22.5C5.71975 22.5 5.71006 22.5 5.70037 22.5C5.69068 22.5 5.68099 22.5 5.67132 22.5C5.66164 22.5 5.65198 22.5 5.64232 22.5C5.63266 22.5 5.623 22.5 5.61336 22.5C5.60371 22.5 5.59408 22.5 5.58445 22.5C5.57482 22.5 5.56519 22.5 5.55558 22.5C5.54596 22.5 5.53636 22.5 5.52676 22.5C5.51716 22.5 5.50756 22.5 5.49798 22.5C5.48839 22.5 5.47882 22.5 5.46925 22.5C5.45967 22.5 5.45011 22.5 5.44056 22.5C5.431 22.5 5.42146 22.5 5.41192 22.5C5.40238 22.5 5.39284 22.5 5.38332 22.5C5.37379 22.5 5.36428 22.5 5.35477 22.5C5.34526 22.5 5.33576 22.5 5.32626 22.5C5.31677 22.5 5.30728 22.5 5.2978 22.5C5.28832 22.5 5.27885 22.5 5.26939 22.5C5.25992 22.5 5.25047 22.5 5.24102 22.5C5.23157 22.5 5.22213 22.5 5.2127 22.5C5.20326 22.5 5.19384 22.5 5.18442 22.5C5.175 22.5 5.16559 22.5 5.15619 22.5C5.14679 22.5 5.13739 22.5 5.12801 22.5C5.11862 22.5 5.10924 22.5 5.09987 22.5C5.0905 22.5 5.08113 22.5 5.07178 22.5C5.06242 22.5 5.05307 22.5 5.04373 22.5C5.03439 22.5 5.02506 22.5 5.01574 22.5C5.00641 22.5 4.99709 22.5 4.98778 22.5C4.97847 22.5 4.96917 22.5 4.95988 22.5C4.95059 22.5 4.9413 22.5 4.93202 22.5C4.92274 22.5 4.91347 22.5 4.90421 22.5C4.89495 22.5 4.88569 22.5 4.87645 22.5C4.8672 22.5 4.85796 22.5 4.84873 22.5C4.8395 22.5 4.83028 22.5 4.82106 22.5C4.81185 22.5 4.80264 22.5 4.79344 22.5C4.78424 22.5 4.77505 22.5 4.76586 22.5C4.75668 22.5 4.7475 22.5 4.73834 22.5C4.72917 22.5 4.72001 22.5 4.71086 22.5C4.70171 22.5 4.69256 22.5 4.68343 22.5C4.67429 22.5 4.66516 22.5 4.65604 22.5C4.64692 22.5 4.63781 22.5 4.6287 22.5C4.6196 22.5 4.6105 22.5 4.60142 22.5C4.59233 22.5 4.58325 22.5 4.57418 22.5C4.5651 22.5 4.55604 22.5 4.54698 22.5C4.53793 22.5 4.52888 22.5 4.51984 22.5C4.5108 22.5 4.50177 22.5 4.49274 22.5C4.48372 22.5 4.4747 22.5 4.4657 22.5C4.45669 22.5 4.44769 22.5 4.4387 22.5C4.42971 22.5 4.42072 22.5 4.41175 22.5C4.40277 22.5 4.3938 22.5 4.38485 22.5C4.37589 22.5 4.36694 22.5 4.35799 22.5C4.34905 22.5 4.34012 22.5 4.33119 22.5C4.32226 22.5 4.31334 22.5 4.30443 22.5C4.29552 22.5 4.28662 22.5 4.27773 22.5C4.26883 22.5 4.25995 22.5 4.25107 22.5C4.24219 22.5 4.23332 22.5 4.22446 22.5C4.2156 22.5 4.20675 22.5 4.1979 22.5C4.18906 22.5 4.18022 22.5 4.17139 22.5C4.16257 22.5 4.15375 22.5 4.14494 22.5C4.13612 22.5 4.12732 22.5 4.11852 22.5C4.10973 22.5 4.10094 22.5 4.09216 22.5C4.08339 22.5 4.07462 22.5 4.06585 22.5C4.05709 22.5 4.04834 22.5 4.03959 22.5C4.03085 22.5 4.02211 22.5 4.01338 22.5C4.00465 22.5 3.99593 22.5 3.98722 22.5C3.97851 22.5 3.96981 22.5 3.96111 22.5C3.95241 22.5 3.94373 22.5 3.93505 22.5C3.92637 22.5 3.9177 22.5 3.90904 22.5C3.90038 22.5 3.89172 22.5 3.88308 22.5C3.87443 22.5 3.8658 22.5 3.85717 22.5C3.84854 22.5 3.83992 22.5 3.83131 22.5C3.8227 22.5 3.8141 22.5 3.8055 22.5C3.79691 22.5 3.78832 22.5 3.77974 22.5C3.77117 22.5 3.7626 22.5 3.75404 22.5C3.74548 22.5 3.73692 22.5 3.72838 22.5C3.71984 22.5 3.7113 22.5 3.70278 22.5C3.69425 22.5 3.68573 22.5 3.67722 22.5C3.66871 22.5 3.66021 22.5 3.65172 22.5C3.64323 22.5 3.63474 22.5 3.62627 22.5C3.61779 22.5 3.60932 22.5 3.60087 22.5C3.59241 22.5 3.58396 22.5 3.57552 22.5C3.56708 22.5 3.55864 22.5 3.55022 22.5C3.5418 22.5 3.53338 22.5 3.52498 22.5C3.51657 22.5 3.50817 22.5 3.49978 22.5C3.49139 22.5 3.48301 22.5 3.47464 22.5C3.46627 22.5 3.4579 22.5 3.44955 22.5C3.44119 22.5 3.43285 22.5 3.42451 22.5C3.41617 22.5 3.40784 22.5 3.39952 22.5C3.3912 22.5 3.38289 22.5 3.37459 22.5C3.36629 22.5 3.35799 22.5 3.34971 22.5C3.34142 22.5 3.33315 22.5 3.32488 22.5C3.31661 22.5 3.30835 22.5 3.3001 22.5C3.29185 22.5 3.28361 22.5 3.27538 22.5C3.26715 22.5 3.25892 22.5 3.25071 22.5C3.24249 22.5 3.23428 22.5 3.22609 22.5C3.21789 22.5 3.2097 22.5 3.20152 22.5C3.19334 22.5 3.18517 22.5 3.17701 22.5C3.16884 22.5 3.16069 22.5 3.15255 22.5C3.1444 22.5 3.13627 22.5 3.12814 22.5C3.12001 22.5 3.11189 22.5 3.10378 22.5C3.09568 22.5 3.08758 22.5 3.07948 22.5C3.07139 22.5 3.06331 22.5 3.05524 22.5V23.5ZM20.4493 23.5C21.173 23.5 21.887 23.3138 22.4318 22.8863C22.9921 22.4465 23.3296 21.7842 23.3296 20.9424H22.3296C22.3296 21.492 22.1218 21.8584 21.8144 22.0996C21.4915 22.353 21.0153 22.5 20.4493 22.5V23.5ZM6.0852 1V3.94428H7.0852V1H6.0852ZM16.7678 1V3.94428H17.7678V1H16.7678ZM4.19323 9.20821H8.02503V8.20821H4.19323V9.20821ZM4.19323 13.2266H8.02503V12.2266H4.19323V13.2266ZM4.19323 17.1439H8.02503V16.1439H4.19323V17.1439ZM15.9673 9.20821H19.7991V8.20821H15.9673V9.20821ZM10.0222 9.20821H13.854V8.20821H10.0222V9.20821ZM10.0222 13.2266H13.854V12.2266H10.0222V13.2266ZM17.1548 16.573H23V15.573H17.1548V16.573ZM23.3683 15.7348L21.4524 13.6479L20.7158 14.3242L22.6317 16.4111L23.3683 15.7348ZM22.6317 15.7348L20.7158 17.8218L21.4524 18.498L23.3683 16.4111L22.6317 15.7348Z" fill="#4785E7"/>
</svg>
