<svg width="18" height="18" viewBox="0 0 18 18" fill="none" xmlns="http://www.w3.org/2000/svg">
<path d="M1.4 4C1.4 3.77909 1.22091 3.6 1 3.6C0.779086 3.6 0.6 3.77909 0.6 4H1.4ZM1 17H0.6C0.6 17.2209 0.779086 17.4 1 17.4V17ZM14 17.4C14.2209 17.4 14.4 17.2209 14.4 17C14.4 16.7791 14.2209 16.6 14 16.6V17.4ZM4 1V0.6C3.77909 0.6 3.6 0.779086 3.6 1H4ZM17 1H17.4C17.4 0.779086 17.2209 0.6 17 0.6V1ZM17 14V14.4C17.2209 14.4 17.4 14.2209 17.4 14H17ZM4 14H3.6C3.6 14.2209 3.77909 14.4 4 14.4V14ZM6 11.3432L6.4 11.3432L6 11.3432ZM12.75 9.04423L12.9024 8.67439L12.75 9.04423ZM8.25002 9.04423L8.09764 8.67439L8.25002 9.04423ZM8.25283 5.2557L8.65228 5.23476L8.25283 5.2557ZM12.7472 5.2557L12.3477 5.23476L12.7472 5.2557ZM0.6 4V17H1.4V4H0.6ZM1 17.4H14V16.6H1V17.4ZM4 1.4H17V0.6H4V1.4ZM16.6 1V14H17.4V1H16.6ZM17 13.6H4V14.4H17V13.6ZM4.4 14V1H3.6V14H4.4ZM5.6 11.3432C5.59998 11.6834 5.78978 11.957 6.02779 12.1307C6.26613 12.3047 6.5758 12.4 6.90001 12.4V11.6C6.72715 11.6 6.58681 11.5483 6.4994 11.4845C6.41167 11.4205 6.4 11.3657 6.4 11.3432L5.6 11.3432ZM6.90001 12.4C6.90572 12.4 6.91143 12.4 6.91713 12.4C6.92284 12.4 6.92854 12.4 6.93423 12.4C6.93993 12.4 6.94562 12.4 6.95131 12.4C6.95699 12.4 6.96268 12.4 6.96835 12.4C6.97403 12.4 6.97971 12.4 6.98538 12.4C6.99105 12.4 6.99671 12.4 7.00238 12.4C7.00804 12.4 7.0137 12.4 7.01935 12.4C7.025 12.4 7.03065 12.4 7.0363 12.4C7.04194 12.4 7.04758 12.4 7.05322 12.4C7.05886 12.4 7.06449 12.4 7.07012 12.4C7.07574 12.4 7.08137 12.4 7.08699 12.4C7.09261 12.4 7.09822 12.4 7.10384 12.4C7.10945 12.4 7.11506 12.4 7.12066 12.4C7.12626 12.4 7.13186 12.4 7.13746 12.4C7.14305 12.4 7.14864 12.4 7.15423 12.4C7.15982 12.4 7.1654 12.4 7.17098 12.4C7.17656 12.4 7.18213 12.4 7.1877 12.4C7.19328 12.4 7.19884 12.4 7.2044 12.4C7.20997 12.4 7.21553 12.4 7.22108 12.4C7.22664 12.4 7.23219 12.4 7.23773 12.4C7.24328 12.4 7.24882 12.4 7.25436 12.4C7.2599 12.4 7.26543 12.4 7.27096 12.4C7.27649 12.4 7.28202 12.4 7.28754 12.4C7.29307 12.4 7.29858 12.4 7.3041 12.4C7.30961 12.4 7.31512 12.4 7.32063 12.4C7.32614 12.4 7.33164 12.4 7.33714 12.4C7.34264 12.4 7.34813 12.4 7.35362 12.4C7.35911 12.4 7.3646 12.4 7.37008 12.4C7.37557 12.4 7.38105 12.4 7.38652 12.4C7.392 12.4 7.39747 12.4 7.40293 12.4C7.4084 12.4 7.41387 12.4 7.41932 12.4C7.42478 12.4 7.43024 12.4 7.43569 12.4C7.44114 12.4 7.44659 12.4 7.45204 12.4C7.45748 12.4 7.46292 12.4 7.46836 12.4C7.47379 12.4 7.47923 12.4 7.48466 12.4C7.49008 12.4 7.49551 12.4 7.50093 12.4C7.50635 12.4 7.51177 12.4 7.51718 12.4C7.5226 12.4 7.52801 12.4 7.53341 12.4C7.53882 12.4 7.54422 12.4 7.54962 12.4C7.55502 12.4 7.56041 12.4 7.5658 12.4C7.57119 12.4 7.57658 12.4 7.58196 12.4C7.58735 12.4 7.59273 12.4 7.5981 12.4C7.60348 12.4 7.60885 12.4 7.61422 12.4C7.61959 12.4 7.62495 12.4 7.63031 12.4C7.63568 12.4 7.64103 12.4 7.64639 12.4C7.65174 12.4 7.65709 12.4 7.66244 12.4C7.66778 12.4 7.67313 12.4 7.67847 12.4C7.6838 12.4 7.68914 12.4 7.69447 12.4C7.6998 12.4 7.70513 12.4 7.71046 12.4C7.71578 12.4 7.7211 12.4 7.72642 12.4C7.73174 12.4 7.73705 12.4 7.74236 12.4C7.74767 12.4 7.75298 12.4 7.75828 12.4C7.76358 12.4 7.76888 12.4 7.77418 12.4C7.77947 12.4 7.78476 12.4 7.79005 12.4C7.79534 12.4 7.80063 12.4 7.80591 12.4C7.81119 12.4 7.81647 12.4 7.82174 12.4C7.82701 12.4 7.83228 12.4 7.83755 12.4C7.84282 12.4 7.84808 12.4 7.85334 12.4C7.8586 12.4 7.86386 12.4 7.86911 12.4C7.87437 12.4 7.87962 12.4 7.88486 12.4C7.89011 12.4 7.89535 12.4 7.90059 12.4C7.90583 12.4 7.91106 12.4 7.9163 12.4C7.92153 12.4 7.92676 12.4 7.93198 12.4C7.93721 12.4 7.94243 12.4 7.94765 12.4C7.95287 12.4 7.95808 12.4 7.96329 12.4C7.96851 12.4 7.97371 12.4 7.97892 12.4C7.98412 12.4 7.98932 12.4 7.99452 12.4C7.99972 12.4 8.00492 12.4 8.01011 12.4C8.0153 12.4 8.02049 12.4 8.02567 12.4C8.03085 12.4 8.03604 12.4 8.04121 12.4C8.04639 12.4 8.05157 12.4 8.05674 12.4C8.06191 12.4 8.06707 12.4 8.07224 12.4C8.0774 12.4 8.08256 12.4 8.08772 12.4C8.09288 12.4 8.09803 12.4 8.10319 12.4C8.10834 12.4 8.11348 12.4 8.11863 12.4C8.12377 12.4 8.12892 12.4 8.13405 12.4C8.13919 12.4 8.14433 12.4 8.14946 12.4C8.15459 12.4 8.15972 12.4 8.16484 12.4C8.16997 12.4 8.17509 12.4 8.18021 12.4C8.18533 12.4 8.19044 12.4 8.19555 12.4C8.20066 12.4 8.20577 12.4 8.21088 12.4C8.21598 12.4 8.22109 12.4 8.22619 12.4C8.23129 12.4 8.23638 12.4 8.24147 12.4C8.24657 12.4 8.25166 12.4 8.25674 12.4C8.26183 12.4 8.26691 12.4 8.27199 12.4C8.27707 12.4 8.28215 12.4 8.28722 12.4C8.2923 12.4 8.29737 12.4 8.30244 12.4C8.3075 12.4 8.31257 12.4 8.31763 12.4C8.32269 12.4 8.32775 12.4 8.33281 12.4C8.33786 12.4 8.34291 12.4 8.34796 12.4C8.35301 12.4 8.35806 12.4 8.3631 12.4C8.36814 12.4 8.37318 12.4 8.37822 12.4C8.38326 12.4 8.38829 12.4 8.39332 12.4C8.39835 12.4 8.40338 12.4 8.4084 12.4C8.41343 12.4 8.41845 12.4 8.42347 12.4C8.42849 12.4 8.4335 12.4 8.43851 12.4C8.44353 12.4 8.44853 12.4 8.45354 12.4C8.45855 12.4 8.46355 12.4 8.46855 12.4C8.47355 12.4 8.47855 12.4 8.48354 12.4C8.48854 12.4 8.49353 12.4 8.49852 12.4C8.50351 12.4 8.50849 12.4 8.51348 12.4C8.51846 12.4 8.52344 12.4 8.52842 12.4C8.53339 12.4 8.53837 12.4 8.54334 12.4C8.54831 12.4 8.55328 12.4 8.55824 12.4C8.56321 12.4 8.56817 12.4 8.57313 12.4C8.57809 12.4 8.58305 12.4 8.588 12.4C8.59295 12.4 8.5979 12.4 8.60285 12.4C8.6078 12.4 8.61275 12.4 8.61769 12.4C8.62263 12.4 8.62757 12.4 8.63251 12.4C8.63744 12.4 8.64238 12.4 8.64731 12.4C8.65224 12.4 8.65717 12.4 8.66209 12.4C8.66702 12.4 8.67194 12.4 8.67686 12.4C8.68178 12.4 8.6867 12.4 8.69161 12.4C8.69653 12.4 8.70144 12.4 8.70635 12.4C8.71125 12.4 8.71616 12.4 8.72106 12.4C8.72597 12.4 8.73087 12.4 8.73576 12.4C8.74066 12.4 8.74556 12.4 8.75045 12.4C8.75534 12.4 8.76023 12.4 8.76512 12.4C8.77 12.4 8.77489 12.4 8.77977 12.4C8.78465 12.4 8.78953 12.4 8.79441 12.4C8.79928 12.4 8.80416 12.4 8.80903 12.4C8.8139 12.4 8.81876 12.4 8.82363 12.4C8.8285 12.4 8.83336 12.4 8.83822 12.4C8.84308 12.4 8.84794 12.4 8.85279 12.4C8.85764 12.4 8.8625 12.4 8.86735 12.4C8.8722 12.4 8.87704 12.4 8.88189 12.4C8.88673 12.4 8.89157 12.4 8.89641 12.4C8.90125 12.4 8.90609 12.4 8.91092 12.4C8.91576 12.4 8.92059 12.4 8.92542 12.4C8.93024 12.4 8.93507 12.4 8.93989 12.4C8.94472 12.4 8.94954 12.4 8.95436 12.4C8.95918 12.4 8.96399 12.4 8.96881 12.4C8.97362 12.4 8.97843 12.4 8.98324 12.4C8.98805 12.4 8.99285 12.4 8.99766 12.4C9.00246 12.4 9.00726 12.4 9.01206 12.4C9.01686 12.4 9.02166 12.4 9.02645 12.4C9.03124 12.4 9.03603 12.4 9.04082 12.4C9.04561 12.4 9.0504 12.4 9.05518 12.4C9.05997 12.4 9.06475 12.4 9.06953 12.4C9.0743 12.4 9.07908 12.4 9.08386 12.4C9.08863 12.4 9.0934 12.4 9.09817 12.4C9.10294 12.4 9.10771 12.4 9.11247 12.4C9.11724 12.4 9.122 12.4 9.12676 12.4C9.13152 12.4 9.13627 12.4 9.14103 12.4C9.14578 12.4 9.15054 12.4 9.15529 12.4C9.16004 12.4 9.16479 12.4 9.16953 12.4C9.17428 12.4 9.17902 12.4 9.18376 12.4C9.1885 12.4 9.19324 12.4 9.19798 12.4C9.20271 12.4 9.20745 12.4 9.21218 12.4C9.21691 12.4 9.22164 12.4 9.22637 12.4C9.23109 12.4 9.23582 12.4 9.24054 12.4C9.24527 12.4 9.24998 12.4 9.2547 12.4C9.25942 12.4 9.26414 12.4 9.26885 12.4C9.27356 12.4 9.27828 12.4 9.28298 12.4C9.28769 12.4 9.2924 12.4 9.29711 12.4C9.30181 12.4 9.30651 12.4 9.31121 12.4C9.31591 12.4 9.32061 12.4 9.32531 12.4C9.33 12.4 9.3347 12.4 9.33939 12.4C9.34408 12.4 9.34877 12.4 9.35346 12.4C9.35814 12.4 9.36283 12.4 9.36751 12.4C9.37219 12.4 9.37688 12.4 9.38155 12.4C9.38623 12.4 9.39091 12.4 9.39558 12.4C9.40026 12.4 9.40493 12.4 9.4096 12.4C9.41427 12.4 9.41894 12.4 9.4236 12.4C9.42827 12.4 9.43293 12.4 9.4376 12.4C9.44226 12.4 9.44692 12.4 9.45158 12.4C9.45623 12.4 9.46089 12.4 9.46554 12.4C9.4702 12.4 9.47485 12.4 9.4795 12.4C9.48415 12.4 9.48879 12.4 9.49344 12.4C9.49808 12.4 9.50273 12.4 9.50737 12.4C9.51201 12.4 9.51665 12.4 9.52129 12.4C9.52592 12.4 9.53056 12.4 9.53519 12.4C9.53983 12.4 9.54446 12.4 9.54909 12.4C9.55372 12.4 9.55834 12.4 9.56297 12.4C9.56759 12.4 9.57222 12.4 9.57684 12.4C9.58146 12.4 9.58608 12.4 9.5907 12.4C9.59532 12.4 9.59993 12.4 9.60455 12.4C9.60916 12.4 9.61377 12.4 9.61838 12.4C9.62299 12.4 9.6276 12.4 9.63221 12.4C9.63681 12.4 9.64142 12.4 9.64602 12.4C9.65062 12.4 9.65522 12.4 9.65982 12.4C9.66442 12.4 9.66902 12.4 9.67361 12.4C9.67821 12.4 9.6828 12.4 9.68739 12.4C9.69198 12.4 9.69657 12.4 9.70116 12.4C9.70575 12.4 9.71033 12.4 9.71492 12.4C9.7195 12.4 9.72408 12.4 9.72866 12.4C9.73324 12.4 9.73782 12.4 9.7424 12.4C9.74698 12.4 9.75155 12.4 9.75612 12.4C9.7607 12.4 9.76527 12.4 9.76984 12.4C9.77441 12.4 9.77898 12.4 9.78354 12.4C9.78811 12.4 9.79267 12.4 9.79724 12.4C9.8018 12.4 9.80636 12.4 9.81092 12.4C9.81548 12.4 9.82004 12.4 9.82459 12.4C9.82915 12.4 9.8337 12.4 9.83825 12.4C9.84281 12.4 9.84736 12.4 9.85191 12.4C9.85646 12.4 9.861 12.4 9.86555 12.4C9.8701 12.4 9.87464 12.4 9.87918 12.4C9.88373 12.4 9.88827 12.4 9.89281 12.4C9.89734 12.4 9.90188 12.4 9.90642 12.4C9.91095 12.4 9.91549 12.4 9.92002 12.4C9.92455 12.4 9.92908 12.4 9.93361 12.4C9.93814 12.4 9.94267 12.4 9.9472 12.4C9.95172 12.4 9.95625 12.4 9.96077 12.4C9.96529 12.4 9.96982 12.4 9.97434 12.4C9.97886 12.4 9.98338 12.4 9.98789 12.4C9.99241 12.4 9.99692 12.4 10.0014 12.4C10.006 12.4 10.0105 12.4 10.015 12.4C10.0195 12.4 10.024 12.4 10.0285 12.4C10.033 12.4 10.0375 12.4 10.042 12.4C10.0465 12.4 10.051 12.4 10.0555 12.4C10.06 12.4 10.0645 12.4 10.069 12.4C10.0735 12.4 10.078 12.4 10.0825 12.4C10.087 12.4 10.0915 12.4 10.096 12.4C10.1005 12.4 10.105 12.4 10.1095 12.4C10.114 12.4 10.1185 12.4 10.123 12.4C10.1274 12.4 10.1319 12.4 10.1364 12.4C10.1409 12.4 10.1454 12.4 10.1499 12.4C10.1543 12.4 10.1588 12.4 10.1633 12.4C10.1678 12.4 10.1723 12.4 10.1767 12.4C10.1812 12.4 10.1857 12.4 10.1902 12.4C10.1946 12.4 10.1991 12.4 10.2036 12.4C10.208 12.4 10.2125 12.4 10.217 12.4C10.2215 12.4 10.2259 12.4 10.2304 12.4C10.2349 12.4 10.2393 12.4 10.2438 12.4C10.2482 12.4 10.2527 12.4 10.2572 12.4C10.2616 12.4 10.2661 12.4 10.2705 12.4C10.275 12.4 10.2795 12.4 10.2839 12.4C10.2884 12.4 10.2928 12.4 10.2973 12.4C10.3017 12.4 10.3062 12.4 10.3106 12.4C10.3151 12.4 10.3195 12.4 10.324 12.4C10.3284 12.4 10.3329 12.4 10.3373 12.4C10.3418 12.4 10.3462 12.4 10.3507 12.4C10.3551 12.4 10.3595 12.4 10.364 12.4C10.3684 12.4 10.3729 12.4 10.3773 12.4C10.3817 12.4 10.3862 12.4 10.3906 12.4C10.3951 12.4 10.3995 12.4 10.4039 12.4C10.4084 12.4 10.4128 12.4 10.4172 12.4C10.4217 12.4 10.4261 12.4 10.4305 12.4C10.4349 12.4 10.4394 12.4 10.4438 12.4C10.4482 12.4 10.4527 12.4 10.4571 12.4C10.4615 12.4 10.4659 12.4 10.4704 12.4C10.4748 12.4 10.4792 12.4 10.4836 12.4C10.488 12.4 10.4925 12.4 10.4969 12.4C10.5013 12.4 10.5057 12.4 10.5101 12.4C10.5146 12.4 10.519 12.4 10.5234 12.4C10.5278 12.4 10.5322 12.4 10.5366 12.4C10.541 12.4 10.5455 12.4 10.5499 12.4C10.5543 12.4 10.5587 12.4 10.5631 12.4C10.5675 12.4 10.5719 12.4 10.5763 12.4C10.5807 12.4 10.5851 12.4 10.5895 12.4C10.5939 12.4 10.5983 12.4 10.6028 12.4C10.6072 12.4 10.6116 12.4 10.616 12.4C10.6204 12.4 10.6248 12.4 10.6292 12.4C10.6336 12.4 10.638 12.4 10.6424 12.4C10.6468 12.4 10.6512 12.4 10.6555 12.4C10.6599 12.4 10.6643 12.4 10.6687 12.4C10.6731 12.4 10.6775 12.4 10.6819 12.4C10.6863 12.4 10.6907 12.4 10.6951 12.4C10.6995 12.4 10.7039 12.4 10.7083 12.4C10.7127 12.4 10.717 12.4 10.7214 12.4C10.7258 12.4 10.7302 12.4 10.7346 12.4C10.739 12.4 10.7434 12.4 10.7477 12.4C10.7521 12.4 10.7565 12.4 10.7609 12.4C10.7653 12.4 10.7697 12.4 10.774 12.4C10.7784 12.4 10.7828 12.4 10.7872 12.4C10.7916 12.4 10.7959 12.4 10.8003 12.4C10.8047 12.4 10.8091 12.4 10.8135 12.4C10.8178 12.4 10.8222 12.4 10.8266 12.4C10.831 12.4 10.8353 12.4 10.8397 12.4C10.8441 12.4 10.8485 12.4 10.8528 12.4C10.8572 12.4 10.8616 12.4 10.866 12.4C10.8703 12.4 10.8747 12.4 10.8791 12.4C10.8834 12.4 10.8878 12.4 10.8922 12.4C10.8965 12.4 10.9009 12.4 10.9053 12.4C10.9097 12.4 10.914 12.4 10.9184 12.4C10.9228 12.4 10.9271 12.4 10.9315 12.4C10.9359 12.4 10.9402 12.4 10.9446 12.4C10.9489 12.4 10.9533 12.4 10.9577 12.4C10.962 12.4 10.9664 12.4 10.9708 12.4C10.9751 12.4 10.9795 12.4 10.9838 12.4C10.9882 12.4 10.9926 12.4 10.9969 12.4C11.0013 12.4 11.0056 12.4 11.01 12.4C11.0144 12.4 11.0187 12.4 11.0231 12.4C11.0274 12.4 11.0318 12.4 11.0362 12.4C11.0405 12.4 11.0449 12.4 11.0492 12.4C11.0536 12.4 11.0579 12.4 11.0623 12.4C11.0666 12.4 11.071 12.4 11.0754 12.4C11.0797 12.4 11.0841 12.4 11.0884 12.4C11.0928 12.4 11.0971 12.4 11.1015 12.4C11.1058 12.4 11.1102 12.4 11.1145 12.4C11.1189 12.4 11.1232 12.4 11.1276 12.4C11.1319 12.4 11.1363 12.4 11.1406 12.4C11.145 12.4 11.1493 12.4 11.1537 12.4C11.158 12.4 11.1624 12.4 11.1667 12.4C11.1711 12.4 11.1754 12.4 11.1798 12.4C11.1841 12.4 11.1885 12.4 11.1928 12.4C11.1972 12.4 11.2015 12.4 11.2059 12.4C11.2102 12.4 11.2146 12.4 11.2189 12.4C11.2232 12.4 11.2276 12.4 11.2319 12.4C11.2363 12.4 11.2406 12.4 11.245 12.4C11.2493 12.4 11.2537 12.4 11.258 12.4C11.2624 12.4 11.2667 12.4 11.271 12.4C11.2754 12.4 11.2797 12.4 11.2841 12.4C11.2884 12.4 11.2928 12.4 11.2971 12.4C11.3014 12.4 11.3058 12.4 11.3101 12.4C11.3145 12.4 11.3188 12.4 11.3232 12.4C11.3275 12.4 11.3318 12.4 11.3362 12.4C11.3405 12.4 11.3449 12.4 11.3492 12.4C11.3536 12.4 11.3579 12.4 11.3622 12.4C11.3666 12.4 11.3709 12.4 11.3753 12.4C11.3796 12.4 11.3839 12.4 11.3883 12.4C11.3926 12.4 11.397 12.4 11.4013 12.4C11.4056 12.4 11.41 12.4 11.4143 12.4C11.4187 12.4 11.423 12.4 11.4273 12.4C11.4317 12.4 11.436 12.4 11.4404 12.4C11.4447 12.4 11.449 12.4 11.4534 12.4C11.4577 12.4 11.4621 12.4 11.4664 12.4C11.4707 12.4 11.4751 12.4 11.4794 12.4C11.4838 12.4 11.4881 12.4 11.4924 12.4C11.4968 12.4 11.5011 12.4 11.5055 12.4C11.5098 12.4 11.5141 12.4 11.5185 12.4C11.5228 12.4 11.5272 12.4 11.5315 12.4C11.5358 12.4 11.5402 12.4 11.5445 12.4C11.5489 12.4 11.5532 12.4 11.5575 12.4C11.5619 12.4 11.5662 12.4 11.5706 12.4C11.5749 12.4 11.5792 12.4 11.5836 12.4C11.5879 12.4 11.5923 12.4 11.5966 12.4C11.6009 12.4 11.6053 12.4 11.6096 12.4C11.614 12.4 11.6183 12.4 11.6226 12.4C11.627 12.4 11.6313 12.4 11.6357 12.4C11.64 12.4 11.6443 12.4 11.6487 12.4C11.653 12.4 11.6574 12.4 11.6617 12.4C11.6661 12.4 11.6704 12.4 11.6747 12.4C11.6791 12.4 11.6834 12.4 11.6878 12.4C11.6921 12.4 11.6965 12.4 11.7008 12.4C11.7051 12.4 11.7095 12.4 11.7138 12.4C11.7182 12.4 11.7225 12.4 11.7269 12.4C11.7312 12.4 11.7355 12.4 11.7399 12.4C11.7442 12.4 11.7486 12.4 11.7529 12.4C11.7573 12.4 11.7616 12.4 11.766 12.4C11.7703 12.4 11.7746 12.4 11.779 12.4C11.7833 12.4 11.7877 12.4 11.792 12.4C11.7964 12.4 11.8007 12.4 11.8051 12.4C11.8094 12.4 11.8138 12.4 11.8181 12.4C11.8225 12.4 11.8268 12.4 11.8311 12.4C11.8355 12.4 11.8398 12.4 11.8442 12.4C11.8485 12.4 11.8529 12.4 11.8572 12.4C11.8616 12.4 11.8659 12.4 11.8703 12.4C11.8746 12.4 11.879 12.4 11.8833 12.4C11.8877 12.4 11.892 12.4 11.8964 12.4C11.9007 12.4 11.9051 12.4 11.9095 12.4C11.9138 12.4 11.9182 12.4 11.9225 12.4C11.9269 12.4 11.9312 12.4 11.9356 12.4C11.9399 12.4 11.9443 12.4 11.9486 12.4C11.953 12.4 11.9573 12.4 11.9617 12.4C11.9661 12.4 11.9704 12.4 11.9748 12.4C11.9791 12.4 11.9835 12.4 11.9878 12.4C11.9922 12.4 11.9966 12.4 12.0009 12.4C12.0053 12.4 12.0096 12.4 12.014 12.4C12.0184 12.4 12.0227 12.4 12.0271 12.4C12.0314 12.4 12.0358 12.4 12.0402 12.4C12.0445 12.4 12.0489 12.4 12.0533 12.4C12.0576 12.4 12.062 12.4 12.0663 12.4C12.0707 12.4 12.0751 12.4 12.0794 12.4C12.0838 12.4 12.0882 12.4 12.0925 12.4C12.0969 12.4 12.1013 12.4 12.1056 12.4C12.11 12.4 12.1144 12.4 12.1187 12.4C12.1231 12.4 12.1275 12.4 12.1319 12.4C12.1362 12.4 12.1406 12.4 12.145 12.4C12.1493 12.4 12.1537 12.4 12.1581 12.4C12.1625 12.4 12.1668 12.4 12.1712 12.4C12.1756 12.4 12.18 12.4 12.1843 12.4C12.1887 12.4 12.1931 12.4 12.1975 12.4C12.2018 12.4 12.2062 12.4 12.2106 12.4C12.215 12.4 12.2194 12.4 12.2237 12.4C12.2281 12.4 12.2325 12.4 12.2369 12.4C12.2413 12.4 12.2456 12.4 12.25 12.4C12.2544 12.4 12.2588 12.4 12.2632 12.4C12.2676 12.4 12.272 12.4 12.2763 12.4C12.2807 12.4 12.2851 12.4 12.2895 12.4C12.2939 12.4 12.2983 12.4 12.3027 12.4C12.3071 12.4 12.3114 12.4 12.3158 12.4C12.3202 12.4 12.3246 12.4 12.329 12.4C12.3334 12.4 12.3378 12.4 12.3422 12.4C12.3466 12.4 12.351 12.4 12.3554 12.4C12.3598 12.4 12.3642 12.4 12.3686 12.4C12.373 12.4 12.3774 12.4 12.3818 12.4C12.3862 12.4 12.3906 12.4 12.395 12.4C12.3994 12.4 12.4038 12.4 12.4082 12.4C12.4126 12.4 12.417 12.4 12.4214 12.4C12.4258 12.4 12.4302 12.4 12.4346 12.4C12.439 12.4 12.4434 12.4 12.4478 12.4C12.4522 12.4 12.4567 12.4 12.4611 12.4C12.4655 12.4 12.4699 12.4 12.4743 12.4C12.4787 12.4 12.4831 12.4 12.4875 12.4C12.492 12.4 12.4964 12.4 12.5008 12.4C12.5052 12.4 12.5096 12.4 12.5141 12.4C12.5185 12.4 12.5229 12.4 12.5273 12.4C12.5317 12.4 12.5362 12.4 12.5406 12.4C12.545 12.4 12.5494 12.4 12.5539 12.4C12.5583 12.4 12.5627 12.4 12.5671 12.4C12.5716 12.4 12.576 12.4 12.5804 12.4C12.5848 12.4 12.5893 12.4 12.5937 12.4C12.5981 12.4 12.6026 12.4 12.607 12.4C12.6114 12.4 12.6159 12.4 12.6203 12.4C12.6248 12.4 12.6292 12.4 12.6336 12.4C12.6381 12.4 12.6425 12.4 12.647 12.4C12.6514 12.4 12.6558 12.4 12.6603 12.4C12.6647 12.4 12.6692 12.4 12.6736 12.4C12.6781 12.4 12.6825 12.4 12.687 12.4C12.6914 12.4 12.6959 12.4 12.7003 12.4C12.7048 12.4 12.7092 12.4 12.7137 12.4C12.7181 12.4 12.7226 12.4 12.727 12.4C12.7315 12.4 12.7359 12.4 12.7404 12.4C12.7449 12.4 12.7493 12.4 12.7538 12.4C12.7582 12.4 12.7627 12.4 12.7672 12.4C12.7716 12.4 12.7761 12.4 12.7806 12.4C12.785 12.4 12.7895 12.4 12.794 12.4C12.7984 12.4 12.8029 12.4 12.8074 12.4C12.8118 12.4 12.8163 12.4 12.8208 12.4C12.8253 12.4 12.8297 12.4 12.8342 12.4C12.8387 12.4 12.8432 12.4 12.8476 12.4C12.8521 12.4 12.8566 12.4 12.8611 12.4C12.8656 12.4 12.87 12.4 12.8745 12.4C12.879 12.4 12.8835 12.4 12.888 12.4C12.8925 12.4 12.897 12.4 12.9015 12.4C12.9059 12.4 12.9104 12.4 12.9149 12.4C12.9194 12.4 12.9239 12.4 12.9284 12.4C12.9329 12.4 12.9374 12.4 12.9419 12.4C12.9464 12.4 12.9509 12.4 12.9554 12.4C12.9599 12.4 12.9644 12.4 12.9689 12.4C12.9734 12.4 12.9779 12.4 12.9824 12.4C12.9869 12.4 12.9915 12.4 12.996 12.4C13.0005 12.4 13.005 12.4 13.0095 12.4C13.014 12.4 13.0185 12.4 13.0231 12.4C13.0276 12.4 13.0321 12.4 13.0366 12.4C13.0411 12.4 13.0457 12.4 13.0502 12.4C13.0547 12.4 13.0592 12.4 13.0637 12.4C13.0683 12.4 13.0728 12.4 13.0773 12.4C13.0819 12.4 13.0864 12.4 13.0909 12.4C13.0955 12.4 13.1 12.4 13.1045 12.4C13.1091 12.4 13.1136 12.4 13.1181 12.4C13.1227 12.4 13.1272 12.4 13.1318 12.4C13.1363 12.4 13.1409 12.4 13.1454 12.4C13.1499 12.4 13.1545 12.4 13.159 12.4C13.1636 12.4 13.1681 12.4 13.1727 12.4C13.1772 12.4 13.1818 12.4 13.1864 12.4C13.1909 12.4 13.1955 12.4 13.2 12.4C13.2046 12.4 13.2092 12.4 13.2137 12.4C13.2183 12.4 13.2228 12.4 13.2274 12.4C13.232 12.4 13.2365 12.4 13.2411 12.4C13.2457 12.4 13.2503 12.4 13.2548 12.4C13.2594 12.4 13.264 12.4 13.2686 12.4C13.2731 12.4 13.2777 12.4 13.2823 12.4C13.2869 12.4 13.2915 12.4 13.296 12.4C13.3006 12.4 13.3052 12.4 13.3098 12.4C13.3144 12.4 13.319 12.4 13.3236 12.4C13.3282 12.4 13.3327 12.4 13.3373 12.4C13.3419 12.4 13.3465 12.4 13.3511 12.4C13.3557 12.4 13.3603 12.4 13.3649 12.4C13.3695 12.4 13.3741 12.4 13.3787 12.4C13.3834 12.4 13.388 12.4 13.3926 12.4C13.3972 12.4 13.4018 12.4 13.4064 12.4C13.411 12.4 13.4156 12.4 13.4203 12.4C13.4249 12.4 13.4295 12.4 13.4341 12.4C13.4387 12.4 13.4434 12.4 13.448 12.4C13.4526 12.4 13.4572 12.4 13.4619 12.4C13.4665 12.4 13.4711 12.4 13.4758 12.4C13.4804 12.4 13.485 12.4 13.4897 12.4C13.4943 12.4 13.4989 12.4 13.5036 12.4C13.5082 12.4 13.5129 12.4 13.5175 12.4C13.5222 12.4 13.5268 12.4 13.5315 12.4C13.5361 12.4 13.5408 12.4 13.5454 12.4C13.5501 12.4 13.5547 12.4 13.5594 12.4C13.564 12.4 13.5687 12.4 13.5734 12.4C13.578 12.4 13.5827 12.4 13.5874 12.4C13.592 12.4 13.5967 12.4 13.6014 12.4C13.606 12.4 13.6107 12.4 13.6154 12.4C13.6201 12.4 13.6247 12.4 13.6294 12.4C13.6341 12.4 13.6388 12.4 13.6435 12.4C13.6481 12.4 13.6528 12.4 13.6575 12.4C13.6622 12.4 13.6669 12.4 13.6716 12.4C13.6763 12.4 13.681 12.4 13.6857 12.4C13.6904 12.4 13.6951 12.4 13.6998 12.4C13.7045 12.4 13.7092 12.4 13.7139 12.4C13.7186 12.4 13.7233 12.4 13.728 12.4C13.7327 12.4 13.7374 12.4 13.7421 12.4C13.7468 12.4 13.7515 12.4 13.7563 12.4C13.761 12.4 13.7657 12.4 13.7704 12.4C13.7751 12.4 13.7799 12.4 13.7846 12.4C13.7893 12.4 13.7941 12.4 13.7988 12.4C13.8035 12.4 13.8083 12.4 13.813 12.4C13.8177 12.4 13.8225 12.4 13.8272 12.4C13.832 12.4 13.8367 12.4 13.8414 12.4C13.8462 12.4 13.8509 12.4 13.8557 12.4C13.8604 12.4 13.8652 12.4 13.8699 12.4C13.8747 12.4 13.8795 12.4 13.8842 12.4C13.889 12.4 13.8937 12.4 13.8985 12.4C13.9033 12.4 13.908 12.4 13.9128 12.4C13.9176 12.4 13.9223 12.4 13.9271 12.4C13.9319 12.4 13.9367 12.4 13.9414 12.4C13.9462 12.4 13.951 12.4 13.9558 12.4C13.9606 12.4 13.9654 12.4 13.9702 12.4C13.9749 12.4 13.9797 12.4 13.9845 12.4C13.9893 12.4 13.9941 12.4 13.9989 12.4C14.0037 12.4 14.0085 12.4 14.0133 12.4C14.0181 12.4 14.0229 12.4 14.0277 12.4C14.0325 12.4 14.0374 12.4 14.0422 12.4C14.047 12.4 14.0518 12.4 14.0566 12.4C14.0614 12.4 14.0663 12.4 14.0711 12.4C14.0759 12.4 14.0807 12.4 14.0856 12.4C14.0904 12.4 14.0952 12.4 14.1001 12.4V11.6C14.0952 11.6 14.0904 11.6 14.0856 11.6C14.0807 11.6 14.0759 11.6 14.0711 11.6C14.0663 11.6 14.0614 11.6 14.0566 11.6C14.0518 11.6 14.047 11.6 14.0422 11.6C14.0374 11.6 14.0325 11.6 14.0277 11.6C14.0229 11.6 14.0181 11.6 14.0133 11.6C14.0085 11.6 14.0037 11.6 13.9989 11.6C13.9941 11.6 13.9893 11.6 13.9845 11.6C13.9797 11.6 13.9749 11.6 13.9702 11.6C13.9654 11.6 13.9606 11.6 13.9558 11.6C13.951 11.6 13.9462 11.6 13.9414 11.6C13.9367 11.6 13.9319 11.6 13.9271 11.6C13.9223 11.6 13.9176 11.6 13.9128 11.6C13.908 11.6 13.9033 11.6 13.8985 11.6C13.8937 11.6 13.889 11.6 13.8842 11.6C13.8795 11.6 13.8747 11.6 13.8699 11.6C13.8652 11.6 13.8604 11.6 13.8557 11.6C13.8509 11.6 13.8462 11.6 13.8414 11.6C13.8367 11.6 13.832 11.6 13.8272 11.6C13.8225 11.6 13.8177 11.6 13.813 11.6C13.8083 11.6 13.8035 11.6 13.7988 11.6C13.7941 11.6 13.7893 11.6 13.7846 11.6C13.7799 11.6 13.7751 11.6 13.7704 11.6C13.7657 11.6 13.761 11.6 13.7563 11.6C13.7515 11.6 13.7468 11.6 13.7421 11.6C13.7374 11.6 13.7327 11.6 13.728 11.6C13.7233 11.6 13.7186 11.6 13.7139 11.6C13.7092 11.6 13.7045 11.6 13.6998 11.6C13.6951 11.6 13.6904 11.6 13.6857 11.6C13.681 11.6 13.6763 11.6 13.6716 11.6C13.6669 11.6 13.6622 11.6 13.6575 11.6C13.6528 11.6 13.6481 11.6 13.6435 11.6C13.6388 11.6 13.6341 11.6 13.6294 11.6C13.6247 11.6 13.6201 11.6 13.6154 11.6C13.6107 11.6 13.606 11.6 13.6014 11.6C13.5967 11.6 13.592 11.6 13.5874 11.6C13.5827 11.6 13.578 11.6 13.5734 11.6C13.5687 11.6 13.564 11.6 13.5594 11.6C13.5547 11.6 13.5501 11.6 13.5454 11.6C13.5408 11.6 13.5361 11.6 13.5315 11.6C13.5268 11.6 13.5222 11.6 13.5175 11.6C13.5129 11.6 13.5082 11.6 13.5036 11.6C13.4989 11.6 13.4943 11.6 13.4897 11.6C13.485 11.6 13.4804 11.6 13.4758 11.6C13.4711 11.6 13.4665 11.6 13.4619 11.6C13.4572 11.6 13.4526 11.6 13.448 11.6C13.4434 11.6 13.4387 11.6 13.4341 11.6C13.4295 11.6 13.4249 11.6 13.4203 11.6C13.4156 11.6 13.411 11.6 13.4064 11.6C13.4018 11.6 13.3972 11.6 13.3926 11.6C13.388 11.6 13.3834 11.6 13.3787 11.6C13.3741 11.6 13.3695 11.6 13.3649 11.6C13.3603 11.6 13.3557 11.6 13.3511 11.6C13.3465 11.6 13.3419 11.6 13.3373 11.6C13.3327 11.6 13.3282 11.6 13.3236 11.6C13.319 11.6 13.3144 11.6 13.3098 11.6C13.3052 11.6 13.3006 11.6 13.296 11.6C13.2915 11.6 13.2869 11.6 13.2823 11.6C13.2777 11.6 13.2731 11.6 13.2686 11.6C13.264 11.6 13.2594 11.6 13.2548 11.6C13.2503 11.6 13.2457 11.6 13.2411 11.6C13.2365 11.6 13.232 11.6 13.2274 11.6C13.2228 11.6 13.2183 11.6 13.2137 11.6C13.2092 11.6 13.2046 11.6 13.2 11.6C13.1955 11.6 13.1909 11.6 13.1864 11.6C13.1818 11.6 13.1772 11.6 13.1727 11.6C13.1681 11.6 13.1636 11.6 13.159 11.6C13.1545 11.6 13.1499 11.6 13.1454 11.6C13.1409 11.6 13.1363 11.6 13.1318 11.6C13.1272 11.6 13.1227 11.6 13.1181 11.6C13.1136 11.6 13.1091 11.6 13.1045 11.6C13.1 11.6 13.0955 11.6 13.0909 11.6C13.0864 11.6 13.0819 11.6 13.0773 11.6C13.0728 11.6 13.0683 11.6 13.0637 11.6C13.0592 11.6 13.0547 11.6 13.0502 11.6C13.0457 11.6 13.0411 11.6 13.0366 11.6C13.0321 11.6 13.0276 11.6 13.0231 11.6C13.0185 11.6 13.014 11.6 13.0095 11.6C13.005 11.6 13.0005 11.6 12.996 11.6C12.9915 11.6 12.9869 11.6 12.9824 11.6C12.9779 11.6 12.9734 11.6 12.9689 11.6C12.9644 11.6 12.9599 11.6 12.9554 11.6C12.9509 11.6 12.9464 11.6 12.9419 11.6C12.9374 11.6 12.9329 11.6 12.9284 11.6C12.9239 11.6 12.9194 11.6 12.9149 11.6C12.9104 11.6 12.9059 11.6 12.9015 11.6C12.897 11.6 12.8925 11.6 12.888 11.6C12.8835 11.6 12.879 11.6 12.8745 11.6C12.87 11.6 12.8656 11.6 12.8611 11.6C12.8566 11.6 12.8521 11.6 12.8476 11.6C12.8432 11.6 12.8387 11.6 12.8342 11.6C12.8297 11.6 12.8253 11.6 12.8208 11.6C12.8163 11.6 12.8118 11.6 12.8074 11.6C12.8029 11.6 12.7984 11.6 12.794 11.6C12.7895 11.6 12.785 11.6 12.7806 11.6C12.7761 11.6 12.7716 11.6 12.7672 11.6C12.7627 11.6 12.7582 11.6 12.7538 11.6C12.7493 11.6 12.7449 11.6 12.7404 11.6C12.7359 11.6 12.7315 11.6 12.727 11.6C12.7226 11.6 12.7181 11.6 12.7137 11.6C12.7092 11.6 12.7048 11.6 12.7003 11.6C12.6959 11.6 12.6914 11.6 12.687 11.6C12.6825 11.6 12.6781 11.6 12.6736 11.6C12.6692 11.6 12.6647 11.6 12.6603 11.6C12.6558 11.6 12.6514 11.6 12.647 11.6C12.6425 11.6 12.6381 11.6 12.6336 11.6C12.6292 11.6 12.6248 11.6 12.6203 11.6C12.6159 11.6 12.6114 11.6 12.607 11.6C12.6026 11.6 12.5981 11.6 12.5937 11.6C12.5893 11.6 12.5848 11.6 12.5804 11.6C12.576 11.6 12.5716 11.6 12.5671 11.6C12.5627 11.6 12.5583 11.6 12.5539 11.6C12.5494 11.6 12.545 11.6 12.5406 11.6C12.5362 11.6 12.5317 11.6 12.5273 11.6C12.5229 11.6 12.5185 11.6 12.5141 11.6C12.5096 11.6 12.5052 11.6 12.5008 11.6C12.4964 11.6 12.492 11.6 12.4875 11.6C12.4831 11.6 12.4787 11.6 12.4743 11.6C12.4699 11.6 12.4655 11.6 12.4611 11.6C12.4567 11.6 12.4522 11.6 12.4478 11.6C12.4434 11.6 12.439 11.6 12.4346 11.6C12.4302 11.6 12.4258 11.6 12.4214 11.6C12.417 11.6 12.4126 11.6 12.4082 11.6C12.4038 11.6 12.3994 11.6 12.395 11.6C12.3906 11.6 12.3862 11.6 12.3818 11.6C12.3774 11.6 12.373 11.6 12.3686 11.6C12.3642 11.6 12.3598 11.6 12.3554 11.6C12.351 11.6 12.3466 11.6 12.3422 11.6C12.3378 11.6 12.3334 11.6 12.329 11.6C12.3246 11.6 12.3202 11.6 12.3158 11.6C12.3114 11.6 12.3071 11.6 12.3027 11.6C12.2983 11.6 12.2939 11.6 12.2895 11.6C12.2851 11.6 12.2807 11.6 12.2763 11.6C12.272 11.6 12.2676 11.6 12.2632 11.6C12.2588 11.6 12.2544 11.6 12.25 11.6C12.2456 11.6 12.2413 11.6 12.2369 11.6C12.2325 11.6 12.2281 11.6 12.2237 11.6C12.2194 11.6 12.215 11.6 12.2106 11.6C12.2062 11.6 12.2018 11.6 12.1975 11.6C12.1931 11.6 12.1887 11.6 12.1843 11.6C12.18 11.6 12.1756 11.6 12.1712 11.6C12.1668 11.6 12.1625 11.6 12.1581 11.6C12.1537 11.6 12.1493 11.6 12.145 11.6C12.1406 11.6 12.1362 11.6 12.1319 11.6C12.1275 11.6 12.1231 11.6 12.1187 11.6C12.1144 11.6 12.11 11.6 12.1056 11.6C12.1013 11.6 12.0969 11.6 12.0925 11.6C12.0882 11.6 12.0838 11.6 12.0794 11.6C12.0751 11.6 12.0707 11.6 12.0663 11.6C12.062 11.6 12.0576 11.6 12.0533 11.6C12.0489 11.6 12.0445 11.6 12.0402 11.6C12.0358 11.6 12.0314 11.6 12.0271 11.6C12.0227 11.6 12.0184 11.6 12.014 11.6C12.0096 11.6 12.0053 11.6 12.0009 11.6C11.9966 11.6 11.9922 11.6 11.9878 11.6C11.9835 11.6 11.9791 11.6 11.9748 11.6C11.9704 11.6 11.9661 11.6 11.9617 11.6C11.9573 11.6 11.953 11.6 11.9486 11.6C11.9443 11.6 11.9399 11.6 11.9356 11.6C11.9312 11.6 11.9269 11.6 11.9225 11.6C11.9182 11.6 11.9138 11.6 11.9095 11.6C11.9051 11.6 11.9007 11.6 11.8964 11.6C11.892 11.6 11.8877 11.6 11.8833 11.6C11.879 11.6 11.8746 11.6 11.8703 11.6C11.8659 11.6 11.8616 11.6 11.8572 11.6C11.8529 11.6 11.8485 11.6 11.8442 11.6C11.8398 11.6 11.8355 11.6 11.8311 11.6C11.8268 11.6 11.8225 11.6 11.8181 11.6C11.8138 11.6 11.8094 11.6 11.8051 11.6C11.8007 11.6 11.7964 11.6 11.792 11.6C11.7877 11.6 11.7833 11.6 11.779 11.6C11.7746 11.6 11.7703 11.6 11.766 11.6C11.7616 11.6 11.7573 11.6 11.7529 11.6C11.7486 11.6 11.7442 11.6 11.7399 11.6C11.7355 11.6 11.7312 11.6 11.7269 11.6C11.7225 11.6 11.7182 11.6 11.7138 11.6C11.7095 11.6 11.7051 11.6 11.7008 11.6C11.6965 11.6 11.6921 11.6 11.6878 11.6C11.6834 11.6 11.6791 11.6 11.6747 11.6C11.6704 11.6 11.6661 11.6 11.6617 11.6C11.6574 11.6 11.653 11.6 11.6487 11.6C11.6443 11.6 11.64 11.6 11.6357 11.6C11.6313 11.6 11.627 11.6 11.6226 11.6C11.6183 11.6 11.614 11.6 11.6096 11.6C11.6053 11.6 11.6009 11.6 11.5966 11.6C11.5923 11.6 11.5879 11.6 11.5836 11.6C11.5792 11.6 11.5749 11.6 11.5706 11.6C11.5662 11.6 11.5619 11.6 11.5575 11.6C11.5532 11.6 11.5489 11.6 11.5445 11.6C11.5402 11.6 11.5358 11.6 11.5315 11.6C11.5272 11.6 11.5228 11.6 11.5185 11.6C11.5141 11.6 11.5098 11.6 11.5055 11.6C11.5011 11.6 11.4968 11.6 11.4924 11.6C11.4881 11.6 11.4838 11.6 11.4794 11.6C11.4751 11.6 11.4707 11.6 11.4664 11.6C11.4621 11.6 11.4577 11.6 11.4534 11.6C11.449 11.6 11.4447 11.6 11.4404 11.6C11.436 11.6 11.4317 11.6 11.4273 11.6C11.423 11.6 11.4187 11.6 11.4143 11.6C11.41 11.6 11.4056 11.6 11.4013 11.6C11.397 11.6 11.3926 11.6 11.3883 11.6C11.3839 11.6 11.3796 11.6 11.3753 11.6C11.3709 11.6 11.3666 11.6 11.3622 11.6C11.3579 11.6 11.3536 11.6 11.3492 11.6C11.3449 11.6 11.3405 11.6 11.3362 11.6C11.3318 11.6 11.3275 11.6 11.3232 11.6C11.3188 11.6 11.3145 11.6 11.3101 11.6C11.3058 11.6 11.3014 11.6 11.2971 11.6C11.2928 11.6 11.2884 11.6 11.2841 11.6C11.2797 11.6 11.2754 11.6 11.271 11.6C11.2667 11.6 11.2624 11.6 11.258 11.6C11.2537 11.6 11.2493 11.6 11.245 11.6C11.2406 11.6 11.2363 11.6 11.2319 11.6C11.2276 11.6 11.2232 11.6 11.2189 11.6C11.2146 11.6 11.2102 11.6 11.2059 11.6C11.2015 11.6 11.1972 11.6 11.1928 11.6C11.1885 11.6 11.1841 11.6 11.1798 11.6C11.1754 11.6 11.1711 11.6 11.1667 11.6C11.1624 11.6 11.158 11.6 11.1537 11.6C11.1493 11.6 11.145 11.6 11.1406 11.6C11.1363 11.6 11.1319 11.6 11.1276 11.6C11.1232 11.6 11.1189 11.6 11.1145 11.6C11.1102 11.6 11.1058 11.6 11.1015 11.6C11.0971 11.6 11.0928 11.6 11.0884 11.6C11.0841 11.6 11.0797 11.6 11.0754 11.6C11.071 11.6 11.0666 11.6 11.0623 11.6C11.0579 11.6 11.0536 11.6 11.0492 11.6C11.0449 11.6 11.0405 11.6 11.0362 11.6C11.0318 11.6 11.0274 11.6 11.0231 11.6C11.0187 11.6 11.0144 11.6 11.01 11.6C11.0056 11.6 11.0013 11.6 10.9969 11.6C10.9926 11.6 10.9882 11.6 10.9838 11.6C10.9795 11.6 10.9751 11.6 10.9708 11.6C10.9664 11.6 10.962 11.6 10.9577 11.6C10.9533 11.6 10.9489 11.6 10.9446 11.6C10.9402 11.6 10.9359 11.6 10.9315 11.6C10.9271 11.6 10.9228 11.6 10.9184 11.6C10.914 11.6 10.9097 11.6 10.9053 11.6C10.9009 11.6 10.8965 11.6 10.8922 11.6C10.8878 11.6 10.8834 11.6 10.8791 11.6C10.8747 11.6 10.8703 11.6 10.866 11.6C10.8616 11.6 10.8572 11.6 10.8528 11.6C10.8485 11.6 10.8441 11.6 10.8397 11.6C10.8353 11.6 10.831 11.6 10.8266 11.6C10.8222 11.6 10.8178 11.6 10.8135 11.6C10.8091 11.6 10.8047 11.6 10.8003 11.6C10.7959 11.6 10.7916 11.6 10.7872 11.6C10.7828 11.6 10.7784 11.6 10.774 11.6C10.7697 11.6 10.7653 11.6 10.7609 11.6C10.7565 11.6 10.7521 11.6 10.7477 11.6C10.7434 11.6 10.739 11.6 10.7346 11.6C10.7302 11.6 10.7258 11.6 10.7214 11.6C10.717 11.6 10.7127 11.6 10.7083 11.6C10.7039 11.6 10.6995 11.6 10.6951 11.6C10.6907 11.6 10.6863 11.6 10.6819 11.6C10.6775 11.6 10.6731 11.6 10.6687 11.6C10.6643 11.6 10.6599 11.6 10.6555 11.6C10.6512 11.6 10.6468 11.6 10.6424 11.6C10.638 11.6 10.6336 11.6 10.6292 11.6C10.6248 11.6 10.6204 11.6 10.616 11.6C10.6116 11.6 10.6072 11.6 10.6028 11.6C10.5983 11.6 10.5939 11.6 10.5895 11.6C10.5851 11.6 10.5807 11.6 10.5763 11.6C10.5719 11.6 10.5675 11.6 10.5631 11.6C10.5587 11.6 10.5543 11.6 10.5499 11.6C10.5455 11.6 10.541 11.6 10.5366 11.6C10.5322 11.6 10.5278 11.6 10.5234 11.6C10.519 11.6 10.5146 11.6 10.5101 11.6C10.5057 11.6 10.5013 11.6 10.4969 11.6C10.4925 11.6 10.488 11.6 10.4836 11.6C10.4792 11.6 10.4748 11.6 10.4704 11.6C10.4659 11.6 10.4615 11.6 10.4571 11.6C10.4527 11.6 10.4482 11.6 10.4438 11.6C10.4394 11.6 10.4349 11.6 10.4305 11.6C10.4261 11.6 10.4217 11.6 10.4172 11.6C10.4128 11.6 10.4084 11.6 10.4039 11.6C10.3995 11.6 10.3951 11.6 10.3906 11.6C10.3862 11.6 10.3817 11.6 10.3773 11.6C10.3729 11.6 10.3684 11.6 10.364 11.6C10.3595 11.6 10.3551 11.6 10.3507 11.6C10.3462 11.6 10.3418 11.6 10.3373 11.6C10.3329 11.6 10.3284 11.6 10.324 11.6C10.3195 11.6 10.3151 11.6 10.3106 11.6C10.3062 11.6 10.3017 11.6 10.2973 11.6C10.2928 11.6 10.2884 11.6 10.2839 11.6C10.2795 11.6 10.275 11.6 10.2705 11.6C10.2661 11.6 10.2616 11.6 10.2572 11.6C10.2527 11.6 10.2482 11.6 10.2438 11.6C10.2393 11.6 10.2349 11.6 10.2304 11.6C10.2259 11.6 10.2215 11.6 10.217 11.6C10.2125 11.6 10.208 11.6 10.2036 11.6C10.1991 11.6 10.1946 11.6 10.1902 11.6C10.1857 11.6 10.1812 11.6 10.1767 11.6C10.1723 11.6 10.1678 11.6 10.1633 11.6C10.1588 11.6 10.1543 11.6 10.1499 11.6C10.1454 11.6 10.1409 11.6 10.1364 11.6C10.1319 11.6 10.1274 11.6 10.123 11.6C10.1185 11.6 10.114 11.6 10.1095 11.6C10.105 11.6 10.1005 11.6 10.096 11.6C10.0915 11.6 10.087 11.6 10.0825 11.6C10.078 11.6 10.0735 11.6 10.069 11.6C10.0645 11.6 10.06 11.6 10.0555 11.6C10.051 11.6 10.0465 11.6 10.042 11.6C10.0375 11.6 10.033 11.6 10.0285 11.6C10.024 11.6 10.0195 11.6 10.015 11.6C10.0105 11.6 10.006 11.6 10.0014 11.6C9.99692 11.6 9.99241 11.6 9.98789 11.6C9.98338 11.6 9.97886 11.6 9.97434 11.6C9.96982 11.6 9.96529 11.6 9.96077 11.6C9.95625 11.6 9.95172 11.6 9.9472 11.6C9.94267 11.6 9.93814 11.6 9.93361 11.6C9.92908 11.6 9.92455 11.6 9.92002 11.6C9.91549 11.6 9.91095 11.6 9.90642 11.6C9.90188 11.6 9.89734 11.6 9.89281 11.6C9.88827 11.6 9.88373 11.6 9.87918 11.6C9.87464 11.6 9.8701 11.6 9.86555 11.6C9.861 11.6 9.85646 11.6 9.85191 11.6C9.84736 11.6 9.84281 11.6 9.83825 11.6C9.8337 11.6 9.82915 11.6 9.82459 11.6C9.82004 11.6 9.81548 11.6 9.81092 11.6C9.80636 11.6 9.8018 11.6 9.79724 11.6C9.79267 11.6 9.78811 11.6 9.78354 11.6C9.77898 11.6 9.77441 11.6 9.76984 11.6C9.76527 11.6 9.7607 11.6 9.75612 11.6C9.75155 11.6 9.74698 11.6 9.7424 11.6C9.73782 11.6 9.73324 11.6 9.72866 11.6C9.72408 11.6 9.7195 11.6 9.71492 11.6C9.71033 11.6 9.70575 11.6 9.70116 11.6C9.69657 11.6 9.69198 11.6 9.68739 11.6C9.6828 11.6 9.67821 11.6 9.67361 11.6C9.66902 11.6 9.66442 11.6 9.65982 11.6C9.65522 11.6 9.65062 11.6 9.64602 11.6C9.64142 11.6 9.63681 11.6 9.63221 11.6C9.6276 11.6 9.62299 11.6 9.61838 11.6C9.61377 11.6 9.60916 11.6 9.60455 11.6C9.59993 11.6 9.59532 11.6 9.5907 11.6C9.58608 11.6 9.58146 11.6 9.57684 11.6C9.57222 11.6 9.56759 11.6 9.56297 11.6C9.55834 11.6 9.55372 11.6 9.54909 11.6C9.54446 11.6 9.53983 11.6 9.53519 11.6C9.53056 11.6 9.52592 11.6 9.52129 11.6C9.51665 11.6 9.51201 11.6 9.50737 11.6C9.50273 11.6 9.49808 11.6 9.49344 11.6C9.48879 11.6 9.48415 11.6 9.4795 11.6C9.47485 11.6 9.4702 11.6 9.46554 11.6C9.46089 11.6 9.45623 11.6 9.45158 11.6C9.44692 11.6 9.44226 11.6 9.4376 11.6C9.43293 11.6 9.42827 11.6 9.4236 11.6C9.41894 11.6 9.41427 11.6 9.4096 11.6C9.40493 11.6 9.40026 11.6 9.39558 11.6C9.39091 11.6 9.38623 11.6 9.38155 11.6C9.37688 11.6 9.37219 11.6 9.36751 11.6C9.36283 11.6 9.35814 11.6 9.35346 11.6C9.34877 11.6 9.34408 11.6 9.33939 11.6C9.3347 11.6 9.33 11.6 9.32531 11.6C9.32061 11.6 9.31591 11.6 9.31121 11.6C9.30651 11.6 9.30181 11.6 9.29711 11.6C9.2924 11.6 9.28769 11.6 9.28298 11.6C9.27828 11.6 9.27356 11.6 9.26885 11.6C9.26414 11.6 9.25942 11.6 9.2547 11.6C9.24998 11.6 9.24527 11.6 9.24054 11.6C9.23582 11.6 9.23109 11.6 9.22637 11.6C9.22164 11.6 9.21691 11.6 9.21218 11.6C9.20745 11.6 9.20271 11.6 9.19798 11.6C9.19324 11.6 9.1885 11.6 9.18376 11.6C9.17902 11.6 9.17428 11.6 9.16953 11.6C9.16479 11.6 9.16004 11.6 9.15529 11.6C9.15054 11.6 9.14578 11.6 9.14103 11.6C9.13627 11.6 9.13152 11.6 9.12676 11.6C9.122 11.6 9.11724 11.6 9.11247 11.6C9.10771 11.6 9.10294 11.6 9.09817 11.6C9.0934 11.6 9.08863 11.6 9.08386 11.6C9.07908 11.6 9.0743 11.6 9.06953 11.6C9.06475 11.6 9.05997 11.6 9.05518 11.6C9.0504 11.6 9.04561 11.6 9.04082 11.6C9.03603 11.6 9.03124 11.6 9.02645 11.6C9.02166 11.6 9.01686 11.6 9.01206 11.6C9.00726 11.6 9.00246 11.6 8.99766 11.6C8.99285 11.6 8.98805 11.6 8.98324 11.6C8.97843 11.6 8.97362 11.6 8.96881 11.6C8.96399 11.6 8.95918 11.6 8.95436 11.6C8.94954 11.6 8.94472 11.6 8.93989 11.6C8.93507 11.6 8.93024 11.6 8.92542 11.6C8.92059 11.6 8.91576 11.6 8.91092 11.6C8.90609 11.6 8.90125 11.6 8.89641 11.6C8.89157 11.6 8.88673 11.6 8.88189 11.6C8.87704 11.6 8.8722 11.6 8.86735 11.6C8.8625 11.6 8.85764 11.6 8.85279 11.6C8.84794 11.6 8.84308 11.6 8.83822 11.6C8.83336 11.6 8.8285 11.6 8.82363 11.6C8.81876 11.6 8.8139 11.6 8.80903 11.6C8.80416 11.6 8.79928 11.6 8.79441 11.6C8.78953 11.6 8.78465 11.6 8.77977 11.6C8.77489 11.6 8.77 11.6 8.76512 11.6C8.76023 11.6 8.75534 11.6 8.75045 11.6C8.74556 11.6 8.74066 11.6 8.73576 11.6C8.73087 11.6 8.72597 11.6 8.72106 11.6C8.71616 11.6 8.71125 11.6 8.70635 11.6C8.70144 11.6 8.69653 11.6 8.69161 11.6C8.6867 11.6 8.68178 11.6 8.67686 11.6C8.67194 11.6 8.66702 11.6 8.66209 11.6C8.65717 11.6 8.65224 11.6 8.64731 11.6C8.64238 11.6 8.63744 11.6 8.63251 11.6C8.62757 11.6 8.62263 11.6 8.61769 11.6C8.61275 11.6 8.6078 11.6 8.60285 11.6C8.5979 11.6 8.59295 11.6 8.588 11.6C8.58305 11.6 8.57809 11.6 8.57313 11.6C8.56817 11.6 8.56321 11.6 8.55824 11.6C8.55328 11.6 8.54831 11.6 8.54334 11.6C8.53837 11.6 8.53339 11.6 8.52842 11.6C8.52344 11.6 8.51846 11.6 8.51348 11.6C8.50849 11.6 8.50351 11.6 8.49852 11.6C8.49353 11.6 8.48854 11.6 8.48354 11.6C8.47855 11.6 8.47355 11.6 8.46855 11.6C8.46355 11.6 8.45855 11.6 8.45354 11.6C8.44853 11.6 8.44353 11.6 8.43851 11.6C8.4335 11.6 8.42849 11.6 8.42347 11.6C8.41845 11.6 8.41343 11.6 8.4084 11.6C8.40338 11.6 8.39835 11.6 8.39332 11.6C8.38829 11.6 8.38326 11.6 8.37822 11.6C8.37318 11.6 8.36814 11.6 8.3631 11.6C8.35806 11.6 8.35301 11.6 8.34796 11.6C8.34291 11.6 8.33786 11.6 8.33281 11.6C8.32775 11.6 8.32269 11.6 8.31763 11.6C8.31257 11.6 8.3075 11.6 8.30244 11.6C8.29737 11.6 8.2923 11.6 8.28722 11.6C8.28215 11.6 8.27707 11.6 8.27199 11.6C8.26691 11.6 8.26183 11.6 8.25674 11.6C8.25166 11.6 8.24657 11.6 8.24147 11.6C8.23638 11.6 8.23129 11.6 8.22619 11.6C8.22109 11.6 8.21598 11.6 8.21088 11.6C8.20577 11.6 8.20066 11.6 8.19555 11.6C8.19044 11.6 8.18533 11.6 8.18021 11.6C8.17509 11.6 8.16997 11.6 8.16484 11.6C8.15972 11.6 8.15459 11.6 8.14946 11.6C8.14433 11.6 8.13919 11.6 8.13405 11.6C8.12892 11.6 8.12377 11.6 8.11863 11.6C8.11348 11.6 8.10834 11.6 8.10319 11.6C8.09803 11.6 8.09288 11.6 8.08772 11.6C8.08256 11.6 8.0774 11.6 8.07224 11.6C8.06707 11.6 8.06191 11.6 8.05674 11.6C8.05157 11.6 8.04639 11.6 8.04121 11.6C8.03604 11.6 8.03085 11.6 8.02567 11.6C8.02049 11.6 8.0153 11.6 8.01011 11.6C8.00492 11.6 7.99972 11.6 7.99452 11.6C7.98932 11.6 7.98412 11.6 7.97892 11.6C7.97371 11.6 7.96851 11.6 7.96329 11.6C7.95808 11.6 7.95287 11.6 7.94765 11.6C7.94243 11.6 7.93721 11.6 7.93198 11.6C7.92676 11.6 7.92153 11.6 7.9163 11.6C7.91106 11.6 7.90583 11.6 7.90059 11.6C7.89535 11.6 7.89011 11.6 7.88486 11.6C7.87962 11.6 7.87437 11.6 7.86911 11.6C7.86386 11.6 7.8586 11.6 7.85334 11.6C7.84808 11.6 7.84282 11.6 7.83755 11.6C7.83228 11.6 7.82701 11.6 7.82174 11.6C7.81647 11.6 7.81119 11.6 7.80591 11.6C7.80063 11.6 7.79534 11.6 7.79005 11.6C7.78476 11.6 7.77947 11.6 7.77418 11.6C7.76888 11.6 7.76358 11.6 7.75828 11.6C7.75298 11.6 7.74767 11.6 7.74236 11.6C7.73705 11.6 7.73174 11.6 7.72642 11.6C7.7211 11.6 7.71578 11.6 7.71046 11.6C7.70513 11.6 7.6998 11.6 7.69447 11.6C7.68914 11.6 7.6838 11.6 7.67847 11.6C7.67313 11.6 7.66778 11.6 7.66244 11.6C7.65709 11.6 7.65174 11.6 7.64639 11.6C7.64103 11.6 7.63568 11.6 7.63031 11.6C7.62495 11.6 7.61959 11.6 7.61422 11.6C7.60885 11.6 7.60348 11.6 7.5981 11.6C7.59273 11.6 7.58735 11.6 7.58196 11.6C7.57658 11.6 7.57119 11.6 7.5658 11.6C7.56041 11.6 7.55502 11.6 7.54962 11.6C7.54422 11.6 7.53882 11.6 7.53341 11.6C7.52801 11.6 7.5226 11.6 7.51718 11.6C7.51177 11.6 7.50635 11.6 7.50093 11.6C7.49551 11.6 7.49008 11.6 7.48466 11.6C7.47923 11.6 7.47379 11.6 7.46836 11.6C7.46292 11.6 7.45748 11.6 7.45204 11.6C7.44659 11.6 7.44114 11.6 7.43569 11.6C7.43024 11.6 7.42478 11.6 7.41932 11.6C7.41387 11.6 7.4084 11.6 7.40293 11.6C7.39747 11.6 7.392 11.6 7.38652 11.6C7.38105 11.6 7.37557 11.6 7.37008 11.6C7.3646 11.6 7.35911 11.6 7.35362 11.6C7.34813 11.6 7.34264 11.6 7.33714 11.6C7.33164 11.6 7.32614 11.6 7.32063 11.6C7.31512 11.6 7.30961 11.6 7.3041 11.6C7.29858 11.6 7.29307 11.6 7.28754 11.6C7.28202 11.6 7.27649 11.6 7.27096 11.6C7.26543 11.6 7.2599 11.6 7.25436 11.6C7.24882 11.6 7.24328 11.6 7.23773 11.6C7.23219 11.6 7.22664 11.6 7.22108 11.6C7.21553 11.6 7.20997 11.6 7.2044 11.6C7.19884 11.6 7.19328 11.6 7.1877 11.6C7.18213 11.6 7.17656 11.6 7.17098 11.6C7.1654 11.6 7.15982 11.6 7.15423 11.6C7.14864 11.6 7.14305 11.6 7.13746 11.6C7.13186 11.6 7.12626 11.6 7.12066 11.6C7.11506 11.6 7.10945 11.6 7.10384 11.6C7.09822 11.6 7.09261 11.6 7.08699 11.6C7.08137 11.6 7.07574 11.6 7.07012 11.6C7.06449 11.6 7.05886 11.6 7.05322 11.6C7.04758 11.6 7.04194 11.6 7.0363 11.6C7.03065 11.6 7.025 11.6 7.01935 11.6C7.0137 11.6 7.00804 11.6 7.00238 11.6C6.99671 11.6 6.99105 11.6 6.98538 11.6C6.97971 11.6 6.97403 11.6 6.96835 11.6C6.96268 11.6 6.95699 11.6 6.95131 11.6C6.94562 11.6 6.93993 11.6 6.93423 11.6C6.92854 11.6 6.92284 11.6 6.91713 11.6C6.91143 11.6 6.90572 11.6 6.90001 11.6V12.4ZM14.1001 12.4C14.4243 12.4 14.7339 12.3047 14.9722 12.1307C15.2103 11.957 15.4 11.6834 15.4 11.3432H14.6C14.6 11.3657 14.5883 11.4205 14.5006 11.4845C14.4132 11.5483 14.2729 11.6 14.1001 11.6V12.4ZM15.4 11.3432C15.4 10.7746 15.0895 10.24 14.6528 9.79933C14.2102 9.35268 13.5997 8.96167 12.9024 8.67439L12.5977 9.41407C13.2168 9.66916 13.7314 10.006 14.0846 10.3625C14.4438 10.7249 14.6 11.0685 14.6 11.3432H15.4ZM12.9024 8.67439C11.2745 8.00367 9.72561 8.00367 8.09764 8.67439L8.40239 9.41407C9.83515 8.82378 11.1649 8.82378 12.5977 9.41407L12.9024 8.67439ZM8.09764 8.67439C7.40034 8.96167 6.78988 9.35268 6.34724 9.79933C5.91054 10.24 5.60004 10.7746 5.6 11.3432L6.4 11.3432C6.40002 11.0685 6.55629 10.7249 6.91547 10.3625C7.26871 10.006 7.78322 9.66916 8.40239 9.41407L8.09764 8.67439ZM8.65228 5.23476C8.60041 4.24537 9.46133 3.4 10.5 3.4V2.6C9.05651 2.6 7.7748 3.7779 7.85338 5.27665L8.65228 5.23476ZM10.5 3.4C11.5387 3.4 12.3996 4.24537 12.3477 5.23476L13.1466 5.27665C13.2252 3.7779 11.9435 2.6 10.5 2.6V3.4ZM12.3477 5.23476C12.2981 6.18063 11.494 6.88584 10.5 6.88584V7.68584C11.8673 7.68584 13.0721 6.69778 13.1466 5.27665L12.3477 5.23476ZM10.5 6.88584C9.50599 6.88584 8.70188 6.18063 8.65228 5.23476L7.85338 5.27665C7.92789 6.69778 9.1327 7.68584 10.5 7.68584V6.88584Z" fill="#4785E7"/>
</svg>
