<svg width="20" height="18" viewBox="0 0 20 18" fill="none" xmlns="http://www.w3.org/2000/svg">
<path d="M9.91634 1.14285V0.642853C9.6402 0.642853 9.41634 0.86671 9.41634 1.14285H9.91634ZM19.2857 1.14285H19.7857C19.7857 0.86671 19.5619 0.642853 19.2857 0.642853V1.14285ZM19.2857 16.8571V17.3571C19.5619 17.3571 19.7857 17.1333 19.7857 16.8571H19.2857ZM9.91634 16.8571H9.41634C9.41634 17.1333 9.6402 17.3571 9.91634 17.3571V16.8571ZM13.0116 12.0672H12.5116C12.5116 12.2475 12.6087 12.4139 12.7657 12.5026C12.9227 12.5913 13.1152 12.5885 13.2697 12.4955L13.0116 12.0672ZM14.6847 11.0588L14.9525 10.6366C14.7925 10.5351 14.5889 10.5328 14.4266 10.6306L14.6847 11.0588ZM16.2741 12.0672L16.0063 12.4894C16.1603 12.5871 16.3552 12.5932 16.515 12.5054C16.6748 12.4175 16.7741 12.2496 16.7741 12.0672H16.2741ZM13.0116 4.33613H12.5116C12.5116 4.51644 12.6087 4.68279 12.7657 4.77148C12.9227 4.86016 13.1152 4.85744 13.2697 4.76436L13.0116 4.33613ZM14.6847 3.32773L14.9679 2.91567C14.8062 2.80457 14.5946 2.79824 14.4266 2.89949L14.6847 3.32773ZM16.2741 4.42016L15.9909 4.83222C16.1439 4.93739 16.3426 4.94911 16.5069 4.86266C16.6712 4.77621 16.7741 4.60583 16.7741 4.42016H16.2741ZM5.39896 16.8571L5.18763 17.3103C5.3262 17.3749 5.48674 17.3726 5.62338 17.3039L5.39896 16.8571ZM5.39896 6.43697L5.60981 5.9836C5.4783 5.92244 5.32671 5.9214 5.19437 5.98075L5.39896 6.43697ZM0.714279 8.53781L0.509686 8.08159C0.329943 8.16219 0.214279 8.34082 0.214279 8.53781H0.714279ZM0.714279 14.6723H0.214279C0.214279 14.8666 0.326847 15.0433 0.502941 15.1254L0.714279 14.6723ZM19.2857 16.3571H9.91634V17.3571H19.2857V16.3571ZM18.7857 1.14285V9H19.7857V1.14285H18.7857ZM18.7857 9V16.8571H19.7857V9H18.7857ZM9.91634 9.5H13.0116V8.5H9.91634V9.5ZM12.5116 9V12.0672H13.5116V9H12.5116ZM13.2697 12.4955L14.9428 11.4871L14.4266 10.6306L12.7535 11.639L13.2697 12.4955ZM14.4168 11.481L16.0063 12.4894L16.542 11.645L14.9525 10.6366L14.4168 11.481ZM13.0116 9.5H16.2741V8.5H13.0116V9.5ZM16.2741 9.5H19.2857V8.5H16.2741V9.5ZM16.7741 12.0672V9H15.7741V12.0672H16.7741ZM9.91634 1.64285H13.0116V0.642853H9.91634V1.64285ZM12.5116 1.14285V4.33613H13.5116V1.14285H12.5116ZM13.2697 4.76436L14.9428 3.75596L14.4266 2.89949L12.7535 3.9079L13.2697 4.76436ZM14.4015 3.73978L15.9909 4.83222L16.5573 4.00811L14.9679 2.91567L14.4015 3.73978ZM13.0116 1.64285H16.2741V0.642853H13.0116V1.64285ZM16.2741 1.64285H19.2857V0.642853H16.2741V1.64285ZM16.7741 4.42016V1.14285H15.7741V4.42016H16.7741ZM10.4163 9V8.53781H9.41634V9H10.4163ZM10.4163 8.53781V1.14285H9.41634V8.53781H10.4163ZM9.91634 8.53781C9.71561 8.07987 9.71559 8.07988 9.71556 8.0799C9.71553 8.07991 9.71549 8.07993 9.71544 8.07995C9.71533 8.07999 9.71519 8.08006 9.71499 8.08014C9.7146 8.08032 9.71402 8.08057 9.71326 8.0809C9.71174 8.08157 9.70949 8.08256 9.70652 8.08386C9.70059 8.08646 9.69181 8.09032 9.68031 8.09538C9.65732 8.10548 9.62348 8.12038 9.57993 8.13958C9.49285 8.17799 9.36693 8.23366 9.21135 8.3028C8.90023 8.44107 8.47021 8.63335 7.99462 8.84938C7.04705 9.27982 5.90627 9.81013 5.16774 10.1953L5.63019 11.082C6.34168 10.7109 7.45959 10.1908 8.4082 9.75985C8.8807 9.54522 9.30814 9.35409 9.61747 9.21662C9.7721 9.1479 9.89716 9.09261 9.98348 9.05454C10.0266 9.0355 10.0601 9.02077 10.0828 9.01082C10.0941 9.00584 10.1027 9.00205 10.1085 8.99952C10.1114 8.99826 10.1135 8.9973 10.115 8.99667C10.1157 8.99636 10.1162 8.99612 10.1166 8.99597C10.1167 8.99589 10.1169 8.99583 10.117 8.9958C10.117 8.99578 10.117 8.99577 10.1171 8.99576C10.1171 8.99575 10.1171 8.99575 9.91634 8.53781ZM4.89896 10.6387V16.8571H5.89896V10.6387H4.89896ZM10.4163 16.8571V14.5882H9.41634V16.8571H10.4163ZM10.4163 14.5882V9H9.41634V14.5882H10.4163ZM5.62338 17.3039L10.1408 15.035L9.69192 14.1414L5.17455 16.4103L5.62338 17.3039ZM10.1272 8.08444L5.60981 5.9836L5.18812 6.89034L9.7055 8.99118L10.1272 8.08444ZM5.19437 5.98075L0.509686 8.08159L0.918873 8.99404L5.60356 6.8932L5.19437 5.98075ZM0.509686 8.99404L5.19437 11.0949L5.60356 10.1824L0.918873 8.08159L0.509686 8.99404ZM5.6103 16.404L0.925618 14.2191L0.502941 15.1254L5.18763 17.3103L5.6103 16.404ZM1.21428 14.6723V8.53781H0.214279V14.6723H1.21428Z" fill="#4785E7"/>
</svg>
