<svg width="18" height="18" viewBox="0 0 18 18" fill="none" xmlns="http://www.w3.org/2000/svg">
<path d="M0 17C0 17.5523 0.447715 18 1 18C1.55228 18 2 17.5523 2 17H0ZM2 8.72414C2 8.17185 1.55228 7.72414 1 7.72414C0.447715 7.72414 0 8.17185 0 8.72414H2ZM5.4 17C5.4 17.5523 5.84772 18 6.4 18C6.95228 18 7.4 17.5523 7.4 17H5.4ZM7.4 1C7.4 0.447715 6.95228 0 6.4 0C5.84772 0 5.4 0.447715 5.4 1H7.4ZM10.6 17C10.6 17.5523 11.0477 18 11.6 18C12.1523 18 12.6 17.5523 12.6 17H10.6ZM12.6 5.96552C12.6 5.41323 12.1523 4.96552 11.6 4.96552C11.0477 4.96552 10.6 5.41323 10.6 5.96552H12.6ZM16 17C16 17.5523 16.4477 18 17 18C17.5523 18 18 17.5523 18 17H16ZM18 10.5632C18 10.0109 17.5523 9.56322 17 9.56322C16.4477 9.56322 16 10.0109 16 10.5632H18ZM2 17V8.72414H0V17H2ZM7.4 17V1H5.4V17H7.4ZM12.6 17V5.96552H10.6V17H12.6ZM18 17V10.5632H16V17H18Z" fill="#4785E7"/>
</svg>
