<svg width="22" height="20" viewBox="0 0 22 20" fill="none" xmlns="http://www.w3.org/2000/svg">
<path d="M15.8937 10.841C16.038 11.0083 16.2906 11.027 16.4579 10.8827C16.6251 10.7384 16.6438 10.4858 16.4995 10.3186L15.8937 10.841ZM19.1467 10.5492C18.9748 10.6879 18.9479 10.9398 19.0866 11.1117C19.2253 11.2836 19.4772 11.3105 19.6491 11.1718L19.1467 10.5492ZM18.3372 6.98716L18.4152 6.59484L18.3372 6.98716ZM11.1228 6.53809L11.1168 6.93804L11.1228 6.53809ZM13.5894 8.87604L13.1898 8.89188L13.1898 8.89189L13.5894 8.87604ZM11.1228 11.4025L11.1288 11.8025L11.1288 11.8025L11.1228 11.4025ZM8.57908 8.87604L8.97877 8.89188L8.57908 8.87604ZM7.8479 1.00037L7.84189 1.40032L7.8479 1.00037ZM10.1217 3.1512L9.72201 3.16705L9.72201 3.16705L10.1217 3.1512ZM7.8479 5.49058L7.85392 5.89054L7.85392 5.89054L7.8479 5.49058ZM5.49702 3.1512L5.89671 3.16704L5.89671 3.16704L5.49702 3.1512ZM14.3818 1.0565L14.3757 1.45646L14.3818 1.0565ZM16.6555 3.20734L16.2559 3.22318L16.2559 3.22318L16.6555 3.20734ZM14.3818 5.54672L14.3878 5.94667L14.3878 5.94667L14.3818 5.54672ZM12.0309 3.20734L12.4306 3.22318L12.4306 3.22318L12.0309 3.20734ZM4.25913 6.91232L4.25312 7.31228L4.25913 6.91232ZM6.53292 9.06316L6.13323 9.079L6.13323 9.079L6.53292 9.06316ZM4.25913 11.4025L4.26515 11.8025L4.26515 11.8025L4.25913 11.4025ZM1.90826 9.06316L2.30795 9.079L1.90826 9.06316ZM15.5447 15.1401C15.3661 15.0101 15.1159 15.0495 14.9859 15.2281C14.8559 15.4068 14.8954 15.6569 15.074 15.7869L15.5447 15.1401ZM16.9293 16.6423L16.6939 16.9658C16.8602 17.0867 17.091 17.062 17.2279 16.9085L16.9293 16.6423ZM19.6965 14.1392C19.8435 13.9743 19.829 13.7214 19.6641 13.5744C19.4992 13.4274 19.2463 13.4419 19.0993 13.6068L19.6965 14.1392ZM8.38099 5.43338L8.2999 5.04169L8.38099 5.43338ZM3.52631 11.317L3.62793 10.9301L3.62793 10.9301L3.52631 11.317ZM1 15.688L1.4 15.688L1.4 15.688L1 15.688ZM7.26757 15.8939L7.66737 15.8812L7.26757 15.8939ZM6.88187 12.7316L6.53208 12.9256L6.88187 12.7316ZM1.69425 12.5445L1.37863 12.2987L1.37863 12.2987L1.69425 12.5445ZM10.432 11.317L10.5355 10.9306L10.432 11.317ZM7.26757 16.7546H6.86757C6.86757 16.9306 6.98261 17.0859 7.15097 17.1372L7.26757 16.7546ZM18.2592 7.37948C19.2833 7.58309 19.7222 8.17917 19.82 8.78741C19.9235 9.43158 19.6543 10.1396 19.1467 10.5492L19.6491 11.1718C20.3817 10.5806 20.7585 9.58583 20.6098 8.66049C20.4554 7.69921 19.7439 6.85903 18.4152 6.59484L18.2592 7.37948ZM7.84189 1.40032C8.43183 1.40919 8.88526 1.59218 9.19398 1.88286C9.5012 2.17213 9.69954 2.60025 9.72201 3.16705L10.5214 3.13536C10.4919 2.39093 10.2238 1.75372 9.74239 1.30042C9.26246 0.848528 8.60498 0.611707 7.85392 0.600412L7.84189 1.40032ZM5.89671 3.16704C5.91942 2.59406 6.12853 2.15711 6.4504 1.86428C6.77391 1.56997 7.24451 1.39134 7.84189 1.40032L7.85392 0.600412C7.08851 0.588903 6.41007 0.819435 5.91204 1.27253C5.41237 1.72711 5.12744 2.37582 5.09734 3.13536L5.89671 3.16704ZM14.3757 1.45646C14.9657 1.46533 15.4191 1.64831 15.7278 1.939C16.035 2.22827 16.2334 2.65639 16.2559 3.22318L17.0552 3.19149C17.0257 2.44707 16.7577 1.80985 16.2762 1.35655C15.7963 0.904663 15.1388 0.667841 14.3878 0.656547L14.3757 1.45646ZM12.4306 3.22318C12.4533 2.6502 12.6624 2.21324 12.9843 1.92042C13.3078 1.6261 13.7784 1.44747 14.3757 1.45646L14.3878 0.656547C13.6224 0.645037 12.9439 0.87557 12.4459 1.32867C11.9462 1.78325 11.6613 2.43196 11.6312 3.1915L12.4306 3.22318ZM2.30795 9.079C2.33065 8.50602 2.53976 8.06907 2.86163 7.77624C3.18514 7.48192 3.65574 7.3033 4.25312 7.31228L4.26514 6.51237C3.49973 6.50086 2.8213 6.73139 2.32327 7.18449C1.82361 7.63907 1.53868 8.28778 1.50857 9.04732L2.30795 9.079ZM17.3535 12.1399C18.4481 12.1399 19.2384 12.6119 19.7693 13.2366C20.3097 13.8726 20.5752 14.6615 20.5987 15.2538L21.398 15.2221C21.3675 14.451 21.0352 13.4908 20.3789 12.7186C19.7132 11.9352 18.7081 11.3399 17.3535 11.3399V12.1399ZM20.5987 15.2538C20.6212 15.8231 20.3553 16.6717 19.788 17.3802C19.23 18.077 18.4123 18.6 17.3535 18.6V19.4C18.7054 19.4 19.7371 18.7236 20.4124 17.8803C21.0783 17.0487 21.4295 16.0162 21.398 15.2221L20.5987 15.2538ZM17.3535 18.6C16.1582 18.6 15.3281 18.0724 14.787 17.3898C14.235 16.6936 13.9894 15.8408 13.9894 15.2379H13.1894C13.1894 16.0201 13.4953 17.0483 14.1601 17.8868C14.8357 18.7391 15.8875 19.4 17.3535 19.4V18.6ZM13.9894 15.2379C13.9894 14.6904 14.2297 13.9073 14.7778 13.2647C15.3147 12.6353 16.1467 12.1399 17.3535 12.1399V11.3399C15.899 11.3399 14.849 11.9484 14.1692 12.7455C13.5006 13.5294 13.1894 14.4954 13.1894 15.2379H13.9894ZM15.074 15.7869L16.6939 16.9658L17.1646 16.3189L15.5447 15.1401L15.074 15.7869ZM17.2279 16.9085L19.6965 14.1392L19.0993 13.6068L16.6307 16.3762L17.2279 16.9085ZM16.4995 10.3186C16.1696 9.93603 16.0431 9.31801 16.1738 8.71707C16.3031 8.12293 16.6658 7.62407 17.2182 7.4267L16.9489 6.67336C16.0757 6.98541 15.5649 7.75287 15.3921 8.54697C15.2208 9.33427 15.3636 10.2264 15.8937 10.841L16.4995 10.3186ZM17.2182 7.4267C17.4932 7.3284 17.8372 7.29557 18.2592 7.37948L18.4152 6.59484C17.8689 6.48622 17.3763 6.52063 16.9489 6.67336L17.2182 7.4267ZM16.2559 3.22318C16.2926 4.1495 15.802 4.81333 15.0197 5.0506L15.2519 5.81616C16.399 5.46823 17.1057 4.46428 17.0552 3.19149L16.2559 3.22318ZM15.0197 5.0506C14.8262 5.1093 14.6108 5.14323 14.3757 5.14676L14.3878 5.94667C14.6925 5.94209 14.9823 5.89792 15.2519 5.81616L15.0197 5.0506ZM17.4373 6.86341C17.2155 6.4429 16.9632 6.04259 16.6094 5.71948C16.2486 5.39006 15.801 5.15749 15.2136 5.04102L15.058 5.82575C15.5119 5.91575 15.8242 6.08581 16.07 6.31024C16.3226 6.54098 16.5236 6.84576 16.7298 7.23665L17.4373 6.86341ZM14.3757 5.14676C14.0586 5.15153 13.7736 5.09849 13.5275 5.00152L13.2342 5.74585C13.5844 5.8838 13.9739 5.9529 14.3878 5.94667L14.3757 5.14676ZM13.5275 5.00152C12.8369 4.72948 12.3963 4.08787 12.4306 3.22318L11.6312 3.1915C11.5841 4.37982 12.2122 5.34319 13.2342 5.74585L13.5275 5.00152ZM11.1168 6.93804C11.3233 6.94115 11.5213 6.97166 11.7072 7.02565L11.9303 6.25739C11.6757 6.18343 11.4067 6.14231 11.1288 6.13813L11.1168 6.93804ZM11.7072 7.02565C12.5504 7.27049 13.1543 7.9985 13.1898 8.89188L13.9891 8.86019C13.9394 7.60477 13.0863 6.59306 11.9303 6.25739L11.7072 7.02565ZM13.2789 4.98689C12.9766 5.06656 12.587 5.30529 12.2658 5.55785C11.948 5.80775 11.6012 6.14595 11.4532 6.47921L12.1844 6.80383C12.2485 6.65935 12.461 6.42208 12.7603 6.18672C13.0562 5.95403 13.3415 5.7977 13.4828 5.76048L13.2789 4.98689ZM8.97877 8.89188C9.0126 8.03822 9.57777 7.3291 10.3679 7.05656L10.107 6.30028C9.02543 6.67337 8.22711 7.6563 8.1794 8.8602L8.97877 8.89188ZM10.3679 7.05656C10.6006 6.97628 10.8529 6.93407 11.1168 6.93804L11.1288 6.13813C10.7715 6.13276 10.4269 6.18995 10.107 6.30028L10.3679 7.05656ZM9.72201 3.16705C9.76127 4.15735 9.19709 4.85595 8.2999 5.04169L8.46208 5.82508C9.75124 5.55819 10.5758 4.50752 10.5214 3.13536L9.72201 3.16705ZM8.2999 5.04169C8.15712 5.07125 8.00419 5.08819 7.84188 5.09063L7.85392 5.89054C8.06431 5.88737 8.26761 5.86534 8.46208 5.82508L8.2999 5.04169ZM10.5635 6.4467C10.263 6.02387 9.97484 5.69663 9.62993 5.46229C9.27814 5.22326 8.89532 5.09957 8.43483 5.03702L8.32715 5.82974C8.70101 5.88053 8.95714 5.97235 9.18034 6.124C9.41043 6.28033 9.63335 6.51894 9.91139 6.91015L10.5635 6.4467ZM4.25312 7.31228C4.44935 7.31523 4.6306 7.33756 4.7961 7.37652L4.97941 6.5978C4.75349 6.54462 4.51453 6.51612 4.26514 6.51237L4.25312 7.31228ZM4.7961 7.37652C5.20906 7.47373 5.52844 7.67506 5.75021 7.95192C5.97253 8.22947 6.11445 8.60522 6.13323 9.079L6.93261 9.04731C6.90804 8.42773 6.71848 7.88109 6.3746 7.45178C6.03018 7.02179 5.54865 6.7318 4.97941 6.5978L4.7961 7.37652ZM7.84188 5.09063C7.53701 5.09521 7.2619 5.04638 7.02247 4.95648L6.74127 5.70544C7.08082 5.83292 7.45607 5.89652 7.85392 5.89054L7.84188 5.09063ZM7.02247 4.95648C6.31453 4.69069 5.862 4.04288 5.89671 3.16704L5.09734 3.13536C5.04958 4.34027 5.69593 5.31297 6.74127 5.70544L7.02247 4.95648ZM5.23508 7.18556C5.53428 6.66177 5.74304 6.38273 5.97651 6.19115C6.20744 6.00165 6.49302 5.87261 7.00191 5.71252L6.76183 4.9494C6.22934 5.11691 5.8225 5.28266 5.46903 5.57271C5.11811 5.86067 4.8505 6.24592 4.54042 6.78876L5.23508 7.18556ZM4.25311 11.0026C4.02757 11.006 3.81834 10.9801 3.62793 10.9301L3.42468 11.7039C3.68905 11.7733 3.97093 11.8069 4.26515 11.8025L4.25311 11.0026ZM3.62793 10.9301C2.80308 10.7134 2.27041 10.0261 2.30795 9.079L1.50857 9.04732C1.45655 10.3599 2.22754 11.3894 3.42468 11.7039L3.62793 10.9301ZM0.600002 15.688C0.600002 16.0358 0.791562 16.2992 1.02625 16.4803C1.25522 16.657 1.55557 16.7824 1.87359 16.8736C2.51392 17.0573 3.34196 17.1348 4.14707 17.1327C4.95411 17.1305 5.7721 17.0482 6.39784 16.8938C6.70731 16.8174 6.99559 16.7173 7.21495 16.5843C7.41551 16.4628 7.67859 16.2371 7.66737 15.8812L6.86777 15.9065C6.86469 15.8089 6.93802 15.8167 6.80028 15.9002C6.68134 15.9723 6.48277 16.0488 6.20618 16.1171C5.65981 16.2519 4.90887 16.3307 4.14494 16.3327C3.37909 16.3347 2.63412 16.2595 2.0942 16.1046C1.82208 16.0265 1.63049 15.9361 1.51504 15.847C1.40532 15.7623 1.4 15.7099 1.4 15.688H0.600002ZM6.13323 9.079C6.17112 10.0346 5.64762 10.7142 4.81407 10.9297L5.01432 11.7042C6.22581 11.391 6.98485 10.3651 6.93261 9.04731L6.13323 9.079ZM4.81407 10.9297C4.64256 10.9741 4.4551 10.9995 4.25311 11.0026L4.26515 11.8025C4.52699 11.7986 4.77785 11.7654 5.01432 11.7042L4.81407 10.9297ZM7.66737 15.8812C7.64732 15.246 7.64596 14.6031 7.60153 14.0495C7.55723 13.4976 7.4667 12.9613 7.23166 12.5375L6.53208 12.9256C6.67984 13.192 6.76154 13.5834 6.80409 14.1135C6.84649 14.6418 6.84658 15.235 6.86777 15.9065L7.66737 15.8812ZM7.23166 12.5375C6.83665 11.8255 6.27363 11.4215 5.81408 11.1973C5.58459 11.0853 5.37897 11.0171 5.22867 10.9765C5.15334 10.9562 5.09135 10.9426 5.04651 10.9339C5.02407 10.9296 5.00587 10.9265 4.99237 10.9243C4.98562 10.9232 4.98004 10.9223 4.9757 10.9217C4.97352 10.9214 4.97165 10.9211 4.9701 10.9209C4.96932 10.9208 4.96862 10.9207 4.968 10.9206C4.96769 10.9206 4.9674 10.9205 4.96713 10.9205C4.967 10.9205 4.96681 10.9205 4.96674 10.9205C4.96656 10.9204 4.96639 10.9204 4.9142 11.317C4.86201 11.7136 4.86184 11.7135 4.86168 11.7135C4.86163 11.7135 4.86147 11.7135 4.86137 11.7135C4.86118 11.7135 4.86101 11.7134 4.86085 11.7134C4.86054 11.7134 4.86031 11.7133 4.86015 11.7133C4.85983 11.7133 4.8598 11.7133 4.86006 11.7133C4.86058 11.7134 4.86225 11.7136 4.86502 11.7141C4.87055 11.715 4.88044 11.7166 4.89425 11.7193C4.92189 11.7247 4.965 11.734 5.02012 11.7489C5.1307 11.7787 5.28732 11.8304 5.46331 11.9163C5.81471 12.0877 6.23553 12.391 6.53208 12.9256L7.23166 12.5375ZM3.52631 11.317C3.428 10.9293 3.42788 10.9293 3.42774 10.9293C3.42769 10.9293 3.42756 10.9294 3.42746 10.9294C3.42726 10.9294 3.42704 10.9295 3.42681 10.9296C3.42634 10.9297 3.42581 10.9298 3.4252 10.93C3.424 10.9303 3.42253 10.9307 3.4208 10.9311C3.41735 10.932 3.41284 10.9333 3.40733 10.9348C3.39632 10.9378 3.38129 10.9421 3.3626 10.9477C3.32525 10.959 3.27317 10.9756 3.20925 10.9985C3.08165 11.0442 2.90559 11.1153 2.70484 11.2185C2.30545 11.424 1.79492 11.764 1.37863 12.2987L2.00988 12.7902C2.33372 12.3742 2.73922 12.1005 3.07083 11.9299C3.23556 11.8452 3.37875 11.7876 3.47901 11.7517C3.52903 11.7338 3.56803 11.7214 3.59328 11.7137C3.6059 11.7099 3.61505 11.7074 3.6204 11.7059C3.62307 11.7051 3.62478 11.7047 3.6255 11.7045C3.62586 11.7044 3.62597 11.7044 3.62582 11.7044C3.62575 11.7044 3.62561 11.7045 3.62541 11.7045C3.62531 11.7045 3.62519 11.7046 3.62506 11.7046C3.62499 11.7046 3.62488 11.7046 3.62485 11.7047C3.62473 11.7047 3.62461 11.7047 3.52631 11.317ZM1.37863 12.2987C0.579334 13.3254 0.600002 14.5382 0.600002 15.688L1.4 15.688C1.4 14.4802 1.40766 13.5637 2.00988 12.7902L1.37863 12.2987ZM11.1168 11.0026C10.916 11.0056 10.7209 10.9803 10.5355 10.9306L10.3284 11.7034C10.584 11.7718 10.8527 11.8066 11.1288 11.8025L11.1168 11.0026ZM10.5355 10.9306C9.61178 10.6831 8.94121 9.83957 8.97877 8.89188L8.1794 8.8602C8.12574 10.214 9.07595 11.3677 10.3284 11.7034L10.5355 10.9306ZM10.306 10.9373C9.66166 11.1511 8.7613 11.4825 8.04349 12.2311C7.31171 12.9943 6.81215 14.1435 6.86777 15.9065L7.66737 15.8812C7.61732 14.2948 8.06271 13.367 8.62093 12.7848C9.19312 12.1881 9.9278 11.9057 10.5579 11.6966L10.306 10.9373ZM13.1898 8.89189C13.2275 9.84502 12.5652 10.6839 11.6394 10.9305L11.8453 11.7035C13.1048 11.368 14.0429 10.2156 13.9891 8.86019L13.1898 8.89189ZM11.6394 10.9305C11.4727 10.9749 11.2976 10.9999 11.1168 11.0026L11.1288 11.8025C11.3758 11.7988 11.616 11.7646 11.8453 11.7035L11.6394 10.9305ZM11.7012 11.7149C12.4351 11.7906 12.846 12.081 13.0587 12.3699L13.703 11.8957C13.3372 11.3987 12.7067 11.0144 11.7834 10.9191L11.7012 11.7149ZM6.86757 15.8939V16.7546H7.66757V15.8939H6.86757ZM7.15097 17.1372C9.54237 17.8659 11.1216 17.8691 12.6222 17.6752L12.5196 16.8818C11.124 17.0622 9.65971 17.0654 7.38416 16.372L7.15097 17.1372Z" fill="#4785E7"/>
</svg>
