<svg width="18" height="22" viewBox="0 0 18 22" fill="none" xmlns="http://www.w3.org/2000/svg">
<path d="M2.95688 1.00013C7.21581 0.999878 17 1.00013 17 1.00013V16.1413C17 16.1413 8.86199 16.1413 3.64753 16.1413C2.49641 16.1413 1.46044 17.1838 1.46044 18.4011C1.46044 19.6184 2.49639 20.661 3.64753 20.661C8.86199 20.661 17 20.661 17 20.661V21C17 21 7.56126 21 3.1871 21C2.04103 21 1.00008 20.2041 1.00005 19.0791C0.999926 14.1074 1.00007 8.11885 1.00005 2.69503C1.00005 1.69461 1.93774 1.00019 2.95688 1.00013Z" stroke="#4785E7" stroke-width="0.8" stroke-linejoin="round"/>
<path d="M9.63305 8.29332L9.45058 7.93736C9.30013 8.01448 9.21441 8.17788 9.23647 8.3455C9.25853 8.51313 9.3836 8.64879 9.54888 8.68436L9.63305 8.29332ZM8.32807 8.33068L8.4349 8.71615C8.5978 8.67101 8.71473 8.52834 8.72702 8.35976C8.7393 8.19117 8.64429 8.03306 8.48966 7.96477L8.32807 8.33068ZM6.29395 11.1703H5.89395C5.89395 11.3912 6.07303 11.5703 6.29395 11.5703V11.1703ZM11.8191 11.1703V11.5703C12.04 11.5703 12.2191 11.3912 12.2191 11.1703H11.8191ZM10.0378 6.9904C10.0378 7.39804 9.80312 7.75664 9.45058 7.93736L9.81551 8.64927C10.4195 8.33968 10.8378 7.71537 10.8378 6.9904H10.0378ZM8.94136 5.92148C9.55391 5.92148 10.0378 6.40701 10.0378 6.9904H10.8378C10.8378 5.95127 9.98169 5.12148 8.94136 5.12148V5.92148ZM7.84497 6.9904C7.84497 6.40701 8.32882 5.92148 8.94136 5.92148V5.12148C7.90103 5.12148 7.04497 5.95127 7.04497 6.9904H7.84497ZM8.48966 7.96477C8.10564 7.79518 7.84497 7.41982 7.84497 6.9904H7.04497C7.04497 7.75446 7.50927 8.40635 8.16648 8.69659L8.48966 7.96477ZM6.69395 11.1703C6.69395 9.92416 7.44627 8.99013 8.4349 8.71615L8.22125 7.94521C6.86529 8.32099 5.89395 9.58672 5.89395 11.1703H6.69395ZM9.05653 10.7703H6.29395V11.5703H9.05653V10.7703ZM11.8191 10.7703H9.05653V11.5703H11.8191V10.7703ZM9.54888 8.68436C10.6019 8.91101 11.4191 9.87122 11.4191 11.1703H12.2191C12.2191 9.51875 11.1622 8.21328 9.71722 7.90227L9.54888 8.68436Z" fill="#4785E7"/>
</svg>
