<svg width="200" height="250" viewBox="0 0 200 250" fill="none" xmlns="http://www.w3.org/2000/svg">
<path d="M99.7637 54.5101V60.6208C99.7637 62.8206 92.6784 74.7976 89.7463 81.886C85.5926 89.4633 80.5753 89.898 78.5063 97.5294C77.0407 96.5517 75.5195 95.574 73.3752 95.574H62.1356C58.4896 95.574 55.3829 98.2829 55.2941 101.929C55.0503 111.951 55.2931 123.682 55.2941 134.438C55.2944 137.611 58.7186 140.304 61.8905 140.304H74.5968C77.5293 140.304 79.7279 137.482 79.7279 134.438V115.373C79.7279 115.373 79.7279 139.571 95.1212 139.571H120.044C128.352 139.571 136.659 134.437 134.704 125.15C136.659 123.194 141.302 121.238 138.125 111.706C139.836 110.972 143.989 104.373 138.125 98.2627C143.256 89.2182 134.704 84.8192 127.13 84.8192C120.028 84.8192 115.89 85.5518 109.049 86.7739C105.384 82.863 111.297 72.8131 112.225 63.0644C112.714 57.9307 109.572 52.3675 104.406 51.3325C101.963 50.8431 99.7637 52.3126 99.7637 54.5101Z" fill="#3D3D3D"/>
<path fill-rule="evenodd" clip-rule="evenodd" d="M196.208 111.478C194.111 108.768 191.926 105.943 191.926 100.947C191.926 97.4242 193.864 94.6411 195.818 91.8353C198.065 88.6089 200.332 85.3526 199.698 80.9075C198.617 73.3433 194.018 70.631 189.672 68.0682C186.154 65.9933 182.801 64.0164 181.617 59.6423C180.884 56.936 181.294 54.2849 181.714 51.5734C182.386 47.2413 183.08 42.7552 179.173 37.6438C176.503 33.1035 171.72 32.867 166.932 32.6304C162.957 32.4338 158.979 32.2372 156.208 29.5758C153.947 27.4044 152.845 24.3355 151.713 21.1807C150.153 16.8353 148.534 12.3269 143.747 9.77711C136.853 6.7913 132.674 8.89753 128.949 10.7748C126.577 11.9703 124.389 13.0729 121.801 12.7083C117.255 12.0678 114.066 9.03425 110.973 6.09182C107.717 2.99547 104.568 0 100.055 0C92.6439 0 89.5389 3.52103 86.5608 6.89808C84.5137 9.21951 82.5265 11.4729 79.2418 12.4677C75.9934 13.4516 72.4571 12.2193 68.803 10.9461C64.2114 9.34618 59.4339 7.68147 54.808 10.2671C48.9837 14.1518 47.8029 18.3512 46.7095 22.2399C45.8764 25.2029 45.094 27.9855 42.3467 30.311C38.4611 33.6 34.8259 33.7202 31.3315 33.8357C27.572 33.96 23.9754 34.0789 20.4054 38.1327C15.8408 43.3157 16.6743 48.0653 17.473 52.617C18.1433 56.4367 18.7891 60.1172 16.1998 63.7976C14.1045 66.7758 11.3067 68.3947 8.62663 69.9454C4.48813 72.34 0.630436 74.5721 0.073814 81.3964C-0.441645 87.716 1.83244 90.3609 4.09577 92.9932C6.12188 95.3496 8.13939 97.696 8.13939 102.66C8.13939 106.335 6.39209 108.883 4.56794 111.543C2.14519 115.075 -0.413145 118.805 0.806506 125.638C1.6829 130.547 5.97997 133.283 10.1291 135.924C13.2098 137.885 16.2089 139.795 17.6658 142.503C19.422 145.769 18.9017 149.082 18.3601 152.531C17.6855 156.827 16.978 161.332 20.5979 166.213C24.195 171.063 28.4318 171.203 32.7559 171.346C36.4943 171.469 40.2979 171.594 43.81 174.768C46.7007 177.66 47.3713 180.363 48.0412 183.065C48.9003 186.528 49.7583 189.988 55.2939 193.833C60.3917 197.375 65.3254 195.333 69.9523 193.419C73.309 192.03 76.5041 190.708 79.4833 191.633C84.4252 192.645 86.7341 195.308 88.9732 197.891C91.6052 200.928 94.1409 203.853 100.743 203.853C107.482 203.853 110.092 200.686 112.788 197.414C114.587 195.23 116.425 193 119.555 191.633C123.125 190.075 127.307 191.542 131.542 193.028C136.581 194.796 141.695 196.591 145.943 193.344C150.422 189.922 151.947 185.624 153.39 181.556C154.465 178.523 155.496 175.619 157.671 173.301C159.769 171.067 163.512 170.766 167.427 170.451C172.094 170.075 177.005 169.679 179.662 165.968C184.219 159.605 183.321 155.121 182.471 150.876C181.819 147.62 181.196 144.506 183.083 140.792C184.776 137.46 187.704 135.793 190.648 134.117C194.181 132.106 197.737 130.082 199.209 125.149C201.317 118.084 198.832 114.871 196.208 111.478ZM100.007 168.658C136.712 168.658 166.467 138.892 166.467 102.173C166.467 65.455 136.712 35.6889 100.007 35.6889C63.302 35.6889 33.5469 65.455 33.5469 102.173C33.5469 138.892 63.302 168.658 100.007 168.658Z" fill="#3D3D3D"/>
<path d="M141.789 241.005C134.233 228.047 122.975 207.519 122.975 207.519L124.685 206.052C144.476 215.829 163.046 204.585 167.2 185.031H169.643C169.643 185.031 180.638 205.074 186.991 217.296C188.356 219.921 187.927 222.066 186.991 224.873C184.059 233.672 181.86 238.317 178.439 245.894C176.784 249.561 172.881 250.449 168.91 249.805C159.87 248.338 156.205 247.605 148.141 245.894C144.661 245.155 143.499 243.938 141.789 241.005Z" fill="#3D3D3D"/>
<path d="M58.6059 240.763C66.1619 227.805 77.4199 207.276 77.4199 207.276L75.7096 205.81C55.9182 215.587 37.3485 204.343 33.1947 184.789H30.7514C30.7514 184.789 19.7562 204.832 13.4034 217.054C12.0387 219.679 12.468 221.824 13.4034 224.631C16.3354 233.43 18.5345 238.074 21.9552 245.652C23.6108 249.319 27.5139 250.207 31.4844 249.562C40.5249 248.096 44.19 247.363 52.2531 245.652C55.7333 244.913 56.8955 243.696 58.6059 240.763Z" fill="#3D3D3D"/>
</svg>
