<svg width="16" height="16" viewBox="0 0 16 16" fill="none" xmlns="http://www.w3.org/2000/svg">
<path d="M5.84764 15H1V1H5.8877C7.2632 1 8.44729 1.28027 9.43997 1.84082C10.4326 2.39681 11.1961 3.19661 11.7302 4.24023C12.2689 5.28385 12.5382 6.53255 12.5382 7.98633C12.5382 9.44466 12.2689 10.6979 11.7302 11.7461C11.1961 12.7943 10.4282 13.5986 9.42661 14.1592C8.42949 14.7197 7.23649 15 5.84764 15ZM3.89122 12.4639H5.72745C6.58213 12.4639 7.30104 12.3089 7.88418 11.999C8.47177 11.6846 8.91247 11.1992 9.20627 10.543C9.50451 9.88216 9.65364 9.02995 9.65364 7.98633C9.65364 6.95182 9.50451 6.10645 9.20627 5.4502C8.91247 4.79395 8.474 4.31087 7.89086 4.00098C7.30772 3.69108 6.58881 3.53613 5.73413 3.53613H3.89122V12.4639Z" fill="black"/>
<path d="M13.9173 15.0002C13.6196 15.0002 13.364 14.8922 13.1505 14.6763C12.94 14.4572 12.8347 14.195 12.8347 13.8895C12.8347 13.5872 12.94 13.328 13.1505 13.112C13.364 12.8961 13.6196 12.7881 13.9173 12.7881C14.2061 12.7881 14.4587 12.8961 14.6752 13.112C14.8917 13.328 15 13.5872 15 13.8895C15 14.0931 14.9489 14.2798 14.8466 14.4495C14.7474 14.6161 14.6165 14.7503 14.4542 14.8521C14.2918 14.9508 14.1128 15.0002 13.9173 15.0002Z" fill="black"/>
</svg>
