<svg width="22" height="22" viewBox="0 0 22 22" fill="none" xmlns="http://www.w3.org/2000/svg">
<path d="M14.5565 14.8184L14.1139 14.5859L14.1139 14.5859L14.5565 14.8184ZM20.9499 16.6979L21.4334 16.5703L20.9499 16.6979ZM15.1933 20.7616L15.0156 21.2289L15.1933 20.7616ZM19.065 19.8726L19.4004 20.2435L19.4004 20.2435L19.065 19.8726ZM1.03104 5.97982L0.537325 6.05884L1.03104 5.97982ZM5.18294 1.00178L5.1418 0.503474L5.18294 1.00178ZM8.87634 5.44646L9.32329 5.22234L8.87634 5.44646ZM6.6603 7.80849L6.44544 7.35701L6.6603 7.80849ZM5.94709 9.51017L5.48596 9.70346L5.94709 9.51017ZM18.632 14.3612L18.3177 14.75L18.632 14.3612ZM7.62822 3.10983L8.04067 2.82719L8.04067 2.82719L7.62822 3.10983ZM2.5084 2.62726L2.86319 2.97957L2.5084 2.62726ZM5.33577 13.9041L4.95967 14.2335L5.33577 13.9041ZM14.9992 15.0509C15.0768 14.9031 15.1704 14.6886 15.2569 14.5021C15.3502 14.3009 15.4504 14.0973 15.5624 13.9144C15.8138 13.5039 16.0087 13.3881 16.1358 13.3881V12.3881C15.4223 12.3881 14.9677 12.9708 14.7096 13.3921C14.5669 13.6251 14.4474 13.8707 14.3497 14.0814C14.2451 14.3069 14.1764 14.467 14.1139 14.5859L14.9992 15.0509ZM20.4665 16.8255C20.5628 17.1903 20.4505 17.5866 20.1139 18.0619C19.7755 18.5398 19.2704 19.0128 18.7297 19.5018L19.4004 20.2435C19.93 19.7646 20.5181 19.2216 20.93 18.6398C21.3438 18.0555 21.6387 17.3483 21.4334 16.5703L20.4665 16.8255ZM18.7297 19.5018C17.7333 20.4029 16.5995 20.7615 15.3711 20.2942L15.0156 21.2289C16.6865 21.8645 18.2062 21.3235 19.4004 20.2435L18.7297 19.5018ZM13.0593 16.6831C13.6039 16.5926 14.0012 16.4433 14.3191 16.1263C14.6006 15.8457 14.7884 15.4522 14.9992 15.0509L14.1139 14.5859C13.8624 15.0646 13.7573 15.2744 13.613 15.4182C13.5053 15.5256 13.3441 15.6221 12.8953 15.6967L13.0593 16.6831ZM8.42938 5.67059C8.53631 5.88382 8.52201 6.01107 8.48856 6.09967C8.44652 6.21101 8.3404 6.3461 8.13003 6.50172C7.92297 6.65491 7.65643 6.79793 7.35444 6.94134C7.20507 7.01227 7.0528 7.08065 6.89877 7.14975C6.74665 7.21799 6.59159 7.28746 6.44544 7.35701L6.87515 8.25998C7.0092 8.19619 7.15342 8.13153 7.30806 8.06216C7.46078 7.99365 7.62273 7.92096 7.7834 7.84466C8.10149 7.6936 8.43832 7.51756 8.72477 7.30564C9.00792 7.09617 9.28546 6.82012 9.42411 6.45287C9.57135 6.06288 9.53476 5.64406 9.32329 5.22234L8.42938 5.67059ZM6.44544 7.35701C5.63764 7.74144 5.09186 8.76327 5.48596 9.70346L6.40822 9.31688C6.25625 8.95435 6.46135 8.4569 6.87515 8.25998L6.44544 7.35701ZM5.48596 9.70346C6.11095 11.1945 7.69079 12.9671 9.18965 14.3211C9.94751 15.0058 10.7071 15.6036 11.3492 16.0236C11.6693 16.2329 11.9714 16.4054 12.2369 16.5218C12.4748 16.626 12.7787 16.7298 13.0593 16.6831L12.8953 15.6967C12.9275 15.6913 12.8618 15.7038 12.6383 15.6059C12.4425 15.5201 12.1916 15.3796 11.8966 15.1867C11.3088 14.8022 10.5905 14.239 9.86 13.5791C8.38221 12.2441 6.94365 10.5943 6.40822 9.31688L5.48596 9.70346ZM16.1358 13.3881C16.2908 13.3881 16.5505 13.4763 16.955 13.7311C17.3441 13.9762 17.7943 14.3269 18.3177 14.75L18.9464 13.9724C18.4254 13.5512 17.9332 13.1654 17.488 12.885C17.0584 12.6144 16.5921 12.3881 16.1358 12.3881V13.3881ZM18.3177 14.75C18.8049 15.1439 19.3136 15.5321 19.7371 15.919C19.9463 16.11 20.1202 16.2882 20.2493 16.4515C20.3819 16.619 20.4448 16.7431 20.4665 16.8255L21.4334 16.5703C21.3617 16.2987 21.206 16.049 21.0336 15.8311C20.8579 15.6089 20.6408 15.3901 20.4116 15.1807C19.9584 14.7667 19.4016 14.3405 18.9464 13.9724L18.3177 14.75ZM5.22407 1.50008C5.2345 1.49922 5.30773 1.50198 5.45963 1.58092C5.60343 1.65566 5.77852 1.77831 5.97616 1.95105C6.3706 2.29579 6.81026 2.80071 7.21577 3.39247L8.04067 2.82719C7.59954 2.18345 7.10603 1.61045 6.63424 1.1981C6.39876 0.992289 6.15745 0.816596 5.92077 0.693596C5.69219 0.574805 5.42085 0.480441 5.1418 0.503474L5.22407 1.50008ZM7.21577 3.39247C7.6845 4.07647 8.02471 4.86358 8.42938 5.67059L9.32329 5.22234C8.95336 4.48462 8.56057 3.58587 8.04067 2.82719L7.21577 3.39247ZM1.52476 5.90081C1.36939 4.92994 1.96979 3.87927 2.86319 2.97957L2.15361 2.27495C1.2068 3.22843 0.302494 4.59147 0.537325 6.05884L1.52476 5.90081ZM2.86319 2.97957C3.65809 2.17908 4.37729 1.56998 5.22407 1.50008L5.1418 0.503474C3.88203 0.607456 2.92338 1.49976 2.15361 2.27495L2.86319 2.97957ZM15.3711 20.2942C11.4495 18.8025 8.31319 16.5441 5.71187 13.5746L4.95967 14.2335C7.66467 17.3214 10.9356 19.677 15.0156 21.2289L15.3711 20.2942ZM5.71187 13.5746C4.93548 12.6883 3.97673 11.351 3.16449 9.9317C2.34692 8.50305 1.70743 7.04222 1.52476 5.90081L0.537325 6.05884C0.748926 7.38105 1.46083 8.968 2.29656 10.4284C3.13764 11.8981 4.13411 13.2911 4.95967 14.2335L5.71187 13.5746Z" fill="#4785E7"/>
</svg>
