<svg width="14" height="10" viewBox="0 0 14 10" fill="none" xmlns="http://www.w3.org/2000/svg">
<path d="M1 0.5C0.723858 0.5 0.5 0.723858 0.5 1C0.5 1.27614 0.723858 1.5 1 1.5V0.5ZM13 1.5C13.2761 1.5 13.5 1.27614 13.5 1C13.5 0.723858 13.2761 0.5 13 0.5V1.5ZM1 1.5C1.00915 1.5 1.01832 1.5 1.02749 1.5C1.03666 1.5 1.04584 1.5 1.05504 1.5C1.06423 1.5 1.07343 1.5 1.08264 1.5C1.09186 1.5 1.10108 1.5 1.11031 1.5C1.11954 1.5 1.12878 1.5 1.13804 1.5C1.14729 1.5 1.15655 1.5 1.16582 1.5C1.17509 1.5 1.18437 1.5 1.19366 1.5C1.20295 1.5 1.21225 1.5 1.22156 1.5C1.23086 1.5 1.24018 1.5 1.24951 1.5C1.25884 1.5 1.26817 1.5 1.27752 1.5C1.28687 1.5 1.29622 1.5 1.30559 1.5C1.31495 1.5 1.32432 1.5 1.33371 1.5C1.34309 1.5 1.35248 1.5 1.36188 1.5C1.37128 1.5 1.38069 1.5 1.39011 1.5C1.39953 1.5 1.40896 1.5 1.4184 1.5C1.42783 1.5 1.43728 1.5 1.44673 1.5C1.45619 1.5 1.46565 1.5 1.47512 1.5C1.4846 1.5 1.49408 1.5 1.50357 1.5C1.51306 1.5 1.52256 1.5 1.53206 1.5C1.54157 1.5 1.55109 1.5 1.56061 1.5C1.57013 1.5 1.57967 1.5 1.58921 1.5C1.59875 1.5 1.6083 1.5 1.61786 1.5C1.62741 1.5 1.63698 1.5 1.64656 1.5C1.65613 1.5 1.66571 1.5 1.67531 1.5C1.6849 1.5 1.6945 1.5 1.7041 1.5C1.71371 1.5 1.72333 1.5 1.73295 1.5C1.74258 1.5 1.75221 1.5 1.76185 1.5C1.77149 1.5 1.78114 1.5 1.79079 1.5C1.80045 1.5 1.81011 1.5 1.81978 1.5C1.82946 1.5 1.83914 1.5 1.84882 1.5C1.85851 1.5 1.86821 1.5 1.87791 1.5C1.88761 1.5 1.89732 1.5 1.90704 1.5C1.91676 1.5 1.92649 1.5 1.93622 1.5C1.94595 1.5 1.9557 1.5 1.96545 1.5C1.97519 1.5 1.98495 1.5 1.99471 1.5C2.00448 1.5 2.01425 1.5 2.02403 1.5C2.03381 1.5 2.04359 1.5 2.05339 1.5C2.06318 1.5 2.07298 1.5 2.08279 1.5C2.09259 1.5 2.10241 1.5 2.11223 1.5C2.12205 1.5 2.13188 1.5 2.14172 1.5C2.15155 1.5 2.1614 1.5 2.17125 1.5C2.1811 1.5 2.19096 1.5 2.20082 1.5C2.21068 1.5 2.22056 1.5 2.23043 1.5C2.24031 1.5 2.2502 1.5 2.26009 1.5C2.26998 1.5 2.27988 1.5 2.28978 1.5C2.29969 1.5 2.3096 1.5 2.31952 1.5C2.32944 1.5 2.33936 1.5 2.34929 1.5C2.35922 1.5 2.36916 1.5 2.37911 1.5C2.38905 1.5 2.399 1.5 2.40896 1.5C2.41892 1.5 2.42888 1.5 2.43885 1.5C2.44882 1.5 2.4588 1.5 2.46878 1.5C2.47876 1.5 2.48875 1.5 2.49874 1.5C2.50874 1.5 2.51874 1.5 2.52875 1.5C2.53876 1.5 2.54877 1.5 2.55879 1.5C2.56881 1.5 2.57883 1.5 2.58886 1.5C2.5989 1.5 2.60893 1.5 2.61898 1.5C2.62902 1.5 2.63907 1.5 2.64912 1.5C2.65918 1.5 2.66924 1.5 2.67931 1.5C2.68937 1.5 2.69944 1.5 2.70952 1.5C2.7196 1.5 2.72968 1.5 2.73977 1.5C2.74986 1.5 2.75996 1.5 2.77006 1.5C2.78016 1.5 2.79026 1.5 2.80037 1.5C2.81048 1.5 2.8206 1.5 2.83072 1.5C2.84084 1.5 2.85097 1.5 2.8611 1.5C2.87124 1.5 2.88137 1.5 2.89152 1.5C2.90166 1.5 2.91181 1.5 2.92196 1.5C2.93211 1.5 2.94227 1.5 2.95244 1.5C2.9626 1.5 2.97277 1.5 2.98294 1.5C2.99312 1.5 3.00329 1.5 3.01348 1.5C3.02366 1.5 3.03385 1.5 3.04404 1.5C3.05423 1.5 3.06443 1.5 3.07464 1.5C3.08484 1.5 3.09505 1.5 3.10526 1.5C3.11547 1.5 3.12569 1.5 3.13591 1.5C3.14613 1.5 3.15636 1.5 3.16659 1.5C3.17682 1.5 3.18705 1.5 3.19729 1.5C3.20753 1.5 3.21778 1.5 3.22803 1.5C3.23827 1.5 3.24853 1.5 3.25878 1.5C3.26904 1.5 3.2793 1.5 3.28957 1.5C3.29983 1.5 3.31011 1.5 3.32038 1.5C3.33065 1.5 3.34093 1.5 3.35121 1.5C3.3615 1.5 3.37178 1.5 3.38207 1.5C3.39236 1.5 3.40266 1.5 3.41296 1.5C3.42326 1.5 3.43356 1.5 3.44387 1.5C3.45417 1.5 3.46448 1.5 3.4748 1.5C3.48511 1.5 3.49543 1.5 3.50575 1.5C3.51607 1.5 3.5264 1.5 3.53673 1.5C3.54706 1.5 3.55739 1.5 3.56772 1.5C3.57806 1.5 3.5884 1.5 3.59874 1.5C3.60909 1.5 3.61943 1.5 3.62978 1.5C3.64013 1.5 3.65049 1.5 3.66085 1.5C3.6712 1.5 3.68156 1.5 3.69193 1.5C3.70229 1.5 3.71266 1.5 3.72303 1.5C3.7334 1.5 3.74377 1.5 3.75415 1.5C3.76452 1.5 3.7749 1.5 3.78529 1.5C3.79567 1.5 3.80606 1.5 3.81644 1.5C3.82683 1.5 3.83722 1.5 3.84762 1.5C3.85801 1.5 3.86841 1.5 3.87881 1.5C3.88921 1.5 3.89962 1.5 3.91002 1.5C3.92043 1.5 3.93084 1.5 3.94125 1.5C3.95166 1.5 3.96207 1.5 3.97249 1.5C3.98291 1.5 3.99333 1.5 4.00375 1.5C4.01417 1.5 4.0246 1.5 4.03502 1.5C4.04545 1.5 4.05588 1.5 4.06631 1.5C4.07674 1.5 4.08718 1.5 4.09761 1.5C4.10805 1.5 4.11849 1.5 4.12893 1.5C4.13937 1.5 4.14981 1.5 4.16026 1.5C4.17071 1.5 4.18115 1.5 4.1916 1.5C4.20205 1.5 4.2125 1.5 4.22296 1.5C4.23341 1.5 4.24387 1.5 4.25433 1.5C4.26478 1.5 4.27524 1.5 4.28571 1.5C4.29617 1.5 4.30663 1.5 4.3171 1.5C4.32756 1.5 4.33803 1.5 4.3485 1.5C4.35897 1.5 4.36944 1.5 4.37991 1.5C4.39038 1.5 4.40086 1.5 4.41133 1.5C4.42181 1.5 4.43228 1.5 4.44276 1.5C4.45324 1.5 4.46372 1.5 4.4742 1.5C4.48468 1.5 4.49517 1.5 4.50565 1.5C4.51614 1.5 4.52662 1.5 4.53711 1.5C4.5476 1.5 4.55808 1.5 4.56857 1.5C4.57906 1.5 4.58955 1.5 4.60005 1.5C4.61054 1.5 4.62103 1.5 4.63152 1.5C4.64202 1.5 4.65251 1.5 4.66301 1.5C4.67351 1.5 4.684 1.5 4.6945 1.5C4.705 1.5 4.7155 1.5 4.726 1.5C4.7365 1.5 4.747 1.5 4.7575 1.5C4.768 1.5 4.7785 1.5 4.78901 1.5C4.79951 1.5 4.81001 1.5 4.82052 1.5C4.83102 1.5 4.84152 1.5 4.85203 1.5C4.86253 1.5 4.87304 1.5 4.88355 1.5C4.89405 1.5 4.90456 1.5 4.91507 1.5C4.92557 1.5 4.93608 1.5 4.94659 1.5C4.9571 1.5 4.9676 1.5 4.97811 1.5C4.98862 1.5 4.99913 1.5 5.00964 1.5C5.02015 1.5 5.03066 1.5 5.04117 1.5C5.05168 1.5 5.06218 1.5 5.07269 1.5C5.0832 1.5 5.09371 1.5 5.10422 1.5C5.11473 1.5 5.12524 1.5 5.13575 1.5C5.14626 1.5 5.15677 1.5 5.16727 1.5C5.17778 1.5 5.18829 1.5 5.1988 1.5C5.20931 1.5 5.21982 1.5 5.23032 1.5C5.24083 1.5 5.25134 1.5 5.26185 1.5C5.27235 1.5 5.28286 1.5 5.29336 1.5C5.30387 1.5 5.31438 1.5 5.32488 1.5C5.33539 1.5 5.34589 1.5 5.35639 1.5C5.3669 1.5 5.3774 1.5 5.3879 1.5C5.3984 1.5 5.40891 1.5 5.41941 1.5C5.42991 1.5 5.44041 1.5 5.45091 1.5C5.46141 1.5 5.4719 1.5 5.4824 1.5C5.4929 1.5 5.5034 1.5 5.51389 1.5C5.52439 1.5 5.53488 1.5 5.54537 1.5C5.55587 1.5 5.56636 1.5 5.57685 1.5C5.58734 1.5 5.59783 1.5 5.60832 1.5C5.61881 1.5 5.62929 1.5 5.63978 1.5C5.65027 1.5 5.66075 1.5 5.67124 1.5C5.68172 1.5 5.6922 1.5 5.70268 1.5C5.71316 1.5 5.72364 1.5 5.73412 1.5C5.7446 1.5 5.75507 1.5 5.76555 1.5C5.77602 1.5 5.78649 1.5 5.79696 1.5C5.80744 1.5 5.8179 1.5 5.82837 1.5C5.83884 1.5 5.84931 1.5 5.85977 1.5C5.87023 1.5 5.8807 1.5 5.89116 1.5C5.90162 1.5 5.91208 1.5 5.92253 1.5C5.93299 1.5 5.94344 1.5 5.9539 1.5C5.96435 1.5 5.9748 1.5 5.98525 1.5C5.9957 1.5 6.00614 1.5 6.01659 1.5C6.02703 1.5 6.03747 1.5 6.04791 1.5C6.05835 1.5 6.06879 1.5 6.07922 1.5C6.08966 1.5 6.10009 1.5 6.11052 1.5C6.12095 1.5 6.13138 1.5 6.1418 1.5C6.15223 1.5 6.16265 1.5 6.17307 1.5C6.18349 1.5 6.19391 1.5 6.20432 1.5C6.21474 1.5 6.22515 1.5 6.23556 1.5C6.24597 1.5 6.25638 1.5 6.26678 1.5C6.27718 1.5 6.28759 1.5 6.29798 1.5C6.30838 1.5 6.31878 1.5 6.32917 1.5C6.33956 1.5 6.34995 1.5 6.36034 1.5C6.37073 1.5 6.38111 1.5 6.39149 1.5C6.40187 1.5 6.41225 1.5 6.42262 1.5C6.433 1.5 6.44337 1.5 6.45374 1.5C6.4641 1.5 6.47447 1.5 6.48483 1.5C6.49519 1.5 6.50555 1.5 6.5159 1.5C6.52626 1.5 6.53661 1.5 6.54696 1.5C6.55731 1.5 6.56765 1.5 6.57799 1.5C6.58833 1.5 6.59867 1.5 6.609 1.5C6.61934 1.5 6.62967 1.5 6.63999 1.5C6.65032 1.5 6.66064 1.5 6.67096 1.5C6.68128 1.5 6.69159 1.5 6.70191 1.5C6.71222 1.5 6.72253 1.5 6.73283 1.5C6.74313 1.5 6.75343 1.5 6.76373 1.5C6.77402 1.5 6.78432 1.5 6.7946 1.5C6.80489 1.5 6.81517 1.5 6.82545 1.5C6.83573 1.5 6.84601 1.5 6.85628 1.5C6.86655 1.5 6.87682 1.5 6.88708 1.5C6.89734 1.5 6.9076 1.5 6.91786 1.5C6.92811 1.5 6.93836 1.5 6.94861 1.5C6.95885 1.5 6.96909 1.5 6.97933 1.5C6.98957 1.5 6.9998 1.5 7.01003 1.5C7.02025 1.5 7.03048 1.5 7.04069 1.5C7.05091 1.5 7.06113 1.5 7.07133 1.5C7.08154 1.5 7.09175 1.5 7.10195 1.5C7.11215 1.5 7.12234 1.5 7.13253 1.5C7.14272 1.5 7.1529 1.5 7.16308 1.5C7.17326 1.5 7.18344 1.5 7.19361 1.5C7.20378 1.5 7.21394 1.5 7.2241 1.5C7.23426 1.5 7.24442 1.5 7.25457 1.5C7.26472 1.5 7.27486 1.5 7.285 1.5C7.29514 1.5 7.30527 1.5 7.3154 1.5C7.32553 1.5 7.33566 1.5 7.34577 1.5C7.35589 1.5 7.366 1.5 7.37611 1.5C7.38622 1.5 7.39632 1.5 7.40642 1.5C7.41651 1.5 7.4266 1.5 7.43669 1.5C7.44677 1.5 7.45685 1.5 7.46693 1.5C7.477 1.5 7.48707 1.5 7.49713 1.5C7.50719 1.5 7.51725 1.5 7.5273 1.5C7.53735 1.5 7.54739 1.5 7.55743 1.5C7.56747 1.5 7.57751 1.5 7.58753 1.5C7.59756 1.5 7.60758 1.5 7.6176 1.5C7.62761 1.5 7.63762 1.5 7.64762 1.5C7.65763 1.5 7.66762 1.5 7.67761 1.5C7.6876 1.5 7.69759 1.5 7.70757 1.5C7.71754 1.5 7.72752 1.5 7.73748 1.5C7.74745 1.5 7.75741 1.5 7.76736 1.5C7.77731 1.5 7.78726 1.5 7.7972 1.5C7.80714 1.5 7.81707 1.5 7.827 1.5C7.83692 1.5 7.84684 1.5 7.85676 1.5C7.86667 1.5 7.87658 1.5 7.88648 1.5C7.89638 1.5 7.90627 1.5 7.91616 1.5C7.92605 1.5 7.93593 1.5 7.9458 1.5C7.95567 1.5 7.96554 1.5 7.9754 1.5C7.98526 1.5 7.99511 1.5 8.00495 1.5C8.0148 1.5 8.02464 1.5 8.03447 1.5C8.0443 1.5 8.05412 1.5 8.06394 1.5C8.07376 1.5 8.08357 1.5 8.09337 1.5C8.10317 1.5 8.11297 1.5 8.12276 1.5C8.13254 1.5 8.14232 1.5 8.1521 1.5C8.16187 1.5 8.17164 1.5 8.18139 1.5C8.19115 1.5 8.2009 1.5 8.21065 1.5C8.22039 1.5 8.23013 1.5 8.23985 1.5C8.24958 1.5 8.2593 1.5 8.26902 1.5C8.27873 1.5 8.28844 1.5 8.29813 1.5C8.30783 1.5 8.31752 1.5 8.3272 1.5C8.33688 1.5 8.34656 1.5 8.35623 1.5C8.36589 1.5 8.37555 1.5 8.3852 1.5C8.39485 1.5 8.40449 1.5 8.41413 1.5C8.42376 1.5 8.43339 1.5 8.44301 1.5C8.45262 1.5 8.46223 1.5 8.47184 1.5C8.48144 1.5 8.49103 1.5 8.50062 1.5C8.5102 1.5 8.51978 1.5 8.52935 1.5C8.53892 1.5 8.54848 1.5 8.55803 1.5C8.56758 1.5 8.57713 1.5 8.58666 1.5C8.5962 1.5 8.60572 1.5 8.61524 1.5C8.62476 1.5 8.63427 1.5 8.64377 1.5C8.65327 1.5 8.66276 1.5 8.67225 1.5C8.68173 1.5 8.6912 1.5 8.70067 1.5C8.71014 1.5 8.71959 1.5 8.72904 1.5C8.73849 1.5 8.74793 1.5 8.75736 1.5C8.76679 1.5 8.77621 1.5 8.78562 1.5C8.79504 1.5 8.80444 1.5 8.81383 1.5C8.82323 1.5 8.83261 1.5 8.84199 1.5C8.85137 1.5 8.86073 1.5 8.87009 1.5C8.87945 1.5 8.8888 1.5 8.89814 1.5C8.90748 1.5 8.91681 1.5 8.92613 1.5C8.93545 1.5 8.94476 1.5 8.95406 1.5C8.96336 1.5 8.97265 1.5 8.98194 1.5C8.99122 1.5 9.00049 1.5 9.00976 1.5C9.01902 1.5 9.02828 1.5 9.03752 1.5C9.04676 1.5 9.056 1.5 9.06522 1.5C9.07445 1.5 9.08366 1.5 9.09287 1.5C9.10207 1.5 9.11127 1.5 9.12045 1.5C9.12964 1.5 9.13882 1.5 9.14798 1.5C9.15715 1.5 9.1663 1.5 9.17545 1.5C9.1846 1.5 9.19373 1.5 9.20286 1.5C9.21198 1.5 9.2211 1.5 9.2302 1.5C9.23931 1.5 9.2484 1.5 9.25749 1.5C9.26657 1.5 9.27565 1.5 9.28471 1.5C9.29377 1.5 9.30283 1.5 9.31187 1.5C9.32092 1.5 9.32995 1.5 9.33897 1.5C9.34799 1.5 9.35701 1.5 9.36601 1.5C9.37501 1.5 9.384 1.5 9.39298 1.5C9.40196 1.5 9.41093 1.5 9.41989 1.5C9.42885 1.5 9.43779 1.5 9.44673 1.5C9.45567 1.5 9.4646 1.5 9.47351 1.5C9.48243 1.5 9.49133 1.5 9.50023 1.5C9.50912 1.5 9.518 1.5 9.52687 1.5C9.53575 1.5 9.54461 1.5 9.55346 1.5C9.56231 1.5 9.57115 1.5 9.57997 1.5C9.5888 1.5 9.59762 1.5 9.60642 1.5C9.61523 1.5 9.62402 1.5 9.6328 1.5C9.64159 1.5 9.65036 1.5 9.65912 1.5C9.66788 1.5 9.67663 1.5 9.68536 1.5C9.6941 1.5 9.70283 1.5 9.71154 1.5C9.72025 1.5 9.72896 1.5 9.73765 1.5C9.74634 1.5 9.75502 1.5 9.76369 1.5C9.77235 1.5 9.78101 1.5 9.78965 1.5C9.7983 1.5 9.80693 1.5 9.81555 1.5C9.82417 1.5 9.83278 1.5 9.84138 1.5C9.84997 1.5 9.85856 1.5 9.86713 1.5C9.87571 1.5 9.88427 1.5 9.89282 1.5C9.90136 1.5 9.9099 1.5 9.91843 1.5C9.92695 1.5 9.93546 1.5 9.94396 1.5C9.95247 1.5 9.96095 1.5 9.96943 1.5C9.97791 1.5 9.98637 1.5 9.99482 1.5C10.0033 1.5 10.0117 1.5 10.0201 1.5C10.0286 1.5 10.037 1.5 10.0454 1.5C10.0538 1.5 10.0622 1.5 10.0705 1.5C10.0789 1.5 10.0873 1.5 10.0956 1.5C10.104 1.5 10.1123 1.5 10.1207 1.5C10.129 1.5 10.1373 1.5 10.1456 1.5C10.1539 1.5 10.1622 1.5 10.1705 1.5C10.1787 1.5 10.187 1.5 10.1952 1.5C10.2035 1.5 10.2117 1.5 10.22 1.5C10.2282 1.5 10.2364 1.5 10.2446 1.5C10.2528 1.5 10.261 1.5 10.2691 1.5C10.2773 1.5 10.2855 1.5 10.2936 1.5C10.3018 1.5 10.3099 1.5 10.318 1.5C10.3261 1.5 10.3342 1.5 10.3423 1.5C10.3504 1.5 10.3585 1.5 10.3666 1.5C10.3746 1.5 10.3827 1.5 10.3907 1.5C10.3987 1.5 10.4068 1.5 10.4148 1.5C10.4228 1.5 10.4308 1.5 10.4388 1.5C10.4468 1.5 10.4547 1.5 10.4627 1.5C10.4706 1.5 10.4786 1.5 10.4865 1.5C10.4944 1.5 10.5023 1.5 10.5102 1.5C10.5181 1.5 10.526 1.5 10.5339 1.5C10.5418 1.5 10.5496 1.5 10.5575 1.5C10.5653 1.5 10.5732 1.5 10.581 1.5C10.5888 1.5 10.5966 1.5 10.6044 1.5C10.6122 1.5 10.6199 1.5 10.6277 1.5C10.6355 1.5 10.6432 1.5 10.6509 1.5C10.6587 1.5 10.6664 1.5 10.6741 1.5C10.6818 1.5 10.6895 1.5 10.6971 1.5C10.7048 1.5 10.7125 1.5 10.7201 1.5C10.7278 1.5 10.7354 1.5 10.743 1.5C10.7506 1.5 10.7582 1.5 10.7658 1.5C10.7734 1.5 10.781 1.5 10.7885 1.5C10.7961 1.5 10.8036 1.5 10.8111 1.5C10.8187 1.5 10.8262 1.5 10.8337 1.5C10.8412 1.5 10.8487 1.5 10.8561 1.5C10.8636 1.5 10.871 1.5 10.8785 1.5C10.8859 1.5 10.8933 1.5 10.9007 1.5C10.9081 1.5 10.9155 1.5 10.9229 1.5C10.9303 1.5 10.9377 1.5 10.945 1.5C10.9523 1.5 10.9597 1.5 10.967 1.5C10.9743 1.5 10.9816 1.5 10.9889 1.5C10.9962 1.5 11.0034 1.5 11.0107 1.5C11.0179 1.5 11.0252 1.5 11.0324 1.5C11.0396 1.5 11.0468 1.5 11.054 1.5C11.0612 1.5 11.0684 1.5 11.0755 1.5C11.0827 1.5 11.0898 1.5 11.097 1.5C11.1041 1.5 11.1112 1.5 11.1183 1.5C11.1254 1.5 11.1325 1.5 11.1395 1.5C11.1466 1.5 11.1537 1.5 11.1607 1.5C11.1677 1.5 11.1747 1.5 11.1817 1.5C11.1887 1.5 11.1957 1.5 11.2027 1.5C11.2097 1.5 11.2166 1.5 11.2235 1.5C11.2305 1.5 11.2374 1.5 11.2443 1.5C11.2512 1.5 11.2581 1.5 11.265 1.5C11.2718 1.5 11.2787 1.5 11.2855 1.5C11.2923 1.5 11.2992 1.5 11.306 1.5C11.3128 1.5 11.3196 1.5 11.3263 1.5C11.3331 1.5 11.3399 1.5 11.3466 1.5C11.3533 1.5 11.3601 1.5 11.3668 1.5C11.3735 1.5 11.3801 1.5 11.3868 1.5C11.3935 1.5 11.4001 1.5 11.4068 1.5C11.4134 1.5 11.42 1.5 11.4266 1.5C11.4332 1.5 11.4398 1.5 11.4464 1.5C11.453 1.5 11.4595 1.5 11.466 1.5C11.4726 1.5 11.4791 1.5 11.4856 1.5C11.4921 1.5 11.4986 1.5 11.505 1.5C11.5115 1.5 11.5179 1.5 11.5244 1.5C11.5308 1.5 11.5372 1.5 11.5436 1.5C11.55 1.5 11.5564 1.5 11.5627 1.5C11.5691 1.5 11.5754 1.5 11.5818 1.5C11.5881 1.5 11.5944 1.5 11.6007 1.5C11.607 1.5 11.6133 1.5 11.6195 1.5C11.6258 1.5 11.632 1.5 11.6382 1.5C11.6444 1.5 11.6506 1.5 11.6568 1.5C11.663 1.5 11.6692 1.5 11.6753 1.5C11.6815 1.5 11.6876 1.5 11.6937 1.5C11.6998 1.5 11.7059 1.5 11.712 1.5C11.7181 1.5 11.7241 1.5 11.7302 1.5C11.7362 1.5 11.7422 1.5 11.7482 1.5C11.7542 1.5 11.7602 1.5 11.7662 1.5C11.7721 1.5 11.7781 1.5 11.784 1.5C11.7899 1.5 11.7958 1.5 11.8017 1.5C11.8076 1.5 11.8135 1.5 11.8194 1.5C11.8252 1.5 11.8311 1.5 11.8369 1.5C11.8427 1.5 11.8485 1.5 11.8543 1.5C11.86 1.5 11.8658 1.5 11.8716 1.5C11.8773 1.5 11.883 1.5 11.8887 1.5C11.8944 1.5 11.9001 1.5 11.9058 1.5C11.9114 1.5 11.9171 1.5 11.9227 1.5C11.9284 1.5 11.934 1.5 11.9396 1.5C11.9451 1.5 11.9507 1.5 11.9563 1.5C11.9618 1.5 11.9674 1.5 11.9729 1.5C11.9784 1.5 11.9839 1.5 11.9894 1.5C11.9948 1.5 12.0003 1.5 12.0057 1.5C12.0112 1.5 12.0166 1.5 12.022 1.5C12.0274 1.5 12.0328 1.5 12.0381 1.5C12.0435 1.5 12.0488 1.5 12.0541 1.5C12.0595 1.5 12.0648 1.5 12.07 1.5C12.0753 1.5 12.0806 1.5 12.0858 1.5C12.0911 1.5 12.0963 1.5 12.1015 1.5C12.1067 1.5 12.1119 1.5 12.117 1.5C12.1222 1.5 12.1273 1.5 12.1325 1.5C12.1376 1.5 12.1427 1.5 12.1478 1.5C12.1529 1.5 12.1579 1.5 12.163 1.5C12.168 1.5 12.173 1.5 12.178 1.5C12.183 1.5 12.188 1.5 12.193 1.5C12.1979 1.5 12.2029 1.5 12.2078 1.5C12.2127 1.5 12.2176 1.5 12.2225 1.5C12.2274 1.5 12.2322 1.5 12.2371 1.5C12.2419 1.5 12.2467 1.5 12.2515 1.5C12.2563 1.5 12.2611 1.5 12.2659 1.5C12.2706 1.5 12.2754 1.5 12.2801 1.5C12.2848 1.5 12.2895 1.5 12.2942 1.5C12.2988 1.5 12.3035 1.5 12.3081 1.5C12.3128 1.5 12.3174 1.5 12.322 1.5C12.3265 1.5 12.3311 1.5 12.3357 1.5C12.3402 1.5 12.3447 1.5 12.3492 1.5C12.3538 1.5 12.3582 1.5 12.3627 1.5C12.3672 1.5 12.3716 1.5 12.376 1.5C12.3805 1.5 12.3849 1.5 12.3892 1.5C12.3936 1.5 12.398 1.5 12.4023 1.5C12.4066 1.5 12.411 1.5 12.4153 1.5C12.4196 1.5 12.4238 1.5 12.4281 1.5C12.4323 1.5 12.4366 1.5 12.4408 1.5C12.445 1.5 12.4492 1.5 12.4533 1.5C12.4575 1.5 12.4616 1.5 12.4657 1.5C12.4699 1.5 12.474 1.5 12.478 1.5C12.4821 1.5 12.4862 1.5 12.4902 1.5C12.4942 1.5 12.4983 1.5 12.5023 1.5C12.5062 1.5 12.5102 1.5 12.5142 1.5C12.5181 1.5 12.522 1.5 12.5259 1.5C12.5298 1.5 12.5337 1.5 12.5376 1.5C12.5414 1.5 12.5453 1.5 12.5491 1.5C12.5529 1.5 12.5567 1.5 12.5604 1.5C12.5642 1.5 12.568 1.5 12.5717 1.5C12.5754 1.5 12.5791 1.5 12.5828 1.5C12.5865 1.5 12.5901 1.5 12.5938 1.5C12.5974 1.5 12.601 1.5 12.6046 1.5C12.6082 1.5 12.6117 1.5 12.6153 1.5C12.6188 1.5 12.6223 1.5 12.6258 1.5C12.6293 1.5 12.6328 1.5 12.6363 1.5C12.6397 1.5 12.6431 1.5 12.6466 1.5C12.65 1.5 12.6533 1.5 12.6567 1.5C12.6601 1.5 12.6634 1.5 12.6667 1.5C12.67 1.5 12.6733 1.5 12.6766 1.5C12.6799 1.5 12.6831 1.5 12.6863 1.5C12.6895 1.5 12.6927 1.5 12.6959 1.5C12.6991 1.5 12.7022 1.5 12.7054 1.5C12.7085 1.5 12.7116 1.5 12.7147 1.5C12.7178 1.5 12.7208 1.5 12.7239 1.5C12.7269 1.5 12.7299 1.5 12.7329 1.5C12.7359 1.5 12.7388 1.5 12.7418 1.5C12.7447 1.5 12.7476 1.5 12.7505 1.5C12.7534 1.5 12.7563 1.5 12.7591 1.5C12.762 1.5 12.7648 1.5 12.7676 1.5C12.7704 1.5 12.7732 1.5 12.7759 1.5C12.7787 1.5 12.7814 1.5 12.7841 1.5C12.7868 1.5 12.7895 1.5 12.7921 1.5C12.7948 1.5 12.7974 1.5 12.8 1.5C12.8026 1.5 12.8052 1.5 12.8078 1.5C12.8103 1.5 12.8128 1.5 12.8153 1.5C12.8179 1.5 12.8203 1.5 12.8228 1.5C12.8253 1.5 12.8277 1.5 12.8301 1.5C12.8325 1.5 12.8349 1.5 12.8373 1.5C12.8396 1.5 12.842 1.5 12.8443 1.5C12.8466 1.5 12.8489 1.5 12.8511 1.5C12.8534 1.5 12.8556 1.5 12.8578 1.5C12.8601 1.5 12.8622 1.5 12.8644 1.5C12.8666 1.5 12.8687 1.5 12.8708 1.5C12.8729 1.5 12.875 1.5 12.8771 1.5C12.8792 1.5 12.8812 1.5 12.8832 1.5C12.8852 1.5 12.8872 1.5 12.8892 1.5C12.8911 1.5 12.8931 1.5 12.895 1.5C12.8969 1.5 12.8988 1.5 12.9006 1.5C12.9025 1.5 12.9043 1.5 12.9062 1.5C12.908 1.5 12.9098 1.5 12.9115 1.5C12.9133 1.5 12.915 1.5 12.9167 1.5C12.9184 1.5 12.9201 1.5 12.9218 1.5C12.9234 1.5 12.9251 1.5 12.9267 1.5C12.9283 1.5 12.9299 1.5 12.9314 1.5C12.933 1.5 12.9345 1.5 12.936 1.5C12.9375 1.5 12.939 1.5 12.9404 1.5C12.9419 1.5 12.9433 1.5 12.9447 1.5C12.9461 1.5 12.9475 1.5 12.9488 1.5C12.9502 1.5 12.9515 1.5 12.9528 1.5C12.9541 1.5 12.9554 1.5 12.9566 1.5C12.9579 1.5 12.9591 1.5 12.9603 1.5C12.9615 1.5 12.9626 1.5 12.9638 1.5C12.9649 1.5 12.966 1.5 12.9671 1.5C12.9682 1.5 12.9693 1.5 12.9703 1.5C12.9713 1.5 12.9723 1.5 12.9733 1.5C12.9743 1.5 12.9752 1.5 12.9762 1.5C12.9771 1.5 12.978 1.5 12.9789 1.5C12.9798 1.5 12.9806 1.5 12.9814 1.5C12.9822 1.5 12.983 1.5 12.9838 1.5C12.9846 1.5 12.9853 1.5 12.986 1.5C12.9867 1.5 12.9874 1.5 12.9881 1.5C12.9887 1.5 12.9894 1.5 12.99 1.5C12.9906 1.5 12.9912 1.5 12.9917 1.5C12.9923 1.5 12.9928 1.5 12.9933 1.5C12.9938 1.5 12.9942 1.5 12.9947 1.5C12.9951 1.5 12.9955 1.5 12.9959 1.5C12.9963 1.5 12.9967 1.5 12.997 1.5C12.9973 1.5 12.9976 1.5 12.9979 1.5C12.9982 1.5 12.9984 1.5 12.9987 1.5C12.9989 1.5 12.9991 1.5 12.9992 1.5C12.9994 1.5 12.9996 1.5 12.9997 1.5C12.9998 1.5 12.9999 1.5 12.9999 1.5C13 1.5 13 1.5 13 1C13 0.5 13 0.5 12.9999 0.5C12.9999 0.5 12.9998 0.5 12.9997 0.5C12.9996 0.5 12.9994 0.5 12.9992 0.5C12.9991 0.5 12.9989 0.5 12.9987 0.5C12.9984 0.5 12.9982 0.5 12.9979 0.5C12.9976 0.5 12.9973 0.5 12.997 0.5C12.9967 0.5 12.9963 0.5 12.9959 0.5C12.9955 0.5 12.9951 0.5 12.9947 0.5C12.9942 0.5 12.9938 0.5 12.9933 0.5C12.9928 0.5 12.9923 0.5 12.9917 0.5C12.9912 0.5 12.9906 0.5 12.99 0.5C12.9894 0.5 12.9887 0.5 12.9881 0.5C12.9874 0.5 12.9867 0.5 12.986 0.5C12.9853 0.5 12.9846 0.5 12.9838 0.5C12.983 0.5 12.9822 0.5 12.9814 0.5C12.9806 0.5 12.9798 0.5 12.9789 0.5C12.978 0.5 12.9771 0.5 12.9762 0.5C12.9752 0.5 12.9743 0.5 12.9733 0.5C12.9723 0.5 12.9713 0.5 12.9703 0.5C12.9693 0.5 12.9682 0.5 12.9671 0.5C12.966 0.5 12.9649 0.5 12.9638 0.5C12.9626 0.5 12.9615 0.5 12.9603 0.5C12.9591 0.5 12.9579 0.5 12.9566 0.5C12.9554 0.5 12.9541 0.5 12.9528 0.5C12.9515 0.5 12.9502 0.5 12.9488 0.5C12.9475 0.5 12.9461 0.5 12.9447 0.5C12.9433 0.5 12.9419 0.5 12.9404 0.5C12.939 0.5 12.9375 0.5 12.936 0.5C12.9345 0.5 12.933 0.5 12.9314 0.5C12.9299 0.5 12.9283 0.5 12.9267 0.5C12.9251 0.5 12.9234 0.5 12.9218 0.5C12.9201 0.5 12.9184 0.5 12.9167 0.5C12.915 0.5 12.9133 0.5 12.9115 0.5C12.9098 0.5 12.908 0.5 12.9062 0.5C12.9043 0.5 12.9025 0.5 12.9006 0.5C12.8988 0.5 12.8969 0.5 12.895 0.5C12.8931 0.5 12.8911 0.5 12.8892 0.5C12.8872 0.5 12.8852 0.5 12.8832 0.5C12.8812 0.5 12.8792 0.5 12.8771 0.5C12.875 0.5 12.8729 0.5 12.8708 0.5C12.8687 0.5 12.8666 0.5 12.8644 0.5C12.8622 0.5 12.8601 0.5 12.8578 0.5C12.8556 0.5 12.8534 0.5 12.8511 0.5C12.8489 0.5 12.8466 0.5 12.8443 0.5C12.842 0.5 12.8396 0.5 12.8373 0.5C12.8349 0.5 12.8325 0.5 12.8301 0.5C12.8277 0.5 12.8253 0.5 12.8228 0.5C12.8203 0.5 12.8179 0.5 12.8153 0.5C12.8128 0.5 12.8103 0.5 12.8078 0.5C12.8052 0.5 12.8026 0.5 12.8 0.5C12.7974 0.5 12.7948 0.5 12.7921 0.5C12.7895 0.5 12.7868 0.5 12.7841 0.5C12.7814 0.5 12.7787 0.5 12.7759 0.5C12.7732 0.5 12.7704 0.5 12.7676 0.5C12.7648 0.5 12.762 0.5 12.7591 0.5C12.7563 0.5 12.7534 0.5 12.7505 0.5C12.7476 0.5 12.7447 0.5 12.7418 0.5C12.7388 0.5 12.7359 0.5 12.7329 0.5C12.7299 0.5 12.7269 0.5 12.7239 0.5C12.7208 0.5 12.7178 0.5 12.7147 0.5C12.7116 0.5 12.7085 0.5 12.7054 0.5C12.7022 0.5 12.6991 0.5 12.6959 0.5C12.6927 0.5 12.6895 0.5 12.6863 0.5C12.6831 0.5 12.6799 0.5 12.6766 0.5C12.6733 0.5 12.67 0.5 12.6667 0.5C12.6634 0.5 12.6601 0.5 12.6567 0.5C12.6533 0.5 12.65 0.5 12.6466 0.5C12.6431 0.5 12.6397 0.5 12.6363 0.5C12.6328 0.5 12.6293 0.5 12.6258 0.5C12.6223 0.5 12.6188 0.5 12.6153 0.5C12.6117 0.5 12.6082 0.5 12.6046 0.5C12.601 0.5 12.5974 0.5 12.5938 0.5C12.5901 0.5 12.5865 0.5 12.5828 0.5C12.5791 0.5 12.5754 0.5 12.5717 0.5C12.568 0.5 12.5642 0.5 12.5604 0.5C12.5567 0.5 12.5529 0.5 12.5491 0.5C12.5453 0.5 12.5414 0.5 12.5376 0.5C12.5337 0.5 12.5298 0.5 12.5259 0.5C12.522 0.5 12.5181 0.5 12.5142 0.5C12.5102 0.5 12.5062 0.5 12.5023 0.5C12.4983 0.5 12.4942 0.5 12.4902 0.5C12.4862 0.5 12.4821 0.5 12.478 0.5C12.474 0.5 12.4699 0.5 12.4657 0.5C12.4616 0.5 12.4575 0.5 12.4533 0.5C12.4492 0.5 12.445 0.5 12.4408 0.5C12.4366 0.5 12.4323 0.5 12.4281 0.5C12.4238 0.5 12.4196 0.5 12.4153 0.5C12.411 0.5 12.4066 0.5 12.4023 0.5C12.398 0.5 12.3936 0.5 12.3892 0.5C12.3849 0.5 12.3805 0.5 12.376 0.5C12.3716 0.5 12.3672 0.5 12.3627 0.5C12.3582 0.5 12.3538 0.5 12.3492 0.5C12.3447 0.5 12.3402 0.5 12.3357 0.5C12.3311 0.5 12.3265 0.5 12.322 0.5C12.3174 0.5 12.3128 0.5 12.3081 0.5C12.3035 0.5 12.2988 0.5 12.2942 0.5C12.2895 0.5 12.2848 0.5 12.2801 0.5C12.2754 0.5 12.2706 0.5 12.2659 0.5C12.2611 0.5 12.2563 0.5 12.2515 0.5C12.2467 0.5 12.2419 0.5 12.2371 0.5C12.2322 0.5 12.2274 0.5 12.2225 0.5C12.2176 0.5 12.2127 0.5 12.2078 0.5C12.2029 0.5 12.1979 0.5 12.193 0.5C12.188 0.5 12.183 0.5 12.178 0.5C12.173 0.5 12.168 0.5 12.163 0.5C12.1579 0.5 12.1529 0.5 12.1478 0.5C12.1427 0.5 12.1376 0.5 12.1325 0.5C12.1273 0.5 12.1222 0.5 12.117 0.5C12.1119 0.5 12.1067 0.5 12.1015 0.5C12.0963 0.5 12.0911 0.5 12.0858 0.5C12.0806 0.5 12.0753 0.5 12.07 0.5C12.0648 0.5 12.0595 0.5 12.0541 0.5C12.0488 0.5 12.0435 0.5 12.0381 0.5C12.0328 0.5 12.0274 0.5 12.022 0.5C12.0166 0.5 12.0112 0.5 12.0057 0.5C12.0003 0.5 11.9948 0.5 11.9894 0.5C11.9839 0.5 11.9784 0.5 11.9729 0.5C11.9674 0.5 11.9618 0.5 11.9563 0.5C11.9507 0.5 11.9451 0.5 11.9396 0.5C11.934 0.5 11.9284 0.5 11.9227 0.5C11.9171 0.5 11.9114 0.5 11.9058 0.5C11.9001 0.5 11.8944 0.5 11.8887 0.5C11.883 0.5 11.8773 0.5 11.8716 0.5C11.8658 0.5 11.86 0.5 11.8543 0.5C11.8485 0.5 11.8427 0.5 11.8369 0.5C11.8311 0.5 11.8252 0.5 11.8194 0.5C11.8135 0.5 11.8076 0.5 11.8017 0.5C11.7958 0.5 11.7899 0.5 11.784 0.5C11.7781 0.5 11.7721 0.5 11.7662 0.5C11.7602 0.5 11.7542 0.5 11.7482 0.5C11.7422 0.5 11.7362 0.5 11.7302 0.5C11.7241 0.5 11.7181 0.5 11.712 0.5C11.7059 0.5 11.6998 0.5 11.6937 0.5C11.6876 0.5 11.6815 0.5 11.6753 0.5C11.6692 0.5 11.663 0.5 11.6568 0.5C11.6506 0.5 11.6444 0.5 11.6382 0.5C11.632 0.5 11.6258 0.5 11.6195 0.5C11.6133 0.5 11.607 0.5 11.6007 0.5C11.5944 0.5 11.5881 0.5 11.5818 0.5C11.5754 0.5 11.5691 0.5 11.5627 0.5C11.5564 0.5 11.55 0.5 11.5436 0.5C11.5372 0.5 11.5308 0.5 11.5244 0.5C11.5179 0.5 11.5115 0.5 11.505 0.5C11.4986 0.5 11.4921 0.5 11.4856 0.5C11.4791 0.5 11.4726 0.5 11.466 0.5C11.4595 0.5 11.453 0.5 11.4464 0.5C11.4398 0.5 11.4332 0.5 11.4266 0.5C11.42 0.5 11.4134 0.5 11.4068 0.5C11.4001 0.5 11.3935 0.5 11.3868 0.5C11.3801 0.5 11.3735 0.5 11.3668 0.5C11.3601 0.5 11.3533 0.5 11.3466 0.5C11.3399 0.5 11.3331 0.5 11.3263 0.5C11.3196 0.5 11.3128 0.5 11.306 0.5C11.2992 0.5 11.2923 0.5 11.2855 0.5C11.2787 0.5 11.2718 0.5 11.265 0.5C11.2581 0.5 11.2512 0.5 11.2443 0.5C11.2374 0.5 11.2305 0.5 11.2235 0.5C11.2166 0.5 11.2097 0.5 11.2027 0.5C11.1957 0.5 11.1887 0.5 11.1817 0.5C11.1747 0.5 11.1677 0.5 11.1607 0.5C11.1537 0.5 11.1466 0.5 11.1395 0.5C11.1325 0.5 11.1254 0.5 11.1183 0.5C11.1112 0.5 11.1041 0.5 11.097 0.5C11.0898 0.5 11.0827 0.5 11.0755 0.5C11.0684 0.5 11.0612 0.5 11.054 0.5C11.0468 0.5 11.0396 0.5 11.0324 0.5C11.0252 0.5 11.0179 0.5 11.0107 0.5C11.0034 0.5 10.9962 0.5 10.9889 0.5C10.9816 0.5 10.9743 0.5 10.967 0.5C10.9597 0.5 10.9523 0.5 10.945 0.5C10.9377 0.5 10.9303 0.5 10.9229 0.5C10.9155 0.5 10.9081 0.5 10.9007 0.5C10.8933 0.5 10.8859 0.5 10.8785 0.5C10.871 0.5 10.8636 0.5 10.8561 0.5C10.8487 0.5 10.8412 0.5 10.8337 0.5C10.8262 0.5 10.8187 0.5 10.8111 0.5C10.8036 0.5 10.7961 0.5 10.7885 0.5C10.781 0.5 10.7734 0.5 10.7658 0.5C10.7582 0.5 10.7506 0.5 10.743 0.5C10.7354 0.5 10.7278 0.5 10.7201 0.5C10.7125 0.5 10.7048 0.5 10.6971 0.5C10.6895 0.5 10.6818 0.5 10.6741 0.5C10.6664 0.5 10.6587 0.5 10.6509 0.5C10.6432 0.5 10.6355 0.5 10.6277 0.5C10.6199 0.5 10.6122 0.5 10.6044 0.5C10.5966 0.5 10.5888 0.5 10.581 0.5C10.5732 0.5 10.5653 0.5 10.5575 0.5C10.5496 0.5 10.5418 0.5 10.5339 0.5C10.526 0.5 10.5181 0.5 10.5102 0.5C10.5023 0.5 10.4944 0.5 10.4865 0.5C10.4786 0.5 10.4706 0.5 10.4627 0.5C10.4547 0.5 10.4468 0.5 10.4388 0.5C10.4308 0.5 10.4228 0.5 10.4148 0.5C10.4068 0.5 10.3987 0.5 10.3907 0.5C10.3827 0.5 10.3746 0.5 10.3666 0.5C10.3585 0.5 10.3504 0.5 10.3423 0.5C10.3342 0.5 10.3261 0.5 10.318 0.5C10.3099 0.5 10.3018 0.5 10.2936 0.5C10.2855 0.5 10.2773 0.5 10.2691 0.5C10.261 0.5 10.2528 0.5 10.2446 0.5C10.2364 0.5 10.2282 0.5 10.22 0.5C10.2117 0.5 10.2035 0.5 10.1952 0.5C10.187 0.5 10.1787 0.5 10.1705 0.5C10.1622 0.5 10.1539 0.5 10.1456 0.5C10.1373 0.5 10.129 0.5 10.1207 0.5C10.1123 0.5 10.104 0.5 10.0956 0.5C10.0873 0.5 10.0789 0.5 10.0705 0.5C10.0622 0.5 10.0538 0.5 10.0454 0.5C10.037 0.5 10.0286 0.5 10.0201 0.5C10.0117 0.5 10.0033 0.5 9.99482 0.5C9.98637 0.5 9.97791 0.5 9.96943 0.5C9.96095 0.5 9.95247 0.5 9.94396 0.5C9.93546 0.5 9.92695 0.5 9.91843 0.5C9.9099 0.5 9.90136 0.5 9.89282 0.5C9.88427 0.5 9.87571 0.5 9.86713 0.5C9.85856 0.5 9.84997 0.5 9.84138 0.5C9.83278 0.5 9.82417 0.5 9.81555 0.5C9.80693 0.5 9.7983 0.5 9.78965 0.5C9.78101 0.5 9.77235 0.5 9.76369 0.5C9.75502 0.5 9.74634 0.5 9.73765 0.5C9.72896 0.5 9.72025 0.5 9.71154 0.5C9.70283 0.5 9.6941 0.5 9.68536 0.5C9.67663 0.5 9.66788 0.5 9.65912 0.5C9.65036 0.5 9.64159 0.5 9.6328 0.5C9.62402 0.5 9.61523 0.5 9.60642 0.5C9.59762 0.5 9.5888 0.5 9.57997 0.5C9.57115 0.5 9.56231 0.5 9.55346 0.5C9.54461 0.5 9.53575 0.5 9.52687 0.5C9.518 0.5 9.50912 0.5 9.50023 0.5C9.49133 0.5 9.48243 0.5 9.47351 0.5C9.4646 0.5 9.45567 0.5 9.44673 0.5C9.43779 0.5 9.42885 0.5 9.41989 0.5C9.41093 0.5 9.40196 0.5 9.39298 0.5C9.384 0.5 9.37501 0.5 9.36601 0.5C9.35701 0.5 9.34799 0.5 9.33897 0.5C9.32995 0.5 9.32092 0.5 9.31187 0.5C9.30283 0.5 9.29377 0.5 9.28471 0.5C9.27565 0.5 9.26657 0.5 9.25749 0.5C9.2484 0.5 9.23931 0.5 9.2302 0.5C9.2211 0.5 9.21198 0.5 9.20286 0.5C9.19373 0.5 9.1846 0.5 9.17545 0.5C9.1663 0.5 9.15715 0.5 9.14798 0.5C9.13882 0.5 9.12964 0.5 9.12045 0.5C9.11127 0.5 9.10207 0.5 9.09287 0.5C9.08366 0.5 9.07445 0.5 9.06522 0.5C9.056 0.5 9.04676 0.5 9.03752 0.5C9.02828 0.5 9.01902 0.5 9.00976 0.5C9.00049 0.5 8.99122 0.5 8.98194 0.5C8.97265 0.5 8.96336 0.5 8.95406 0.5C8.94476 0.5 8.93545 0.5 8.92613 0.5C8.91681 0.5 8.90748 0.5 8.89814 0.5C8.8888 0.5 8.87945 0.5 8.87009 0.5C8.86073 0.5 8.85137 0.5 8.84199 0.5C8.83261 0.5 8.82323 0.5 8.81383 0.5C8.80444 0.5 8.79504 0.5 8.78562 0.5C8.77621 0.5 8.76679 0.5 8.75736 0.5C8.74793 0.5 8.73849 0.5 8.72904 0.5C8.71959 0.5 8.71014 0.5 8.70067 0.5C8.6912 0.5 8.68173 0.5 8.67225 0.5C8.66276 0.5 8.65327 0.5 8.64377 0.5C8.63427 0.5 8.62476 0.5 8.61524 0.5C8.60572 0.5 8.5962 0.5 8.58666 0.5C8.57713 0.5 8.56758 0.5 8.55803 0.5C8.54848 0.5 8.53892 0.5 8.52935 0.5C8.51978 0.5 8.5102 0.5 8.50062 0.5C8.49103 0.5 8.48144 0.5 8.47184 0.5C8.46223 0.5 8.45262 0.5 8.44301 0.5C8.43339 0.5 8.42376 0.5 8.41413 0.5C8.40449 0.5 8.39485 0.5 8.3852 0.5C8.37555 0.5 8.36589 0.5 8.35623 0.5C8.34656 0.5 8.33688 0.5 8.3272 0.5C8.31752 0.5 8.30783 0.5 8.29813 0.5C8.28844 0.5 8.27873 0.5 8.26902 0.5C8.2593 0.5 8.24958 0.5 8.23985 0.5C8.23013 0.5 8.22039 0.5 8.21065 0.5C8.2009 0.5 8.19115 0.5 8.18139 0.5C8.17164 0.5 8.16187 0.5 8.1521 0.5C8.14232 0.5 8.13254 0.5 8.12276 0.5C8.11297 0.5 8.10317 0.5 8.09337 0.5C8.08357 0.5 8.07376 0.5 8.06394 0.5C8.05412 0.5 8.0443 0.5 8.03447 0.5C8.02464 0.5 8.0148 0.5 8.00495 0.5C7.99511 0.5 7.98526 0.5 7.9754 0.5C7.96554 0.5 7.95567 0.5 7.9458 0.5C7.93593 0.5 7.92605 0.5 7.91616 0.5C7.90627 0.5 7.89638 0.5 7.88648 0.5C7.87658 0.5 7.86667 0.5 7.85676 0.5C7.84684 0.5 7.83692 0.5 7.827 0.5C7.81707 0.5 7.80714 0.5 7.7972 0.5C7.78726 0.5 7.77731 0.5 7.76736 0.5C7.75741 0.5 7.74745 0.5 7.73748 0.5C7.72752 0.5 7.71754 0.5 7.70757 0.5C7.69759 0.5 7.6876 0.5 7.67761 0.5C7.66762 0.5 7.65763 0.5 7.64762 0.5C7.63762 0.5 7.62761 0.5 7.6176 0.5C7.60758 0.5 7.59756 0.5 7.58753 0.5C7.57751 0.5 7.56747 0.5 7.55743 0.5C7.54739 0.5 7.53735 0.5 7.5273 0.5C7.51725 0.5 7.50719 0.5 7.49713 0.5C7.48707 0.5 7.477 0.5 7.46693 0.5C7.45685 0.5 7.44677 0.5 7.43669 0.5C7.4266 0.5 7.41651 0.5 7.40642 0.5C7.39632 0.5 7.38622 0.5 7.37611 0.5C7.366 0.5 7.35589 0.5 7.34577 0.5C7.33566 0.5 7.32553 0.5 7.3154 0.5C7.30527 0.5 7.29514 0.5 7.285 0.5C7.27486 0.5 7.26472 0.5 7.25457 0.5C7.24442 0.5 7.23426 0.5 7.2241 0.5C7.21394 0.5 7.20378 0.5 7.19361 0.5C7.18344 0.5 7.17326 0.5 7.16308 0.5C7.1529 0.5 7.14272 0.5 7.13253 0.5C7.12234 0.5 7.11215 0.5 7.10195 0.5C7.09175 0.5 7.08154 0.5 7.07133 0.5C7.06113 0.5 7.05091 0.5 7.04069 0.5C7.03048 0.5 7.02025 0.5 7.01003 0.5C6.9998 0.5 6.98957 0.5 6.97933 0.5C6.96909 0.5 6.95885 0.5 6.94861 0.5C6.93836 0.5 6.92811 0.5 6.91786 0.5C6.9076 0.5 6.89734 0.5 6.88708 0.5C6.87682 0.5 6.86655 0.5 6.85628 0.5C6.84601 0.5 6.83573 0.5 6.82545 0.5C6.81517 0.5 6.80489 0.5 6.7946 0.5C6.78432 0.5 6.77402 0.5 6.76373 0.5C6.75343 0.5 6.74313 0.5 6.73283 0.5C6.72253 0.5 6.71222 0.5 6.70191 0.5C6.69159 0.5 6.68128 0.5 6.67096 0.5C6.66064 0.5 6.65032 0.5 6.63999 0.5C6.62967 0.5 6.61934 0.5 6.609 0.5C6.59867 0.5 6.58833 0.5 6.57799 0.5C6.56765 0.5 6.55731 0.5 6.54696 0.5C6.53661 0.5 6.52626 0.5 6.5159 0.5C6.50555 0.5 6.49519 0.5 6.48483 0.5C6.47447 0.5 6.4641 0.5 6.45374 0.5C6.44337 0.5 6.433 0.5 6.42262 0.5C6.41225 0.5 6.40187 0.5 6.39149 0.5C6.38111 0.5 6.37073 0.5 6.36034 0.5C6.34995 0.5 6.33956 0.5 6.32917 0.5C6.31878 0.5 6.30838 0.5 6.29798 0.5C6.28759 0.5 6.27718 0.5 6.26678 0.5C6.25638 0.5 6.24597 0.5 6.23556 0.5C6.22515 0.5 6.21474 0.5 6.20432 0.5C6.19391 0.5 6.18349 0.5 6.17307 0.5C6.16265 0.5 6.15223 0.5 6.1418 0.5C6.13138 0.5 6.12095 0.5 6.11052 0.5C6.10009 0.5 6.08966 0.5 6.07922 0.5C6.06879 0.5 6.05835 0.5 6.04791 0.5C6.03747 0.5 6.02703 0.5 6.01659 0.5C6.00614 0.5 5.9957 0.5 5.98525 0.5C5.9748 0.5 5.96435 0.5 5.9539 0.5C5.94344 0.5 5.93299 0.5 5.92253 0.5C5.91208 0.5 5.90162 0.5 5.89116 0.5C5.8807 0.5 5.87023 0.5 5.85977 0.5C5.84931 0.5 5.83884 0.5 5.82837 0.5C5.8179 0.5 5.80744 0.5 5.79696 0.5C5.78649 0.5 5.77602 0.5 5.76555 0.5C5.75507 0.5 5.7446 0.5 5.73412 0.5C5.72364 0.5 5.71316 0.5 5.70268 0.5C5.6922 0.5 5.68172 0.5 5.67124 0.5C5.66075 0.5 5.65027 0.5 5.63978 0.5C5.62929 0.5 5.61881 0.5 5.60832 0.5C5.59783 0.5 5.58734 0.5 5.57685 0.5C5.56636 0.5 5.55587 0.5 5.54537 0.5C5.53488 0.5 5.52439 0.5 5.51389 0.5C5.5034 0.5 5.4929 0.5 5.4824 0.5C5.4719 0.5 5.46141 0.5 5.45091 0.5C5.44041 0.5 5.42991 0.5 5.41941 0.5C5.40891 0.5 5.3984 0.5 5.3879 0.5C5.3774 0.5 5.3669 0.5 5.35639 0.5C5.34589 0.5 5.33539 0.5 5.32488 0.5C5.31438 0.5 5.30387 0.5 5.29336 0.5C5.28286 0.5 5.27235 0.5 5.26185 0.5C5.25134 0.5 5.24083 0.5 5.23032 0.5C5.21982 0.5 5.20931 0.5 5.1988 0.5C5.18829 0.5 5.17778 0.5 5.16727 0.5C5.15677 0.5 5.14626 0.5 5.13575 0.5C5.12524 0.5 5.11473 0.5 5.10422 0.5C5.09371 0.5 5.0832 0.5 5.07269 0.5C5.06218 0.5 5.05168 0.5 5.04117 0.5C5.03066 0.5 5.02015 0.5 5.00964 0.5C4.99913 0.5 4.98862 0.5 4.97811 0.5C4.9676 0.5 4.9571 0.5 4.94659 0.5C4.93608 0.5 4.92557 0.5 4.91507 0.5C4.90456 0.5 4.89405 0.5 4.88355 0.5C4.87304 0.5 4.86253 0.5 4.85203 0.5C4.84152 0.5 4.83102 0.5 4.82052 0.5C4.81001 0.5 4.79951 0.5 4.78901 0.5C4.7785 0.5 4.768 0.5 4.7575 0.5C4.747 0.5 4.7365 0.5 4.726 0.5C4.7155 0.5 4.705 0.5 4.6945 0.5C4.684 0.5 4.67351 0.5 4.66301 0.5C4.65251 0.5 4.64202 0.5 4.63152 0.5C4.62103 0.5 4.61054 0.5 4.60005 0.5C4.58955 0.5 4.57906 0.5 4.56857 0.5C4.55808 0.5 4.5476 0.5 4.53711 0.5C4.52662 0.5 4.51614 0.5 4.50565 0.5C4.49517 0.5 4.48468 0.5 4.4742 0.5C4.46372 0.5 4.45324 0.5 4.44276 0.5C4.43228 0.5 4.42181 0.5 4.41133 0.5C4.40086 0.5 4.39038 0.5 4.37991 0.5C4.36944 0.5 4.35897 0.5 4.3485 0.5C4.33803 0.5 4.32756 0.5 4.3171 0.5C4.30663 0.5 4.29617 0.5 4.28571 0.5C4.27524 0.5 4.26478 0.5 4.25433 0.5C4.24387 0.5 4.23341 0.5 4.22296 0.5C4.2125 0.5 4.20205 0.5 4.1916 0.5C4.18115 0.5 4.17071 0.5 4.16026 0.5C4.14981 0.5 4.13937 0.5 4.12893 0.5C4.11849 0.5 4.10805 0.5 4.09761 0.5C4.08718 0.5 4.07674 0.5 4.06631 0.5C4.05588 0.5 4.04545 0.5 4.03502 0.5C4.0246 0.5 4.01417 0.5 4.00375 0.5C3.99333 0.5 3.98291 0.5 3.97249 0.5C3.96207 0.5 3.95166 0.5 3.94125 0.5C3.93084 0.5 3.92043 0.5 3.91002 0.5C3.89962 0.5 3.88921 0.5 3.87881 0.5C3.86841 0.5 3.85801 0.5 3.84762 0.5C3.83722 0.5 3.82683 0.5 3.81644 0.5C3.80606 0.5 3.79567 0.5 3.78529 0.5C3.7749 0.5 3.76452 0.5 3.75415 0.5C3.74377 0.5 3.7334 0.5 3.72303 0.5C3.71266 0.5 3.70229 0.5 3.69193 0.5C3.68156 0.5 3.6712 0.5 3.66085 0.5C3.65049 0.5 3.64013 0.5 3.62978 0.5C3.61943 0.5 3.60909 0.5 3.59874 0.5C3.5884 0.5 3.57806 0.5 3.56772 0.5C3.55739 0.5 3.54706 0.5 3.53673 0.5C3.5264 0.5 3.51607 0.5 3.50575 0.5C3.49543 0.5 3.48511 0.5 3.4748 0.5C3.46448 0.5 3.45417 0.5 3.44387 0.5C3.43356 0.5 3.42326 0.5 3.41296 0.5C3.40266 0.5 3.39236 0.5 3.38207 0.5C3.37178 0.5 3.3615 0.5 3.35121 0.5C3.34093 0.5 3.33065 0.5 3.32038 0.5C3.31011 0.5 3.29983 0.5 3.28957 0.5C3.2793 0.5 3.26904 0.5 3.25878 0.5C3.24853 0.5 3.23827 0.5 3.22803 0.5C3.21778 0.5 3.20753 0.5 3.19729 0.5C3.18705 0.5 3.17682 0.5 3.16659 0.5C3.15636 0.5 3.14613 0.5 3.13591 0.5C3.12569 0.5 3.11547 0.5 3.10526 0.5C3.09505 0.5 3.08484 0.5 3.07464 0.5C3.06443 0.5 3.05423 0.5 3.04404 0.5C3.03385 0.5 3.02366 0.5 3.01348 0.5C3.00329 0.5 2.99312 0.5 2.98294 0.5C2.97277 0.5 2.9626 0.5 2.95244 0.5C2.94227 0.5 2.93211 0.5 2.92196 0.5C2.91181 0.5 2.90166 0.5 2.89152 0.5C2.88137 0.5 2.87124 0.5 2.8611 0.5C2.85097 0.5 2.84084 0.5 2.83072 0.5C2.8206 0.5 2.81048 0.5 2.80037 0.5C2.79026 0.5 2.78016 0.5 2.77006 0.5C2.75996 0.5 2.74986 0.5 2.73977 0.5C2.72968 0.5 2.7196 0.5 2.70952 0.5C2.69944 0.5 2.68937 0.5 2.67931 0.5C2.66924 0.5 2.65918 0.5 2.64912 0.5C2.63907 0.5 2.62902 0.5 2.61898 0.5C2.60893 0.5 2.5989 0.5 2.58886 0.5C2.57883 0.5 2.56881 0.5 2.55879 0.5C2.54877 0.5 2.53876 0.5 2.52875 0.5C2.51874 0.5 2.50874 0.5 2.49874 0.5C2.48875 0.5 2.47876 0.5 2.46878 0.5C2.4588 0.5 2.44882 0.5 2.43885 0.5C2.42888 0.5 2.41892 0.5 2.40896 0.5C2.399 0.5 2.38905 0.5 2.37911 0.5C2.36916 0.5 2.35922 0.5 2.34929 0.5C2.33936 0.5 2.32944 0.5 2.31952 0.5C2.3096 0.5 2.29969 0.5 2.28978 0.5C2.27988 0.5 2.26998 0.5 2.26009 0.5C2.2502 0.5 2.24031 0.5 2.23043 0.5C2.22056 0.5 2.21068 0.5 2.20082 0.5C2.19096 0.5 2.1811 0.5 2.17125 0.5C2.1614 0.5 2.15155 0.5 2.14172 0.5C2.13188 0.5 2.12205 0.5 2.11223 0.5C2.10241 0.5 2.09259 0.5 2.08279 0.5C2.07298 0.5 2.06318 0.5 2.05339 0.5C2.04359 0.5 2.03381 0.5 2.02403 0.5C2.01425 0.5 2.00448 0.5 1.99471 0.5C1.98495 0.5 1.97519 0.5 1.96545 0.5C1.9557 0.5 1.94595 0.5 1.93622 0.5C1.92649 0.5 1.91676 0.5 1.90704 0.5C1.89732 0.5 1.88761 0.5 1.87791 0.5C1.86821 0.5 1.85851 0.5 1.84882 0.5C1.83914 0.5 1.82946 0.5 1.81978 0.5C1.81011 0.5 1.80045 0.5 1.79079 0.5C1.78114 0.5 1.77149 0.5 1.76185 0.5C1.75221 0.5 1.74258 0.5 1.73295 0.5C1.72333 0.5 1.71371 0.5 1.7041 0.5C1.6945 0.5 1.6849 0.5 1.67531 0.5C1.66571 0.5 1.65613 0.5 1.64656 0.5C1.63698 0.5 1.62741 0.5 1.61786 0.5C1.6083 0.5 1.59875 0.5 1.58921 0.5C1.57967 0.5 1.57013 0.5 1.56061 0.5C1.55109 0.5 1.54157 0.5 1.53206 0.5C1.52256 0.5 1.51306 0.5 1.50357 0.5C1.49408 0.5 1.4846 0.5 1.47512 0.5C1.46565 0.5 1.45619 0.5 1.44673 0.5C1.43728 0.5 1.42783 0.5 1.4184 0.5C1.40896 0.5 1.39953 0.5 1.39011 0.5C1.38069 0.5 1.37128 0.5 1.36188 0.5C1.35248 0.5 1.34309 0.5 1.33371 0.5C1.32432 0.5 1.31495 0.5 1.30559 0.5C1.29622 0.5 1.28687 0.5 1.27752 0.5C1.26817 0.5 1.25884 0.5 1.24951 0.5C1.24018 0.5 1.23086 0.5 1.22156 0.5C1.21225 0.5 1.20295 0.5 1.19366 0.5C1.18437 0.5 1.17509 0.5 1.16582 0.5C1.15655 0.5 1.14729 0.5 1.13804 0.5C1.12878 0.5 1.11954 0.5 1.11031 0.5C1.10108 0.5 1.09186 0.5 1.08264 0.5C1.07343 0.5 1.06423 0.5 1.05504 0.5C1.04584 0.5 1.03666 0.5 1.02749 0.5C1.01832 0.5 1.00915 0.5 1 0.5V1.5Z" fill="#838383"/>
<path d="M1 4.5C0.723858 4.5 0.5 4.72386 0.5 5C0.5 5.27614 0.723858 5.5 1 5.5V4.5ZM13 5.5C13.2761 5.5 13.5 5.27614 13.5 5C13.5 4.72386 13.2761 4.5 13 4.5V5.5ZM1 5.5H13V4.5H1V5.5Z" fill="#838383"/>
<path d="M1 8.5C0.723858 8.5 0.5 8.72386 0.5 9C0.5 9.27614 0.723858 9.5 1 9.5V8.5ZM13 9.5C13.2761 9.5 13.5 9.27614 13.5 9C13.5 8.72386 13.2761 8.5 13 8.5V9.5ZM1 9.5H13V8.5H1V9.5Z" fill="#838383"/>
</svg>
