<svg width="20" height="20" viewBox="0 0 20 20" fill="none" xmlns="http://www.w3.org/2000/svg">
<path d="M15.1358 11.8881C14.2952 11.8881 13.8367 13.285 13.5565 13.8184C13.0942 14.6984 12.9707 15.0248 11.9773 15.1899C10.9839 15.355 6.10751 11.2786 4.94709 8.51017C4.67406 7.85881 5.0495 7.09917 5.6603 6.8085C6.78105 6.27513 8.51313 5.71637 7.87634 4.44646C7.48904 3.6741 7.12253 2.83117 6.62822 2.10983C5.78158 0.874334 4.76189 -0.0460084 4.18294 0.00177905C3.12966 0.0887168 2.29074 0.839421 1.5084 1.62726C0.588294 2.55385 -0.16406 3.76071 0.0310421 4.97982C0.425311 7.44345 2.73382 11.0754 4.33577 12.9041C6.98893 15.9327 10.1925 18.2397 14.1933 19.7616C15.643 20.313 16.9698 19.8632 18.065 18.8726C19.1354 17.9047 20.2516 16.8408 19.9499 15.6979C19.7631 14.99 18.5745 14.1232 17.632 13.3612C16.5877 12.5169 15.7471 11.8881 15.1358 11.8881Z" fill="#4785E7"/>
</svg>
