<svg width="22" height="19" viewBox="0 0 22 19" fill="none" xmlns="http://www.w3.org/2000/svg">
<path d="M18.1429 3.57576H16C16 1.70833 15.2857 1 13.8571 1H8.14286C6.71429 1 6 1.70833 6 3.57576H3.85714C2.45933 3.57576 1 4.54167 1 5.95833V15.875C1 17.2917 1.71429 18 3.85714 18H18.1429C20.2857 18 21 17.2917 21 15.875V5.95833C21 4.54167 19.7218 3.57576 18.1429 3.57576Z" stroke="#4785E7"/>
<path d="M14.8462 10.2728C14.8462 8.06496 13.1978 6.40912 11 6.40912C8.79866 6.40911 7.15385 8.06496 7.15385 10.2728C7.15385 12.4805 8.79866 14.1364 11 14.1364C13.1978 14.1364 14.8462 12.4066 14.8462 10.2728Z" stroke="#4785E7"/>
</svg>
