<svg width="12" height="20" viewBox="0 0 12 20" fill="none" xmlns="http://www.w3.org/2000/svg">
<path fill-rule="evenodd" clip-rule="evenodd" d="M8.0285 13.6564H3.50801L3.51687 12.8491C3.52494 12.1139 3.58141 11.4576 3.69382 10.8883L3.69562 10.8792C3.82089 10.2811 4.03416 9.72916 4.34045 9.23094L4.34607 9.2218C4.65031 8.74146 5.04285 8.28153 5.51267 7.83969L5.51819 7.8345L5.5238 7.82942C5.87059 7.51556 6.16735 7.22181 6.41626 6.94812C6.64209 6.69979 6.80818 6.45769 6.92439 6.22327C7.01996 6.0235 7.07394 5.79115 7.07394 5.51232C7.07394 5.13605 7.01535 4.88821 6.94195 4.73126L6.93666 4.71996L6.93173 4.7085C6.86468 4.55271 6.77632 4.45833 6.66275 4.39261L6.65414 4.38763C6.5462 4.32332 6.36399 4.26388 6.0607 4.26388C5.8505 4.26388 5.66654 4.30973 5.49692 4.39794L5.48934 4.40188L5.48168 4.40566C5.3426 4.47418 5.21606 4.58351 5.10323 4.7621C5.02291 4.8997 4.94962 5.13553 4.94341 5.5252L4.9309 6.31082H0L0.0176426 5.49484C0.0431426 4.31544 0.31275 3.27426 0.879728 2.42248L0.880823 2.42084C1.43705 1.58967 2.18491 0.972865 3.10667 0.578662C4.00298 0.187616 4.99197 0 6.0607 0C7.2212 0 8.26231 0.192636 9.15899 0.609744C10.0628 1.02231 10.7779 1.64531 11.2738 2.47853C11.7719 3.30736 12 4.28466 12 5.37196C12 6.15637 11.848 6.88591 11.5241 7.54207L11.522 7.54631C11.2236 8.1418 10.8357 8.69184 10.3631 9.19651C9.92796 9.6613 9.45122 10.14 8.93342 10.6327L8.92645 10.6393L8.91932 10.6458C8.55203 10.9786 8.34004 11.2915 8.2331 11.577C8.11681 11.9095 8.04545 12.3346 8.0386 12.8683L8.0285 13.6564ZM8.83247 1.33656C8.06254 0.977854 7.13861 0.798503 6.0607 0.798503C5.08288 0.798503 4.2013 0.970056 3.41596 1.31316C2.63062 1.64847 2.00312 2.16703 1.53346 2.86884C1.19211 3.38165 0.970571 3.99664 0.868837 4.71382C0.83289 4.96723 0.811901 5.2334 0.80587 5.51232H4.1551C4.1628 5.02885 4.25519 4.63896 4.43228 4.34264C4.61706 4.04632 4.85189 3.82798 5.13677 3.68762C5.42165 3.53946 5.72962 3.46538 6.0607 3.46538C6.46107 3.46538 6.79214 3.54336 7.05392 3.69931C7.3234 3.85527 7.52358 4.08531 7.65447 4.38943C7.79306 4.68575 7.86235 5.06004 7.86235 5.51232C7.86235 5.90222 7.78536 6.25702 7.63137 6.57673C7.47738 6.88865 7.26565 7.19276 6.99617 7.48908C6.72669 7.7854 6.41102 8.09732 6.04915 8.42483C5.61798 8.83032 5.27151 9.23971 5.00973 9.653C4.75565 10.0663 4.57472 10.5303 4.46693 11.0449C4.40704 11.3482 4.36369 11.6864 4.33688 12.0594C4.31888 12.3099 4.30833 12.576 4.30524 12.8579H7.25025C7.25795 12.2575 7.33879 11.7389 7.49278 11.3022C7.65447 10.8656 7.95474 10.4484 8.39361 10.0507C8.90177 9.56722 9.36758 9.09935 9.79105 8.64707C10.2145 8.19479 10.5571 7.70742 10.8189 7.18497C11.0807 6.65471 11.2116 6.05037 11.2116 5.37196C11.2116 4.39722 11.0075 3.57065 10.5995 2.89223C10.1914 2.20602 9.60241 1.68746 8.83247 1.33656ZM3.9192 15.6561C3.41794 16.1424 3.17035 16.7674 3.17035 17.4704C3.17035 18.1669 3.42398 18.7828 3.91588 19.2696C4.43099 19.7795 5.09852 20 5.82972 20C6.5551 20 7.21618 19.7784 7.72881 19.2728C8.2282 18.7879 8.48908 18.1714 8.48908 17.4704C8.48908 16.7629 8.23436 16.1373 7.72549 15.653C7.21332 15.1497 6.55353 14.929 5.82972 14.929C5.10009 14.929 4.43386 15.1486 3.9192 15.6561ZM7.18096 18.6985C7.52743 18.3632 7.70067 17.9538 7.70067 17.4704C7.70067 16.9713 7.52743 16.558 7.18096 16.2305C6.84218 15.8952 6.39177 15.7275 5.82972 15.7275C5.25996 15.7275 4.8057 15.8952 4.46693 16.2305C4.12815 16.558 3.95877 16.9713 3.95877 17.4704C3.95877 17.9538 4.12815 18.3632 4.46693 18.6985C4.8057 19.0338 5.25996 19.2015 5.82972 19.2015C6.39177 19.2015 6.84218 19.0338 7.18096 18.6985Z" fill="#4785E7"/>
</svg>
