<svg width="200" height="190" viewBox="0 0 200 190" fill="none" xmlns="http://www.w3.org/2000/svg">
<path d="M82.3457 118.923C71.2524 116.773 68.213 112.579 67.0079 102.902C64.5041 82.7951 68.2028 59.4621 77.8866 50.6446C81.4758 46.1292 102.845 39.1407 101.164 63.8707C96.5955 61.3976 96.2692 51.8279 88.8723 51.8279C82.1281 51.8279 78.9999 57.116 80.6052 62.1503C83.4169 70.9673 92.0249 78.7091 97.2482 82.7951C95.7253 88.2788 95.7253 100.752 95.7253 100.752L119.219 104.3C119.219 104.3 126.559 104.3 129.553 111.612C135.101 125.16 137.534 131.352 142.715 144.729C148.045 158.492 128.46 164.141 124.114 152.686C119.769 141.231 112.477 123.547 112.477 123.547C112.477 123.547 93.439 121.074 82.3457 118.923Z" fill="#3D3D3D"/>
<path d="M89.6315 135.271C89.6315 136.52 88.4349 137.637 87.4559 137.637C88.1086 146.023 89.3052 151.076 93.9826 161.829H145.652C145.326 166.237 145.434 168.925 146.087 171.291H81.3644C83.7575 153.332 70.7443 137.741 53.6262 137.741C34.0462 137.741 22.0807 156.558 25.4528 171.291H11.5293C11.5293 171.291 12.7259 154.511 20.7754 137.741C19.3613 137.741 16.9682 136.899 16.9682 135.268V125.379C16.9682 123.674 18.724 122.691 20.449 122.691C41.1168 122.69 67.1146 122.687 87.0208 122.688C88.3809 122.688 89.6315 124.035 89.6315 125.379V135.271Z" fill="#3D3D3D"/>
<path d="M110.192 24.7331C112.475 20.3263 118.675 20.3263 121.614 19.8945C130.749 40.0033 104.751 55.4869 91.1543 39.2507C101.597 41.6162 108.08 41.0786 109.864 39.2507C112.583 36.4647 110.192 30.6487 110.192 24.7331Z" fill="#3D3D3D"/>
<path d="M132.927 79.3507C139.563 79.3507 140.869 90.8164 132.927 91.9311C116.067 94.2976 92.4952 83.5472 82.4537 62.3652C79.2042 55.5106 89.3942 49.6474 93.4402 56.0217C107.364 77.957 120.619 79.3507 132.927 79.3507Z" fill="#3D3D3D"/>
<path d="M103.011 0.00347656C113.663 0.19518 122.482 8.06793 123.461 17.8526C118.327 18.458 110.942 19.6777 108.994 23.0137C106.796 26.777 110.843 31.5081 108.994 37.7447C106.383 39.895 93.0667 39.7111 87.2384 35.164C82.9617 31.8274 81.9011 26.0322 81.5821 20.7558C80.8833 9.19583 91.2977 -0.207327 103.011 0.00347656Z" fill="#3D3D3D"/>
<path fill-rule="evenodd" clip-rule="evenodd" d="M173.555 141.83C186.599 141.675 197.975 152.513 197.975 165.378C197.975 179.293 187.497 190.168 173.555 189.997C160.066 189.832 149.678 178.491 149.678 165.378C149.678 152.373 160.369 141.986 173.555 141.83ZM173.717 156.235C178.946 156.173 183.507 160.528 183.507 165.697C183.507 171.289 179.306 175.658 173.717 175.59C168.309 175.523 164.145 170.966 164.145 165.697C164.145 160.472 168.431 156.298 173.717 156.235Z" fill="#3D3D3D"/>
<path fill-rule="evenodd" clip-rule="evenodd" d="M53.2464 141.83C66.2904 141.675 77.6663 152.513 77.6663 165.378C77.6663 179.293 67.1889 190.168 53.2464 189.997C39.7574 189.832 29.3691 178.491 29.3691 165.378C29.3691 152.373 40.0603 141.986 53.2464 141.83ZM53.4084 156.235C58.6377 156.173 63.1983 160.528 63.1983 165.697C63.1983 171.289 58.9979 175.658 53.4084 175.59C48.0006 175.523 43.8359 170.966 43.8359 165.697C43.8359 160.472 48.122 156.298 53.4084 156.235Z" fill="#3D3D3D"/>
<path d="M197.431 150.428C188.62 138.062 169.476 131.503 152.941 146.88C143.913 120.966 134.667 94.1931 134.667 94.1931C134.667 94.1931 130.424 95.6976 126.944 96.9879C122.592 98.6007 121.505 93.9772 121.287 93.332C127.923 93.332 137.821 96.9879 140.106 86.3438C142.499 90.4285 144.022 97.2026 146.959 104.946C163.493 112.686 166.974 122.149 170.019 130.751C186.662 129.89 198.084 141.718 199.933 148.601C200.421 150.415 198.131 151.41 197.431 150.428Z" fill="#3D3D3D"/>
<path d="M0.000321543 113.983C0.000931938 97.1011 -0.000643976 80.6499 0.000321543 63.5534C0.00045428 61.203 2.19122 59.5752 4.56898 59.575C19.362 59.5738 38.2892 59.5742 55.8024 59.575C58.0861 59.5751 60.0447 61.296 60.0447 63.5534V113.983C60.0447 116.299 58.7394 118.176 55.8024 118.176H4.56898C2.13422 118.176 0.000234522 116.389 0.000321543 113.983Z" fill="#3D3D3D"/>
<path d="M148.807 91.2901C148.838 84.3688 154.869 78.7547 161.86 79.1398C168.93 82.9029 166.755 102.365 161.86 103.548C154.84 103.935 148.776 98.2403 148.807 91.2901Z" fill="#3D3D3D"/>
</svg>
