<svg width="200" height="200" viewBox="0 0 200 200" fill="none" xmlns="http://www.w3.org/2000/svg">
<path fill-rule="evenodd" clip-rule="evenodd" d="M101.769 52.0548C112.21 52.0549 122.618 52.0551 134.006 52.0549C135.002 52.0549 136.087 52.5267 136.087 53.5094V62.2367C136.087 63.2806 135.064 63.9482 134.006 63.9482H132.186V80.4617C132.186 83.7987 130.308 88.3469 126.984 90.6437C119.18 96.0342 107.909 102.451 107.909 102.451V107.072C107.909 107.072 117.186 112.976 124.036 116.655C129.36 119.515 132.099 121.019 132.099 129.746V143.351H134.44C135.422 143.351 136.174 144.179 136.174 145.148V153.362C136.174 154.331 135.422 155.159 134.44 155.159C122.568 155.159 105.363 155.242 90.5841 155.314C79.4592 155.368 69.7094 155.415 64.6453 155.415C63.5198 155.415 62.6512 154.472 62.6512 153.362V145.148C62.6512 144.107 63.5908 143.351 64.6453 143.351H66.6394V129.746C66.6394 123.746 69.7607 119.564 74.7893 116.655C81.1314 112.986 90.9158 107.072 90.9158 107.072V102.451C90.9158 102.451 76.8702 94.323 70.8878 90.3871C67.5931 88.2195 66.552 85.0821 66.552 81.1462V63.9482H64.8187C63.3448 63.9482 62.5643 63.3067 62.5645 61.9802C62.5648 59.7803 62.5647 58.2197 62.5646 56.6654C62.5645 55.7411 62.5644 54.8191 62.5645 53.7661C62.5645 52.6166 63.8266 52.0549 64.9914 52.0549C78.2521 52.0546 90.0314 52.0547 101.769 52.0548ZM72.9688 63.9473H125.683V79.5198C125.683 82.157 124.624 84.6629 122.389 86.1082C116.161 90.1346 112.002 92.5865 106.594 95.7747C105.451 96.4483 104.253 97.1548 102.967 97.9159C101.876 98.5622 101.407 99.4835 101.407 100.74V108.611C101.407 109.852 101.823 110.764 102.881 111.435C107.005 114.051 110.934 116.366 114.905 118.705C117.947 120.497 121.013 122.303 124.209 124.269C125.645 125.153 125.683 128.291 125.683 128.291V143.35H73.0555V128.804C73.0555 127.07 74.2693 124.713 75.223 124.098C81.1847 120.254 85.1773 117.876 89.4716 115.319C91.485 114.121 93.5646 112.882 95.9446 111.435C96.9895 110.799 97.2451 109.823 97.2451 108.611V100.74C97.2451 99.4835 96.7601 98.5875 95.6845 97.9159C90.7754 94.8509 87.4291 92.8999 84.0405 90.924C81.564 89.4801 79.0649 88.023 75.9166 86.1082C73.4903 84.6326 72.9688 83.4557 72.9688 79.5198V63.9473Z" fill="#3D3D3D"/>
<path d="M173.454 137.28C174.229 135.522 174.553 134.489 175.361 132.745C176.771 129.701 181.43 127.152 186.025 129.321C190.621 131.489 190.861 136.224 189.667 139.59C188.941 141.637 188.205 142.652 187.326 144.639C185.878 147.911 181.604 150.54 176.229 147.973C171.2 145.064 172.254 140.002 173.454 137.28Z" fill="#3D3D3D"/>
<path d="M180.688 109.894C180.979 107.998 181.024 106.918 181.351 105.027C181.921 101.728 185.759 98.0827 190.765 99.0131C195.77 99.9435 197.235 104.458 196.958 108.015C196.79 110.176 196.343 111.344 196.01 113.487C195.463 117.016 192.017 120.641 186.154 119.524C180.537 117.988 180.238 112.828 180.688 109.894Z" fill="#3D3D3D"/>
<path d="M147.813 37.1628C146.268 35.9998 145.329 35.4417 143.807 34.2507C141.149 32.1718 139.754 27.0977 142.987 23.2128C146.219 19.3281 150.935 20.2299 153.962 22.1789C155.802 23.3636 156.625 24.3115 158.369 25.6291C161.242 27.7987 162.808 32.5232 158.997 37.0605C154.932 41.1834 150.204 38.963 147.813 37.1628Z" fill="#3D3D3D"/>
<path d="M122.382 24.6982C120.54 24.0891 119.47 23.8594 117.639 23.2166C114.444 22.0947 111.466 17.7354 113.256 13.0294C115.046 8.32354 119.805 7.67624 123.307 8.55775C125.436 9.0936 126.524 9.72909 128.606 10.421C132.035 11.5603 135.061 15.5342 132.936 21.0419C130.436 26.2382 125.234 25.6412 122.382 24.6982Z" fill="#3D3D3D"/>
<path d="M178.5 82.328C178.107 80.4502 177.77 79.4216 177.412 77.5369C176.787 74.2472 179.107 69.5145 184.129 68.6743C189.151 67.8342 192.112 71.5676 193.101 74.9981C193.703 77.0833 193.694 78.3314 194.135 80.4553C194.862 83.9527 192.903 88.5323 187.011 89.4905C181.203 89.9717 179.109 85.2348 178.5 82.328Z" fill="#3D3D3D"/>
<path d="M166.95 57.2224C165.888 55.6165 165.193 54.7808 164.161 53.1558C162.361 50.3193 162.767 45.0772 167.13 42.483C171.492 39.8889 175.631 42.2954 177.823 45.1312C179.156 46.855 179.61 48.0199 180.807 49.8374C182.78 52.8304 182.654 57.7995 177.525 60.8177C172.297 63.3616 168.593 59.7082 166.95 57.2224Z" fill="#3D3D3D"/>
<path d="M87.8808 8.24952C79.2973 4.91255 71.4075 2.26037 65.6852 0.121004C64.3859 -0.364776 62.6774 0.636361 63.2576 2.6879C64.2983 6.36802 65.246 7.68607 66.2054 10.9875C25.1091 25.7044 -2.19632 62.1347 0.138977 107.591C2.55338 154.586 42.4495 200 96.1176 200C126.55 200 159.323 186.908 173.282 165.431C177.008 159.699 167.646 149.995 161.143 156.105C139.468 176.469 123.255 184.426 96.1176 184.426C47.9983 182.458 15.7452 139.42 15.7452 107.591C15.7452 75.761 32.132 40.5945 71.4075 25.7044C72.9063 29.0714 73.2282 31.1825 74.5287 34.6033C75.0164 35.8859 77.1529 35.687 77.8234 34.6033C81.8983 28.0166 85.1063 22.7097 90.5685 13.64C91.7831 11.6232 90.0927 9.10945 87.8808 8.24952Z" fill="#3D3D3D"/>
</svg>
