<svg width="200" height="160" viewBox="0 0 200 160" fill="none" xmlns="http://www.w3.org/2000/svg">
<path d="M11.4902 111.823C14.5236 102.148 19.9506 86.6041 34.156 77.0859C35.193 78.5972 35.6877 79.5194 36.3906 81.2099C27.5322 87.2373 19.6665 99.2921 15.9595 112.933C14.1767 112.693 13.1784 112.441 11.4902 111.823Z" fill="#3D3D3D"/>
<path d="M0 100.721C3.19111 91.52 8.13927 82.003 15.9618 73.5977C17.3852 74.705 18.1059 75.4651 19.1542 76.9286C11.652 85.3347 9.2577 90.2518 4.4693 102.466C2.63876 102.061 1.621 101.658 0 100.721Z" fill="#3D3D3D"/>
<path d="M74.5403 63.4475C74.5839 71.9895 67.8126 79.0624 59.217 79.1504C50.5341 79.2394 43.5303 72.0762 43.5744 63.4475C43.6183 54.8627 50.5783 47.8147 59.217 47.9032C67.768 47.9908 74.4969 54.9499 74.5403 63.4475Z" fill="#3D3D3D"/>
<path d="M73.2624 109.607L61.7699 144.656H17.875C17.8758 136.251 28.8932 87.7914 57.141 83.1137C82.9991 78.8317 105.346 75.1843 123.382 72.3278C133.279 70.7605 136.311 84.9321 125.777 86.7618C109.336 89.6173 77.5721 94.6976 77.5721 94.6976C77.5721 94.6976 102.792 94.6982 115.082 94.6976C126.734 94.697 125.298 109.607 116.359 109.607H73.2624Z" fill="#3D3D3D"/>
<path d="M113.325 159.409C107.741 155.443 146.526 108.176 146.526 108.176L163.765 123.403C163.765 123.403 117.954 165.436 113.325 159.409Z" fill="#3D3D3D"/>
<path d="M146.688 108.018V16.1797H151.476V102.784C151.476 102.784 158.34 95.4875 163.447 90.4118C169.034 84.8602 175.259 90.0945 175.259 90.0945L175.738 65.1919L182.442 73.4399L192.179 65.1919L189.944 75.0261L199.521 74.3916L193.615 83.5913L200 88.667L177.813 92.1565C177.813 92.1565 186.432 99.4529 180.207 106.115C175.129 111.549 166.799 120.39 166.799 120.39L149.561 104.846L146.688 108.018Z" fill="#3D3D3D"/>
<path d="M24.5801 12.372V0H182.921V12.372H24.5801Z" fill="#3D3D3D"/>
</svg>
