<svg width="200" height="180" viewBox="0 0 200 180" fill="none" xmlns="http://www.w3.org/2000/svg">
<path fill-rule="evenodd" clip-rule="evenodd" d="M26.1547 22.1357C27.7297 13.9511 35.8159 15.8112 35.8159 15.8112C35.8159 22.4954 38.1834 29.0122 42.1328 32.9246C47.3058 38.0491 54.395 39.1345 54.395 34.5987C54.395 31.782 53.1586 31.2399 51.3808 30.4603C50.8217 30.2152 50.209 29.9466 49.5645 29.5763C46.4384 27.7807 42.6902 24.0176 42.6902 15.6252C42.6902 7.99769 46.7766 0.000528041 54.395 2.81125e-08C62.5699 -0.000566335 64.9851 8.55667 64.9851 8.55667H57.9251C54.9524 4.27834 49.1929 6.69652 49.1929 15.6252H66.2857C66.2857 34.0407 84.8646 42.1866 84.8646 34.5987C84.8646 31.7034 83.5881 31.2658 81.8969 30.686C80.9804 30.3718 79.9422 30.0158 78.9192 29.2043C74.8318 25.9616 73.0669 20.1349 73.0669 15.6252C73.0669 7.25457 77.4329 2.81125e-08 84.8646 2.81125e-08C92.6678 2.81125e-08 95.6405 8.55667 95.6405 8.55667H88.3946C88.3946 8.55667 87.2798 6.51051 84.8646 6.51051C80.7771 6.88254 79.8482 11.9454 79.8482 15.6252H96.7553C96.7553 34.5987 115.149 41.6673 115.149 34.5987C115.149 32.1739 114.47 31.8057 112.199 30.5739C111.857 30.3883 111.479 30.1831 111.061 29.9483C107.873 28.1553 103.537 23.7992 103.537 15.6252C103.537 7.6266 107.552 -4.97691e-05 115.149 2.81125e-08C123.695 5.62125e-05 125.739 8.55667 125.739 8.55667H118.679C118.679 8.55667 118.121 6.51051 115.149 6.51051C111.619 6.51051 110.318 11.7929 110.318 15.6252H127.225C127.225 35.1568 145.618 41.2952 145.618 34.5987C145.618 32.0607 145.14 31.8283 143.126 30.8506C142.63 30.6101 142.042 30.3245 141.345 29.9483C138.31 28.3104 133.913 23.6438 133.913 15.6252C133.913 7.6266 138.284 0.000411029 145.99 2.81125e-08C153.979 -0.000425884 156.394 8.55667 156.394 8.55667H149.334C146.919 4.46435 140.602 6.51051 140.602 15.6252H168.843C172.743 15.6252 175.022 19.037 175.717 22.8798C178.898 40.492 181.681 55.6718 184.299 69.9469L184.299 69.9483C189.478 98.1896 194.007 122.89 199.684 155.88C200.708 161.833 199.283 165.386 194.853 166.669C186.322 169.139 178.871 171.21 170.927 173.418L170.925 173.419C164.511 175.202 157.776 177.074 149.892 179.318C146.117 180.392 139.859 179.876 139.859 179.876C139.859 179.876 50.1217 170.575 6.46086 165.925C2.03853 165.454 -0.66988 160.816 0.143949 156.438C5.18113 129.344 11.105 99.144 16.751 70.361C20.0591 53.496 23.2718 37.1176 26.1547 22.1357ZM146.918 169.459L148.962 157.369L179.431 160.531L146.918 169.459ZM82.8063 65.7397C104.909 66.3619 129.11 67.0432 150.076 67.5253C152.444 67.5798 154.544 69.012 153.977 72.1757C151.99 83.2616 149.894 95.4063 147.762 107.759C144.314 127.741 140.771 148.268 137.442 165.741C136.91 168.531 135.77 169.392 132.797 169.089C117.124 167.495 100.279 165.673 82.7573 163.778C61.4366 161.472 39.113 159.057 16.6774 156.812C12.4051 156.385 10.3456 155.694 11.1037 151.79C15.0046 131.698 21.8796 96.5415 27.6391 67.3393C27.9672 65.6756 29.1041 64.3271 30.7976 64.3631C43.434 64.6314 62.2091 65.1599 82.8063 65.7397Z" fill="#3D3D3D"/>
<path d="M33.2148 88.915L35.8159 75.3359L50.6792 75.894L47.8924 89.6591L33.2148 88.915Z" fill="#3D3D3D"/>
<path d="M93.7832 91.891L96.3843 77.7539L111.248 78.3119L108.647 92.6351L93.7832 91.891Z" fill="#3D3D3D"/>
<path d="M63.498 90.5917L65.9133 76.6406L80.7766 77.0127L78.1756 91.1498L63.498 90.5917Z" fill="#3D3D3D"/>
<path d="M124.252 93.3802L126.853 78.8711L141.716 79.2431L139.115 94.1243L124.252 93.3802Z" fill="#3D3D3D"/>
<path d="M28.0117 117.005L30.6128 103.426L45.4761 103.984L42.6892 117.749L28.0117 117.005Z" fill="#3D3D3D"/>
<path d="M88.5801 121.283L91.1812 106.773L106.044 107.89L103.443 122.399L88.5801 121.283Z" fill="#3D3D3D"/>
<path d="M58.1113 119.232L60.8982 105.281L75.5757 106.025L73.1604 120.162L58.1113 119.232Z" fill="#3D3D3D"/>
<path d="M119.051 123.512L121.466 108.816L136.515 109.746L133.914 124.814L119.051 123.512Z" fill="#3D3D3D"/>
<path d="M22.4395 144.903L25.0405 131.324L39.9038 132.44L37.4886 146.391L22.4395 144.903Z" fill="#3D3D3D"/>
<path d="M83.3789 150.486L85.98 136.535L100.843 137.651L98.2422 152.16L83.3789 150.486Z" fill="#3D3D3D"/>
<path d="M53.0938 147.881L55.509 133.93L70.3723 135.046L67.9571 149.183L53.0938 147.881Z" fill="#3D3D3D"/>
<path d="M113.848 153.651L116.263 138.77L131.312 140.072L128.711 155.139L113.848 153.651Z" fill="#3D3D3D"/>
</svg>
