<svg width="20" height="20" viewBox="0 0 20 20" fill="none" xmlns="http://www.w3.org/2000/svg">
<path fill-rule="evenodd" clip-rule="evenodd" d="M10.2128 19.5745C15.6181 19.5745 20 15.1926 20 9.78723C20 4.38189 15.6181 0 10.2128 0C4.80743 0 0.425532 4.38189 0.425532 9.78723C0.425532 11.6484 0.945031 13.3882 1.84694 14.8696L0 20L5.67477 18.4611C7.0312 19.1722 8.57501 19.5745 10.2128 19.5745Z" fill="url(#paint0_linear_1187_21808)"/>
<path d="M13.4334 10.8258C12.9237 10.8258 12.6457 11.6728 12.4758 11.9963C12.1954 12.5299 12.1205 12.7278 11.5181 12.8279C10.9158 12.928 7.95881 10.4562 7.25515 8.77745C7.08959 8.38247 7.31725 7.92184 7.68763 7.74558C8.36723 7.42216 9.41754 7.08333 9.0314 6.31328C8.79654 5.84493 8.5743 5.3338 8.27456 4.89639C7.76117 4.1472 7.14285 3.58912 6.79178 3.6181C6.15309 3.67082 5.64438 4.12603 5.16999 4.60377C4.61205 5.16563 4.15583 5.89745 4.27414 6.6367C4.51322 8.1306 5.91306 10.3329 6.88445 11.4418C8.49329 13.2784 10.4359 14.6773 12.8619 15.6001C13.741 15.9345 14.5455 15.6617 15.2097 15.0611C15.8587 14.4741 16.5355 13.829 16.3526 13.1359C16.2393 12.7067 15.5186 12.1811 14.9471 11.719C14.3138 11.2071 13.8041 10.8258 13.4334 10.8258Z" fill="white"/>
<path d="M10.9283 3.92629C10.7961 3.96587 10.7209 4.10518 10.7605 4.23746C10.8001 4.36974 10.9394 4.44488 11.0717 4.4053L10.9283 3.92629ZM15.4471 8.91731C15.3979 9.04635 15.4627 9.19078 15.5917 9.23992C15.7208 9.28905 15.8652 9.22429 15.9143 9.09525L15.4471 8.91731ZM11.0717 4.4053C12.3896 4.01096 13.7728 4.39484 14.6814 5.25095C15.5821 6.09963 16.0194 7.41433 15.4471 8.91731L15.9143 9.09525C16.562 7.39462 16.0656 5.86816 15.0243 4.88704C13.9909 3.91335 12.4238 3.47879 10.9283 3.92629L11.0717 4.4053Z" fill="white"/>
<path d="M11.3546 4.88416C11.2218 4.9221 11.1449 5.06049 11.1829 5.19324C11.2208 5.32599 11.3592 5.40285 11.492 5.3649L11.3546 4.88416ZM14.4438 8.37875C14.4072 8.51188 14.4854 8.64949 14.6185 8.6861C14.7516 8.72272 14.8892 8.64448 14.9259 8.51136L14.4438 8.37875ZM11.492 5.3649C11.7311 5.29656 12.0855 5.28453 12.4796 5.35656C12.8707 5.42804 13.2813 5.57888 13.6328 5.81677C13.983 6.05381 14.27 6.37386 14.4285 6.78609C14.5865 7.19705 14.6249 7.72027 14.4438 8.37875L14.9259 8.51136C15.1307 7.76679 15.0974 7.13251 14.8952 6.60664C14.6935 6.08205 14.3316 5.68596 13.9131 5.4027C13.4958 5.1203 13.018 4.94669 12.5695 4.86471C12.1241 4.7833 11.6881 4.78881 11.3546 4.88416L11.492 5.3649Z" fill="white"/>
<path d="M11.5685 6.02624C11.4337 6.05603 11.3485 6.18948 11.3783 6.3243C11.4081 6.45912 11.5416 6.54425 11.6764 6.51446L11.5685 6.02624ZM13.3157 8.02208C13.3017 8.15943 13.4016 8.28218 13.539 8.29624C13.6763 8.3103 13.7991 8.21036 13.8131 8.073L13.3157 8.02208ZM11.6764 6.51446C12.2468 6.38839 12.673 6.51973 12.9435 6.7784C13.2176 7.04056 13.3721 7.4719 13.3157 8.02208L13.8131 8.073C13.8813 7.4072 13.6996 6.80964 13.2891 6.41704C12.8749 6.02096 12.2678 5.87169 11.5685 6.02624L11.6764 6.51446Z" fill="white"/>
<defs>
<linearGradient id="paint0_linear_1187_21808" x1="16.0638" y1="2.12766" x2="2.12766" y2="18.5106" gradientUnits="userSpaceOnUse">
<stop stop-color="#8A48C3"/>
<stop offset="1" stop-color="#63358B"/>
</linearGradient>
</defs>
</svg>
