<svg width="24" height="20" viewBox="0 0 24 20" fill="none" xmlns="http://www.w3.org/2000/svg">
<path d="M22.944 2.67351C23.0576 1.53933 23.2904 0.283491 20.2358 1.49401C11.7964 4.83854 9.1827 5.93263 2.19183 8.97447C1.08967 9.45403 0.491354 10.2471 1.56202 10.6196C2.81279 11.0547 3.71403 11.3648 4.99448 11.7059C6.15963 12.0163 7.10082 12.0411 8.08054 11.4266C10.8517 9.68838 12.6955 8.34707 15.8272 6.18094C17.6221 4.93937 18.4724 5.31184 16.8034 6.98796C14.8532 8.94652 12.2688 11.2093 11.3555 12.1094C10.1904 13.2579 10.6075 13.853 11.7334 14.6236C14.0007 16.1756 15.2656 17.0451 17.5906 18.5035C18.9762 19.3726 20.4521 19.2094 20.7397 17.1378C21.5584 11.2403 22.4717 7.39147 22.944 2.67351Z" stroke="#4785E7"/>
</svg>
