<svg width="20" height="20" viewBox="0 0 20 20" fill="none" xmlns="http://www.w3.org/2000/svg">
<path fill-rule="evenodd" clip-rule="evenodd" d="M10.2128 19.5745C15.6181 19.5745 20 15.1926 20 9.78723C20 4.38189 15.6181 0 10.2128 0C4.80743 0 0.425532 4.38189 0.425532 9.78723C0.425532 11.6484 0.945031 13.3882 1.84694 14.8696L0 20L5.67477 18.4611C7.0312 19.1722 8.57501 19.5745 10.2128 19.5745Z" fill="url(#paint0_linear_1187_21793)"/>
<path d="M13.4334 10.8258C12.9237 10.8258 12.6457 11.6728 12.4758 11.9963C12.1954 12.5299 12.1205 12.7278 11.5181 12.8279C10.9158 12.928 7.95882 10.4562 7.25516 8.77745C7.08959 8.38247 7.31725 7.92184 7.68763 7.74558C8.36724 7.42216 9.41754 7.08333 9.0314 6.31328C8.79655 5.84493 8.57431 5.3338 8.27457 4.89639C7.76118 4.1472 7.14286 3.58912 6.79179 3.6181C6.1531 3.67082 5.64439 4.12603 5.17 4.60377C4.61206 5.16563 4.15584 5.89745 4.27415 6.6367C4.51323 8.1306 5.91307 10.3329 6.88446 11.4418C8.49329 13.2784 10.4359 14.6773 12.8619 15.6001C13.741 15.9345 14.5455 15.6617 15.2097 15.0611C15.8587 14.4741 16.5355 13.829 16.3526 13.1359C16.2394 12.7067 15.5186 12.1811 14.9471 11.719C14.3138 11.2071 13.8041 10.8258 13.4334 10.8258Z" fill="white"/>
<defs>
<linearGradient id="paint0_linear_1187_21793" x1="16.0638" y1="2.12766" x2="2.12766" y2="18.5106" gradientUnits="userSpaceOnUse">
<stop stop-color="#2CB742"/>
<stop offset="1" stop-color="#2CB742"/>
</linearGradient>
</defs>
</svg>
