<svg width="20" height="20" viewBox="0 0 20 20" fill="none" xmlns="http://www.w3.org/2000/svg">
<path d="M16.7959 1H3.57143C2.04645 1 1 2.44325 1 4V16C1 17.5567 2.04645 19 3.57143 19H16.7959C18.2305 19 19 17.4645 19 16V4C19 2.53554 18.2305 1 16.7959 1Z" stroke="#4785E7"/>
<path d="M15.3265 10C15.3265 7.21188 13.2297 4.86536 10.3894 4.75392C7.43781 4.63812 5.04082 7.10267 5.04082 10C5.04082 12.8973 7.43781 15.3619 10.3894 15.2461C13.2297 15.1346 15.3265 12.7881 15.3265 10Z" stroke="#4785E7"/>
<path d="M17.1633 4.375C17.1633 3.75368 16.6699 3.25 16.0612 3.25C15.4526 3.25 14.9592 3.75368 14.9592 4.375C14.9592 4.99632 15.4526 5.5 16.0612 5.5C16.6699 5.5 17.1633 4.99632 17.1633 4.375Z" stroke="#4785E7"/>
</svg>
