<svg width="24" height="18" viewBox="0 0 24 18" fill="none" xmlns="http://www.w3.org/2000/svg">
<path d="M14 2V0.5H11V2H14ZM12.5 16V17.5H14V16H12.5ZM3.5 2L3.5 0.5L0.5 0.5L0.5 2L3.5 2ZM23.5 2V0.5H20.5V2H23.5ZM20.5 16V17.5H23.5V16H20.5ZM12.5 14.5C11.7197 14.5 10.7604 14.1202 9.67873 13.2674C8.61347 12.4275 7.5565 11.2263 6.6149 9.84331C5.67708 8.46588 4.88678 6.95672 4.3351 5.54123C3.77442 4.10264 3.5 2.86256 3.5 2L0.5 2C0.5 3.38744 0.913078 5.02236 1.5399 6.63064C2.17572 8.26203 3.07293 9.97162 4.1351 11.5317C5.1935 13.0862 6.44903 14.5413 7.82127 15.6232C9.17713 16.6923 10.7803 17.5 12.5 17.5V14.5ZM12.5 2C11 2 11 2.00001 11 2.00003C11 2.00006 11 2.00009 11 2.00013C11 2.00018 11 2.00023 11 2.0003C11 2.00037 11 2.00044 11 2.00053C11 2.00062 11 2.00072 11 2.00083C11 2.00094 11 2.00106 11 2.00119C11 2.00133 11 2.00147 11 2.00162C11 2.00178 11 2.00194 11 2.00212C11 2.0023 11 2.00249 11 2.00268C11 2.00288 11 2.00309 11 2.00331C11 2.00353 11 2.00376 11 2.00401C11 2.00425 11 2.0045 11 2.00477C11 2.00503 11 2.0053 11 2.00559C11 2.00588 11 2.00617 11 2.00648C11 2.00679 11 2.00711 11 2.00744C11 2.00777 11 2.00811 11 2.00846C11 2.00881 11 2.00917 11 2.00955C11 2.00992 11 2.0103 11 2.0107C11 2.01109 11 2.0115 11 2.01191C11 2.01233 11 2.01276 11 2.0132C11 2.01364 11 2.01408 11 2.01454C11 2.015 11 2.01547 11 2.01596C11 2.01644 11 2.01693 11 2.01743C11 2.01794 11 2.01845 11 2.01897C11 2.0195 11 2.02003 11 2.02058C11 2.02113 11 2.02168 11 2.02225C11 2.02282 11 2.0234 11 2.02399C11 2.02458 11 2.02518 11 2.02579C11 2.0264 11 2.02702 11 2.02765C11 2.02828 11 2.02892 11 2.02958C11 2.03023 11 2.0309 11 2.03157C11 2.03225 11 2.03293 11 2.03363C11 2.03432 11 2.03503 11 2.03575C11 2.03647 11 2.03719 11 2.03793C11 2.03867 11 2.03942 11 2.04018C11 2.04094 11 2.04171 11 2.04249C11 2.04327 11 2.04407 11 2.04487C11 2.04567 11 2.04649 11 2.04731C11 2.04813 11 2.04897 11 2.04981C11 2.05066 11 2.05151 11 2.05238C11 2.05325 11 2.05412 11 2.05501C11 2.0559 11 2.05679 11 2.0577C11 2.05861 11 2.05953 11 2.06046C11 2.06139 11 2.06233 11 2.06328C11 2.06423 11 2.06519 11 2.06616C11 2.06713 11 2.06812 11 2.06911C11 2.0701 11 2.0711 11 2.07212C11 2.07313 11 2.07416 11 2.07519C11 2.07622 11 2.07727 11 2.07833C11 2.07938 11 2.08045 11 2.08152C11 2.0826 11 2.08369 11 2.08478C11 2.08588 11 2.08699 11 2.08811C11 2.08922 11 2.09035 11 2.09149C11 2.09263 11 2.09378 11 2.09494C11 2.0961 11 2.09727 11 2.09845C11 2.09963 11 2.10082 11 2.10202C11 2.10322 11 2.10443 11 2.10566C11 2.10688 11 2.10811 11 2.10935C11 2.1106 11 2.11185 11 2.11311C11 2.11438 11 2.11565 11 2.11693C11 2.11822 11 2.11951 11 2.12082C11 2.12212 11 2.12343 11 2.12476C11 2.12608 11 2.12742 11 2.12877C11 2.13011 11 2.13147 11 2.13283C11 2.1342 11 2.13558 11 2.13696C11 2.13835 11 2.13975 11 2.14115C11 2.14256 11 2.14398 11 2.14541C11 2.14683 11 2.14827 11 2.14972C11 2.15117 11 2.15263 11 2.1541C11 2.15556 11 2.15704 11 2.15853C11 2.16002 11 2.16152 11 2.16303C11 2.16454 11 2.16606 11 2.16759C11 2.16912 11 2.17066 11 2.17221C11 2.17376 11 2.17532 11 2.17689C11 2.17846 11 2.18004 11 2.18163C11 2.18322 11 2.18482 11 2.18643C11 2.18804 11 2.18966 11 2.19129C11 2.19292 11 2.19457 11 2.19622C11 2.19787 11 2.19953 11 2.2012C11 2.20287 11 2.20455 11 2.20624C11 2.20794 11 2.20964 11 2.21135C11 2.21306 11 2.21478 11 2.21651C11 2.21824 11 2.21999 11 2.22174C11 2.22349 11 2.22525 11 2.22702C11 2.22879 11 2.23058 11 2.23237C11 2.23416 11 2.23596 11 2.23777C11 2.23959 11 2.24141 11 2.24324C11 2.24507 11 2.24691 11 2.24876C11 2.25061 11 2.25248 11 2.25435C11 2.25622 11 2.2581 11 2.25999C11 2.26188 11 2.26378 11 2.2657C11 2.26761 11 2.26953 11 2.27146C11 2.27339 11 2.27533 11 2.27728C11 2.27923 11 2.28119 11 2.28316C11 2.28513 11 2.28712 11 2.28911C11 2.2911 11 2.2931 11 2.29511C11 2.29712 11 2.29914 11 2.30117C11 2.3032 11 2.30524 11 2.30728C11 2.30933 11 2.31139 11 2.31346C11 2.31553 11 2.31761 11 2.3197C11 2.32179 11 2.32389 11 2.32599C11 2.3281 11 2.33022 11 2.33235C11 2.33448 11 2.33661 11 2.33876C11 2.34091 11 2.34307 11 2.34523C11 2.3474 11 2.34958 11 2.35176C11 2.35395 11 2.35615 11 2.35835C11 2.36056 11 2.36277 11 2.365C11 2.36722 11 2.36946 11 2.3717C11 2.37395 11 2.3762 11 2.37847C11 2.38073 11 2.38301 11 2.38529C11 2.38757 11 2.38987 11 2.39217C11 2.39447 11 2.39678 11 2.39911C11 2.40143 11 2.40376 11 2.4061C11 2.40844 11 2.41079 11 2.41316C11 2.41552 11 2.41789 11 2.42027C11 2.42265 11 2.42504 11 2.42744C11 2.42983 11 2.43224 11 2.43466C11 2.43708 11 2.43951 11 2.44195C11 2.44438 11 2.44683 11 2.44929C11 2.45174 11 2.45421 11 2.45669C11 2.45916 11 2.46165 11 2.46414C11 2.46664 11 2.46914 11 2.47165C11 2.47417 11 2.47669 11 2.47922C11 2.48176 11 2.4843 11 2.48685C11 2.4894 11 2.49197 11 2.49454C11 2.49711 11 2.49969 11 2.50228C11 2.50487 11 2.50747 11 2.51008C11 2.51268 11 2.5153 11 2.51793C11 2.52056 11 2.5232 11 2.52584C11 2.52849 11 2.53114 11 2.53381C11 2.53648 11 2.53915 11 2.54183C11 2.54452 11 2.54721 11 2.54992C11 2.55262 11 2.55533 11 2.55805C11 2.56078 11 2.56351 11 2.56625C11 2.56899 11 2.57174 11 2.5745C11 2.57726 11 2.58003 11 2.5828C11 2.58558 11 2.58837 11 2.59117C11 2.59396 11 2.59677 11 2.59958C11 2.6024 11 2.60522 11 2.60806C11 2.61089 11 2.61374 11 2.61659C11 2.61944 11 2.6223 11 2.62517C11 2.62804 11 2.63093 11 2.63381C11 2.6367 11 2.6396 11 2.64251C11 2.64542 11 2.64834 11 2.65126C11 2.65419 11 2.65713 11 2.66007C11 2.66302 11 2.66597 11 2.66894C11 2.6719 11 2.67487 11 2.67785C11 2.68084 11 2.68383 11 2.68683C11 2.68983 11 2.69284 11 2.69586C11 2.69888 11 2.7019 11 2.70494C11 2.70798 11 2.71102 11 2.71408C11 2.71714 11 2.7202 11 2.72327C11 2.72635 11 2.72943 11 2.73252C11 2.73562 11 2.73872 11 2.74183C11 2.74494 11 2.74806 11 2.75119C11 2.75431 11 2.75745 11 2.7606C11 2.76374 11 2.7669 11 2.77007C11 2.77323 11 2.7764 11 2.77959C11 2.78277 11 2.78596 11 2.78916C11 2.79236 11 2.79557 11 2.79879C11 2.80201 11 2.80524 11 2.80848C11 2.81172 11 2.81496 11 2.81822C11 2.82147 11 2.82474 11 2.82801C11 2.83128 11 2.83457 11 2.83786C11 2.84115 11 2.84445 11 2.84776C11 2.85107 11 2.85439 11 2.85771C11 2.86104 11 2.86438 11 2.86772C11 2.87107 11 2.87442 11 2.87778C11 2.88115 11 2.88452 11 2.8879C11 2.89128 11 2.89467 11 2.89807C11 2.90147 11 2.90488 11 2.90829C11 2.91171 11 2.91513 11 2.91857C11 2.922 11 2.92545 11 2.9289C11 2.93235 11 2.93581 11 2.93928C11 2.94275 11 2.94623 11 2.94972C11 2.9532 11 2.9567 11 2.9602C11 2.96371 11 2.96722 11 2.97075C11 2.97427 11 2.9778 11 2.98134C11 2.98488 11 2.98843 11 2.99199C11 2.99555 11 2.99911 11 3.00269C11 3.00626 11 3.00985 11 3.01344C11 3.01704 11 3.02064 11 3.02425C11 3.02786 11 3.03148 11 3.03511C11 3.03873 11 3.04237 11 3.04602C11 3.04966 11 3.05332 11 3.05698C11 3.06064 11 3.06432 11 3.068C11 3.07168 11 3.07537 11 3.07906C11 3.08276 11 3.08647 11 3.09018C11 3.0939 11 3.09762 11 3.10136C11 3.10509 11 3.10883 11 3.11258C11 3.11633 11 3.12009 11 3.12385C11 3.12762 11 3.1314 11 3.13518C11 3.13897 11 3.14276 11 3.14656C11 3.15036 11 3.15417 11 3.15799C11 3.16181 11 3.16564 11 3.16948C11 3.17331 11 3.17716 11 3.18101C11 3.18486 11 3.18873 11 3.1926C11 3.19647 11 3.20035 11 3.20423C11 3.20812 11 3.21202 11 3.21592C11 3.21983 11 3.22374 11 3.22766C11 3.23158 11 3.23551 11 3.23945C11 3.24339 11 3.24734 11 3.25129C11 3.25525 11 3.25921 11 3.26319C11 3.26716 11 3.27114 11 3.27513C11 3.27912 11 3.28312 11 3.28712C11 3.29113 11 3.29515 11 3.29917C11 3.30319 11 3.30723 11 3.31127C11 3.31531 11 3.31936 11 3.32341C11 3.32747 11 3.33154 11 3.33561C11 3.33968 11 3.34377 11 3.34786C11 3.35195 11 3.35605 11 3.36016C11 3.36426 11 3.36838 11 3.3725C11 3.37663 11 3.38076 11 3.3849C11 3.38904 11 3.39319 11 3.39735C11 3.40151 11 3.40568 11 3.40985C11 3.41403 11 3.41821 11 3.4224C11 3.42659 11 3.43079 11 3.435C11 3.43921 11 3.44342 11 3.44765C11 3.45187 11 3.45611 11 3.46035C11 3.46459 11 3.46884 11 3.47309C11 3.47735 11 3.48162 11 3.48589C11 3.49017 11 3.49445 11 3.49874C11 3.50303 11 3.50733 11 3.51164C11 3.51594 11 3.52026 11 3.52458C11 3.52891 11 3.53324 11 3.53758C11 3.54192 11 3.54627 11 3.55062C11 3.55498 11 3.55934 11 3.56372C11 3.56809 11 3.57247 11 3.57686C11 3.58125 11 3.58565 11 3.59005C11 3.59446 11 3.59887 11 3.60329C11 3.60771 11 3.61214 11 3.61658C11 3.62102 11 3.62547 11 3.62992C11 3.63438 11 3.63884 11 3.64331C11 3.64778 11 3.65226 11 3.65674C11 3.66123 11 3.66573 11 3.67023C11 3.67473 11 3.67924 11 3.68376C11 3.68828 11 3.69281 11 3.69734C11 3.70188 11 3.70642 11 3.71097C11 3.71552 11 3.72008 11 3.72465C11 3.72922 11 3.73379 11 3.73838C11 3.74296 11 3.74755 11 3.75215C11 3.75675 11 3.76136 11 3.76597C11 3.77059 11 3.77521 11 3.77984C11 3.78447 11 3.78911 11 3.79376C11 3.79841 11 3.80306 11 3.80773C11 3.81239 11 3.81706 11 3.82174C11 3.82642 11 3.83111 11 3.8358C11 3.8405 11 3.8452 11 3.84991C11 3.85462 11 3.85934 11 3.86407C11 3.86879 11 3.87353 11 3.87827C11 3.88301 11 3.88776 11 3.89252C11 3.89728 11 3.90204 11 3.90682C11 3.91159 11 3.91637 11 3.92116C11 3.92595 11 3.93075 11 3.93556C11 3.94036 11 3.94517 11 3.95C11 3.95482 11 3.95965 11 3.96448C11 3.96932 11 3.97416 11 3.97901C11 3.98387 11 3.98873 11 3.99359C11 3.99846 11 4.00334 11 4.00822C11 4.0131 11 4.018 11 4.02289C11 4.02779 11 4.0327 11 4.03761C11 4.04253 11 4.04745 11 4.05238C11 4.05731 11 4.06225 11 4.06719C11 4.07214 11 4.07709 11 4.08205C11 4.08701 11 4.09198 11 4.09696C11 4.10193 11 4.10692 11 4.11191C11 4.1169 11 4.1219 11 4.12691C11 4.13191 11 4.13693 11 4.14195C11 4.14697 11 4.152 11 4.15704C11 4.16208 11 4.16712 11 4.17217C11 4.17723 11 4.18229 11 4.18736C11 4.19242 11 4.1975 11 4.20258C11 4.20767 11 4.21276 11 4.21785C11 4.22295 11 4.22806 11 4.23317C11 4.23829 11 4.24341 11 4.24854C11 4.25367 11 4.2588 11 4.26395C11 4.26909 11 4.27424 11 4.2794C11 4.28456 11 4.28972 11 4.2949C11 4.30007 11 4.30525 11 4.31044C11 4.31563 11 4.32083 11 4.32603C11 4.33124 11 4.33645 11 4.34167C11 4.34689 11 4.35211 11 4.35735C11 4.36258 11 4.36782 11 4.37307C11 4.37832 11 4.38358 11 4.38884C11 4.39411 11 4.39938 11 4.40466C11 4.40993 11 4.41522 11 4.42051C11 4.42581 11 4.43111 11 4.43642C11 4.44173 11 4.44704 11 4.45237C11 4.45769 11 4.46302 11 4.46836C11 4.4737 11 4.47904 11 4.48439C11 4.48975 11 4.49511 11 4.50047C11 4.50584 11 4.51122 11 4.5166C11 4.52198 11 4.52737 11 4.53277C11 4.53817 11 4.54357 11 4.54898C11 4.55439 11 4.55981 11 4.56524C11 4.57066 11 4.5761 11 4.58154C11 4.58698 11 4.59243 11 4.59788C11 4.60334 11 4.6088 11 4.61427C11 4.61974 11 4.62522 11 4.6307C11 4.63619 11 4.64168 11 4.64718C11 4.65268 11 4.65819 11 4.6637C11 4.66921 11 4.67473 11 4.68026C11 4.68579 11 4.69132 11 4.69687C11 4.70241 11 4.70796 11 4.71352C11 4.71907 11 4.72464 11 4.73021C11 4.73578 11 4.74136 11 4.74694C11 4.75253 11 4.75812 11 4.76372C11 4.76932 11 4.77493 11 4.78054C11 4.78616 11 4.79178 11 4.79741C11 4.80304 11 4.80867 11 4.81431C11 4.81996 11 4.82561 11 4.83126C11 4.83692 11 4.84259 11 4.84826C11 4.85393 11 4.85961 11 4.86529C11 4.87098 11 4.87667 11 4.88237C11 4.88807 11 4.89377 11 4.89949C11 4.9052 11 4.91092 11 4.91665C11 4.92238 11 4.92811 11 4.93385C11 4.9396 11 4.94535 11 4.9511C11 4.95686 11 4.96262 11 4.96839C11 4.97416 11 4.97994 11 4.98572C11 4.9915 11 4.9973 11 5.00309C11 5.00889 11 5.0147 11 5.02051C11 5.02632 11 5.03214 11 5.03796C11 5.04379 11 5.04962 11 5.05546C11 5.0613 11 5.06715 11 5.073C11 5.07886 11 5.08472 11 5.09058C11 5.09645 11 5.10232 11 5.10821C11 5.11409 11 5.11997 11 5.12587C11 5.13176 11 5.13767 11 5.14358C11 5.14948 11 5.1554 11 5.16132C11 5.16724 11 5.17317 11 5.17911C11 5.18505 11 5.19099 11 5.19694C11 5.20289 11 5.20885 11 5.21481C11 5.22077 11 5.22674 11 5.23272C11 5.2387 11 5.24468 11 5.25067C11 5.25666 11 5.26266 11 5.26866C11 5.27467 11 5.28068 11 5.2867C11 5.29272 11 5.29874 11 5.30477C11 5.3108 11 5.31684 11 5.32289C11 5.32893 11 5.33498 11 5.34104C11 5.3471 11 5.35317 11 5.35924C11 5.36531 11 5.37139 11 5.37747C11 5.38356 11 5.38965 11 5.39575C11 5.40185 11 5.40795 11 5.41407C11 5.42018 11 5.4263 11 5.43242C11 5.43855 11 5.44468 11 5.45082C11 5.45696 11 5.4631 11 5.46926C11 5.47541 11 5.48157 11 5.48773C11 5.4939 11 5.50007 11 5.50625C11 5.51243 11 5.51861 11 5.5248C11 5.531 11 5.53719 11 5.5434C11 5.5496 11 5.55582 11 5.56203C11 5.56825 11 5.57448 11 5.58071C11 5.58694 11 5.59318 11 5.59942C11 5.60567 11 5.61192 11 5.61818C11 5.62443 11 5.6307 11 5.63697C11 5.64324 11 5.64952 11 5.6558C11 5.66208 11 5.66837 11 5.67467C11 5.68097 11 5.68727 11 5.69358C11 5.69989 11 5.70621 11 5.71253C11 5.71885 11 5.72518 11 5.73152C11 5.73785 11 5.7442 11 5.75054C11 5.75689 11 5.76325 11 5.76961C11 5.77597 11 5.78234 11 5.78871C11 5.79509 11 5.80147 11 5.80786C11 5.81424 11 5.82064 11 5.82704C11 5.83344 11 5.83984 11 5.84626C11 5.85267 11 5.85909 11 5.86551C11 5.87194 11 5.87837 11 5.88481C11 5.89125 11 5.89769 11 5.90414C11 5.9106 11 5.91705 11 5.92352C11 5.92998 11 5.93645 11 5.94293C11 5.9494 11 5.95589 11 5.96238C11 5.96887 11 5.97536 11 5.98186C11 5.98836 11 5.99487 11 6.00139C11 6.0079 11 6.01442 11 6.02095C11 6.02748 11 6.03401 11 6.04055C11 6.04709 11 6.05363 11 6.06018C11 6.06674 11 6.07329 11 6.07986C11 6.08642 11 6.09299 11 6.09957C11 6.10615 11 6.11273 11 6.11932C11 6.12591 11 6.13251 11 6.13911C11 6.14571 11 6.15232 11 6.15893C11 6.16555 11 6.17217 11 6.17879C11 6.18542 11 6.19205 11 6.19869C11 6.20533 11 6.21197 11 6.21862C11 6.22528 11 6.23193 11 6.2386C11 6.24526 11 6.25193 11 6.25861C11 6.26528 11 6.27196 11 6.27865C11 6.28534 11 6.29203 11 6.29873C11 6.30543 11 6.31214 11 6.31885C11 6.32556 11 6.33228 11 6.33901C11 6.34573 11 6.35246 11 6.3592C11 6.36593 11 6.37268 11 6.37943C11 6.38617 11 6.39293 11 6.39969C11 6.40645 11 6.41322 11 6.41999C11 6.42676 11 6.43354 11 6.44033C11 6.44711 11 6.4539 11 6.4607C11 6.4675 11 6.4743 11 6.48111C11 6.48792 11 6.49473 11 6.50155C11 6.50837 11 6.5152 11 6.52203C11 6.52886 11 6.5357 11 6.54255C11 6.54939 11 6.55624 11 6.5631C11 6.56996 11 6.57682 11 6.58369C11 6.59056 11 6.59743 11 6.60431C11 6.61119 11 6.61808 11 6.62497C11 6.63186 11 6.63876 11 6.64566C11 6.65256 11 6.65947 11 6.66639C11 6.67331 11 6.68023 11 6.68715C11 6.69408 11 6.70101 11 6.70795C11 6.71489 11 6.72184 11 6.72879C11 6.73574 11 6.74269 11 6.74966C11 6.75662 11 6.76359 11 6.77056C11 6.77753 11 6.78451 11 6.7915C11 6.79848 11 6.80548 11 6.81247C11 6.81947 11 6.82647 11 6.83348C11 6.84049 11 6.8475 11 6.85452C11 6.86154 11 6.86857 11 6.8756C11 6.88263 11 6.88967 11 6.89671C11 6.90376 11 6.9108 11 6.91786C11 6.92491 11 6.93197 11 6.93904C11 6.94611 11 6.95318 11 6.96025C11 6.96733 11 6.97441 11 6.9815C11 6.98859 11 6.99569 11 7.00279C11 7.00989 11 7.01699 11 7.0241C11 7.03121 11 7.03833 11 7.04545C11 7.05258 11 7.0597 11 7.06684C11 7.07397 11 7.08111 11 7.08826C11 7.0954 11 7.10255 11 7.10971C11 7.11686 11 7.12403 11 7.13119C11 7.13836 11 7.14553 11 7.15271C11 7.15989 11 7.16707 11 7.17426C11 7.18145 11 7.18865 11 7.19585C11 7.20305 11 7.21026 11 7.21747C11 7.22468 11 7.2319 11 7.23912C11 7.24634 11 7.25357 11 7.26081C11 7.26804 11 7.27528 11 7.28253C11 7.28977 11 7.29702 11 7.30428C11 7.31153 11 7.31879 11 7.32606C11 7.33333 11 7.3406 11 7.34788C11 7.35516 11 7.36244 11 7.36973C11 7.37702 11 7.38431 11 7.39161C11 7.39891 11 7.40622 11 7.41353C11 7.42084 11 7.42815 11 7.43547C11 7.44279 11 7.45012 11 7.45745C11 7.46479 11 7.47212 11 7.47947C11 7.48681 11 7.49416 11 7.50151C11 7.50886 11 7.51622 11 7.52359C11 7.53095 11 7.53832 11 7.5457C11 7.55307 11 7.56045 11 7.56784C11 7.57522 11 7.58261 11 7.59001C11 7.59741 11 7.60481 11 7.61222C11 7.61962 11 7.62704 11 7.63445C11 7.64187 11 7.64929 11 7.65672C11 7.66415 11 7.67158 11 7.67902C11 7.68646 11 7.6939 11 7.70135C11 7.7088 11 7.71626 11 7.72372C11 7.73118 11 7.73864 11 7.74611C11 7.75358 11 7.76106 11 7.76854C11 7.77602 11 7.7835 11 7.791C11 7.79849 11 7.80598 11 7.81348C11 7.82099 11 7.82849 11 7.836C11 7.84352 11 7.85103 11 7.85856C11 7.86608 11 7.8736 11 7.88114C11 7.88867 11 7.89621 11 7.90375C11 7.91129 11 7.91884 11 7.92639C11 7.93395 11 7.9415 11 7.94907C11 7.95663 11 7.9642 11 7.97177C11 7.97935 11 7.98692 11 7.99451C11 8.00209 11 8.00968 11 8.01727C11 8.02487 11 8.03247 11 8.04007C11 8.04768 11 8.05528 11 8.0629C11 8.07051 11 8.07813 11 8.08576C11 8.09338 11 8.10101 11 8.10864C11 8.11628 11 8.12392 11 8.13156C11 8.13921 11 8.14685 11 8.15451C11 8.16216 11 8.16982 11 8.17749C11 8.18515 11 8.19282 11 8.20049C11 8.20817 11 8.21585 11 8.22353C11 8.23122 11 8.2389 11 8.2466C11 8.25429 11 8.26199 11 8.2697C11 8.2774 11 8.28511 11 8.29282C11 8.30054 11 8.30825 11 8.31598C11 8.3237 11 8.33143 11 8.33916C11 8.3469 11 8.35463 11 8.36238C11 8.37012 11 8.37787 11 8.38562C11 8.39337 11 8.40113 11 8.4089C11 8.41666 11 8.42443 11 8.4322C11 8.43997 11 8.44775 11 8.45553C11 8.46331 11 8.4711 11 8.47889C11 8.48668 11 8.49448 11 8.50228C11 8.51008 11 8.51789 11 8.5257C11 8.53351 11 8.54132 11 8.54914C11 8.55697 11 8.56479 11 8.57262C11 8.58045 11 8.58829 11 8.59612C11 8.60396 11 8.61181 11 8.61966C11 8.62751 11 8.63536 11 8.64322C11 8.65108 11 8.65894 11 8.66681C11 8.67468 11 8.68255 11 8.69043C11 8.6983 11 8.70619 11 8.71407C11 8.72196 11 8.72985 11 8.73775C11 8.74564 11 8.75354 11 8.76145C11 8.76935 11 8.77726 11 8.78518C11 8.79309 11 8.80101 11 8.80894C11 8.81686 11 8.82479 11 8.83272C11 8.84066 11 8.8486 11 8.85654C11 8.86448 11 8.87243 11 8.88038C11 8.88833 11 8.89629 11 8.90425C11 8.91221 11 8.92018 11 8.92815C11 8.93612 11 8.94409 11 8.95207C11 8.96005 11 8.96803 11 8.97602C11 8.98401 11 8.992 11 9H14C14 8.992 14 8.98401 14 8.97602C14 8.96803 14 8.96005 14 8.95207C14 8.94409 14 8.93612 14 8.92815C14 8.92018 14 8.91221 14 8.90425C14 8.89629 14 8.88833 14 8.88038C14 8.87243 14 8.86448 14 8.85654C14 8.8486 14 8.84066 14 8.83272C14 8.82479 14 8.81686 14 8.80894C14 8.80101 14 8.79309 14 8.78518C14 8.77726 14 8.76935 14 8.76145C14 8.75354 14 8.74564 14 8.73775C14 8.72985 14 8.72196 14 8.71407C14 8.70619 14 8.6983 14 8.69043C14 8.68255 14 8.67468 14 8.66681C14 8.65894 14 8.65108 14 8.64322C14 8.63536 14 8.62751 14 8.61966C14 8.61181 14 8.60396 14 8.59612C14 8.58829 14 8.58045 14 8.57262C14 8.56479 14 8.55697 14 8.54914C14 8.54132 14 8.53351 14 8.5257C14 8.51789 14 8.51008 14 8.50228C14 8.49448 14 8.48668 14 8.47889C14 8.4711 14 8.46331 14 8.45553C14 8.44775 14 8.43997 14 8.4322C14 8.42443 14 8.41666 14 8.4089C14 8.40113 14 8.39337 14 8.38562C14 8.37787 14 8.37012 14 8.36238C14 8.35463 14 8.3469 14 8.33916C14 8.33143 14 8.3237 14 8.31598C14 8.30825 14 8.30054 14 8.29282C14 8.28511 14 8.2774 14 8.2697C14 8.26199 14 8.25429 14 8.2466C14 8.2389 14 8.23122 14 8.22353C14 8.21585 14 8.20817 14 8.20049C14 8.19282 14 8.18515 14 8.17749C14 8.16982 14 8.16216 14 8.15451C14 8.14685 14 8.13921 14 8.13156C14 8.12392 14 8.11628 14 8.10864C14 8.10101 14 8.09338 14 8.08576C14 8.07813 14 8.07051 14 8.0629C14 8.05528 14 8.04768 14 8.04007C14 8.03247 14 8.02487 14 8.01727C14 8.00968 14 8.00209 14 7.99451C14 7.98692 14 7.97935 14 7.97177C14 7.9642 14 7.95663 14 7.94907C14 7.9415 14 7.93395 14 7.92639C14 7.91884 14 7.91129 14 7.90375C14 7.89621 14 7.88867 14 7.88114C14 7.8736 14 7.86608 14 7.85856C14 7.85103 14 7.84352 14 7.836C14 7.82849 14 7.82099 14 7.81348C14 7.80598 14 7.79849 14 7.791C14 7.7835 14 7.77602 14 7.76854C14 7.76106 14 7.75358 14 7.74611C14 7.73864 14 7.73118 14 7.72372C14 7.71626 14 7.7088 14 7.70135C14 7.6939 14 7.68646 14 7.67902C14 7.67158 14 7.66415 14 7.65672C14 7.64929 14 7.64187 14 7.63445C14 7.62704 14 7.61962 14 7.61222C14 7.60481 14 7.59741 14 7.59001C14 7.58261 14 7.57522 14 7.56784C14 7.56045 14 7.55307 14 7.5457C14 7.53832 14 7.53095 14 7.52359C14 7.51622 14 7.50886 14 7.50151C14 7.49416 14 7.48681 14 7.47947C14 7.47212 14 7.46479 14 7.45745C14 7.45012 14 7.44279 14 7.43547C14 7.42815 14 7.42084 14 7.41353C14 7.40622 14 7.39891 14 7.39161C14 7.38431 14 7.37702 14 7.36973C14 7.36244 14 7.35516 14 7.34788C14 7.3406 14 7.33333 14 7.32606C14 7.31879 14 7.31153 14 7.30428C14 7.29702 14 7.28977 14 7.28253C14 7.27528 14 7.26804 14 7.26081C14 7.25357 14 7.24634 14 7.23912C14 7.2319 14 7.22468 14 7.21747C14 7.21026 14 7.20305 14 7.19585C14 7.18865 14 7.18145 14 7.17426C14 7.16707 14 7.15989 14 7.15271C14 7.14553 14 7.13836 14 7.13119C14 7.12403 14 7.11686 14 7.10971C14 7.10255 14 7.0954 14 7.08826C14 7.08111 14 7.07397 14 7.06684C14 7.0597 14 7.05258 14 7.04545C14 7.03833 14 7.03121 14 7.0241C14 7.01699 14 7.00989 14 7.00279C14 6.99569 14 6.98859 14 6.9815C14 6.97441 14 6.96733 14 6.96025C14 6.95318 14 6.94611 14 6.93904C14 6.93197 14 6.92491 14 6.91786C14 6.9108 14 6.90376 14 6.89671C14 6.88967 14 6.88263 14 6.8756C14 6.86857 14 6.86154 14 6.85452C14 6.8475 14 6.84049 14 6.83348C14 6.82647 14 6.81947 14 6.81247C14 6.80548 14 6.79848 14 6.7915C14 6.78451 14 6.77753 14 6.77056C14 6.76359 14 6.75662 14 6.74966C14 6.74269 14 6.73574 14 6.72879C14 6.72184 14 6.71489 14 6.70795C14 6.70101 14 6.69408 14 6.68715C14 6.68023 14 6.67331 14 6.66639C14 6.65947 14 6.65256 14 6.64566C14 6.63876 14 6.63186 14 6.62497C14 6.61808 14 6.61119 14 6.60431C14 6.59743 14 6.59056 14 6.58369C14 6.57682 14 6.56996 14 6.5631C14 6.55624 14 6.54939 14 6.54255C14 6.5357 14 6.52886 14 6.52203C14 6.5152 14 6.50837 14 6.50155C14 6.49473 14 6.48792 14 6.48111C14 6.4743 14 6.4675 14 6.4607C14 6.4539 14 6.44711 14 6.44033C14 6.43354 14 6.42676 14 6.41999C14 6.41322 14 6.40645 14 6.39969C14 6.39293 14 6.38617 14 6.37943C14 6.37268 14 6.36593 14 6.3592C14 6.35246 14 6.34573 14 6.33901C14 6.33228 14 6.32556 14 6.31885C14 6.31214 14 6.30543 14 6.29873C14 6.29203 14 6.28534 14 6.27865C14 6.27196 14 6.26528 14 6.25861C14 6.25193 14 6.24526 14 6.2386C14 6.23193 14 6.22528 14 6.21862C14 6.21197 14 6.20533 14 6.19869C14 6.19205 14 6.18542 14 6.17879C14 6.17217 14 6.16555 14 6.15893C14 6.15232 14 6.14571 14 6.13911C14 6.13251 14 6.12591 14 6.11932C14 6.11273 14 6.10615 14 6.09957C14 6.09299 14 6.08642 14 6.07986C14 6.07329 14 6.06674 14 6.06018C14 6.05363 14 6.04709 14 6.04055C14 6.03401 14 6.02748 14 6.02095C14 6.01442 14 6.0079 14 6.00139C14 5.99487 14 5.98836 14 5.98186C14 5.97536 14 5.96887 14 5.96238C14 5.95589 14 5.9494 14 5.94293C14 5.93645 14 5.92998 14 5.92352C14 5.91705 14 5.9106 14 5.90414C14 5.89769 14 5.89125 14 5.88481C14 5.87837 14 5.87194 14 5.86551C14 5.85909 14 5.85267 14 5.84626C14 5.83984 14 5.83344 14 5.82704C14 5.82064 14 5.81424 14 5.80786C14 5.80147 14 5.79509 14 5.78871C14 5.78234 14 5.77597 14 5.76961C14 5.76325 14 5.75689 14 5.75054C14 5.7442 14 5.73785 14 5.73152C14 5.72518 14 5.71885 14 5.71253C14 5.70621 14 5.69989 14 5.69358C14 5.68727 14 5.68097 14 5.67467C14 5.66837 14 5.66208 14 5.6558C14 5.64952 14 5.64324 14 5.63697C14 5.6307 14 5.62443 14 5.61818C14 5.61192 14 5.60567 14 5.59942C14 5.59318 14 5.58694 14 5.58071C14 5.57448 14 5.56825 14 5.56203C14 5.55582 14 5.5496 14 5.5434C14 5.53719 14 5.531 14 5.5248C14 5.51861 14 5.51243 14 5.50625C14 5.50007 14 5.4939 14 5.48773C14 5.48157 14 5.47541 14 5.46926C14 5.4631 14 5.45696 14 5.45082C14 5.44468 14 5.43855 14 5.43242C14 5.4263 14 5.42018 14 5.41407C14 5.40795 14 5.40185 14 5.39575C14 5.38965 14 5.38356 14 5.37747C14 5.37139 14 5.36531 14 5.35924C14 5.35317 14 5.3471 14 5.34104C14 5.33498 14 5.32893 14 5.32289C14 5.31684 14 5.3108 14 5.30477C14 5.29874 14 5.29272 14 5.2867C14 5.28068 14 5.27467 14 5.26866C14 5.26266 14 5.25666 14 5.25067C14 5.24468 14 5.2387 14 5.23272C14 5.22674 14 5.22077 14 5.21481C14 5.20885 14 5.20289 14 5.19694C14 5.19099 14 5.18505 14 5.17911C14 5.17317 14 5.16724 14 5.16132C14 5.1554 14 5.14948 14 5.14358C14 5.13767 14 5.13176 14 5.12587C14 5.11997 14 5.11409 14 5.10821C14 5.10232 14 5.09645 14 5.09058C14 5.08472 14 5.07886 14 5.073C14 5.06715 14 5.0613 14 5.05546C14 5.04962 14 5.04379 14 5.03796C14 5.03214 14 5.02632 14 5.02051C14 5.0147 14 5.00889 14 5.00309C14 4.9973 14 4.9915 14 4.98572C14 4.97994 14 4.97416 14 4.96839C14 4.96262 14 4.95686 14 4.9511C14 4.94535 14 4.9396 14 4.93385C14 4.92811 14 4.92238 14 4.91665C14 4.91092 14 4.9052 14 4.89949C14 4.89377 14 4.88807 14 4.88237C14 4.87667 14 4.87098 14 4.86529C14 4.85961 14 4.85393 14 4.84826C14 4.84259 14 4.83692 14 4.83126C14 4.82561 14 4.81996 14 4.81431C14 4.80867 14 4.80304 14 4.79741C14 4.79178 14 4.78616 14 4.78054C14 4.77493 14 4.76932 14 4.76372C14 4.75812 14 4.75253 14 4.74694C14 4.74136 14 4.73578 14 4.73021C14 4.72464 14 4.71907 14 4.71352C14 4.70796 14 4.70241 14 4.69687C14 4.69132 14 4.68579 14 4.68026C14 4.67473 14 4.66921 14 4.6637C14 4.65819 14 4.65268 14 4.64718C14 4.64168 14 4.63619 14 4.6307C14 4.62522 14 4.61974 14 4.61427C14 4.6088 14 4.60334 14 4.59788C14 4.59243 14 4.58698 14 4.58154C14 4.5761 14 4.57066 14 4.56524C14 4.55981 14 4.55439 14 4.54898C14 4.54357 14 4.53817 14 4.53277C14 4.52737 14 4.52198 14 4.5166C14 4.51122 14 4.50584 14 4.50047C14 4.49511 14 4.48975 14 4.48439C14 4.47904 14 4.4737 14 4.46836C14 4.46302 14 4.45769 14 4.45237C14 4.44704 14 4.44173 14 4.43642C14 4.43111 14 4.42581 14 4.42051C14 4.41522 14 4.40993 14 4.40466C14 4.39938 14 4.39411 14 4.38884C14 4.38358 14 4.37832 14 4.37307C14 4.36782 14 4.36258 14 4.35735C14 4.35211 14 4.34689 14 4.34167C14 4.33645 14 4.33124 14 4.32603C14 4.32083 14 4.31563 14 4.31044C14 4.30525 14 4.30007 14 4.2949C14 4.28972 14 4.28456 14 4.2794C14 4.27424 14 4.26909 14 4.26395C14 4.2588 14 4.25367 14 4.24854C14 4.24341 14 4.23829 14 4.23317C14 4.22806 14 4.22295 14 4.21785C14 4.21276 14 4.20767 14 4.20258C14 4.1975 14 4.19242 14 4.18736C14 4.18229 14 4.17723 14 4.17217C14 4.16712 14 4.16208 14 4.15704C14 4.152 14 4.14697 14 4.14195C14 4.13693 14 4.13191 14 4.12691C14 4.1219 14 4.1169 14 4.11191C14 4.10692 14 4.10193 14 4.09696C14 4.09198 14 4.08701 14 4.08205C14 4.07709 14 4.07214 14 4.06719C14 4.06225 14 4.05731 14 4.05238C14 4.04745 14 4.04253 14 4.03761C14 4.0327 14 4.02779 14 4.02289C14 4.018 14 4.0131 14 4.00822C14 4.00334 14 3.99846 14 3.99359C14 3.98873 14 3.98387 14 3.97901C14 3.97416 14 3.96932 14 3.96448C14 3.95965 14 3.95482 14 3.95C14 3.94517 14 3.94036 14 3.93556C14 3.93075 14 3.92595 14 3.92116C14 3.91637 14 3.91159 14 3.90682C14 3.90204 14 3.89728 14 3.89252C14 3.88776 14 3.88301 14 3.87827C14 3.87353 14 3.86879 14 3.86407C14 3.85934 14 3.85462 14 3.84991C14 3.8452 14 3.8405 14 3.8358C14 3.83111 14 3.82642 14 3.82174C14 3.81706 14 3.81239 14 3.80773C14 3.80306 14 3.79841 14 3.79376C14 3.78911 14 3.78447 14 3.77984C14 3.77521 14 3.77059 14 3.76597C14 3.76136 14 3.75675 14 3.75215C14 3.74755 14 3.74296 14 3.73838C14 3.73379 14 3.72922 14 3.72465C14 3.72008 14 3.71552 14 3.71097C14 3.70642 14 3.70188 14 3.69734C14 3.69281 14 3.68828 14 3.68376C14 3.67924 14 3.67473 14 3.67023C14 3.66573 14 3.66123 14 3.65674C14 3.65226 14 3.64778 14 3.64331C14 3.63884 14 3.63438 14 3.62992C14 3.62547 14 3.62102 14 3.61658C14 3.61214 14 3.60771 14 3.60329C14 3.59887 14 3.59446 14 3.59005C14 3.58565 14 3.58125 14 3.57686C14 3.57247 14 3.56809 14 3.56372C14 3.55934 14 3.55498 14 3.55062C14 3.54627 14 3.54192 14 3.53758C14 3.53324 14 3.52891 14 3.52458C14 3.52026 14 3.51594 14 3.51164C14 3.50733 14 3.50303 14 3.49874C14 3.49445 14 3.49017 14 3.48589C14 3.48162 14 3.47735 14 3.47309C14 3.46884 14 3.46459 14 3.46035C14 3.45611 14 3.45187 14 3.44765C14 3.44342 14 3.43921 14 3.435C14 3.43079 14 3.42659 14 3.4224C14 3.41821 14 3.41403 14 3.40985C14 3.40568 14 3.40151 14 3.39735C14 3.39319 14 3.38904 14 3.3849C14 3.38076 14 3.37663 14 3.3725C14 3.36838 14 3.36426 14 3.36016C14 3.35605 14 3.35195 14 3.34786C14 3.34377 14 3.33968 14 3.33561C14 3.33154 14 3.32747 14 3.32341C14 3.31936 14 3.31531 14 3.31127C14 3.30723 14 3.30319 14 3.29917C14 3.29515 14 3.29113 14 3.28712C14 3.28312 14 3.27912 14 3.27513C14 3.27114 14 3.26716 14 3.26319C14 3.25921 14 3.25525 14 3.25129C14 3.24734 14 3.24339 14 3.23945C14 3.23551 14 3.23158 14 3.22766C14 3.22374 14 3.21983 14 3.21592C14 3.21202 14 3.20812 14 3.20423C14 3.20035 14 3.19647 14 3.1926C14 3.18873 14 3.18486 14 3.18101C14 3.17716 14 3.17331 14 3.16948C14 3.16564 14 3.16181 14 3.15799C14 3.15417 14 3.15036 14 3.14656C14 3.14276 14 3.13897 14 3.13518C14 3.1314 14 3.12762 14 3.12385C14 3.12009 14 3.11633 14 3.11258C14 3.10883 14 3.10509 14 3.10136C14 3.09762 14 3.0939 14 3.09018C14 3.08647 14 3.08276 14 3.07906C14 3.07537 14 3.07168 14 3.068C14 3.06432 14 3.06064 14 3.05698C14 3.05332 14 3.04966 14 3.04602C14 3.04237 14 3.03873 14 3.03511C14 3.03148 14 3.02786 14 3.02425C14 3.02064 14 3.01704 14 3.01344C14 3.00985 14 3.00626 14 3.00269C14 2.99911 14 2.99555 14 2.99199C14 2.98843 14 2.98488 14 2.98134C14 2.9778 14 2.97427 14 2.97075C14 2.96722 14 2.96371 14 2.9602C14 2.9567 14 2.9532 14 2.94972C14 2.94623 14 2.94275 14 2.93928C14 2.93581 14 2.93235 14 2.9289C14 2.92545 14 2.922 14 2.91857C14 2.91513 14 2.91171 14 2.90829C14 2.90488 14 2.90147 14 2.89807C14 2.89467 14 2.89128 14 2.8879C14 2.88452 14 2.88115 14 2.87778C14 2.87442 14 2.87107 14 2.86772C14 2.86438 14 2.86104 14 2.85771C14 2.85439 14 2.85107 14 2.84776C14 2.84445 14 2.84115 14 2.83786C14 2.83457 14 2.83128 14 2.82801C14 2.82474 14 2.82147 14 2.81822C14 2.81496 14 2.81172 14 2.80848C14 2.80524 14 2.80201 14 2.79879C14 2.79557 14 2.79236 14 2.78916C14 2.78596 14 2.78277 14 2.77959C14 2.7764 14 2.77323 14 2.77007C14 2.7669 14 2.76374 14 2.7606C14 2.75745 14 2.75431 14 2.75119C14 2.74806 14 2.74494 14 2.74183C14 2.73872 14 2.73562 14 2.73252C14 2.72943 14 2.72635 14 2.72327C14 2.7202 14 2.71714 14 2.71408C14 2.71102 14 2.70798 14 2.70494C14 2.7019 14 2.69888 14 2.69586C14 2.69284 14 2.68983 14 2.68683C14 2.68383 14 2.68084 14 2.67785C14 2.67487 14 2.6719 14 2.66894C14 2.66597 14 2.66302 14 2.66007C14 2.65713 14 2.65419 14 2.65126C14 2.64834 14 2.64542 14 2.64251C14 2.6396 14 2.6367 14 2.63381C14 2.63093 14 2.62804 14 2.62517C14 2.6223 14 2.61944 14 2.61659C14 2.61374 14 2.61089 14 2.60806C14 2.60522 14 2.6024 14 2.59958C14 2.59677 14 2.59396 14 2.59117C14 2.58837 14 2.58558 14 2.5828C14 2.58003 14 2.57726 14 2.5745C14 2.57174 14 2.56899 14 2.56625C14 2.56351 14 2.56078 14 2.55805C14 2.55533 14 2.55262 14 2.54992C14 2.54721 14 2.54452 14 2.54183C14 2.53915 14 2.53648 14 2.53381C14 2.53114 14 2.52849 14 2.52584C14 2.5232 14 2.52056 14 2.51793C14 2.5153 14 2.51268 14 2.51008C14 2.50747 14 2.50487 14 2.50228C14 2.49969 14 2.49711 14 2.49454C14 2.49197 14 2.4894 14 2.48685C14 2.4843 14 2.48176 14 2.47922C14 2.47669 14 2.47417 14 2.47165C14 2.46914 14 2.46664 14 2.46414C14 2.46165 14 2.45916 14 2.45669C14 2.45421 14 2.45174 14 2.44929C14 2.44683 14 2.44438 14 2.44195C14 2.43951 14 2.43708 14 2.43466C14 2.43224 14 2.42983 14 2.42744C14 2.42504 14 2.42265 14 2.42027C14 2.41789 14 2.41552 14 2.41316C14 2.41079 14 2.40844 14 2.4061C14 2.40376 14 2.40143 14 2.39911C14 2.39678 14 2.39447 14 2.39217C14 2.38987 14 2.38757 14 2.38529C14 2.38301 14 2.38073 14 2.37847C14 2.3762 14 2.37395 14 2.3717C14 2.36946 14 2.36722 14 2.365C14 2.36277 14 2.36056 14 2.35835C14 2.35615 14 2.35395 14 2.35176C14 2.34958 14 2.3474 14 2.34523C14 2.34307 14 2.34091 14 2.33876C14 2.33661 14 2.33448 14 2.33235C14 2.33022 14 2.3281 14 2.32599C14 2.32389 14 2.32179 14 2.3197C14 2.31761 14 2.31553 14 2.31346C14 2.31139 14 2.30933 14 2.30728C14 2.30524 14 2.3032 14 2.30117C14 2.29914 14 2.29712 14 2.29511C14 2.2931 14 2.2911 14 2.28911C14 2.28712 14 2.28513 14 2.28316C14 2.28119 14 2.27923 14 2.27728C14 2.27533 14 2.27339 14 2.27146C14 2.26953 14 2.26761 14 2.2657C14 2.26378 14 2.26188 14 2.25999C14 2.2581 14 2.25622 14 2.25435C14 2.25248 14 2.25061 14 2.24876C14 2.24691 14 2.24507 14 2.24324C14 2.24141 14 2.23959 14 2.23777C14 2.23596 14 2.23416 14 2.23237C14 2.23058 14 2.22879 14 2.22702C14 2.22525 14 2.22349 14 2.22174C14 2.21999 14 2.21824 14 2.21651C14 2.21478 14 2.21306 14 2.21135C14 2.20964 14 2.20794 14 2.20624C14 2.20455 14 2.20287 14 2.2012C14 2.19953 14 2.19787 14 2.19622C14 2.19457 14 2.19292 14 2.19129C14 2.18966 14 2.18804 14 2.18643C14 2.18482 14 2.18322 14 2.18163C14 2.18004 14 2.17846 14 2.17689C14 2.17532 14 2.17376 14 2.17221C14 2.17066 14 2.16912 14 2.16759C14 2.16606 14 2.16454 14 2.16303C14 2.16152 14 2.16002 14 2.15853C14 2.15704 14 2.15556 14 2.1541C14 2.15263 14 2.15117 14 2.14972C14 2.14827 14 2.14683 14 2.14541C14 2.14398 14 2.14256 14 2.14115C14 2.13975 14 2.13835 14 2.13696C14 2.13558 14 2.1342 14 2.13283C14 2.13147 14 2.13011 14 2.12877C14 2.12742 14 2.12608 14 2.12476C14 2.12343 14 2.12212 14 2.12082C14 2.11951 14 2.11822 14 2.11693C14 2.11565 14 2.11438 14 2.11311C14 2.11185 14 2.1106 14 2.10935C14 2.10811 14 2.10688 14 2.10566C14 2.10443 14 2.10322 14 2.10202C14 2.10082 14 2.09963 14 2.09845C14 2.09727 14 2.0961 14 2.09494C14 2.09378 14 2.09263 14 2.09149C14 2.09035 14 2.08922 14 2.08811C14 2.08699 14 2.08588 14 2.08478C14 2.08369 14 2.0826 14 2.08152C14 2.08045 14 2.07938 14 2.07833C14 2.07727 14 2.07622 14 2.07519C14 2.07416 14 2.07313 14 2.07212C14 2.0711 14 2.0701 14 2.06911C14 2.06812 14 2.06713 14 2.06616C14 2.06519 14 2.06423 14 2.06328C14 2.06233 14 2.06139 14 2.06046C14 2.05953 14 2.05861 14 2.0577C14 2.05679 14 2.0559 14 2.05501C14 2.05412 14 2.05325 14 2.05238C14 2.05151 14 2.05066 14 2.04981C14 2.04897 14 2.04813 14 2.04731C14 2.04649 14 2.04567 14 2.04487C14 2.04407 14 2.04327 14 2.04249C14 2.04171 14 2.04094 14 2.04018C14 2.03942 14 2.03867 14 2.03793C14 2.03719 14 2.03647 14 2.03575C14 2.03503 14 2.03432 14 2.03363C14 2.03293 14 2.03225 14 2.03157C14 2.0309 14 2.03023 14 2.02958C14 2.02892 14 2.02828 14 2.02765C14 2.02702 14 2.0264 14 2.02579C14 2.02518 14 2.02458 14 2.02399C14 2.0234 14 2.02282 14 2.02225C14 2.02168 14 2.02113 14 2.02058C14 2.02003 14 2.0195 14 2.01897C14 2.01845 14 2.01794 14 2.01743C14 2.01693 14 2.01644 14 2.01596C14 2.01547 14 2.015 14 2.01454C14 2.01408 14 2.01364 14 2.0132C14 2.01276 14 2.01233 14 2.01191C14 2.0115 14 2.01109 14 2.0107C14 2.0103 14 2.00992 14 2.00955C14 2.00917 14 2.00881 14 2.00846C14 2.00811 14 2.00777 14 2.00744C14 2.00711 14 2.00679 14 2.00648C14 2.00617 14 2.00588 14 2.00559C14 2.0053 14 2.00503 14 2.00477C14 2.0045 14 2.00425 14 2.00401C14 2.00376 14 2.00353 14 2.00331C14 2.00309 14 2.00288 14 2.00268C14 2.00249 14 2.0023 14 2.00212C14 2.00194 14 2.00178 14 2.00162C14 2.00147 14 2.00133 14 2.00119C14 2.00106 14 2.00094 14 2.00083C14 2.00072 14 2.00062 14 2.00053C14 2.00044 14 2.00037 14 2.0003C14 2.00023 14 2.00018 14 2.00013C14 2.00009 14 2.00006 14 2.00003C14 2.00001 14 2 12.5 2ZM11 9C11 9.00414 11 9.00829 11 9.01244C11 9.01659 11 9.02075 11 9.02491C11 9.02907 11 9.03323 11 9.0374C11 9.04157 11 9.04574 11 9.04991C11 9.05409 11 9.05827 11 9.06245C11 9.06663 11 9.07082 11 9.07501C11 9.0792 11 9.08339 11 9.08759C11 9.09179 11 9.09599 11 9.1002C11 9.10441 11 9.10862 11 9.11283C11 9.11704 11 9.12126 11 9.12548C11 9.12971 11 9.13393 11 9.13816C11 9.14239 11 9.14662 11 9.15086C11 9.1551 11 9.15934 11 9.16358C11 9.16783 11 9.17207 11 9.17633C11 9.18058 11 9.18483 11 9.18909C11 9.19335 11 9.19762 11 9.20188C11 9.20615 11 9.21042 11 9.21469C11 9.21897 11 9.22325 11 9.22753C11 9.23181 11 9.23609 11 9.24038C11 9.24467 11 9.24897 11 9.25326C11 9.25756 11 9.26186 11 9.26616C11 9.27046 11 9.27477 11 9.27908C11 9.28339 11 9.28771 11 9.29202C11 9.29634 11 9.30066 11 9.30499C11 9.30931 11 9.31364 11 9.31797C11 9.32231 11 9.32664 11 9.33098C11 9.33532 11 9.33966 11 9.34401C11 9.34836 11 9.3527 11 9.35706C11 9.36141 11 9.36577 11 9.37013C11 9.37449 11 9.37885 11 9.38322C11 9.38759 11 9.39196 11 9.39633C11 9.4007 11 9.40508 11 9.40946C11 9.41384 11 9.41823 11 9.42261C11 9.427 11 9.43139 11 9.43579C11 9.44018 11 9.44458 11 9.44898C11 9.45338 11 9.45778 11 9.46219C11 9.4666 11 9.47101 11 9.47543C11 9.47984 11 9.48426 11 9.48868C11 9.4931 11 9.49752 11 9.50195C11 9.50638 11 9.51081 11 9.51524C11 9.51968 11 9.52411 11 9.52855C11 9.533 11 9.53744 11 9.54189C11 9.54633 11 9.55078 11 9.55524C11 9.55969 11 9.56415 11 9.56861C11 9.57307 11 9.57753 11 9.582C11 9.58646 11 9.59093 11 9.5954C11 9.59988 11 9.60435 11 9.60883C11 9.61331 11 9.61779 11 9.62228C11 9.62676 11 9.63125 11 9.63574C11 9.64023 11 9.64473 11 9.64922C11 9.65372 11 9.65822 11 9.66272C11 9.66723 11 9.67173 11 9.67624C11 9.68075 11 9.68527 11 9.68978C11 9.6943 11 9.69882 11 9.70334C11 9.70786 11 9.71238 11 9.71691C11 9.72144 11 9.72597 11 9.7305C11 9.73504 11 9.73957 11 9.74411C11 9.74865 11 9.75319 11 9.75774C11 9.76228 11 9.76683 11 9.77138C11 9.77593 11 9.78049 11 9.78505C11 9.7896 11 9.79416 11 9.79873C11 9.80329 11 9.80785 11 9.81242C11 9.81699 11 9.82156 11 9.82614C11 9.83071 11 9.83529 11 9.83987C11 9.84445 11 9.84903 11 9.85361C11 9.8582 11 9.86279 11 9.86738C11 9.87197 11 9.87656 11 9.88116C11 9.88575 11 9.89035 11 9.89495C11 9.89956 11 9.90416 11 9.90877C11 9.91338 11 9.91799 11 9.9226C11 9.92721 11 9.93183 11 9.93644C11 9.94106 11 9.94568 11 9.95031C11 9.95493 11 9.95956 11 9.96418C11 9.96881 11 9.97344 11 9.97808C11 9.98271 11 9.98735 11 9.99199C11 9.99663 11 10.0013 11 10.0059C11 10.0106 11 10.0152 11 10.0199C11 10.0245 11 10.0292 11 10.0338C11 10.0385 11 10.0431 11 10.0478C11 10.0524 11 10.0571 11 10.0618C11 10.0664 11 10.0711 11 10.0758C11 10.0804 11 10.0851 11 10.0898C11 10.0945 11 10.0991 11 10.1038C11 10.1085 11 10.1132 11 10.1179C11 10.1225 11 10.1272 11 10.1319C11 10.1366 11 10.1413 11 10.146C11 10.1507 11 10.1554 11 10.1601C11 10.1648 11 10.1695 11 10.1742C11 10.1789 11 10.1836 11 10.1883C11 10.193 11 10.1977 11 10.2024C11 10.2072 11 10.2119 11 10.2166C11 10.2213 11 10.226 11 10.2308C11 10.2355 11 10.2402 11 10.2449C11 10.2497 11 10.2544 11 10.2591C11 10.2638 11 10.2686 11 10.2733C11 10.278 11 10.2828 11 10.2875C11 10.2923 11 10.297 11 10.3018C11 10.3065 11 10.3112 11 10.316C11 10.3207 11 10.3255 11 10.3302C11 10.335 11 10.3398 11 10.3445C11 10.3493 11 10.354 11 10.3588C11 10.3636 11 10.3683 11 10.3731C11 10.3778 11 10.3826 11 10.3874C11 10.3922 11 10.3969 11 10.4017C11 10.4065 11 10.4113 11 10.416C11 10.4208 11 10.4256 11 10.4304C11 10.4352 11 10.4399 11 10.4447C11 10.4495 11 10.4543 11 10.4591C11 10.4639 11 10.4687 11 10.4735C11 10.4783 11 10.4831 11 10.4879C11 10.4927 11 10.4975 11 10.5023C11 10.5071 11 10.5119 11 10.5167C11 10.5215 11 10.5263 11 10.5311C11 10.5359 11 10.5407 11 10.5455C11 10.5503 11 10.5552 11 10.56C11 10.5648 11 10.5696 11 10.5744C11 10.5793 11 10.5841 11 10.5889C11 10.5937 11 10.5986 11 10.6034C11 10.6082 11 10.613 11 10.6179C11 10.6227 11 10.6275 11 10.6324C11 10.6372 11 10.642 11 10.6469C11 10.6517 11 10.6566 11 10.6614C11 10.6663 11 10.6711 11 10.6759C11 10.6808 11 10.6856 11 10.6905C11 10.6953 11 10.7002 11 10.705C11 10.7099 11 10.7147 11 10.7196C11 10.7245 11 10.7293 11 10.7342C11 10.739 11 10.7439 11 10.7488C11 10.7536 11 10.7585 11 10.7633C11 10.7682 11 10.7731 11 10.7779C11 10.7828 11 10.7877 11 10.7926C11 10.7974 11 10.8023 11 10.8072C11 10.8121 11 10.8169 11 10.8218C11 10.8267 11 10.8316 11 10.8364C11 10.8413 11 10.8462 11 10.8511C11 10.856 11 10.8609 11 10.8658C11 10.8706 11 10.8755 11 10.8804C11 10.8853 11 10.8902 11 10.8951C11 10.9 11 10.9049 11 10.9098C11 10.9147 11 10.9196 11 10.9245C11 10.9294 11 10.9343 11 10.9392C11 10.9441 11 10.949 11 10.9539C11 10.9588 11 10.9637 11 10.9686C11 10.9735 11 10.9784 11 10.9833C11 10.9882 11 10.9931 11 10.998C11 11.0029 11 11.0079 11 11.0128C11 11.0177 11 11.0226 11 11.0275C11 11.0324 11 11.0374 11 11.0423C11 11.0472 11 11.0521 11 11.057C11 11.062 11 11.0669 11 11.0718C11 11.0767 11 11.0817 11 11.0866C11 11.0915 11 11.0964 11 11.1014C11 11.1063 11 11.1112 11 11.1162C11 11.1211 11 11.126 11 11.131C11 11.1359 11 11.1408 11 11.1458C11 11.1507 11 11.1556 11 11.1606C11 11.1655 11 11.1704 11 11.1754C11 11.1803 11 11.1853 11 11.1902C11 11.1951 11 11.2001 11 11.205C11 11.21 11 11.2149 11 11.2199C11 11.2248 11 11.2298 11 11.2347C11 11.2397 11 11.2446 11 11.2496C11 11.2545 11 11.2595 11 11.2644C11 11.2694 11 11.2743 11 11.2793C11 11.2842 11 11.2892 11 11.2941C11 11.2991 11 11.304 11 11.309C11 11.314 11 11.3189 11 11.3239C11 11.3288 11 11.3338 11 11.3388C11 11.3437 11 11.3487 11 11.3536C11 11.3586 11 11.3636 11 11.3685C11 11.3735 11 11.3785 11 11.3834C11 11.3884 11 11.3934 11 11.3983C11 11.4033 11 11.4083 11 11.4132C11 11.4182 11 11.4232 11 11.4281C11 11.4331 11 11.4381 11 11.4431C11 11.448 11 11.453 11 11.458C11 11.463 11 11.4679 11 11.4729C11 11.4779 11 11.4829 11 11.4878C11 11.4928 11 11.4978 11 11.5028C11 11.5077 11 11.5127 11 11.5177C11 11.5227 11 11.5277 11 11.5326C11 11.5376 11 11.5426 11 11.5476C11 11.5526 11 11.5575 11 11.5625C11 11.5675 11 11.5725 11 11.5775C11 11.5825 11 11.5874 11 11.5924C11 11.5974 11 11.6024 11 11.6074C11 11.6124 11 11.6174 11 11.6223C11 11.6273 11 11.6323 11 11.6373C11 11.6423 11 11.6473 11 11.6523C11 11.6573 11 11.6622 11 11.6672C11 11.6722 11 11.6772 11 11.6822C11 11.6872 11 11.6922 11 11.6972C11 11.7022 11 11.7072 11 11.7122C11 11.7171 11 11.7221 11 11.7271C11 11.7321 11 11.7371 11 11.7421C11 11.7471 11 11.7521 11 11.7571C11 11.7621 11 11.7671 11 11.7721C11 11.7771 11 11.7821 11 11.7871C11 11.7921 11 11.7971 11 11.802C11 11.807 11 11.812 11 11.817C11 11.822 11 11.827 11 11.832C11 11.837 11 11.842 11 11.847C11 11.852 11 11.857 11 11.862C11 11.867 11 11.872 11 11.877C11 11.882 11 11.887 11 11.892C11 11.897 11 11.902 11 11.907C11 11.912 11 11.917 11 11.922C11 11.927 11 11.932 11 11.937C11 11.942 11 11.947 11 11.952C11 11.957 11 11.962 11 11.967C11 11.972 11 11.977 11 11.982C11 11.987 11 11.992 11 11.997C11 12.002 11 12.007 11 12.012C11 12.017 11 12.022 11 12.027C11 12.032 11 12.037 11 12.042C11 12.047 11 12.052 11 12.057C11 12.062 11 12.067 11 12.072C11 12.077 11 12.082 11 12.087C11 12.092 11 12.097 11 12.102C11 12.107 11 12.112 11 12.117C11 12.122 11 12.127 11 12.132C11 12.137 11 12.142 11 12.147C11 12.152 11 12.157 11 12.162C11 12.167 11 12.172 11 12.177C11 12.182 11 12.187 11 12.192C11 12.197 11 12.202 11 12.207C11 12.212 11 12.217 11 12.222C11 12.227 11 12.232 11 12.237C11 12.242 11 12.247 11 12.252C11 12.2569 11 12.2619 11 12.2669C11 12.2719 11 12.2769 11 12.2819C11 12.2869 11 12.2919 11 12.2969C11 12.3019 11 12.3069 11 12.3119C11 12.3169 11 12.3219 11 12.3269C11 12.3319 11 12.3369 11 12.3418C11 12.3468 11 12.3518 11 12.3568C11 12.3618 11 12.3668 11 12.3718C11 12.3768 11 12.3818 11 12.3868C11 12.3918 11 12.3967 11 12.4017C11 12.4067 11 12.4117 11 12.4167C11 12.4217 11 12.4267 11 12.4317C11 12.4366 11 12.4416 11 12.4466C11 12.4516 11 12.4566 11 12.4616C11 12.4665 11 12.4715 11 12.4765C11 12.4815 11 12.4865 11 12.4915C11 12.4964 11 12.5014 11 12.5064C11 12.5114 11 12.5164 11 12.5213C11 12.5263 11 12.5313 11 12.5363C11 12.5413 11 12.5462 11 12.5512C11 12.5562 11 12.5612 11 12.5661C11 12.5711 11 12.5761 11 12.5811C11 12.586 11 12.591 11 12.596C11 12.601 11 12.6059 11 12.6109C11 12.6159 11 12.6209 11 12.6258C11 12.6308 11 12.6358 11 12.6407C11 12.6457 11 12.6507 11 12.6556C11 12.6606 11 12.6656 11 12.6705C11 12.6755 11 12.6805 11 12.6854C11 12.6904 11 12.6954 11 12.7003C11 12.7053 11 12.7102 11 12.7152C11 12.7202 11 12.7251 11 12.7301C11 12.735 11 12.74 11 12.7449C11 12.7499 11 12.7549 11 12.7598C11 12.7648 11 12.7697 11 12.7747C11 12.7796 11 12.7846 11 12.7895C11 12.7945 11 12.7994 11 12.8044C11 12.8093 11 12.8143 11 12.8192C11 12.8242 11 12.8291 11 12.8341C11 12.839 11 12.844 11 12.8489C11 12.8538 11 12.8588 11 12.8637C11 12.8687 11 12.8736 11 12.8785C11 12.8835 11 12.8884 11 12.8934C11 12.8983 11 12.9032 11 12.9082C11 12.9131 11 12.918 11 12.923C11 12.9279 11 12.9328 11 12.9378C11 12.9427 11 12.9476 11 12.9525C11 12.9575 11 12.9624 11 12.9673C11 12.9723 11 12.9772 11 12.9821C11 12.987 11 12.9919 11 12.9969C11 13.0018 11 13.0067 11 13.0116C11 13.0165 11 13.0215 11 13.0264C11 13.0313 11 13.0362 11 13.0411C11 13.046 11 13.0509 11 13.0559C11 13.0608 11 13.0657 11 13.0706C11 13.0755 11 13.0804 11 13.0853C11 13.0902 11 13.0951 11 13.1C11 13.1049 11 13.1098 11 13.1147C11 13.1196 11 13.1245 11 13.1294C11 13.1343 11 13.1392 11 13.1441C11 13.149 11 13.1539 11 13.1588C11 13.1637 11 13.1686 11 13.1734C11 13.1783 11 13.1832 11 13.1881C11 13.193 11 13.1979 11 13.2028C11 13.2076 11 13.2125 11 13.2174C11 13.2223 11 13.2272 11 13.232C11 13.2369 11 13.2418 11 13.2467C11 13.2515 11 13.2564 11 13.2613C11 13.2662 11 13.271 11 13.2759C11 13.2808 11 13.2856 11 13.2905C11 13.2953 11 13.3002 11 13.3051C11 13.3099 11 13.3148 11 13.3197C11 13.3245 11 13.3294 11 13.3342C11 13.3391 11 13.3439 11 13.3488C11 13.3536 11 13.3585 11 13.3633C11 13.3682 11 13.373 11 13.3779C11 13.3827 11 13.3875 11 13.3924C11 13.3972 11 13.4021 11 13.4069C11 13.4117 11 13.4166 11 13.4214C11 13.4262 11 13.4311 11 13.4359C11 13.4407 11 13.4456 11 13.4504C11 13.4552 11 13.46 11 13.4649C11 13.4697 11 13.4745 11 13.4793C11 13.4842 11 13.489 11 13.4938C11 13.4986 11 13.5034 11 13.5082C11 13.513 11 13.5179 11 13.5227C11 13.5275 11 13.5323 11 13.5371C11 13.5419 11 13.5467 11 13.5515C11 13.5563 11 13.5611 11 13.5659C11 13.5707 11 13.5755 11 13.5803C11 13.5851 11 13.5899 11 13.5946C11 13.5994 11 13.6042 11 13.609C11 13.6138 11 13.6186 11 13.6233C11 13.6281 11 13.6329 11 13.6377C11 13.6425 11 13.6472 11 13.652C11 13.6568 11 13.6616 11 13.6663C11 13.6711 11 13.6759 11 13.6806C11 13.6854 11 13.6901 11 13.6949C11 13.6997 11 13.7044 11 13.7092C11 13.7139 11 13.7187 11 13.7234C11 13.7282 11 13.7329 11 13.7377C11 13.7424 11 13.7472 11 13.7519C11 13.7567 11 13.7614 11 13.7661C11 13.7709 11 13.7756 11 13.7804C11 13.7851 11 13.7898 11 13.7945C11 13.7993 11 13.804 11 13.8087C11 13.8135 11 13.8182 11 13.8229C11 13.8276 11 13.8323 11 13.837C11 13.8418 11 13.8465 11 13.8512C11 13.8559 11 13.8606 11 13.8653C11 13.87 11 13.8747 11 13.8794C11 13.8841 11 13.8888 11 13.8935C11 13.8982 11 13.9029 11 13.9076C11 13.9123 11 13.917 11 13.9217C11 13.9264 11 13.931 11 13.9357C11 13.9404 11 13.9451 11 13.9498C11 13.9544 11 13.9591 11 13.9638C11 13.9685 11 13.9731 11 13.9778C11 13.9825 11 13.9871 11 13.9918C11 13.9965 11 14.0011 11 14.0058C11 14.0104 11 14.0151 11 14.0197C11 14.0244 11 14.029 11 14.0337C11 14.0383 11 14.043 11 14.0476C11 14.0523 11 14.0569 11 14.0615C11 14.0662 11 14.0708 11 14.0755C11 14.0801 11 14.0847 11 14.0893C11 14.094 11 14.0986 11 14.1032C11 14.1078 11 14.1124 11 14.1171C11 14.1217 11 14.1263 11 14.1309C11 14.1355 11 14.1401 11 14.1447C11 14.1493 11 14.1539 11 14.1585C11 14.1631 11 14.1677 11 14.1723C11 14.1769 11 14.1815 11 14.1861C11 14.1907 11 14.1953 11 14.1999C11 14.2044 11 14.209 11 14.2136C11 14.2182 11 14.2227 11 14.2273C11 14.2319 11 14.2365 11 14.241C11 14.2456 11 14.2502 11 14.2547C11 14.2593 11 14.2638 11 14.2684C11 14.2729 11 14.2775 11 14.282C11 14.2866 11 14.2911 11 14.2957C11 14.3002 11 14.3048 11 14.3093C11 14.3138 11 14.3184 11 14.3229C11 14.3274 11 14.332 11 14.3365C11 14.341 11 14.3455 11 14.35C11 14.3546 11 14.3591 11 14.3636C11 14.3681 11 14.3726 11 14.3771C11 14.3816 11 14.3861 11 14.3906C11 14.3951 11 14.3996 11 14.4041C11 14.4086 11 14.4131 11 14.4176C11 14.4221 11 14.4266 11 14.4311C11 14.4355 11 14.44 11 14.4445C11 14.449 11 14.4534 11 14.4579C11 14.4624 11 14.4669 11 14.4713C11 14.4758 11 14.4802 11 14.4847C11 14.4892 11 14.4936 11 14.4981C11 14.5025 11 14.507 11 14.5114C11 14.5158 11 14.5203 11 14.5247C11 14.5292 11 14.5336 11 14.538C11 14.5425 11 14.5469 11 14.5513C11 14.5557 11 14.5602 11 14.5646C11 14.569 11 14.5734 11 14.5778C11 14.5822 11 14.5866 11 14.591C11 14.5954 11 14.5999 11 14.6042C11 14.6086 11 14.613 11 14.6174C11 14.6218 11 14.6262 11 14.6306C11 14.635 11 14.6394 11 14.6437C11 14.6481 11 14.6525 11 14.6569C11 14.6612 11 14.6656 11 14.67C11 14.6743 11 14.6787 11 14.683C11 14.6874 11 14.6918 11 14.6961C11 14.7005 11 14.7048 11 14.7091C11 14.7135 11 14.7178 11 14.7222C11 14.7265 11 14.7308 11 14.7352C11 14.7395 11 14.7438 11 14.7481C11 14.7525 11 14.7568 11 14.7611C11 14.7654 11 14.7697 11 14.774C11 14.7783 11 14.7826 11 14.7869C11 14.7912 11 14.7955 11 14.7998C11 14.8041 11 14.8084 11 14.8127C11 14.817 11 14.8213 11 14.8255C11 14.8298 11 14.8341 11 14.8384C11 14.8426 11 14.8469 11 14.8512C11 14.8554 11 14.8597 11 14.864C11 14.8682 11 14.8725 11 14.8767C11 14.881 11 14.8852 11 14.8894C11 14.8937 11 14.8979 11 14.9022C11 14.9064 11 14.9106 11 14.9148C11 14.9191 11 14.9233 11 14.9275C11 14.9317 11 14.9359 11 14.9402C11 14.9444 11 14.9486 11 14.9528C11 14.957 11 14.9612 11 14.9654C11 14.9696 11 14.9738 11 14.9779C11 14.9821 11 14.9863 11 14.9905C11 14.9947 11 14.9989 11 15.003C11 15.0072 11 15.0114 11 15.0155C11 15.0197 11 15.0238 11 15.028C11 15.0322 11 15.0363 11 15.0405C11 15.0446 11 15.0488 11 15.0529C11 15.057 11 15.0612 11 15.0653C11 15.0694 11 15.0736 11 15.0777C11 15.0818 11 15.0859 11 15.09C11 15.0942 11 15.0983 11 15.1024C11 15.1065 11 15.1106 11 15.1147C11 15.1188 11 15.1229 11 15.127C11 15.1311 11 15.1352 11 15.1392C11 15.1433 11 15.1474 11 15.1515C11 15.1555 11 15.1596 11 15.1637C11 15.1677 11 15.1718 11 15.1759C11 15.1799 11 15.184 11 15.188C11 15.1921 11 15.1961 11 15.2002C11 15.2042 11 15.2082 11 15.2123C11 15.2163 11 15.2203 11 15.2244C11 15.2284 11 15.2324 11 15.2364C11 15.2404 11 15.2444 11 15.2484C11 15.2525 11 15.2565 11 15.2605C11 15.2644 11 15.2684 11 15.2724C11 15.2764 11 15.2804 11 15.2844C11 15.2884 11 15.2923 11 15.2963C11 15.3003 11 15.3043 11 15.3082C11 15.3122 11 15.3161 11 15.3201C11 15.324 11 15.328 11 15.3319C11 15.3359 11 15.3398 11 15.3438C11 15.3477 11 15.3516 11 15.3556C11 15.3595 11 15.3634 11 15.3673C11 15.3712 11 15.3752 11 15.3791C11 15.383 11 15.3869 11 15.3908C11 15.3947 11 15.3986 11 15.4025C11 15.4064 11 15.4102 11 15.4141C11 15.418 11 15.4219 11 15.4258C11 15.4296 11 15.4335 11 15.4374C11 15.4412 11 15.4451 11 15.4489C11 15.4528 11 15.4566 11 15.4605C11 15.4643 11 15.4682 11 15.472C11 15.4758 11 15.4797 11 15.4835C11 15.4873 11 15.4912 11 15.495C11 15.4988 11 15.5026 11 15.5064C11 15.5102 11 15.514 11 15.5178C11 15.5216 11 15.5254 11 15.5292C11 15.533 11 15.5368 11 15.5405C11 15.5443 11 15.5481 11 15.5519C11 15.5556 11 15.5594 11 15.5632C11 15.5669 11 15.5707 11 15.5744C11 15.5782 11 15.5819 11 15.5857C11 15.5894 11 15.5931 11 15.5969C11 15.6006 11 15.6043 11 15.608C11 15.6118 11 15.6155 11 15.6192C11 15.6229 11 15.6266 11 15.6303C11 15.634 11 15.6377 11 15.6414C11 15.6451 11 15.6488 11 15.6525C11 15.6561 11 15.6598 11 15.6635C11 15.6672 11 15.6708 11 15.6745C11 15.6782 11 15.6818 11 15.6855C11 15.6891 11 15.6928 11 15.6964C11 15.7 11 15.7037 11 15.7073C11 15.7109 11 15.7146 11 15.7182C11 15.7218 11 15.7254 11 15.729C11 15.7326 11 15.7363 11 15.7399C11 15.7435 11 15.747 11 15.7506C11 15.7542 11 15.7578 11 15.7614C11 15.765 11 15.7685 11 15.7721C11 15.7757 11 15.7793 11 15.7828C11 15.7864 11 15.7899 11 15.7935C11 15.797 11 15.8006 11 15.8041C11 15.8076 11 15.8112 11 15.8147C11 15.8182 11 15.8218 11 15.8253C11 15.8288 11 15.8323 11 15.8358C11 15.8393 11 15.8428 11 15.8463C11 15.8498 11 15.8533 11 15.8568C11 15.8603 11 15.8638 11 15.8672C11 15.8707 11 15.8742 11 15.8776C11 15.8811 11 15.8846 11 15.888C11 15.8915 11 15.8949 11 15.8984C11 15.9018 11 15.9052 11 15.9087C11 15.9121 11 15.9155 11 15.9189C11 15.9224 11 15.9258 11 15.9292C11 15.9326 11 15.936 11 15.9394C11 15.9428 11 15.9462 11 15.9496C11 15.953 11 15.9564 11 15.9597C11 15.9631 11 15.9665 11 15.9699C11 15.9732 11 15.9766 11 15.9799C11 15.9833 11 15.9866 11 15.99C11 15.9933 11 15.9967 11 16H14C14 15.9967 14 15.9933 14 15.99C14 15.9866 14 15.9833 14 15.9799C14 15.9766 14 15.9732 14 15.9699C14 15.9665 14 15.9631 14 15.9597C14 15.9564 14 15.953 14 15.9496C14 15.9462 14 15.9428 14 15.9394C14 15.936 14 15.9326 14 15.9292C14 15.9258 14 15.9224 14 15.9189C14 15.9155 14 15.9121 14 15.9087C14 15.9052 14 15.9018 14 15.8984C14 15.8949 14 15.8915 14 15.888C14 15.8846 14 15.8811 14 15.8776C14 15.8742 14 15.8707 14 15.8672C14 15.8638 14 15.8603 14 15.8568C14 15.8533 14 15.8498 14 15.8463C14 15.8428 14 15.8393 14 15.8358C14 15.8323 14 15.8288 14 15.8253C14 15.8218 14 15.8182 14 15.8147C14 15.8112 14 15.8076 14 15.8041C14 15.8006 14 15.797 14 15.7935C14 15.7899 14 15.7864 14 15.7828C14 15.7793 14 15.7757 14 15.7721C14 15.7685 14 15.765 14 15.7614C14 15.7578 14 15.7542 14 15.7506C14 15.747 14 15.7435 14 15.7399C14 15.7363 14 15.7326 14 15.729C14 15.7254 14 15.7218 14 15.7182C14 15.7146 14 15.7109 14 15.7073C14 15.7037 14 15.7 14 15.6964C14 15.6928 14 15.6891 14 15.6855C14 15.6818 14 15.6782 14 15.6745C14 15.6708 14 15.6672 14 15.6635C14 15.6598 14 15.6561 14 15.6525C14 15.6488 14 15.6451 14 15.6414C14 15.6377 14 15.634 14 15.6303C14 15.6266 14 15.6229 14 15.6192C14 15.6155 14 15.6118 14 15.608C14 15.6043 14 15.6006 14 15.5969C14 15.5931 14 15.5894 14 15.5857C14 15.5819 14 15.5782 14 15.5744C14 15.5707 14 15.5669 14 15.5632C14 15.5594 14 15.5556 14 15.5519C14 15.5481 14 15.5443 14 15.5405C14 15.5368 14 15.533 14 15.5292C14 15.5254 14 15.5216 14 15.5178C14 15.514 14 15.5102 14 15.5064C14 15.5026 14 15.4988 14 15.495C14 15.4912 14 15.4873 14 15.4835C14 15.4797 14 15.4758 14 15.472C14 15.4682 14 15.4643 14 15.4605C14 15.4566 14 15.4528 14 15.4489C14 15.4451 14 15.4412 14 15.4374C14 15.4335 14 15.4296 14 15.4258C14 15.4219 14 15.418 14 15.4141C14 15.4102 14 15.4064 14 15.4025C14 15.3986 14 15.3947 14 15.3908C14 15.3869 14 15.383 14 15.3791C14 15.3752 14 15.3712 14 15.3673C14 15.3634 14 15.3595 14 15.3556C14 15.3516 14 15.3477 14 15.3438C14 15.3398 14 15.3359 14 15.3319C14 15.328 14 15.324 14 15.3201C14 15.3161 14 15.3122 14 15.3082C14 15.3043 14 15.3003 14 15.2963C14 15.2923 14 15.2884 14 15.2844C14 15.2804 14 15.2764 14 15.2724C14 15.2684 14 15.2644 14 15.2605C14 15.2565 14 15.2525 14 15.2484C14 15.2444 14 15.2404 14 15.2364C14 15.2324 14 15.2284 14 15.2244C14 15.2203 14 15.2163 14 15.2123C14 15.2082 14 15.2042 14 15.2002C14 15.1961 14 15.1921 14 15.188C14 15.184 14 15.1799 14 15.1759C14 15.1718 14 15.1677 14 15.1637C14 15.1596 14 15.1555 14 15.1515C14 15.1474 14 15.1433 14 15.1392C14 15.1352 14 15.1311 14 15.127C14 15.1229 14 15.1188 14 15.1147C14 15.1106 14 15.1065 14 15.1024C14 15.0983 14 15.0942 14 15.09C14 15.0859 14 15.0818 14 15.0777C14 15.0736 14 15.0694 14 15.0653C14 15.0612 14 15.057 14 15.0529C14 15.0488 14 15.0446 14 15.0405C14 15.0363 14 15.0322 14 15.028C14 15.0238 14 15.0197 14 15.0155C14 15.0114 14 15.0072 14 15.003C14 14.9989 14 14.9947 14 14.9905C14 14.9863 14 14.9821 14 14.9779C14 14.9738 14 14.9696 14 14.9654C14 14.9612 14 14.957 14 14.9528C14 14.9486 14 14.9444 14 14.9402C14 14.9359 14 14.9317 14 14.9275C14 14.9233 14 14.9191 14 14.9148C14 14.9106 14 14.9064 14 14.9022C14 14.8979 14 14.8937 14 14.8894C14 14.8852 14 14.881 14 14.8767C14 14.8725 14 14.8682 14 14.864C14 14.8597 14 14.8554 14 14.8512C14 14.8469 14 14.8426 14 14.8384C14 14.8341 14 14.8298 14 14.8255C14 14.8213 14 14.817 14 14.8127C14 14.8084 14 14.8041 14 14.7998C14 14.7955 14 14.7912 14 14.7869C14 14.7826 14 14.7783 14 14.774C14 14.7697 14 14.7654 14 14.7611C14 14.7568 14 14.7525 14 14.7481C14 14.7438 14 14.7395 14 14.7352C14 14.7308 14 14.7265 14 14.7222C14 14.7178 14 14.7135 14 14.7091C14 14.7048 14 14.7005 14 14.6961C14 14.6918 14 14.6874 14 14.683C14 14.6787 14 14.6743 14 14.67C14 14.6656 14 14.6612 14 14.6569C14 14.6525 14 14.6481 14 14.6437C14 14.6394 14 14.635 14 14.6306C14 14.6262 14 14.6218 14 14.6174C14 14.613 14 14.6086 14 14.6042C14 14.5999 14 14.5954 14 14.591C14 14.5866 14 14.5822 14 14.5778C14 14.5734 14 14.569 14 14.5646C14 14.5602 14 14.5557 14 14.5513C14 14.5469 14 14.5425 14 14.538C14 14.5336 14 14.5292 14 14.5247C14 14.5203 14 14.5158 14 14.5114C14 14.507 14 14.5025 14 14.4981C14 14.4936 14 14.4892 14 14.4847C14 14.4802 14 14.4758 14 14.4713C14 14.4669 14 14.4624 14 14.4579C14 14.4534 14 14.449 14 14.4445C14 14.44 14 14.4355 14 14.4311C14 14.4266 14 14.4221 14 14.4176C14 14.4131 14 14.4086 14 14.4041C14 14.3996 14 14.3951 14 14.3906C14 14.3861 14 14.3816 14 14.3771C14 14.3726 14 14.3681 14 14.3636C14 14.3591 14 14.3546 14 14.35C14 14.3455 14 14.341 14 14.3365C14 14.332 14 14.3274 14 14.3229C14 14.3184 14 14.3138 14 14.3093C14 14.3048 14 14.3002 14 14.2957C14 14.2911 14 14.2866 14 14.282C14 14.2775 14 14.2729 14 14.2684C14 14.2638 14 14.2593 14 14.2547C14 14.2502 14 14.2456 14 14.241C14 14.2365 14 14.2319 14 14.2273C14 14.2227 14 14.2182 14 14.2136C14 14.209 14 14.2044 14 14.1999C14 14.1953 14 14.1907 14 14.1861C14 14.1815 14 14.1769 14 14.1723C14 14.1677 14 14.1631 14 14.1585C14 14.1539 14 14.1493 14 14.1447C14 14.1401 14 14.1355 14 14.1309C14 14.1263 14 14.1217 14 14.1171C14 14.1124 14 14.1078 14 14.1032C14 14.0986 14 14.094 14 14.0893C14 14.0847 14 14.0801 14 14.0755C14 14.0708 14 14.0662 14 14.0615C14 14.0569 14 14.0523 14 14.0476C14 14.043 14 14.0383 14 14.0337C14 14.029 14 14.0244 14 14.0197C14 14.0151 14 14.0104 14 14.0058C14 14.0011 14 13.9965 14 13.9918C14 13.9871 14 13.9825 14 13.9778C14 13.9731 14 13.9685 14 13.9638C14 13.9591 14 13.9544 14 13.9498C14 13.9451 14 13.9404 14 13.9357C14 13.931 14 13.9264 14 13.9217C14 13.917 14 13.9123 14 13.9076C14 13.9029 14 13.8982 14 13.8935C14 13.8888 14 13.8841 14 13.8794C14 13.8747 14 13.87 14 13.8653C14 13.8606 14 13.8559 14 13.8512C14 13.8465 14 13.8418 14 13.837C14 13.8323 14 13.8276 14 13.8229C14 13.8182 14 13.8135 14 13.8087C14 13.804 14 13.7993 14 13.7945C14 13.7898 14 13.7851 14 13.7804C14 13.7756 14 13.7709 14 13.7661C14 13.7614 14 13.7567 14 13.7519C14 13.7472 14 13.7424 14 13.7377C14 13.7329 14 13.7282 14 13.7234C14 13.7187 14 13.7139 14 13.7092C14 13.7044 14 13.6997 14 13.6949C14 13.6901 14 13.6854 14 13.6806C14 13.6759 14 13.6711 14 13.6663C14 13.6616 14 13.6568 14 13.652C14 13.6472 14 13.6425 14 13.6377C14 13.6329 14 13.6281 14 13.6233C14 13.6186 14 13.6138 14 13.609C14 13.6042 14 13.5994 14 13.5946C14 13.5899 14 13.5851 14 13.5803C14 13.5755 14 13.5707 14 13.5659C14 13.5611 14 13.5563 14 13.5515C14 13.5467 14 13.5419 14 13.5371C14 13.5323 14 13.5275 14 13.5227C14 13.5179 14 13.513 14 13.5082C14 13.5034 14 13.4986 14 13.4938C14 13.489 14 13.4842 14 13.4793C14 13.4745 14 13.4697 14 13.4649C14 13.46 14 13.4552 14 13.4504C14 13.4456 14 13.4407 14 13.4359C14 13.4311 14 13.4262 14 13.4214C14 13.4166 14 13.4117 14 13.4069C14 13.4021 14 13.3972 14 13.3924C14 13.3875 14 13.3827 14 13.3779C14 13.373 14 13.3682 14 13.3633C14 13.3585 14 13.3536 14 13.3488C14 13.3439 14 13.3391 14 13.3342C14 13.3294 14 13.3245 14 13.3197C14 13.3148 14 13.3099 14 13.3051C14 13.3002 14 13.2953 14 13.2905C14 13.2856 14 13.2808 14 13.2759C14 13.271 14 13.2662 14 13.2613C14 13.2564 14 13.2515 14 13.2467C14 13.2418 14 13.2369 14 13.232C14 13.2272 14 13.2223 14 13.2174C14 13.2125 14 13.2076 14 13.2028C14 13.1979 14 13.193 14 13.1881C14 13.1832 14 13.1783 14 13.1734C14 13.1686 14 13.1637 14 13.1588C14 13.1539 14 13.149 14 13.1441C14 13.1392 14 13.1343 14 13.1294C14 13.1245 14 13.1196 14 13.1147C14 13.1098 14 13.1049 14 13.1C14 13.0951 14 13.0902 14 13.0853C14 13.0804 14 13.0755 14 13.0706C14 13.0657 14 13.0608 14 13.0559C14 13.0509 14 13.046 14 13.0411C14 13.0362 14 13.0313 14 13.0264C14 13.0215 14 13.0165 14 13.0116C14 13.0067 14 13.0018 14 12.9969C14 12.9919 14 12.987 14 12.9821C14 12.9772 14 12.9723 14 12.9673C14 12.9624 14 12.9575 14 12.9525C14 12.9476 14 12.9427 14 12.9378C14 12.9328 14 12.9279 14 12.923C14 12.918 14 12.9131 14 12.9082C14 12.9032 14 12.8983 14 12.8934C14 12.8884 14 12.8835 14 12.8785C14 12.8736 14 12.8687 14 12.8637C14 12.8588 14 12.8538 14 12.8489C14 12.844 14 12.839 14 12.8341C14 12.8291 14 12.8242 14 12.8192C14 12.8143 14 12.8093 14 12.8044C14 12.7994 14 12.7945 14 12.7895C14 12.7846 14 12.7796 14 12.7747C14 12.7697 14 12.7648 14 12.7598C14 12.7549 14 12.7499 14 12.7449C14 12.74 14 12.735 14 12.7301C14 12.7251 14 12.7202 14 12.7152C14 12.7102 14 12.7053 14 12.7003C14 12.6954 14 12.6904 14 12.6854C14 12.6805 14 12.6755 14 12.6705C14 12.6656 14 12.6606 14 12.6556C14 12.6507 14 12.6457 14 12.6407C14 12.6358 14 12.6308 14 12.6258C14 12.6209 14 12.6159 14 12.6109C14 12.6059 14 12.601 14 12.596C14 12.591 14 12.586 14 12.5811C14 12.5761 14 12.5711 14 12.5661C14 12.5612 14 12.5562 14 12.5512C14 12.5462 14 12.5413 14 12.5363C14 12.5313 14 12.5263 14 12.5213C14 12.5164 14 12.5114 14 12.5064C14 12.5014 14 12.4964 14 12.4915C14 12.4865 14 12.4815 14 12.4765C14 12.4715 14 12.4665 14 12.4616C14 12.4566 14 12.4516 14 12.4466C14 12.4416 14 12.4366 14 12.4317C14 12.4267 14 12.4217 14 12.4167C14 12.4117 14 12.4067 14 12.4017C14 12.3967 14 12.3918 14 12.3868C14 12.3818 14 12.3768 14 12.3718C14 12.3668 14 12.3618 14 12.3568C14 12.3518 14 12.3468 14 12.3418C14 12.3369 14 12.3319 14 12.3269C14 12.3219 14 12.3169 14 12.3119C14 12.3069 14 12.3019 14 12.2969C14 12.2919 14 12.2869 14 12.2819C14 12.2769 14 12.2719 14 12.2669C14 12.2619 14 12.2569 14 12.252C14 12.247 14 12.242 14 12.237C14 12.232 14 12.227 14 12.222C14 12.217 14 12.212 14 12.207C14 12.202 14 12.197 14 12.192C14 12.187 14 12.182 14 12.177C14 12.172 14 12.167 14 12.162C14 12.157 14 12.152 14 12.147C14 12.142 14 12.137 14 12.132C14 12.127 14 12.122 14 12.117C14 12.112 14 12.107 14 12.102C14 12.097 14 12.092 14 12.087C14 12.082 14 12.077 14 12.072C14 12.067 14 12.062 14 12.057C14 12.052 14 12.047 14 12.042C14 12.037 14 12.032 14 12.027C14 12.022 14 12.017 14 12.012C14 12.007 14 12.002 14 11.997C14 11.992 14 11.987 14 11.982C14 11.977 14 11.972 14 11.967C14 11.962 14 11.957 14 11.952C14 11.947 14 11.942 14 11.937C14 11.932 14 11.927 14 11.922C14 11.917 14 11.912 14 11.907C14 11.902 14 11.897 14 11.892C14 11.887 14 11.882 14 11.877C14 11.872 14 11.867 14 11.862C14 11.857 14 11.852 14 11.847C14 11.842 14 11.837 14 11.832C14 11.827 14 11.822 14 11.817C14 11.812 14 11.807 14 11.802C14 11.7971 14 11.7921 14 11.7871C14 11.7821 14 11.7771 14 11.7721C14 11.7671 14 11.7621 14 11.7571C14 11.7521 14 11.7471 14 11.7421C14 11.7371 14 11.7321 14 11.7271C14 11.7221 14 11.7171 14 11.7122C14 11.7072 14 11.7022 14 11.6972C14 11.6922 14 11.6872 14 11.6822C14 11.6772 14 11.6722 14 11.6672C14 11.6622 14 11.6573 14 11.6523C14 11.6473 14 11.6423 14 11.6373C14 11.6323 14 11.6273 14 11.6223C14 11.6174 14 11.6124 14 11.6074C14 11.6024 14 11.5974 14 11.5924C14 11.5874 14 11.5825 14 11.5775C14 11.5725 14 11.5675 14 11.5625C14 11.5575 14 11.5526 14 11.5476C14 11.5426 14 11.5376 14 11.5326C14 11.5277 14 11.5227 14 11.5177C14 11.5127 14 11.5077 14 11.5028C14 11.4978 14 11.4928 14 11.4878C14 11.4829 14 11.4779 14 11.4729C14 11.4679 14 11.463 14 11.458C14 11.453 14 11.448 14 11.4431C14 11.4381 14 11.4331 14 11.4281C14 11.4232 14 11.4182 14 11.4132C14 11.4083 14 11.4033 14 11.3983C14 11.3934 14 11.3884 14 11.3834C14 11.3785 14 11.3735 14 11.3685C14 11.3636 14 11.3586 14 11.3536C14 11.3487 14 11.3437 14 11.3388C14 11.3338 14 11.3288 14 11.3239C14 11.3189 14 11.314 14 11.309C14 11.304 14 11.2991 14 11.2941C14 11.2892 14 11.2842 14 11.2793C14 11.2743 14 11.2694 14 11.2644C14 11.2595 14 11.2545 14 11.2496C14 11.2446 14 11.2397 14 11.2347C14 11.2298 14 11.2248 14 11.2199C14 11.2149 14 11.21 14 11.205C14 11.2001 14 11.1951 14 11.1902C14 11.1853 14 11.1803 14 11.1754C14 11.1704 14 11.1655 14 11.1606C14 11.1556 14 11.1507 14 11.1458C14 11.1408 14 11.1359 14 11.131C14 11.126 14 11.1211 14 11.1162C14 11.1112 14 11.1063 14 11.1014C14 11.0964 14 11.0915 14 11.0866C14 11.0817 14 11.0767 14 11.0718C14 11.0669 14 11.062 14 11.057C14 11.0521 14 11.0472 14 11.0423C14 11.0374 14 11.0324 14 11.0275C14 11.0226 14 11.0177 14 11.0128C14 11.0079 14 11.0029 14 10.998C14 10.9931 14 10.9882 14 10.9833C14 10.9784 14 10.9735 14 10.9686C14 10.9637 14 10.9588 14 10.9539C14 10.949 14 10.9441 14 10.9392C14 10.9343 14 10.9294 14 10.9245C14 10.9196 14 10.9147 14 10.9098C14 10.9049 14 10.9 14 10.8951C14 10.8902 14 10.8853 14 10.8804C14 10.8755 14 10.8706 14 10.8658C14 10.8609 14 10.856 14 10.8511C14 10.8462 14 10.8413 14 10.8364C14 10.8316 14 10.8267 14 10.8218C14 10.8169 14 10.8121 14 10.8072C14 10.8023 14 10.7974 14 10.7926C14 10.7877 14 10.7828 14 10.7779C14 10.7731 14 10.7682 14 10.7633C14 10.7585 14 10.7536 14 10.7488C14 10.7439 14 10.739 14 10.7342C14 10.7293 14 10.7245 14 10.7196C14 10.7147 14 10.7099 14 10.705C14 10.7002 14 10.6953 14 10.6905C14 10.6856 14 10.6808 14 10.6759C14 10.6711 14 10.6663 14 10.6614C14 10.6566 14 10.6517 14 10.6469C14 10.642 14 10.6372 14 10.6324C14 10.6275 14 10.6227 14 10.6179C14 10.613 14 10.6082 14 10.6034C14 10.5986 14 10.5937 14 10.5889C14 10.5841 14 10.5793 14 10.5744C14 10.5696 14 10.5648 14 10.56C14 10.5552 14 10.5503 14 10.5455C14 10.5407 14 10.5359 14 10.5311C14 10.5263 14 10.5215 14 10.5167C14 10.5119 14 10.5071 14 10.5023C14 10.4975 14 10.4927 14 10.4879C14 10.4831 14 10.4783 14 10.4735C14 10.4687 14 10.4639 14 10.4591C14 10.4543 14 10.4495 14 10.4447C14 10.4399 14 10.4352 14 10.4304C14 10.4256 14 10.4208 14 10.416C14 10.4113 14 10.4065 14 10.4017C14 10.3969 14 10.3922 14 10.3874C14 10.3826 14 10.3778 14 10.3731C14 10.3683 14 10.3636 14 10.3588C14 10.354 14 10.3493 14 10.3445C14 10.3398 14 10.335 14 10.3302C14 10.3255 14 10.3207 14 10.316C14 10.3112 14 10.3065 14 10.3018C14 10.297 14 10.2923 14 10.2875C14 10.2828 14 10.278 14 10.2733C14 10.2686 14 10.2638 14 10.2591C14 10.2544 14 10.2497 14 10.2449C14 10.2402 14 10.2355 14 10.2308C14 10.226 14 10.2213 14 10.2166C14 10.2119 14 10.2072 14 10.2024C14 10.1977 14 10.193 14 10.1883C14 10.1836 14 10.1789 14 10.1742C14 10.1695 14 10.1648 14 10.1601C14 10.1554 14 10.1507 14 10.146C14 10.1413 14 10.1366 14 10.1319C14 10.1272 14 10.1225 14 10.1179C14 10.1132 14 10.1085 14 10.1038C14 10.0991 14 10.0945 14 10.0898C14 10.0851 14 10.0804 14 10.0758C14 10.0711 14 10.0664 14 10.0618C14 10.0571 14 10.0524 14 10.0478C14 10.0431 14 10.0385 14 10.0338C14 10.0292 14 10.0245 14 10.0199C14 10.0152 14 10.0106 14 10.0059C14 10.0013 14 9.99663 14 9.99199C14 9.98735 14 9.98271 14 9.97808C14 9.97344 14 9.96881 14 9.96418C14 9.95956 14 9.95493 14 9.95031C14 9.94568 14 9.94106 14 9.93644C14 9.93183 14 9.92721 14 9.9226C14 9.91799 14 9.91338 14 9.90877C14 9.90416 14 9.89956 14 9.89495C14 9.89035 14 9.88575 14 9.88116C14 9.87656 14 9.87197 14 9.86738C14 9.86279 14 9.8582 14 9.85361C14 9.84903 14 9.84445 14 9.83987C14 9.83529 14 9.83071 14 9.82614C14 9.82156 14 9.81699 14 9.81242C14 9.80785 14 9.80329 14 9.79873C14 9.79416 14 9.7896 14 9.78505C14 9.78049 14 9.77593 14 9.77138C14 9.76683 14 9.76228 14 9.75774C14 9.75319 14 9.74865 14 9.74411C14 9.73957 14 9.73504 14 9.7305C14 9.72597 14 9.72144 14 9.71691C14 9.71238 14 9.70786 14 9.70334C14 9.69882 14 9.6943 14 9.68978C14 9.68527 14 9.68075 14 9.67624C14 9.67173 14 9.66723 14 9.66272C14 9.65822 14 9.65372 14 9.64922C14 9.64473 14 9.64023 14 9.63574C14 9.63125 14 9.62676 14 9.62228C14 9.61779 14 9.61331 14 9.60883C14 9.60435 14 9.59988 14 9.5954C14 9.59093 14 9.58646 14 9.582C14 9.57753 14 9.57307 14 9.56861C14 9.56415 14 9.55969 14 9.55524C14 9.55078 14 9.54633 14 9.54189C14 9.53744 14 9.533 14 9.52855C14 9.52411 14 9.51968 14 9.51524C14 9.51081 14 9.50638 14 9.50195C14 9.49752 14 9.4931 14 9.48868C14 9.48426 14 9.47984 14 9.47543C14 9.47101 14 9.4666 14 9.46219C14 9.45778 14 9.45338 14 9.44898C14 9.44458 14 9.44018 14 9.43579C14 9.43139 14 9.427 14 9.42261C14 9.41823 14 9.41384 14 9.40946C14 9.40508 14 9.4007 14 9.39633C14 9.39196 14 9.38759 14 9.38322C14 9.37885 14 9.37449 14 9.37013C14 9.36577 14 9.36141 14 9.35706C14 9.3527 14 9.34836 14 9.34401C14 9.33966 14 9.33532 14 9.33098C14 9.32664 14 9.32231 14 9.31797C14 9.31364 14 9.30931 14 9.30499C14 9.30066 14 9.29634 14 9.29202C14 9.28771 14 9.28339 14 9.27908C14 9.27477 14 9.27046 14 9.26616C14 9.26186 14 9.25756 14 9.25326C14 9.24897 14 9.24467 14 9.24038C14 9.23609 14 9.23181 14 9.22753C14 9.22325 14 9.21897 14 9.21469C14 9.21042 14 9.20615 14 9.20188C14 9.19762 14 9.19335 14 9.18909C14 9.18483 14 9.18058 14 9.17633C14 9.17207 14 9.16783 14 9.16358C14 9.15934 14 9.1551 14 9.15086C14 9.14662 14 9.14239 14 9.13816C14 9.13393 14 9.12971 14 9.12548C14 9.12126 14 9.11704 14 9.11283C14 9.10862 14 9.10441 14 9.1002C14 9.09599 14 9.09179 14 9.08759C14 9.08339 14 9.0792 14 9.07501C14 9.07082 14 9.06663 14 9.06245C14 9.05827 14 9.05409 14 9.04991C14 9.04574 14 9.04157 14 9.0374C14 9.03323 14 9.02907 14 9.02491C14 9.02075 14 9.01659 14 9.01244C14 9.00829 14 9.00414 14 9H11ZM12.5 10.5C15.1653 10.5 17.8585 9.97237 19.9361 8.63677C22.0926 7.2505 23.5 5.03705 23.5 2H20.5C20.5 3.96295 19.6574 5.2495 18.3139 6.11323C16.8915 7.02763 14.8347 7.5 12.5 7.5V10.5ZM12.5 10.5C14.6624 10.5 16.724 11.2618 18.225 12.3875C19.7595 13.5383 20.5 14.8935 20.5 16H23.5C23.5 13.6065 21.9905 11.4617 20.025 9.9875C18.026 8.48823 15.3376 7.5 12.5 7.5V10.5Z" fill="#4785E7"/>
</svg>
